%TF.GenerationSoftware,KiCad,Pcbnew,10.0.5*%
%TF.CreationDate,2026-08-26T15:58:32+03:00*%
%TF.ProjectId,5V_1Fan,35565f31-4661-46e2-9e6b-696361645f70,rev?*%
%TF.SameCoordinates,Original*%
%TF.FileFunction,Soldermask,Top*%
%TF.FilePolarity,Negative*%
%FSLAX46Y46*%
G04 Gerber Fmt 4.6, Leading zero omitted, Abs format (unit mm)*
G04 Created by KiCad (PCBNEW 10.0.5) date 2026-08-26 15:58:32*
%MOMM*%
%LPD*%
G01*
G04 APERTURE LIST*
G04 Aperture macros list*
%AMRoundRect*
0 Rectangle with rounded corners*
0 $1 Rounding radius*
0 $2 $3 $4 $5 $6 $7 $8 $9 X,Y pos of 4 corners*
0 Add a 4 corners polygon primitive as box body*
4,1,4,$2,$3,$4,$5,$6,$7,$8,$9,$2,$3,0*
0 Add four circle primitives for the rounded corners*
1,1,$1+$1,$2,$3*
1,1,$1+$1,$4,$5*
1,1,$1+$1,$6,$7*
1,1,$1+$1,$8,$9*
0 Add four rect primitives between the rounded corners*
20,1,$1+$1,$2,$3,$4,$5,0*
20,1,$1+$1,$4,$5,$6,$7,0*
20,1,$1+$1,$6,$7,$8,$9,0*
20,1,$1+$1,$8,$9,$2,$3,0*%
G04 Aperture macros list end*
%ADD10O,1.200000X1.750000*%
%ADD11RoundRect,0.250000X0.350000X0.625000X-0.350000X0.625000X-0.350000X-0.625000X0.350000X-0.625000X0*%
%ADD12RoundRect,0.250000X-0.350000X-0.450000X0.350000X-0.450000X0.350000X0.450000X-0.350000X0.450000X0*%
%ADD13C,3.200000*%
%ADD14RoundRect,0.250000X-0.620000X-0.845000X0.620000X-0.845000X0.620000X0.845000X-0.620000X0.845000X0*%
%ADD15O,1.740000X2.190000*%
%ADD16RoundRect,0.150000X-0.825000X-0.150000X0.825000X-0.150000X0.825000X0.150000X-0.825000X0.150000X0*%
%ADD17RoundRect,0.250000X-0.412500X-0.650000X0.412500X-0.650000X0.412500X0.650000X-0.412500X0.650000X0*%
%ADD18RoundRect,0.150000X0.587500X0.150000X-0.587500X0.150000X-0.587500X-0.150000X0.587500X-0.150000X0*%
%ADD19RoundRect,0.250000X-0.450000X0.350000X-0.450000X-0.350000X0.450000X-0.350000X0.450000X0.350000X0*%
%ADD20R,1.700000X1.700000*%
%ADD21C,1.700000*%
%ADD22RoundRect,0.150000X-0.587500X-0.150000X0.587500X-0.150000X0.587500X0.150000X-0.587500X0.150000X0*%
%ADD23RoundRect,0.250000X0.750000X-0.600000X0.750000X0.600000X-0.750000X0.600000X-0.750000X-0.600000X0*%
%ADD24O,2.000000X1.700000*%
%ADD25RoundRect,0.250001X-0.462499X-0.624999X0.462499X-0.624999X0.462499X0.624999X-0.462499X0.624999X0*%
%ADD26RoundRect,0.250000X-0.650000X0.412500X-0.650000X-0.412500X0.650000X-0.412500X0.650000X0.412500X0*%
%ADD27RoundRect,0.250000X0.350000X0.450000X-0.350000X0.450000X-0.350000X-0.450000X0.350000X-0.450000X0*%
%ADD28RoundRect,0.250000X-0.337500X-0.475000X0.337500X-0.475000X0.337500X0.475000X-0.337500X0.475000X0*%
%ADD29RoundRect,0.250000X0.450000X-0.350000X0.450000X0.350000X-0.450000X0.350000X-0.450000X-0.350000X0*%
G04 APERTURE END LIST*
D10*
%TO.C,J5*%
X156406760Y-80159086D03*
X158406760Y-80159086D03*
D11*
X160406760Y-80159086D03*
%TD*%
D12*
%TO.C,R5*%
X164438760Y-73301086D03*
X162438760Y-73301086D03*
%TD*%
%TO.C,R6*%
X166613760Y-75460086D03*
X164613760Y-75460086D03*
%TD*%
D13*
%TO.C,H1*%
X155132760Y-56038086D03*
%TD*%
D14*
%TO.C,J3*%
X175132760Y-56038086D03*
D15*
X177672760Y-56038086D03*
X180212760Y-56038086D03*
X182752760Y-56038086D03*
%TD*%
D16*
%TO.C,U1*%
X172657760Y-69133086D03*
X172657760Y-70403086D03*
X172657760Y-71673086D03*
X172657760Y-72943086D03*
X177607760Y-72943086D03*
X177607760Y-71673086D03*
X177607760Y-70403086D03*
X177607760Y-69133086D03*
%TD*%
D11*
%TO.C,J2*%
X168137760Y-80159086D03*
D10*
X166137760Y-80159086D03*
%TD*%
D17*
%TO.C,C3*%
X172013760Y-61617086D03*
X175138760Y-61617086D03*
%TD*%
D18*
%TO.C,Q2*%
X165837760Y-67901086D03*
X165837760Y-66001086D03*
X163962760Y-66951086D03*
%TD*%
D19*
%TO.C,R2*%
X177805760Y-61490086D03*
X177805760Y-63490086D03*
%TD*%
D12*
%TO.C,R1*%
X181107760Y-67205086D03*
X183107760Y-67205086D03*
%TD*%
D20*
%TO.C,J1*%
X173360760Y-80159086D03*
D21*
X175900760Y-80159086D03*
X178440760Y-80159086D03*
%TD*%
D22*
%TO.C,Q1*%
X180883760Y-61429086D03*
X180883760Y-63329086D03*
X182758760Y-62379086D03*
%TD*%
D23*
%TO.C,J4*%
X155132760Y-71038086D03*
D24*
X155132760Y-68538086D03*
%TD*%
D25*
%TO.C,F1*%
X160951260Y-71015086D03*
X163926260Y-71015086D03*
%TD*%
D26*
%TO.C,C4*%
X169296760Y-66062086D03*
X169296760Y-69187086D03*
%TD*%
D27*
%TO.C,R4*%
X183107760Y-72920086D03*
X181107760Y-72920086D03*
%TD*%
D28*
%TO.C,C1*%
X172595260Y-66038086D03*
X174670260Y-66038086D03*
%TD*%
%TO.C,C2*%
X181095260Y-70380086D03*
X183170260Y-70380086D03*
%TD*%
D13*
%TO.C,H2*%
X185933760Y-80159086D03*
%TD*%
D29*
%TO.C,R3*%
X185552760Y-63363086D03*
X185552760Y-61363086D03*
%TD*%
M02*
