%TF.GenerationSoftware,KiCad,Pcbnew,10.0.5*%
%TF.CreationDate,2026-08-26T15:58:32+03:00*%
%TF.ProjectId,5V_1Fan,35565f31-4661-46e2-9e6b-696361645f70,rev?*%
%TF.SameCoordinates,Original*%
%TF.FileFunction,Legend,Bot*%
%TF.FilePolarity,Positive*%
%FSLAX46Y46*%
G04 Gerber Fmt 4.6, Leading zero omitted, Abs format (unit mm)*
G04 Created by KiCad (PCBNEW 10.0.5) date 2026-08-26 15:58:32*
%MOMM*%
%LPD*%
G01*
G04 APERTURE LIST*
G04 Aperture macros list*
%AMRoundRect*
0 Rectangle with rounded corners*
0 $1 Rounding radius*
0 $2 $3 $4 $5 $6 $7 $8 $9 X,Y pos of 4 corners*
0 Add a 4 corners polygon primitive as box body*
4,1,4,$2,$3,$4,$5,$6,$7,$8,$9,$2,$3,0*
0 Add four circle primitives for the rounded corners*
1,1,$1+$1,$2,$3*
1,1,$1+$1,$4,$5*
1,1,$1+$1,$6,$7*
1,1,$1+$1,$8,$9*
0 Add four rect primitives between the rounded corners*
20,1,$1+$1,$2,$3,$4,$5,0*
20,1,$1+$1,$4,$5,$6,$7,0*
20,1,$1+$1,$6,$7,$8,$9,0*
20,1,$1+$1,$8,$9,$2,$3,0*%
G04 Aperture macros list end*
%ADD10C,0.150000*%
%ADD11C,0.240000*%
%ADD12C,0.003142*%
%ADD13O,1.200000X1.750000*%
%ADD14RoundRect,0.250000X0.350000X0.625000X-0.350000X0.625000X-0.350000X-0.625000X0.350000X-0.625000X0*%
%ADD15C,3.200000*%
%ADD16RoundRect,0.250000X-0.620000X-0.845000X0.620000X-0.845000X0.620000X0.845000X-0.620000X0.845000X0*%
%ADD17O,1.740000X2.190000*%
%ADD18R,1.700000X1.700000*%
%ADD19C,1.700000*%
%ADD20RoundRect,0.250000X0.750000X-0.600000X0.750000X0.600000X-0.750000X0.600000X-0.750000X-0.600000X0*%
%ADD21O,2.000000X1.700000*%
G04 APERTURE END LIST*
D10*
X171039599Y-74425143D02*
X170991980Y-74377524D01*
X170991980Y-74377524D02*
X170896742Y-74329905D01*
X170896742Y-74329905D02*
X170658647Y-74329905D01*
X170658647Y-74329905D02*
X170563409Y-74377524D01*
X170563409Y-74377524D02*
X170515790Y-74425143D01*
X170515790Y-74425143D02*
X170468171Y-74520381D01*
X170468171Y-74520381D02*
X170468171Y-74615619D01*
X170468171Y-74615619D02*
X170515790Y-74758476D01*
X170515790Y-74758476D02*
X171087218Y-75329905D01*
X171087218Y-75329905D02*
X170468171Y-75329905D01*
X169849123Y-74329905D02*
X169753885Y-74329905D01*
X169753885Y-74329905D02*
X169658647Y-74377524D01*
X169658647Y-74377524D02*
X169611028Y-74425143D01*
X169611028Y-74425143D02*
X169563409Y-74520381D01*
X169563409Y-74520381D02*
X169515790Y-74710857D01*
X169515790Y-74710857D02*
X169515790Y-74948952D01*
X169515790Y-74948952D02*
X169563409Y-75139428D01*
X169563409Y-75139428D02*
X169611028Y-75234666D01*
X169611028Y-75234666D02*
X169658647Y-75282286D01*
X169658647Y-75282286D02*
X169753885Y-75329905D01*
X169753885Y-75329905D02*
X169849123Y-75329905D01*
X169849123Y-75329905D02*
X169944361Y-75282286D01*
X169944361Y-75282286D02*
X169991980Y-75234666D01*
X169991980Y-75234666D02*
X170039599Y-75139428D01*
X170039599Y-75139428D02*
X170087218Y-74948952D01*
X170087218Y-74948952D02*
X170087218Y-74710857D01*
X170087218Y-74710857D02*
X170039599Y-74520381D01*
X170039599Y-74520381D02*
X169991980Y-74425143D01*
X169991980Y-74425143D02*
X169944361Y-74377524D01*
X169944361Y-74377524D02*
X169849123Y-74329905D01*
X169134837Y-74425143D02*
X169087218Y-74377524D01*
X169087218Y-74377524D02*
X168991980Y-74329905D01*
X168991980Y-74329905D02*
X168753885Y-74329905D01*
X168753885Y-74329905D02*
X168658647Y-74377524D01*
X168658647Y-74377524D02*
X168611028Y-74425143D01*
X168611028Y-74425143D02*
X168563409Y-74520381D01*
X168563409Y-74520381D02*
X168563409Y-74615619D01*
X168563409Y-74615619D02*
X168611028Y-74758476D01*
X168611028Y-74758476D02*
X169182456Y-75329905D01*
X169182456Y-75329905D02*
X168563409Y-75329905D01*
X167706266Y-74329905D02*
X167896742Y-74329905D01*
X167896742Y-74329905D02*
X167991980Y-74377524D01*
X167991980Y-74377524D02*
X168039599Y-74425143D01*
X168039599Y-74425143D02*
X168134837Y-74568000D01*
X168134837Y-74568000D02*
X168182456Y-74758476D01*
X168182456Y-74758476D02*
X168182456Y-75139428D01*
X168182456Y-75139428D02*
X168134837Y-75234666D01*
X168134837Y-75234666D02*
X168087218Y-75282286D01*
X168087218Y-75282286D02*
X167991980Y-75329905D01*
X167991980Y-75329905D02*
X167801504Y-75329905D01*
X167801504Y-75329905D02*
X167706266Y-75282286D01*
X167706266Y-75282286D02*
X167658647Y-75234666D01*
X167658647Y-75234666D02*
X167611028Y-75139428D01*
X167611028Y-75139428D02*
X167611028Y-74901333D01*
X167611028Y-74901333D02*
X167658647Y-74806095D01*
X167658647Y-74806095D02*
X167706266Y-74758476D01*
X167706266Y-74758476D02*
X167801504Y-74710857D01*
X167801504Y-74710857D02*
X167991980Y-74710857D01*
X167991980Y-74710857D02*
X168087218Y-74758476D01*
X168087218Y-74758476D02*
X168134837Y-74806095D01*
X168134837Y-74806095D02*
X168182456Y-74901333D01*
X167182456Y-74948952D02*
X166420552Y-74948952D01*
X165753885Y-74329905D02*
X165658647Y-74329905D01*
X165658647Y-74329905D02*
X165563409Y-74377524D01*
X165563409Y-74377524D02*
X165515790Y-74425143D01*
X165515790Y-74425143D02*
X165468171Y-74520381D01*
X165468171Y-74520381D02*
X165420552Y-74710857D01*
X165420552Y-74710857D02*
X165420552Y-74948952D01*
X165420552Y-74948952D02*
X165468171Y-75139428D01*
X165468171Y-75139428D02*
X165515790Y-75234666D01*
X165515790Y-75234666D02*
X165563409Y-75282286D01*
X165563409Y-75282286D02*
X165658647Y-75329905D01*
X165658647Y-75329905D02*
X165753885Y-75329905D01*
X165753885Y-75329905D02*
X165849123Y-75282286D01*
X165849123Y-75282286D02*
X165896742Y-75234666D01*
X165896742Y-75234666D02*
X165944361Y-75139428D01*
X165944361Y-75139428D02*
X165991980Y-74948952D01*
X165991980Y-74948952D02*
X165991980Y-74710857D01*
X165991980Y-74710857D02*
X165944361Y-74520381D01*
X165944361Y-74520381D02*
X165896742Y-74425143D01*
X165896742Y-74425143D02*
X165849123Y-74377524D01*
X165849123Y-74377524D02*
X165753885Y-74329905D01*
X164849123Y-74758476D02*
X164944361Y-74710857D01*
X164944361Y-74710857D02*
X164991980Y-74663238D01*
X164991980Y-74663238D02*
X165039599Y-74568000D01*
X165039599Y-74568000D02*
X165039599Y-74520381D01*
X165039599Y-74520381D02*
X164991980Y-74425143D01*
X164991980Y-74425143D02*
X164944361Y-74377524D01*
X164944361Y-74377524D02*
X164849123Y-74329905D01*
X164849123Y-74329905D02*
X164658647Y-74329905D01*
X164658647Y-74329905D02*
X164563409Y-74377524D01*
X164563409Y-74377524D02*
X164515790Y-74425143D01*
X164515790Y-74425143D02*
X164468171Y-74520381D01*
X164468171Y-74520381D02*
X164468171Y-74568000D01*
X164468171Y-74568000D02*
X164515790Y-74663238D01*
X164515790Y-74663238D02*
X164563409Y-74710857D01*
X164563409Y-74710857D02*
X164658647Y-74758476D01*
X164658647Y-74758476D02*
X164849123Y-74758476D01*
X164849123Y-74758476D02*
X164944361Y-74806095D01*
X164944361Y-74806095D02*
X164991980Y-74853714D01*
X164991980Y-74853714D02*
X165039599Y-74948952D01*
X165039599Y-74948952D02*
X165039599Y-75139428D01*
X165039599Y-75139428D02*
X164991980Y-75234666D01*
X164991980Y-75234666D02*
X164944361Y-75282286D01*
X164944361Y-75282286D02*
X164849123Y-75329905D01*
X164849123Y-75329905D02*
X164658647Y-75329905D01*
X164658647Y-75329905D02*
X164563409Y-75282286D01*
X164563409Y-75282286D02*
X164515790Y-75234666D01*
X164515790Y-75234666D02*
X164468171Y-75139428D01*
X164468171Y-75139428D02*
X164468171Y-74948952D01*
X164468171Y-74948952D02*
X164515790Y-74853714D01*
X164515790Y-74853714D02*
X164563409Y-74806095D01*
X164563409Y-74806095D02*
X164658647Y-74758476D01*
X176294218Y-74663238D02*
X176056123Y-75329905D01*
X176056123Y-75329905D02*
X175818028Y-74663238D01*
X174913266Y-75329905D02*
X175484694Y-75329905D01*
X175198980Y-75329905D02*
X175198980Y-74329905D01*
X175198980Y-74329905D02*
X175294218Y-74472762D01*
X175294218Y-74472762D02*
X175389456Y-74568000D01*
X175389456Y-74568000D02*
X175484694Y-74615619D01*
X174484694Y-75234666D02*
X174437075Y-75282286D01*
X174437075Y-75282286D02*
X174484694Y-75329905D01*
X174484694Y-75329905D02*
X174532313Y-75282286D01*
X174532313Y-75282286D02*
X174484694Y-75234666D01*
X174484694Y-75234666D02*
X174484694Y-75329905D01*
X173818028Y-74329905D02*
X173722790Y-74329905D01*
X173722790Y-74329905D02*
X173627552Y-74377524D01*
X173627552Y-74377524D02*
X173579933Y-74425143D01*
X173579933Y-74425143D02*
X173532314Y-74520381D01*
X173532314Y-74520381D02*
X173484695Y-74710857D01*
X173484695Y-74710857D02*
X173484695Y-74948952D01*
X173484695Y-74948952D02*
X173532314Y-75139428D01*
X173532314Y-75139428D02*
X173579933Y-75234666D01*
X173579933Y-75234666D02*
X173627552Y-75282286D01*
X173627552Y-75282286D02*
X173722790Y-75329905D01*
X173722790Y-75329905D02*
X173818028Y-75329905D01*
X173818028Y-75329905D02*
X173913266Y-75282286D01*
X173913266Y-75282286D02*
X173960885Y-75234666D01*
X173960885Y-75234666D02*
X174008504Y-75139428D01*
X174008504Y-75139428D02*
X174056123Y-74948952D01*
X174056123Y-74948952D02*
X174056123Y-74710857D01*
X174056123Y-74710857D02*
X174008504Y-74520381D01*
X174008504Y-74520381D02*
X173960885Y-74425143D01*
X173960885Y-74425143D02*
X173913266Y-74377524D01*
X173913266Y-74377524D02*
X173818028Y-74329905D01*
X175849790Y-72424905D02*
X176325980Y-72424905D01*
X176325980Y-72424905D02*
X176373599Y-72901095D01*
X176373599Y-72901095D02*
X176325980Y-72853476D01*
X176325980Y-72853476D02*
X176230742Y-72805857D01*
X176230742Y-72805857D02*
X175992647Y-72805857D01*
X175992647Y-72805857D02*
X175897409Y-72853476D01*
X175897409Y-72853476D02*
X175849790Y-72901095D01*
X175849790Y-72901095D02*
X175802171Y-72996333D01*
X175802171Y-72996333D02*
X175802171Y-73234428D01*
X175802171Y-73234428D02*
X175849790Y-73329666D01*
X175849790Y-73329666D02*
X175897409Y-73377286D01*
X175897409Y-73377286D02*
X175992647Y-73424905D01*
X175992647Y-73424905D02*
X176230742Y-73424905D01*
X176230742Y-73424905D02*
X176325980Y-73377286D01*
X176325980Y-73377286D02*
X176373599Y-73329666D01*
X175516456Y-72424905D02*
X175183123Y-73424905D01*
X175183123Y-73424905D02*
X174849790Y-72424905D01*
X174230742Y-72948714D02*
X174230742Y-73139190D01*
X174183123Y-73139190D02*
X174183123Y-72948714D01*
X174135504Y-72901095D02*
X174135504Y-73186809D01*
X174087885Y-73139190D02*
X174087885Y-72948714D01*
X174040266Y-72948714D02*
X174040266Y-73139190D01*
X174230742Y-73091571D02*
X174135504Y-73186809D01*
X174135504Y-73186809D02*
X174040266Y-73091571D01*
X174230742Y-72996333D02*
X174135504Y-72901095D01*
X174135504Y-72901095D02*
X174040266Y-72996333D01*
X174230742Y-72948714D02*
X174135504Y-72901095D01*
X174135504Y-72901095D02*
X174040266Y-72948714D01*
X174040266Y-72948714D02*
X173992647Y-73043952D01*
X173992647Y-73043952D02*
X174040266Y-73139190D01*
X174040266Y-73139190D02*
X174135504Y-73186809D01*
X174135504Y-73186809D02*
X174230742Y-73139190D01*
X174230742Y-73139190D02*
X174278361Y-73043952D01*
X174278361Y-73043952D02*
X174230742Y-72948714D01*
X172754552Y-73424905D02*
X173325980Y-73424905D01*
X173040266Y-73424905D02*
X173040266Y-72424905D01*
X173040266Y-72424905D02*
X173135504Y-72567762D01*
X173135504Y-72567762D02*
X173230742Y-72663000D01*
X173230742Y-72663000D02*
X173325980Y-72710619D01*
X171230742Y-72901095D02*
X171564075Y-72901095D01*
X171564075Y-73424905D02*
X171564075Y-72424905D01*
X171564075Y-72424905D02*
X171087885Y-72424905D01*
X170754551Y-73139190D02*
X170278361Y-73139190D01*
X170849789Y-73424905D02*
X170516456Y-72424905D01*
X170516456Y-72424905D02*
X170183123Y-73424905D01*
X169849789Y-73424905D02*
X169849789Y-72424905D01*
X169849789Y-72424905D02*
X169278361Y-73424905D01*
X169278361Y-73424905D02*
X169278361Y-72424905D01*
X168516456Y-72948714D02*
X168516456Y-73139190D01*
X168468837Y-73139190D02*
X168468837Y-72948714D01*
X168421218Y-72901095D02*
X168421218Y-73186809D01*
X168373599Y-73139190D02*
X168373599Y-72948714D01*
X168325980Y-72948714D02*
X168325980Y-73139190D01*
X168516456Y-73091571D02*
X168421218Y-73186809D01*
X168421218Y-73186809D02*
X168325980Y-73091571D01*
X168516456Y-72996333D02*
X168421218Y-72901095D01*
X168421218Y-72901095D02*
X168325980Y-72996333D01*
X168516456Y-72948714D02*
X168421218Y-72901095D01*
X168421218Y-72901095D02*
X168325980Y-72948714D01*
X168325980Y-72948714D02*
X168278361Y-73043952D01*
X168278361Y-73043952D02*
X168325980Y-73139190D01*
X168325980Y-73139190D02*
X168421218Y-73186809D01*
X168421218Y-73186809D02*
X168516456Y-73139190D01*
X168516456Y-73139190D02*
X168564075Y-73043952D01*
X168564075Y-73043952D02*
X168516456Y-72948714D01*
X167040266Y-73424905D02*
X167611694Y-73424905D01*
X167325980Y-73424905D02*
X167325980Y-72424905D01*
X167325980Y-72424905D02*
X167421218Y-72567762D01*
X167421218Y-72567762D02*
X167516456Y-72663000D01*
X167516456Y-72663000D02*
X167611694Y-72710619D01*
X165992646Y-72424905D02*
X165421218Y-72424905D01*
X165706932Y-73424905D02*
X165706932Y-72424905D01*
X165087884Y-73424905D02*
X165087884Y-72424905D01*
X165087884Y-72901095D02*
X164516456Y-72901095D01*
X164516456Y-73424905D02*
X164516456Y-72424905D01*
D11*
X176644580Y-69909748D02*
X175958866Y-69909748D01*
X176301723Y-71109748D02*
X176301723Y-69909748D01*
X175558865Y-71109748D02*
X175558865Y-69909748D01*
X175044580Y-71109748D02*
X175044580Y-70481177D01*
X175044580Y-70481177D02*
X175101722Y-70366891D01*
X175101722Y-70366891D02*
X175216008Y-70309748D01*
X175216008Y-70309748D02*
X175387437Y-70309748D01*
X175387437Y-70309748D02*
X175501722Y-70366891D01*
X175501722Y-70366891D02*
X175558865Y-70424034D01*
X174016008Y-71052606D02*
X174130294Y-71109748D01*
X174130294Y-71109748D02*
X174358866Y-71109748D01*
X174358866Y-71109748D02*
X174473151Y-71052606D01*
X174473151Y-71052606D02*
X174530294Y-70938320D01*
X174530294Y-70938320D02*
X174530294Y-70481177D01*
X174530294Y-70481177D02*
X174473151Y-70366891D01*
X174473151Y-70366891D02*
X174358866Y-70309748D01*
X174358866Y-70309748D02*
X174130294Y-70309748D01*
X174130294Y-70309748D02*
X174016008Y-70366891D01*
X174016008Y-70366891D02*
X173958866Y-70481177D01*
X173958866Y-70481177D02*
X173958866Y-70595463D01*
X173958866Y-70595463D02*
X174530294Y-70709748D01*
X173444580Y-71109748D02*
X173444580Y-70309748D01*
X173444580Y-70538320D02*
X173387437Y-70424034D01*
X173387437Y-70424034D02*
X173330295Y-70366891D01*
X173330295Y-70366891D02*
X173216009Y-70309748D01*
X173216009Y-70309748D02*
X173101723Y-70309748D01*
X172701723Y-71109748D02*
X172701723Y-70309748D01*
X172701723Y-70424034D02*
X172644580Y-70366891D01*
X172644580Y-70366891D02*
X172530295Y-70309748D01*
X172530295Y-70309748D02*
X172358866Y-70309748D01*
X172358866Y-70309748D02*
X172244580Y-70366891D01*
X172244580Y-70366891D02*
X172187438Y-70481177D01*
X172187438Y-70481177D02*
X172187438Y-71109748D01*
X172187438Y-70481177D02*
X172130295Y-70366891D01*
X172130295Y-70366891D02*
X172016009Y-70309748D01*
X172016009Y-70309748D02*
X171844580Y-70309748D01*
X171844580Y-70309748D02*
X171730295Y-70366891D01*
X171730295Y-70366891D02*
X171673152Y-70481177D01*
X171673152Y-70481177D02*
X171673152Y-71109748D01*
X170930295Y-71109748D02*
X171044580Y-71052606D01*
X171044580Y-71052606D02*
X171101723Y-70995463D01*
X171101723Y-70995463D02*
X171158866Y-70881177D01*
X171158866Y-70881177D02*
X171158866Y-70538320D01*
X171158866Y-70538320D02*
X171101723Y-70424034D01*
X171101723Y-70424034D02*
X171044580Y-70366891D01*
X171044580Y-70366891D02*
X170930295Y-70309748D01*
X170930295Y-70309748D02*
X170758866Y-70309748D01*
X170758866Y-70309748D02*
X170644580Y-70366891D01*
X170644580Y-70366891D02*
X170587438Y-70424034D01*
X170587438Y-70424034D02*
X170530295Y-70538320D01*
X170530295Y-70538320D02*
X170530295Y-70881177D01*
X170530295Y-70881177D02*
X170587438Y-70995463D01*
X170587438Y-70995463D02*
X170644580Y-71052606D01*
X170644580Y-71052606D02*
X170758866Y-71109748D01*
X170758866Y-71109748D02*
X170930295Y-71109748D01*
X169444581Y-71109748D02*
X170016009Y-71109748D01*
X170016009Y-71109748D02*
X170016009Y-69909748D01*
X168873152Y-71109748D02*
X168987437Y-71052606D01*
X168987437Y-71052606D02*
X169044580Y-70995463D01*
X169044580Y-70995463D02*
X169101723Y-70881177D01*
X169101723Y-70881177D02*
X169101723Y-70538320D01*
X169101723Y-70538320D02*
X169044580Y-70424034D01*
X169044580Y-70424034D02*
X168987437Y-70366891D01*
X168987437Y-70366891D02*
X168873152Y-70309748D01*
X168873152Y-70309748D02*
X168701723Y-70309748D01*
X168701723Y-70309748D02*
X168587437Y-70366891D01*
X168587437Y-70366891D02*
X168530295Y-70424034D01*
X168530295Y-70424034D02*
X168473152Y-70538320D01*
X168473152Y-70538320D02*
X168473152Y-70881177D01*
X168473152Y-70881177D02*
X168530295Y-70995463D01*
X168530295Y-70995463D02*
X168587437Y-71052606D01*
X168587437Y-71052606D02*
X168701723Y-71109748D01*
X168701723Y-71109748D02*
X168873152Y-71109748D01*
X167787438Y-71109748D02*
X167901723Y-71052606D01*
X167901723Y-71052606D02*
X167958866Y-70995463D01*
X167958866Y-70995463D02*
X168016009Y-70881177D01*
X168016009Y-70881177D02*
X168016009Y-70538320D01*
X168016009Y-70538320D02*
X167958866Y-70424034D01*
X167958866Y-70424034D02*
X167901723Y-70366891D01*
X167901723Y-70366891D02*
X167787438Y-70309748D01*
X167787438Y-70309748D02*
X167616009Y-70309748D01*
X167616009Y-70309748D02*
X167501723Y-70366891D01*
X167501723Y-70366891D02*
X167444581Y-70424034D01*
X167444581Y-70424034D02*
X167387438Y-70538320D01*
X167387438Y-70538320D02*
X167387438Y-70881177D01*
X167387438Y-70881177D02*
X167444581Y-70995463D01*
X167444581Y-70995463D02*
X167501723Y-71052606D01*
X167501723Y-71052606D02*
X167616009Y-71109748D01*
X167616009Y-71109748D02*
X167787438Y-71109748D01*
X166873152Y-70309748D02*
X166873152Y-71509748D01*
X166873152Y-70366891D02*
X166758867Y-70309748D01*
X166758867Y-70309748D02*
X166530295Y-70309748D01*
X166530295Y-70309748D02*
X166416009Y-70366891D01*
X166416009Y-70366891D02*
X166358867Y-70424034D01*
X166358867Y-70424034D02*
X166301724Y-70538320D01*
X166301724Y-70538320D02*
X166301724Y-70881177D01*
X166301724Y-70881177D02*
X166358867Y-70995463D01*
X166358867Y-70995463D02*
X166416009Y-71052606D01*
X166416009Y-71052606D02*
X166530295Y-71109748D01*
X166530295Y-71109748D02*
X166758867Y-71109748D01*
X166758867Y-71109748D02*
X166873152Y-71052606D01*
D12*
X165644885Y-66253626D02*
X165612314Y-66254899D01*
X165579754Y-66256984D01*
X165547238Y-66259901D01*
X165514813Y-66263655D01*
X165482537Y-66268248D01*
X165450443Y-66273715D01*
X165418586Y-66280064D01*
X165387002Y-66287295D01*
X165355741Y-66295439D01*
X165324851Y-66304500D01*
X165294375Y-66314489D01*
X165249707Y-66330808D01*
X165205899Y-66348631D01*
X165162985Y-66367961D01*
X165121020Y-66388794D01*
X165080024Y-66411123D01*
X165040054Y-66434972D01*
X165001142Y-66460331D01*
X164963341Y-66487207D01*
X164926688Y-66515601D01*
X164891215Y-66545511D01*
X164856989Y-66576947D01*
X164824015Y-66609914D01*
X164792377Y-66644411D01*
X164762084Y-66680438D01*
X164733188Y-66717998D01*
X164705737Y-66757096D01*
X164675111Y-66805471D01*
X164647161Y-66855163D01*
X164621869Y-66906054D01*
X164599216Y-66958026D01*
X164579185Y-67010965D01*
X164561760Y-67064770D01*
X164546933Y-67119299D01*
X164534667Y-67174467D01*
X164524967Y-67230139D01*
X164517806Y-67286215D01*
X164511055Y-67399073D01*
X164514274Y-67512135D01*
X164527329Y-67624488D01*
X164550106Y-67735201D01*
X164582453Y-67843353D01*
X164602186Y-67896186D01*
X164624267Y-67948037D01*
X164648672Y-67998786D01*
X164675397Y-68048322D01*
X164704413Y-68096534D01*
X164735713Y-68143305D01*
X164769275Y-68188511D01*
X164805092Y-68232041D01*
X164843143Y-68273797D01*
X164883406Y-68313637D01*
X164925873Y-68351467D01*
X164970522Y-68387160D01*
X165002914Y-68410649D01*
X165036125Y-68432825D01*
X165070090Y-68453696D01*
X165104762Y-68473285D01*
X165140113Y-68491581D01*
X165176066Y-68508629D01*
X165212602Y-68524421D01*
X165249650Y-68538965D01*
X165287174Y-68552301D01*
X165325118Y-68564412D01*
X165363443Y-68575328D01*
X165402095Y-68585055D01*
X165441030Y-68593611D01*
X165480197Y-68601009D01*
X165519545Y-68607253D01*
X165559035Y-68612357D01*
X165591080Y-68615614D01*
X165623365Y-68618071D01*
X165655857Y-68619736D01*
X165688498Y-68620587D01*
X165721253Y-68620648D01*
X165754062Y-68619895D01*
X165786903Y-68618337D01*
X165819702Y-68615975D01*
X165852438Y-68612802D01*
X165885054Y-68608818D01*
X165917496Y-68604019D01*
X165949735Y-68598399D01*
X165981716Y-68591967D01*
X166013391Y-68584715D01*
X166044723Y-68576645D01*
X166075660Y-68567749D01*
X166126986Y-68550952D01*
X166176870Y-68532090D01*
X166225295Y-68511236D01*
X166272223Y-68488438D01*
X166317654Y-68463767D01*
X166361531Y-68437265D01*
X166403864Y-68409009D01*
X166444604Y-68379043D01*
X166483747Y-68347435D01*
X166521259Y-68314246D01*
X166557122Y-68279520D01*
X166591298Y-68243337D01*
X166623782Y-68205738D01*
X166654547Y-68166784D01*
X166683561Y-68126550D01*
X166710798Y-68085087D01*
X166736247Y-68042442D01*
X166759880Y-67998684D01*
X166781671Y-67953875D01*
X166801594Y-67908060D01*
X166819636Y-67861316D01*
X166835758Y-67813693D01*
X166849946Y-67765251D01*
X166862180Y-67716048D01*
X166872442Y-67666148D01*
X166880682Y-67615600D01*
X166886905Y-67564467D01*
X166891069Y-67512812D01*
X166892986Y-67464967D01*
X166298594Y-67464967D01*
X166294955Y-67521182D01*
X166287592Y-67576906D01*
X166276488Y-67631814D01*
X166261655Y-67685550D01*
X166243083Y-67737785D01*
X166220753Y-67788190D01*
X166194683Y-67836415D01*
X166164845Y-67882142D01*
X166131252Y-67925021D01*
X166093881Y-67964721D01*
X166052741Y-68000906D01*
X166007821Y-68033242D01*
X165959124Y-68061394D01*
X165906627Y-68085012D01*
X165850344Y-68103774D01*
X165838868Y-68106847D01*
X165827263Y-68109656D01*
X165815550Y-68112195D01*
X165803735Y-68114476D01*
X165791847Y-68116497D01*
X165779879Y-68118246D01*
X165767865Y-68119736D01*
X165755805Y-68120962D01*
X165743718Y-68121928D01*
X165731618Y-68122628D01*
X165719516Y-68123071D01*
X165707438Y-68123251D01*
X165695388Y-68123169D01*
X165683384Y-68122831D01*
X165671438Y-68122225D01*
X165659574Y-68121368D01*
X165596021Y-68112817D01*
X165536300Y-68098230D01*
X165480417Y-68077996D01*
X165428393Y-68052501D01*
X165380228Y-68022131D01*
X165335933Y-67987261D01*
X165295535Y-67948293D01*
X165259024Y-67905599D01*
X165226429Y-67859560D01*
X165197748Y-67810570D01*
X165173002Y-67759009D01*
X165152206Y-67705262D01*
X165135360Y-67649722D01*
X165122485Y-67592763D01*
X165113585Y-67534780D01*
X165108685Y-67476147D01*
X165107780Y-67417250D01*
X165110884Y-67358493D01*
X165118023Y-67300241D01*
X165129201Y-67242874D01*
X165144414Y-67186788D01*
X165163697Y-67132376D01*
X165187054Y-67080004D01*
X165214493Y-67030068D01*
X165246027Y-66982952D01*
X165281671Y-66939039D01*
X165321428Y-66898710D01*
X165365314Y-66862361D01*
X165413352Y-66830371D01*
X165465527Y-66803118D01*
X165521881Y-66780994D01*
X165582409Y-66764385D01*
X165595255Y-66761753D01*
X165608279Y-66759434D01*
X165621457Y-66757412D01*
X165634763Y-66755702D01*
X165648184Y-66754300D01*
X165661675Y-66753203D01*
X165675231Y-66752423D01*
X165688819Y-66751943D01*
X165702418Y-66751787D01*
X165715999Y-66751932D01*
X165729530Y-66752399D01*
X165743013Y-66753184D01*
X165756404Y-66754283D01*
X165769679Y-66755698D01*
X165782818Y-66757430D01*
X165795794Y-66759482D01*
X165854652Y-66772670D01*
X165909879Y-66791070D01*
X165961469Y-66814359D01*
X166009411Y-66842195D01*
X166053714Y-66874232D01*
X166094344Y-66910152D01*
X166131321Y-66949607D01*
X166164643Y-66992275D01*
X166194282Y-67037805D01*
X166220245Y-67085863D01*
X166242532Y-67136125D01*
X166261125Y-67188242D01*
X166276026Y-67241882D01*
X166287229Y-67296702D01*
X166294732Y-67352391D01*
X166298523Y-67408583D01*
X166298594Y-67464967D01*
X166892986Y-67464967D01*
X166893157Y-67460690D01*
X166893150Y-67408162D01*
X166891016Y-67355297D01*
X166886735Y-67302124D01*
X166882442Y-67264809D01*
X166877029Y-67227495D01*
X166870512Y-67190240D01*
X166862867Y-67153113D01*
X166854100Y-67116168D01*
X166844198Y-67079466D01*
X166833150Y-67043064D01*
X166820965Y-67007022D01*
X166807622Y-66971404D01*
X166793115Y-66936261D01*
X166777450Y-66901668D01*
X166760608Y-66867672D01*
X166742586Y-66834334D01*
X166723387Y-66801710D01*
X166702990Y-66769874D01*
X166681395Y-66738878D01*
X166641106Y-66686680D01*
X166598360Y-66637414D01*
X166553277Y-66591086D01*
X166505960Y-66547688D01*
X166456539Y-66507253D01*
X166405116Y-66469756D01*
X166351806Y-66435224D01*
X166296730Y-66403668D01*
X166239998Y-66375082D01*
X166181737Y-66349484D01*
X166122041Y-66326873D01*
X166061033Y-66307268D01*
X165998848Y-66290660D01*
X165935566Y-66277065D01*
X165871321Y-66266489D01*
X165806225Y-66258940D01*
X165774314Y-66256365D01*
X165742181Y-66254528D01*
X165709867Y-66253453D01*
X165677420Y-66253148D01*
X165644885Y-66253626D01*
G36*
X166891069Y-67512812D02*
G01*
X166886905Y-67564467D01*
X166880682Y-67615600D01*
X166872442Y-67666148D01*
X166862180Y-67716048D01*
X166849946Y-67765251D01*
X166835758Y-67813693D01*
X166819636Y-67861316D01*
X166801594Y-67908060D01*
X166781671Y-67953875D01*
X166759880Y-67998684D01*
X166736247Y-68042442D01*
X166710798Y-68085087D01*
X166683561Y-68126550D01*
X166654547Y-68166784D01*
X166623782Y-68205738D01*
X166591298Y-68243337D01*
X166557122Y-68279520D01*
X166521259Y-68314246D01*
X166483747Y-68347435D01*
X166444604Y-68379043D01*
X166403864Y-68409009D01*
X166361531Y-68437265D01*
X166317654Y-68463767D01*
X166272223Y-68488438D01*
X166225295Y-68511236D01*
X166176870Y-68532090D01*
X166126986Y-68550952D01*
X166075660Y-68567749D01*
X166044723Y-68576645D01*
X166013391Y-68584715D01*
X165981716Y-68591967D01*
X165949735Y-68598399D01*
X165917496Y-68604019D01*
X165885054Y-68608818D01*
X165852438Y-68612802D01*
X165819702Y-68615975D01*
X165786903Y-68618337D01*
X165754062Y-68619895D01*
X165721253Y-68620648D01*
X165688498Y-68620587D01*
X165655857Y-68619736D01*
X165623365Y-68618071D01*
X165591080Y-68615614D01*
X165559035Y-68612357D01*
X165519545Y-68607253D01*
X165480197Y-68601009D01*
X165441030Y-68593611D01*
X165402095Y-68585055D01*
X165363443Y-68575328D01*
X165325118Y-68564412D01*
X165287174Y-68552301D01*
X165249650Y-68538965D01*
X165212602Y-68524421D01*
X165176066Y-68508629D01*
X165140113Y-68491581D01*
X165104762Y-68473285D01*
X165070090Y-68453696D01*
X165036125Y-68432825D01*
X165002914Y-68410649D01*
X164970522Y-68387160D01*
X164925873Y-68351467D01*
X164883406Y-68313637D01*
X164843143Y-68273797D01*
X164805092Y-68232041D01*
X164769275Y-68188511D01*
X164735713Y-68143305D01*
X164704413Y-68096534D01*
X164675397Y-68048322D01*
X164648672Y-67998786D01*
X164624267Y-67948037D01*
X164602186Y-67896186D01*
X164582453Y-67843353D01*
X164550106Y-67735201D01*
X164527329Y-67624488D01*
X164514274Y-67512135D01*
X164511573Y-67417250D01*
X165107780Y-67417250D01*
X165108685Y-67476147D01*
X165113585Y-67534780D01*
X165122485Y-67592763D01*
X165135360Y-67649722D01*
X165152206Y-67705262D01*
X165173002Y-67759009D01*
X165197748Y-67810570D01*
X165226429Y-67859560D01*
X165259024Y-67905599D01*
X165295535Y-67948293D01*
X165335933Y-67987261D01*
X165380228Y-68022131D01*
X165428393Y-68052501D01*
X165480417Y-68077996D01*
X165536300Y-68098230D01*
X165596021Y-68112817D01*
X165659574Y-68121368D01*
X165671438Y-68122225D01*
X165683384Y-68122831D01*
X165695388Y-68123169D01*
X165707438Y-68123251D01*
X165719516Y-68123071D01*
X165731618Y-68122628D01*
X165743718Y-68121928D01*
X165755805Y-68120962D01*
X165767865Y-68119736D01*
X165779879Y-68118246D01*
X165791847Y-68116497D01*
X165803735Y-68114476D01*
X165815550Y-68112195D01*
X165827263Y-68109656D01*
X165838868Y-68106847D01*
X165850344Y-68103774D01*
X165906627Y-68085012D01*
X165959124Y-68061394D01*
X166007821Y-68033242D01*
X166052741Y-68000906D01*
X166093881Y-67964721D01*
X166131252Y-67925021D01*
X166164845Y-67882142D01*
X166194683Y-67836415D01*
X166220753Y-67788190D01*
X166243083Y-67737785D01*
X166261655Y-67685550D01*
X166276488Y-67631814D01*
X166287592Y-67576906D01*
X166294955Y-67521182D01*
X166298594Y-67464967D01*
X166298523Y-67408583D01*
X166294732Y-67352391D01*
X166287229Y-67296702D01*
X166276026Y-67241882D01*
X166261125Y-67188242D01*
X166242532Y-67136125D01*
X166220245Y-67085863D01*
X166194282Y-67037805D01*
X166164643Y-66992275D01*
X166131321Y-66949607D01*
X166094344Y-66910152D01*
X166053714Y-66874232D01*
X166009411Y-66842195D01*
X165961469Y-66814359D01*
X165909879Y-66791070D01*
X165854652Y-66772670D01*
X165795794Y-66759482D01*
X165782818Y-66757430D01*
X165769679Y-66755698D01*
X165756404Y-66754283D01*
X165743013Y-66753184D01*
X165729530Y-66752399D01*
X165715999Y-66751932D01*
X165702418Y-66751787D01*
X165688819Y-66751943D01*
X165675231Y-66752423D01*
X165661675Y-66753203D01*
X165648184Y-66754300D01*
X165634763Y-66755702D01*
X165621457Y-66757412D01*
X165608279Y-66759434D01*
X165595255Y-66761753D01*
X165582409Y-66764385D01*
X165521881Y-66780994D01*
X165465527Y-66803118D01*
X165413352Y-66830371D01*
X165365314Y-66862361D01*
X165321428Y-66898710D01*
X165281671Y-66939039D01*
X165246027Y-66982952D01*
X165214493Y-67030068D01*
X165187054Y-67080004D01*
X165163697Y-67132376D01*
X165144414Y-67186788D01*
X165129201Y-67242874D01*
X165118023Y-67300241D01*
X165110884Y-67358493D01*
X165107780Y-67417250D01*
X164511573Y-67417250D01*
X164511055Y-67399073D01*
X164517806Y-67286215D01*
X164524967Y-67230139D01*
X164534667Y-67174467D01*
X164546933Y-67119299D01*
X164561760Y-67064770D01*
X164579185Y-67010965D01*
X164599216Y-66958026D01*
X164621869Y-66906054D01*
X164647161Y-66855163D01*
X164675111Y-66805471D01*
X164705737Y-66757096D01*
X164733188Y-66717998D01*
X164762084Y-66680438D01*
X164792377Y-66644411D01*
X164824015Y-66609914D01*
X164856989Y-66576947D01*
X164891215Y-66545511D01*
X164926688Y-66515601D01*
X164963341Y-66487207D01*
X165001142Y-66460331D01*
X165040054Y-66434972D01*
X165080024Y-66411123D01*
X165121020Y-66388794D01*
X165162985Y-66367961D01*
X165205899Y-66348631D01*
X165249707Y-66330808D01*
X165294375Y-66314489D01*
X165324851Y-66304500D01*
X165355741Y-66295439D01*
X165387002Y-66287295D01*
X165418586Y-66280064D01*
X165450443Y-66273715D01*
X165482537Y-66268248D01*
X165514813Y-66263655D01*
X165547238Y-66259901D01*
X165579754Y-66256984D01*
X165612314Y-66254899D01*
X165644885Y-66253626D01*
X165677420Y-66253148D01*
X165709867Y-66253453D01*
X165742181Y-66254528D01*
X165774314Y-66256365D01*
X165806225Y-66258940D01*
X165871321Y-66266489D01*
X165935566Y-66277065D01*
X165998848Y-66290660D01*
X166061033Y-66307268D01*
X166122041Y-66326873D01*
X166181737Y-66349484D01*
X166239998Y-66375082D01*
X166296730Y-66403668D01*
X166351806Y-66435224D01*
X166405116Y-66469756D01*
X166456539Y-66507253D01*
X166505960Y-66547688D01*
X166553277Y-66591086D01*
X166598360Y-66637414D01*
X166641106Y-66686680D01*
X166681395Y-66738878D01*
X166702990Y-66769874D01*
X166723387Y-66801710D01*
X166742586Y-66834334D01*
X166760608Y-66867672D01*
X166777450Y-66901668D01*
X166793115Y-66936261D01*
X166807622Y-66971404D01*
X166820965Y-67007022D01*
X166833150Y-67043064D01*
X166844198Y-67079466D01*
X166854100Y-67116168D01*
X166862867Y-67153113D01*
X166870512Y-67190240D01*
X166877029Y-67227495D01*
X166882442Y-67264809D01*
X166886735Y-67302124D01*
X166891016Y-67355297D01*
X166893150Y-67408162D01*
X166893157Y-67460690D01*
X166892986Y-67464967D01*
X166891069Y-67512812D01*
G37*
X163163419Y-66259291D02*
X163083342Y-66269020D01*
X163005132Y-66284085D01*
X162929184Y-66304605D01*
X162855895Y-66330688D01*
X162785683Y-66362448D01*
X162718949Y-66400009D01*
X162687000Y-66421000D01*
X162656069Y-66443481D01*
X162626213Y-66467477D01*
X162597470Y-66492991D01*
X162569898Y-66520042D01*
X162543548Y-66548644D01*
X162518464Y-66578807D01*
X162494699Y-66610554D01*
X162472294Y-66643897D01*
X162451320Y-66678843D01*
X162431814Y-66715415D01*
X162413820Y-66753625D01*
X162397395Y-66793483D01*
X162382599Y-66835007D01*
X162373097Y-66865186D01*
X162364423Y-66895650D01*
X162356669Y-66926364D01*
X162349910Y-66957304D01*
X162344234Y-66988443D01*
X162339712Y-67019740D01*
X162336433Y-67051179D01*
X162335279Y-67066933D01*
X162334468Y-67082704D01*
X162893700Y-67082704D01*
X162900370Y-67052778D01*
X162908327Y-67022920D01*
X162917596Y-66993333D01*
X162928259Y-66964204D01*
X162940368Y-66935729D01*
X162953971Y-66908119D01*
X162969124Y-66881543D01*
X162985894Y-66856206D01*
X163004332Y-66832298D01*
X163024501Y-66810027D01*
X163035250Y-66799554D01*
X163046448Y-66789567D01*
X163058108Y-66780077D01*
X163070229Y-66771123D01*
X163082827Y-66762723D01*
X163095905Y-66754892D01*
X163109473Y-66747673D01*
X163123535Y-66741072D01*
X163138100Y-66735123D01*
X163153175Y-66729844D01*
X163168762Y-66725260D01*
X163184876Y-66721407D01*
X163214981Y-66716234D01*
X163247126Y-66713071D01*
X163280684Y-66712059D01*
X163315041Y-66713314D01*
X163349603Y-66716968D01*
X163383749Y-66723134D01*
X163416870Y-66731939D01*
X163448341Y-66743511D01*
X163463277Y-66750367D01*
X163477576Y-66757961D01*
X163491148Y-66766307D01*
X163503938Y-66775422D01*
X163515860Y-66785320D01*
X163526834Y-66796013D01*
X163536789Y-66807519D01*
X163545640Y-66819861D01*
X163553321Y-66833040D01*
X163559746Y-66847087D01*
X163564858Y-66861997D01*
X163568557Y-66877805D01*
X163570774Y-66894524D01*
X163571437Y-66912160D01*
X163570476Y-66930728D01*
X163567795Y-66950249D01*
X163563871Y-66967054D01*
X163558295Y-66983053D01*
X163551161Y-66998275D01*
X163542561Y-67012739D01*
X163532570Y-67026475D01*
X163521293Y-67039504D01*
X163508806Y-67051855D01*
X163495197Y-67063548D01*
X163480556Y-67074611D01*
X163464967Y-67085062D01*
X163448515Y-67094936D01*
X163431304Y-67104256D01*
X163394901Y-67121305D01*
X163356477Y-67136428D01*
X163316722Y-67149813D01*
X163276335Y-67161659D01*
X163236016Y-67172159D01*
X163196469Y-67181509D01*
X163059958Y-67211395D01*
X162939812Y-67241003D01*
X162878353Y-67257437D01*
X162816775Y-67275476D01*
X162755666Y-67295491D01*
X162695634Y-67317862D01*
X162637274Y-67342967D01*
X162581192Y-67371180D01*
X162527981Y-67402889D01*
X162478234Y-67438479D01*
X162454854Y-67457840D01*
X162432562Y-67478311D01*
X162411434Y-67499943D01*
X162391550Y-67522779D01*
X162372990Y-67546871D01*
X162355823Y-67572256D01*
X162340124Y-67598993D01*
X162325955Y-67627124D01*
X162313409Y-67656693D01*
X162302546Y-67687756D01*
X162293459Y-67720357D01*
X162286211Y-67754538D01*
X162281703Y-67782540D01*
X162278153Y-67810642D01*
X162275562Y-67838816D01*
X162273925Y-67867062D01*
X162273244Y-67895337D01*
X162273518Y-67923644D01*
X162274752Y-67951953D01*
X162276913Y-67980242D01*
X162279187Y-68000806D01*
X162282148Y-68021338D01*
X162285792Y-68041810D01*
X162290094Y-68062197D01*
X162295067Y-68082466D01*
X162300692Y-68102591D01*
X162306962Y-68122532D01*
X162313876Y-68142282D01*
X162321419Y-68161790D01*
X162329586Y-68181046D01*
X162338366Y-68200010D01*
X162347761Y-68218653D01*
X162357760Y-68236964D01*
X162368340Y-68254895D01*
X162379513Y-68272415D01*
X162391275Y-68289520D01*
X162404667Y-68307575D01*
X162418584Y-68325034D01*
X162433003Y-68341881D01*
X162447923Y-68358147D01*
X162479154Y-68388926D01*
X162512139Y-68417431D01*
X162546739Y-68443743D01*
X162582813Y-68467922D01*
X162620232Y-68490024D01*
X162658848Y-68510129D01*
X162698538Y-68528292D01*
X162739141Y-68544582D01*
X162780539Y-68559067D01*
X162822582Y-68571811D01*
X162865142Y-68582882D01*
X162908067Y-68592349D01*
X162951227Y-68600266D01*
X162994484Y-68606710D01*
X163082343Y-68615606D01*
X163171409Y-68619060D01*
X163260972Y-68616918D01*
X163350335Y-68609025D01*
X163438791Y-68595231D01*
X163525635Y-68575384D01*
X163610153Y-68549323D01*
X163691660Y-68516900D01*
X163769434Y-68477954D01*
X163806700Y-68455995D01*
X163842774Y-68432345D01*
X163877556Y-68406995D01*
X163910976Y-68379913D01*
X163942933Y-68351092D01*
X163973344Y-68320504D01*
X164002111Y-68288130D01*
X164029157Y-68253961D01*
X164054389Y-68217971D01*
X164077722Y-68180138D01*
X164099063Y-68140446D01*
X164118329Y-68098885D01*
X164135429Y-68055414D01*
X164150276Y-68010026D01*
X164158164Y-67982477D01*
X164165459Y-67954856D01*
X164172069Y-67927135D01*
X164177892Y-67899317D01*
X164182825Y-67871338D01*
X164186785Y-67843199D01*
X164189664Y-67814876D01*
X164190662Y-67800632D01*
X164191366Y-67786337D01*
X163610895Y-67786337D01*
X163602014Y-67825800D01*
X163591639Y-67863299D01*
X163579683Y-67898792D01*
X163566033Y-67932250D01*
X163550601Y-67963618D01*
X163533272Y-67992862D01*
X163523866Y-68006674D01*
X163513945Y-68019937D01*
X163503508Y-68032647D01*
X163492531Y-68044803D01*
X163481010Y-68056401D01*
X163468927Y-68067431D01*
X163456261Y-68077880D01*
X163443011Y-68087757D01*
X163429166Y-68097056D01*
X163414703Y-68105765D01*
X163399616Y-68113884D01*
X163383904Y-68121400D01*
X163367521Y-68128322D01*
X163350490Y-68134627D01*
X163332779Y-68140326D01*
X163314377Y-68145406D01*
X163295275Y-68149863D01*
X163275462Y-68153695D01*
X163254920Y-68156887D01*
X163233634Y-68159448D01*
X163203012Y-68161744D01*
X163170835Y-68162375D01*
X163137615Y-68161196D01*
X163103892Y-68158061D01*
X163070196Y-68152845D01*
X163037041Y-68145400D01*
X163004965Y-68135584D01*
X162974490Y-68123267D01*
X162960019Y-68116130D01*
X162946150Y-68108314D01*
X162932941Y-68099799D01*
X162920466Y-68090572D01*
X162908785Y-68080615D01*
X162897971Y-68069903D01*
X162888081Y-68058440D01*
X162879178Y-68046190D01*
X162871350Y-68033134D01*
X162864637Y-68019264D01*
X162859130Y-68004565D01*
X162854862Y-67989006D01*
X162851932Y-67972574D01*
X162850379Y-67955260D01*
X162850296Y-67937043D01*
X162851728Y-67917908D01*
X162854482Y-67900750D01*
X162858736Y-67884390D01*
X162864417Y-67868781D01*
X162871456Y-67853920D01*
X162879763Y-67839771D01*
X162889263Y-67826320D01*
X162899894Y-67813536D01*
X162911565Y-67801409D01*
X162924204Y-67789898D01*
X162937742Y-67778990D01*
X162952099Y-67768665D01*
X162967196Y-67758891D01*
X162982967Y-67749660D01*
X162999323Y-67740930D01*
X163033509Y-67724910D01*
X163069151Y-67710660D01*
X163105641Y-67697985D01*
X163142369Y-67686709D01*
X163178736Y-67676651D01*
X163308411Y-67644830D01*
X163446045Y-67610240D01*
X163585952Y-67571563D01*
X163654925Y-67549355D01*
X163722264Y-67524513D01*
X163787249Y-67496494D01*
X163849138Y-67464773D01*
X163907198Y-67428811D01*
X163934560Y-67409069D01*
X163960710Y-67388060D01*
X163985518Y-67365728D01*
X164008919Y-67341993D01*
X164030806Y-67316799D01*
X164051111Y-67290077D01*
X164069719Y-67261752D01*
X164086545Y-67231759D01*
X164101503Y-67200033D01*
X164114494Y-67166512D01*
X164125429Y-67131128D01*
X164134215Y-67093801D01*
X164140776Y-67054478D01*
X164144993Y-67013088D01*
X164146502Y-66987924D01*
X164147380Y-66962625D01*
X164147552Y-66937256D01*
X164146928Y-66911872D01*
X164145428Y-66886545D01*
X164142967Y-66861334D01*
X164141342Y-66848789D01*
X164139456Y-66836300D01*
X164137282Y-66823873D01*
X164134817Y-66811508D01*
X164131282Y-66795810D01*
X164127332Y-66780149D01*
X164122949Y-66764533D01*
X164118172Y-66749011D01*
X164112979Y-66733564D01*
X164107392Y-66718237D01*
X164101410Y-66703042D01*
X164095045Y-66687996D01*
X164088285Y-66673112D01*
X164081153Y-66658413D01*
X164073652Y-66643921D01*
X164065790Y-66629646D01*
X164057558Y-66615609D01*
X164048977Y-66601837D01*
X164040041Y-66588331D01*
X164030764Y-66575125D01*
X164017051Y-66556880D01*
X164002779Y-66539231D01*
X163987985Y-66522186D01*
X163972670Y-66505733D01*
X163940565Y-66474584D01*
X163906632Y-66445731D01*
X163871007Y-66419137D01*
X163833856Y-66394737D01*
X163795300Y-66372488D01*
X163755526Y-66352343D01*
X163714664Y-66334256D01*
X163672869Y-66318165D01*
X163630283Y-66304032D01*
X163587063Y-66291804D01*
X163543363Y-66281428D01*
X163499315Y-66272872D01*
X163455092Y-66266053D01*
X163410832Y-66260957D01*
X163327567Y-66255372D01*
X163244972Y-66254783D01*
X163163419Y-66259291D01*
G36*
X163327567Y-66255372D02*
G01*
X163410832Y-66260957D01*
X163455092Y-66266053D01*
X163499315Y-66272872D01*
X163543363Y-66281428D01*
X163587063Y-66291804D01*
X163630283Y-66304032D01*
X163672869Y-66318165D01*
X163714664Y-66334256D01*
X163755526Y-66352343D01*
X163795300Y-66372488D01*
X163833856Y-66394737D01*
X163871007Y-66419137D01*
X163906632Y-66445731D01*
X163940565Y-66474584D01*
X163972670Y-66505733D01*
X163987985Y-66522186D01*
X164002779Y-66539231D01*
X164017051Y-66556880D01*
X164030764Y-66575125D01*
X164040041Y-66588331D01*
X164048977Y-66601837D01*
X164057558Y-66615609D01*
X164065790Y-66629646D01*
X164073652Y-66643921D01*
X164081153Y-66658413D01*
X164088285Y-66673112D01*
X164095045Y-66687996D01*
X164101410Y-66703042D01*
X164107392Y-66718237D01*
X164112979Y-66733564D01*
X164118172Y-66749011D01*
X164122949Y-66764533D01*
X164127332Y-66780149D01*
X164131282Y-66795810D01*
X164134817Y-66811508D01*
X164137282Y-66823873D01*
X164139456Y-66836300D01*
X164141342Y-66848789D01*
X164142967Y-66861334D01*
X164145428Y-66886545D01*
X164146928Y-66911872D01*
X164147552Y-66937256D01*
X164147380Y-66962625D01*
X164146502Y-66987924D01*
X164144993Y-67013088D01*
X164140776Y-67054478D01*
X164134215Y-67093801D01*
X164125429Y-67131128D01*
X164114494Y-67166512D01*
X164101503Y-67200033D01*
X164086545Y-67231759D01*
X164069719Y-67261752D01*
X164051111Y-67290077D01*
X164030806Y-67316799D01*
X164008919Y-67341993D01*
X163985518Y-67365728D01*
X163960710Y-67388060D01*
X163934560Y-67409069D01*
X163907198Y-67428811D01*
X163849138Y-67464773D01*
X163787249Y-67496494D01*
X163722264Y-67524513D01*
X163654925Y-67549355D01*
X163585952Y-67571563D01*
X163446045Y-67610240D01*
X163308411Y-67644830D01*
X163178736Y-67676651D01*
X163142369Y-67686709D01*
X163105641Y-67697985D01*
X163069151Y-67710660D01*
X163033509Y-67724910D01*
X162999323Y-67740930D01*
X162982967Y-67749660D01*
X162967196Y-67758891D01*
X162952099Y-67768665D01*
X162937742Y-67778990D01*
X162924204Y-67789898D01*
X162911565Y-67801409D01*
X162899894Y-67813536D01*
X162889263Y-67826320D01*
X162879763Y-67839771D01*
X162871456Y-67853920D01*
X162864417Y-67868781D01*
X162858736Y-67884390D01*
X162854482Y-67900750D01*
X162851728Y-67917908D01*
X162850296Y-67937043D01*
X162850379Y-67955260D01*
X162851932Y-67972574D01*
X162854862Y-67989006D01*
X162859130Y-68004565D01*
X162864637Y-68019264D01*
X162871350Y-68033134D01*
X162879178Y-68046190D01*
X162888081Y-68058440D01*
X162897971Y-68069903D01*
X162908785Y-68080615D01*
X162920466Y-68090572D01*
X162932941Y-68099799D01*
X162946150Y-68108314D01*
X162960019Y-68116130D01*
X162974490Y-68123267D01*
X163004965Y-68135584D01*
X163037041Y-68145400D01*
X163070196Y-68152845D01*
X163103892Y-68158061D01*
X163137615Y-68161196D01*
X163170835Y-68162375D01*
X163203012Y-68161744D01*
X163233634Y-68159448D01*
X163254920Y-68156887D01*
X163275462Y-68153695D01*
X163295275Y-68149863D01*
X163314377Y-68145406D01*
X163332779Y-68140326D01*
X163350490Y-68134627D01*
X163367521Y-68128322D01*
X163383904Y-68121400D01*
X163399616Y-68113884D01*
X163414703Y-68105765D01*
X163429166Y-68097056D01*
X163443011Y-68087757D01*
X163456261Y-68077880D01*
X163468927Y-68067431D01*
X163481010Y-68056401D01*
X163492531Y-68044803D01*
X163503508Y-68032647D01*
X163513945Y-68019937D01*
X163523866Y-68006674D01*
X163533272Y-67992862D01*
X163550601Y-67963618D01*
X163566033Y-67932250D01*
X163579683Y-67898792D01*
X163591639Y-67863299D01*
X163602014Y-67825800D01*
X163610895Y-67786337D01*
X164191366Y-67786337D01*
X164190662Y-67800632D01*
X164189664Y-67814876D01*
X164186785Y-67843199D01*
X164182825Y-67871338D01*
X164177892Y-67899317D01*
X164172069Y-67927135D01*
X164165459Y-67954856D01*
X164158164Y-67982477D01*
X164150276Y-68010026D01*
X164135429Y-68055414D01*
X164118329Y-68098885D01*
X164099063Y-68140446D01*
X164077722Y-68180138D01*
X164054389Y-68217971D01*
X164029157Y-68253961D01*
X164002111Y-68288130D01*
X163973344Y-68320504D01*
X163942933Y-68351092D01*
X163910976Y-68379913D01*
X163877556Y-68406995D01*
X163842774Y-68432345D01*
X163806700Y-68455995D01*
X163769434Y-68477954D01*
X163691660Y-68516900D01*
X163610153Y-68549323D01*
X163525635Y-68575384D01*
X163438791Y-68595231D01*
X163350335Y-68609025D01*
X163260972Y-68616918D01*
X163171409Y-68619060D01*
X163082343Y-68615606D01*
X162994484Y-68606710D01*
X162951227Y-68600266D01*
X162908067Y-68592349D01*
X162865142Y-68582882D01*
X162822582Y-68571811D01*
X162780539Y-68559067D01*
X162739141Y-68544582D01*
X162698538Y-68528292D01*
X162658848Y-68510129D01*
X162620232Y-68490024D01*
X162582813Y-68467922D01*
X162546739Y-68443743D01*
X162512139Y-68417431D01*
X162479154Y-68388926D01*
X162447923Y-68358147D01*
X162433003Y-68341881D01*
X162418584Y-68325034D01*
X162404667Y-68307575D01*
X162391275Y-68289520D01*
X162379513Y-68272415D01*
X162368340Y-68254895D01*
X162357760Y-68236964D01*
X162347761Y-68218653D01*
X162338366Y-68200010D01*
X162329586Y-68181046D01*
X162321419Y-68161790D01*
X162313876Y-68142282D01*
X162306962Y-68122532D01*
X162300692Y-68102591D01*
X162295067Y-68082466D01*
X162290094Y-68062197D01*
X162285792Y-68041810D01*
X162282148Y-68021338D01*
X162279187Y-68000806D01*
X162276913Y-67980242D01*
X162274752Y-67951953D01*
X162273518Y-67923644D01*
X162273244Y-67895337D01*
X162273925Y-67867062D01*
X162275562Y-67838816D01*
X162278153Y-67810642D01*
X162281703Y-67782540D01*
X162286211Y-67754538D01*
X162293459Y-67720357D01*
X162302546Y-67687756D01*
X162313409Y-67656693D01*
X162325955Y-67627124D01*
X162340124Y-67598993D01*
X162355823Y-67572256D01*
X162372990Y-67546871D01*
X162391550Y-67522779D01*
X162411434Y-67499943D01*
X162432562Y-67478311D01*
X162454854Y-67457840D01*
X162478234Y-67438479D01*
X162527981Y-67402889D01*
X162581192Y-67371180D01*
X162637274Y-67342967D01*
X162695634Y-67317862D01*
X162755666Y-67295491D01*
X162816775Y-67275476D01*
X162878353Y-67257437D01*
X162939812Y-67241003D01*
X163059958Y-67211395D01*
X163196469Y-67181509D01*
X163236016Y-67172159D01*
X163276335Y-67161659D01*
X163316722Y-67149813D01*
X163356477Y-67136428D01*
X163394901Y-67121305D01*
X163431304Y-67104256D01*
X163448515Y-67094936D01*
X163464967Y-67085062D01*
X163480556Y-67074611D01*
X163495197Y-67063548D01*
X163508806Y-67051855D01*
X163521293Y-67039504D01*
X163532570Y-67026475D01*
X163542561Y-67012739D01*
X163551161Y-66998275D01*
X163558295Y-66983053D01*
X163563871Y-66967054D01*
X163567795Y-66950249D01*
X163570476Y-66930728D01*
X163571437Y-66912160D01*
X163570774Y-66894524D01*
X163568557Y-66877805D01*
X163564858Y-66861997D01*
X163559746Y-66847087D01*
X163553321Y-66833040D01*
X163545640Y-66819861D01*
X163536789Y-66807519D01*
X163526834Y-66796013D01*
X163515860Y-66785320D01*
X163503938Y-66775422D01*
X163491148Y-66766307D01*
X163477576Y-66757961D01*
X163463277Y-66750367D01*
X163448341Y-66743511D01*
X163416870Y-66731939D01*
X163383749Y-66723134D01*
X163349603Y-66716968D01*
X163315041Y-66713314D01*
X163280684Y-66712059D01*
X163247126Y-66713071D01*
X163214981Y-66716234D01*
X163184876Y-66721407D01*
X163168762Y-66725260D01*
X163153175Y-66729844D01*
X163138100Y-66735123D01*
X163123535Y-66741072D01*
X163109473Y-66747673D01*
X163095905Y-66754892D01*
X163082827Y-66762723D01*
X163070229Y-66771123D01*
X163058108Y-66780077D01*
X163046448Y-66789567D01*
X163035250Y-66799554D01*
X163024501Y-66810027D01*
X163004332Y-66832298D01*
X162985894Y-66856206D01*
X162969124Y-66881543D01*
X162953971Y-66908119D01*
X162940368Y-66935729D01*
X162928259Y-66964204D01*
X162917596Y-66993333D01*
X162908327Y-67022920D01*
X162900370Y-67052778D01*
X162893700Y-67082704D01*
X162334468Y-67082704D01*
X162335279Y-67066933D01*
X162336433Y-67051179D01*
X162339712Y-67019740D01*
X162344234Y-66988443D01*
X162349910Y-66957304D01*
X162356669Y-66926364D01*
X162364423Y-66895650D01*
X162373097Y-66865186D01*
X162382599Y-66835007D01*
X162397395Y-66793483D01*
X162413820Y-66753625D01*
X162431814Y-66715415D01*
X162451320Y-66678843D01*
X162472294Y-66643897D01*
X162494699Y-66610554D01*
X162518464Y-66578807D01*
X162543548Y-66548644D01*
X162569898Y-66520042D01*
X162597470Y-66492991D01*
X162626213Y-66467477D01*
X162656069Y-66443481D01*
X162687000Y-66421000D01*
X162718949Y-66400009D01*
X162785683Y-66362448D01*
X162855895Y-66330688D01*
X162929184Y-66304605D01*
X163005132Y-66284085D01*
X163083342Y-66269020D01*
X163163419Y-66259291D01*
X163244972Y-66254783D01*
X163327567Y-66255372D01*
G37*
X173242244Y-66291991D02*
X172729254Y-66291991D01*
X172729254Y-66765899D01*
X173237215Y-66765899D01*
X173239861Y-66786327D01*
X173241937Y-66806931D01*
X173243502Y-66827685D01*
X173244611Y-66848572D01*
X173245667Y-66890641D01*
X173245559Y-66932954D01*
X173243560Y-67017604D01*
X173242548Y-67059570D01*
X173242113Y-67101057D01*
X173242113Y-67729405D01*
X173243034Y-67771888D01*
X173244646Y-67817700D01*
X173245247Y-67865268D01*
X173244639Y-67889222D01*
X173243138Y-67913020D01*
X173240523Y-67936485D01*
X173236602Y-67959394D01*
X173231140Y-67981576D01*
X173223929Y-68002811D01*
X173219604Y-68013023D01*
X173214763Y-68022925D01*
X173209381Y-68032492D01*
X173203426Y-68041707D01*
X173196872Y-68050534D01*
X173189698Y-68058969D01*
X173181876Y-68066960D01*
X173173372Y-68074490D01*
X173160955Y-68084059D01*
X173148264Y-68092508D01*
X173135315Y-68099898D01*
X173122124Y-68106261D01*
X173108725Y-68111645D01*
X173095114Y-68116095D01*
X173081321Y-68119651D01*
X173067362Y-68122364D01*
X173053244Y-68124263D01*
X173039004Y-68125406D01*
X173024641Y-68125823D01*
X173010179Y-68125576D01*
X172981048Y-68123220D01*
X172951740Y-68118683D01*
X172922391Y-68112318D01*
X172893146Y-68104472D01*
X172864144Y-68095490D01*
X172835531Y-68085720D01*
X172727754Y-68045713D01*
X172727754Y-68521123D01*
X172748630Y-68532468D01*
X172769755Y-68543002D01*
X172791120Y-68552736D01*
X172812708Y-68561711D01*
X172834509Y-68569934D01*
X172856514Y-68577415D01*
X172878732Y-68584200D01*
X172901142Y-68590290D01*
X172923735Y-68595714D01*
X172946504Y-68600500D01*
X172969444Y-68604655D01*
X172992549Y-68608198D01*
X173015806Y-68611162D01*
X173039204Y-68613561D01*
X173062746Y-68615424D01*
X173086411Y-68616764D01*
X173121011Y-68617996D01*
X173155546Y-68618359D01*
X173190015Y-68617805D01*
X173224411Y-68616270D01*
X173258744Y-68613717D01*
X173293014Y-68610066D01*
X173327224Y-68605273D01*
X173361375Y-68599292D01*
X173388276Y-68593418D01*
X173414390Y-68586430D01*
X173439730Y-68578351D01*
X173464284Y-68569222D01*
X173488045Y-68559053D01*
X173511028Y-68547881D01*
X173533204Y-68535756D01*
X173554590Y-68522680D01*
X173575184Y-68508710D01*
X173594970Y-68493860D01*
X173613956Y-68478154D01*
X173632133Y-68461635D01*
X173649505Y-68444332D01*
X173666058Y-68426260D01*
X173681803Y-68407465D01*
X173696730Y-68387974D01*
X173710829Y-68367821D01*
X173724108Y-68347029D01*
X173736569Y-68325626D01*
X173748191Y-68303648D01*
X173758992Y-68281126D01*
X173768953Y-68258081D01*
X173778077Y-68234558D01*
X173786362Y-68210570D01*
X173793803Y-68186159D01*
X173800401Y-68161352D01*
X173806149Y-68136182D01*
X173811044Y-68110669D01*
X173818274Y-68058766D01*
X173822084Y-68005880D01*
X173825343Y-67899275D01*
X173826976Y-67792512D01*
X173826844Y-67578700D01*
X173823215Y-67151319D01*
X173822705Y-67103614D01*
X173821517Y-67055347D01*
X173819081Y-66957977D01*
X173818823Y-66909297D01*
X173819870Y-66860895D01*
X173822720Y-66812985D01*
X173824972Y-66789276D01*
X173827863Y-66765770D01*
X174094537Y-66765770D01*
X174094537Y-66291991D01*
X173823088Y-66291991D01*
X173823088Y-65734264D01*
X173242244Y-65734264D01*
X173242244Y-66291991D01*
G36*
X173823088Y-66291991D02*
G01*
X174094537Y-66291991D01*
X174094537Y-66765770D01*
X173827863Y-66765770D01*
X173824972Y-66789276D01*
X173822720Y-66812985D01*
X173819870Y-66860895D01*
X173818823Y-66909297D01*
X173819081Y-66957977D01*
X173821517Y-67055347D01*
X173822705Y-67103614D01*
X173823215Y-67151319D01*
X173826844Y-67578700D01*
X173826976Y-67792512D01*
X173825343Y-67899275D01*
X173822084Y-68005880D01*
X173818274Y-68058766D01*
X173811044Y-68110669D01*
X173806149Y-68136182D01*
X173800401Y-68161352D01*
X173793803Y-68186159D01*
X173786362Y-68210570D01*
X173778077Y-68234558D01*
X173768953Y-68258081D01*
X173758992Y-68281126D01*
X173748191Y-68303648D01*
X173736569Y-68325626D01*
X173724108Y-68347029D01*
X173710829Y-68367821D01*
X173696730Y-68387974D01*
X173681803Y-68407465D01*
X173666058Y-68426260D01*
X173649505Y-68444332D01*
X173632133Y-68461635D01*
X173613956Y-68478154D01*
X173594970Y-68493860D01*
X173575184Y-68508710D01*
X173554590Y-68522680D01*
X173533204Y-68535756D01*
X173511028Y-68547881D01*
X173488045Y-68559053D01*
X173464284Y-68569222D01*
X173439730Y-68578351D01*
X173414390Y-68586430D01*
X173388276Y-68593418D01*
X173361375Y-68599292D01*
X173327224Y-68605273D01*
X173293014Y-68610066D01*
X173258744Y-68613717D01*
X173224411Y-68616270D01*
X173190015Y-68617805D01*
X173155546Y-68618359D01*
X173121011Y-68617996D01*
X173086411Y-68616764D01*
X173062746Y-68615424D01*
X173039204Y-68613561D01*
X173015806Y-68611162D01*
X172992549Y-68608198D01*
X172969444Y-68604655D01*
X172946504Y-68600500D01*
X172923735Y-68595714D01*
X172901142Y-68590290D01*
X172878732Y-68584200D01*
X172856514Y-68577415D01*
X172834509Y-68569934D01*
X172812708Y-68561711D01*
X172791120Y-68552736D01*
X172769755Y-68543002D01*
X172748630Y-68532468D01*
X172727754Y-68521123D01*
X172727754Y-68045713D01*
X172835531Y-68085720D01*
X172864144Y-68095490D01*
X172893146Y-68104472D01*
X172922391Y-68112318D01*
X172951740Y-68118683D01*
X172981048Y-68123220D01*
X173010179Y-68125576D01*
X173024641Y-68125823D01*
X173039004Y-68125406D01*
X173053244Y-68124263D01*
X173067362Y-68122364D01*
X173081321Y-68119651D01*
X173095114Y-68116095D01*
X173108725Y-68111645D01*
X173122124Y-68106261D01*
X173135315Y-68099898D01*
X173148264Y-68092508D01*
X173160955Y-68084059D01*
X173173372Y-68074490D01*
X173181876Y-68066960D01*
X173189698Y-68058969D01*
X173196872Y-68050534D01*
X173203426Y-68041707D01*
X173209381Y-68032492D01*
X173214763Y-68022925D01*
X173219604Y-68013023D01*
X173223929Y-68002811D01*
X173231140Y-67981576D01*
X173236602Y-67959394D01*
X173240523Y-67936485D01*
X173243138Y-67913020D01*
X173244639Y-67889222D01*
X173245247Y-67865268D01*
X173244646Y-67817700D01*
X173243034Y-67771888D01*
X173242113Y-67729405D01*
X173242113Y-67101057D01*
X173242548Y-67059570D01*
X173243560Y-67017604D01*
X173245559Y-66932954D01*
X173245667Y-66890641D01*
X173244611Y-66848572D01*
X173243502Y-66827685D01*
X173241937Y-66806931D01*
X173239861Y-66786327D01*
X173237215Y-66765899D01*
X172729254Y-66765899D01*
X172729254Y-66291991D01*
X173242244Y-66291991D01*
X173242244Y-65734264D01*
X173823088Y-65734264D01*
X173823088Y-66291991D01*
G37*
X169392237Y-59056699D02*
X169317575Y-59060655D01*
X169242832Y-59066719D01*
X169168106Y-59074853D01*
X169093508Y-59085010D01*
X169019138Y-59097155D01*
X168945095Y-59111237D01*
X168871493Y-59127216D01*
X168798435Y-59145042D01*
X168726022Y-59164690D01*
X168654356Y-59186099D01*
X168583545Y-59209233D01*
X168513698Y-59234050D01*
X168444916Y-59260515D01*
X168331477Y-59308437D01*
X168220898Y-59360403D01*
X168113249Y-59416283D01*
X168008587Y-59475990D01*
X167906990Y-59539400D01*
X167808511Y-59606421D01*
X167713221Y-59676937D01*
X167621193Y-59750835D01*
X167532489Y-59828017D01*
X167447165Y-59908389D01*
X167365296Y-59991808D01*
X167286951Y-60078197D01*
X167212189Y-60167439D01*
X167141076Y-60259429D01*
X167073693Y-60354054D01*
X167010080Y-60451216D01*
X166950327Y-60550804D01*
X166894480Y-60652708D01*
X166842616Y-60756813D01*
X166794804Y-60863036D01*
X166751104Y-60971251D01*
X166711580Y-61081357D01*
X166676307Y-61193242D01*
X166645344Y-61306814D01*
X166618753Y-61421936D01*
X166596615Y-61538531D01*
X166578977Y-61656474D01*
X166565922Y-61775664D01*
X166557497Y-61896001D01*
X166553782Y-62017366D01*
X166554844Y-62139657D01*
X166560751Y-62262765D01*
X166565574Y-62322990D01*
X166571887Y-62383052D01*
X166579629Y-62442940D01*
X166588769Y-62502622D01*
X166599265Y-62562087D01*
X166611076Y-62621316D01*
X166638455Y-62738991D01*
X166670599Y-62855484D01*
X166707165Y-62970649D01*
X166747817Y-63084323D01*
X166792232Y-63196367D01*
X166815422Y-63250576D01*
X166839842Y-63304513D01*
X166865455Y-63358103D01*
X166892254Y-63411295D01*
X166920210Y-63464025D01*
X166949314Y-63516251D01*
X166979527Y-63567912D01*
X167010851Y-63618949D01*
X167043246Y-63669296D01*
X167076706Y-63718907D01*
X167111206Y-63767726D01*
X167146722Y-63815692D01*
X167183230Y-63862750D01*
X167220731Y-63908840D01*
X167259173Y-63953905D01*
X167298560Y-63997890D01*
X167347924Y-64050602D01*
X167398173Y-64102117D01*
X167449313Y-64152428D01*
X167501359Y-64201520D01*
X167554331Y-64249361D01*
X167608246Y-64295957D01*
X167663116Y-64341285D01*
X167718966Y-64385312D01*
X167775813Y-64428047D01*
X167833674Y-64469455D01*
X167892557Y-64509534D01*
X167952482Y-64548256D01*
X168013480Y-64585619D01*
X168075548Y-64621589D01*
X168138720Y-64656165D01*
X168203002Y-64689325D01*
X168268812Y-64721250D01*
X168335471Y-64751605D01*
X168402938Y-64780349D01*
X168471154Y-64807455D01*
X168540065Y-64832894D01*
X168609613Y-64856642D01*
X168679762Y-64878659D01*
X168750437Y-64898923D01*
X168821601Y-64917405D01*
X168893198Y-64934060D01*
X168965166Y-64948876D01*
X169037475Y-64961816D01*
X169110046Y-64972847D01*
X169182841Y-64981936D01*
X169255805Y-64989070D01*
X169328882Y-64994206D01*
X169405101Y-64997588D01*
X169481112Y-64999073D01*
X169556911Y-64998681D01*
X169632493Y-64996424D01*
X169707851Y-64992323D01*
X169782974Y-64986379D01*
X169857860Y-64978624D01*
X169932502Y-64969053D01*
X170006898Y-64957688D01*
X170081027Y-64944546D01*
X170154902Y-64929645D01*
X170228506Y-64912996D01*
X170301841Y-64894608D01*
X170374882Y-64874500D01*
X170447642Y-64852694D01*
X170520102Y-64829190D01*
X170585519Y-64805840D01*
X170650262Y-64780239D01*
X170714317Y-64752609D01*
X170777666Y-64723195D01*
X170840275Y-64692224D01*
X170902146Y-64659929D01*
X170963239Y-64626546D01*
X171023537Y-64592305D01*
X171107495Y-64541849D01*
X171189402Y-64488668D01*
X171269216Y-64432851D01*
X171346903Y-64374463D01*
X171422416Y-64313599D01*
X171495714Y-64250332D01*
X171566760Y-64184735D01*
X171635520Y-64116906D01*
X171701947Y-64046915D01*
X171757457Y-63984445D01*
X170639992Y-63984445D01*
X170618404Y-64001723D01*
X170593255Y-64018923D01*
X170564993Y-64035959D01*
X170534075Y-64052758D01*
X170500950Y-64069231D01*
X170466087Y-64085310D01*
X170429922Y-64100910D01*
X170392927Y-64115960D01*
X170318234Y-64144055D01*
X170245648Y-64168974D01*
X170178812Y-64190087D01*
X170121352Y-64206752D01*
X170035565Y-64228580D01*
X169949148Y-64246898D01*
X169862225Y-64261721D01*
X169774893Y-64273080D01*
X169687266Y-64280971D01*
X169599463Y-64285426D01*
X169511592Y-64286454D01*
X169423760Y-64284086D01*
X169336085Y-64278325D01*
X169248666Y-64269196D01*
X169161632Y-64256700D01*
X169075076Y-64240875D01*
X168989127Y-64221729D01*
X168903887Y-64199284D01*
X168819462Y-64173548D01*
X168735971Y-64144542D01*
X168695636Y-64129473D01*
X168655102Y-64113749D01*
X168614620Y-64097228D01*
X168574437Y-64079730D01*
X168534800Y-64061116D01*
X168495960Y-64041229D01*
X168476915Y-64030762D01*
X168458166Y-64019915D01*
X168439740Y-64008674D01*
X168421670Y-63997006D01*
X168432298Y-63968284D01*
X168444037Y-63938965D01*
X168470327Y-63878901D01*
X168499529Y-63817544D01*
X168530640Y-63755610D01*
X168594555Y-63633014D01*
X168625347Y-63573797D01*
X168654035Y-63516952D01*
X168931447Y-62951843D01*
X169206223Y-62385423D01*
X169322191Y-62143741D01*
X169380896Y-62023222D01*
X169440980Y-61903474D01*
X169446471Y-61892280D01*
X169451869Y-61880491D01*
X169462557Y-61855607D01*
X169473380Y-61829714D01*
X169484723Y-61803739D01*
X169490704Y-61790997D01*
X169496947Y-61778577D01*
X169503498Y-61766592D01*
X169510410Y-61755150D01*
X169517723Y-61744363D01*
X169525481Y-61734358D01*
X169533728Y-61725230D01*
X169542519Y-61717105D01*
X169967030Y-62608229D01*
X169416849Y-62608229D01*
X169083449Y-63311227D01*
X170321675Y-63311227D01*
X170639992Y-63984445D01*
X171757457Y-63984445D01*
X171765992Y-63974833D01*
X171827629Y-63900755D01*
X171886817Y-63824757D01*
X171943503Y-63746905D01*
X171997659Y-63667298D01*
X172049234Y-63586003D01*
X172098201Y-63503108D01*
X172144517Y-63418693D01*
X172188126Y-63332824D01*
X172229006Y-63245606D01*
X172267113Y-63157098D01*
X172302403Y-63067387D01*
X172334823Y-62976554D01*
X172364358Y-62884675D01*
X172390953Y-62791830D01*
X172414568Y-62698109D01*
X172435163Y-62603576D01*
X172452707Y-62508321D01*
X172467148Y-62412428D01*
X172478453Y-62315964D01*
X172486576Y-62219021D01*
X172491479Y-62121667D01*
X172493125Y-62023988D01*
X172493105Y-62023175D01*
X171782329Y-62023175D01*
X171781737Y-62068273D01*
X171777702Y-62158381D01*
X171769992Y-62248267D01*
X171758783Y-62337801D01*
X171744244Y-62426838D01*
X171726533Y-62515231D01*
X171716354Y-62559598D01*
X171705233Y-62603543D01*
X171693186Y-62647087D01*
X171680251Y-62690233D01*
X171666434Y-62733002D01*
X171651754Y-62775411D01*
X171619886Y-62859211D01*
X171584814Y-62941737D01*
X171546685Y-63023120D01*
X171505653Y-63103471D01*
X171461876Y-63182918D01*
X171420331Y-63254624D01*
X171397815Y-63291440D01*
X171374019Y-63327897D01*
X171361603Y-63345753D01*
X171348843Y-63363226D01*
X171335717Y-63380228D01*
X171322210Y-63396665D01*
X171308317Y-63412445D01*
X171294024Y-63427465D01*
X171279321Y-63441640D01*
X171264195Y-63454868D01*
X169599570Y-60211078D01*
X169253478Y-60211078D01*
X169238213Y-60232257D01*
X169223018Y-60255117D01*
X169207898Y-60279438D01*
X169192871Y-60305022D01*
X169163174Y-60359103D01*
X169134014Y-60415668D01*
X169077760Y-60529421D01*
X169050895Y-60583221D01*
X169025011Y-60632698D01*
X169020235Y-60641113D01*
X169014839Y-60649997D01*
X169002713Y-60668970D01*
X168989597Y-60689166D01*
X168976503Y-60710133D01*
X168970258Y-60720754D01*
X168964386Y-60731404D01*
X168959009Y-60742014D01*
X168954248Y-60752533D01*
X168950226Y-60762908D01*
X168947067Y-60773070D01*
X168945849Y-60778054D01*
X168944895Y-60782964D01*
X168944213Y-60787801D01*
X168943829Y-60792549D01*
X168943811Y-60797505D01*
X168944226Y-60802796D01*
X168946243Y-60814286D01*
X168949691Y-60826845D01*
X168954375Y-60840281D01*
X168960099Y-60854436D01*
X168966699Y-60869114D01*
X168973970Y-60884149D01*
X168981718Y-60899361D01*
X168997910Y-60929593D01*
X169013775Y-60958412D01*
X169027791Y-60984371D01*
X169033636Y-60995835D01*
X169038455Y-61006066D01*
X167783138Y-63460645D01*
X167752307Y-63428837D01*
X167722495Y-63394912D01*
X167693697Y-63359082D01*
X167665906Y-63321573D01*
X167639118Y-63282587D01*
X167613322Y-63242349D01*
X167588521Y-63201077D01*
X167564708Y-63158975D01*
X167541878Y-63116273D01*
X167520028Y-63073178D01*
X167499142Y-63029911D01*
X167479227Y-62986679D01*
X167442282Y-62901204D01*
X167409145Y-62818472D01*
X167394323Y-62778872D01*
X167380439Y-62739036D01*
X167367466Y-62698994D01*
X167355361Y-62658743D01*
X167333698Y-62577656D01*
X167315234Y-62495852D01*
X167299789Y-62413395D01*
X167287133Y-62330362D01*
X167277080Y-62246831D01*
X167269403Y-62162856D01*
X167263431Y-62043098D01*
X167264244Y-61924481D01*
X167271656Y-61807184D01*
X167285489Y-61691370D01*
X167305547Y-61577222D01*
X167331649Y-61464918D01*
X167363629Y-61354644D01*
X167401282Y-61246549D01*
X167444430Y-61140827D01*
X167492889Y-61037662D01*
X167546476Y-60937217D01*
X167605006Y-60839665D01*
X167668297Y-60745196D01*
X167736161Y-60653976D01*
X167808414Y-60566180D01*
X167884868Y-60481989D01*
X167965347Y-60401580D01*
X168049669Y-60325127D01*
X168137643Y-60252810D01*
X168229086Y-60184787D01*
X168323810Y-60121262D01*
X168421642Y-60062388D01*
X168522382Y-60008349D01*
X168625862Y-59959330D01*
X168731887Y-59915495D01*
X168840278Y-59877027D01*
X168950843Y-59844093D01*
X169063410Y-59816883D01*
X169177790Y-59795560D01*
X169293795Y-59780314D01*
X169411245Y-59771303D01*
X169529954Y-59768715D01*
X169637762Y-59771875D01*
X169744290Y-59780039D01*
X169849389Y-59793089D01*
X169952976Y-59810927D01*
X170054920Y-59833436D01*
X170155111Y-59860508D01*
X170253428Y-59892026D01*
X170349767Y-59927876D01*
X170444003Y-59967959D01*
X170536041Y-60012149D01*
X170625741Y-60060328D01*
X170713011Y-60112410D01*
X170797727Y-60168261D01*
X170879769Y-60227780D01*
X170959036Y-60290849D01*
X171035404Y-60357356D01*
X171108756Y-60427196D01*
X171178987Y-60500245D01*
X171245979Y-60576410D01*
X171309621Y-60655561D01*
X171369791Y-60737584D01*
X171426379Y-60822390D01*
X171479272Y-60909843D01*
X171528356Y-60999850D01*
X171573515Y-61092280D01*
X171614631Y-61187035D01*
X171651602Y-61283999D01*
X171684303Y-61383058D01*
X171712621Y-61484107D01*
X171736440Y-61587026D01*
X171755652Y-61691701D01*
X171770144Y-61798035D01*
X171774667Y-61842964D01*
X171778129Y-61887962D01*
X171780545Y-61933006D01*
X171781933Y-61978086D01*
X171782329Y-62023175D01*
X172493105Y-62023175D01*
X172490438Y-61898032D01*
X172482392Y-61772114D01*
X172469006Y-61646511D01*
X172450311Y-61521513D01*
X172426343Y-61397426D01*
X172412375Y-61335804D01*
X172397109Y-61274525D01*
X172380524Y-61213618D01*
X172362643Y-61153109D01*
X172343451Y-61093044D01*
X172322967Y-61033462D01*
X172297711Y-60965264D01*
X172270743Y-60897795D01*
X172242102Y-60831067D01*
X172211806Y-60765117D01*
X172179897Y-60699959D01*
X172146386Y-60635629D01*
X172111321Y-60572139D01*
X172074724Y-60509525D01*
X172036620Y-60447815D01*
X171997055Y-60387034D01*
X171956040Y-60327193D01*
X171913621Y-60268331D01*
X171869817Y-60210478D01*
X171824671Y-60153650D01*
X171778193Y-60097878D01*
X171730431Y-60043183D01*
X171684687Y-59993153D01*
X171637722Y-59944053D01*
X171589569Y-59895932D01*
X171540261Y-59848835D01*
X171489837Y-59802827D01*
X171438329Y-59757937D01*
X171385766Y-59714231D01*
X171332185Y-59671768D01*
X171277622Y-59630580D01*
X171222112Y-59590729D01*
X171165674Y-59552270D01*
X171108363Y-59515239D01*
X171050209Y-59479700D01*
X170991228Y-59445702D01*
X170931480Y-59413297D01*
X170870976Y-59382540D01*
X170796107Y-59346877D01*
X170720835Y-59313310D01*
X170645146Y-59281820D01*
X170569016Y-59252417D01*
X170492426Y-59225069D01*
X170415356Y-59199782D01*
X170337802Y-59176543D01*
X170259733Y-59155341D01*
X170181135Y-59136162D01*
X170101994Y-59119005D01*
X170022285Y-59103862D01*
X169941994Y-59090716D01*
X169861100Y-59079554D01*
X169779588Y-59070383D01*
X169697451Y-59063179D01*
X169614656Y-59057929D01*
X169540879Y-59055296D01*
X169466703Y-59054894D01*
X169392237Y-59056699D01*
G36*
X172493125Y-62023988D02*
G01*
X172491479Y-62121667D01*
X172486576Y-62219021D01*
X172478453Y-62315964D01*
X172467148Y-62412428D01*
X172452707Y-62508321D01*
X172435163Y-62603576D01*
X172414568Y-62698109D01*
X172390953Y-62791830D01*
X172364358Y-62884675D01*
X172334823Y-62976554D01*
X172302403Y-63067387D01*
X172267113Y-63157098D01*
X172229006Y-63245606D01*
X172188126Y-63332824D01*
X172144517Y-63418693D01*
X172098201Y-63503108D01*
X172049234Y-63586003D01*
X171997659Y-63667298D01*
X171943503Y-63746905D01*
X171886817Y-63824757D01*
X171827629Y-63900755D01*
X171765992Y-63974833D01*
X171757457Y-63984445D01*
X171701947Y-64046915D01*
X171635520Y-64116906D01*
X171566760Y-64184735D01*
X171495714Y-64250332D01*
X171422416Y-64313599D01*
X171346903Y-64374463D01*
X171269216Y-64432851D01*
X171189402Y-64488668D01*
X171107495Y-64541849D01*
X171023537Y-64592305D01*
X170963239Y-64626546D01*
X170902146Y-64659929D01*
X170840275Y-64692224D01*
X170777666Y-64723195D01*
X170714317Y-64752609D01*
X170650262Y-64780239D01*
X170585519Y-64805840D01*
X170520102Y-64829190D01*
X170447642Y-64852694D01*
X170374882Y-64874500D01*
X170301841Y-64894608D01*
X170228506Y-64912996D01*
X170154902Y-64929645D01*
X170081027Y-64944546D01*
X170006898Y-64957688D01*
X169932502Y-64969053D01*
X169857860Y-64978624D01*
X169782974Y-64986379D01*
X169707851Y-64992323D01*
X169632493Y-64996424D01*
X169556911Y-64998681D01*
X169481112Y-64999073D01*
X169405101Y-64997588D01*
X169328882Y-64994206D01*
X169255805Y-64989070D01*
X169182841Y-64981936D01*
X169110046Y-64972847D01*
X169037475Y-64961816D01*
X168965166Y-64948876D01*
X168893198Y-64934060D01*
X168821601Y-64917405D01*
X168750437Y-64898923D01*
X168679762Y-64878659D01*
X168609613Y-64856642D01*
X168540065Y-64832894D01*
X168471154Y-64807455D01*
X168402938Y-64780349D01*
X168335471Y-64751605D01*
X168268812Y-64721250D01*
X168203002Y-64689325D01*
X168138720Y-64656165D01*
X168075548Y-64621589D01*
X168013480Y-64585619D01*
X167952482Y-64548256D01*
X167892557Y-64509534D01*
X167833674Y-64469455D01*
X167775813Y-64428047D01*
X167718966Y-64385312D01*
X167663116Y-64341285D01*
X167608246Y-64295957D01*
X167554331Y-64249361D01*
X167501359Y-64201520D01*
X167449313Y-64152428D01*
X167398173Y-64102117D01*
X167347924Y-64050602D01*
X167298560Y-63997890D01*
X167297768Y-63997006D01*
X168421670Y-63997006D01*
X168439740Y-64008674D01*
X168458166Y-64019915D01*
X168476915Y-64030762D01*
X168495960Y-64041229D01*
X168534800Y-64061116D01*
X168574437Y-64079730D01*
X168614620Y-64097228D01*
X168655102Y-64113749D01*
X168695636Y-64129473D01*
X168735971Y-64144542D01*
X168819462Y-64173548D01*
X168903887Y-64199284D01*
X168989127Y-64221729D01*
X169075076Y-64240875D01*
X169161632Y-64256700D01*
X169248666Y-64269196D01*
X169336085Y-64278325D01*
X169423760Y-64284086D01*
X169511592Y-64286454D01*
X169599463Y-64285426D01*
X169687266Y-64280971D01*
X169774893Y-64273080D01*
X169862225Y-64261721D01*
X169949148Y-64246898D01*
X170035565Y-64228580D01*
X170121352Y-64206752D01*
X170178812Y-64190087D01*
X170245648Y-64168974D01*
X170318234Y-64144055D01*
X170392927Y-64115960D01*
X170429922Y-64100910D01*
X170466087Y-64085310D01*
X170500950Y-64069231D01*
X170534075Y-64052758D01*
X170564993Y-64035959D01*
X170593255Y-64018923D01*
X170618404Y-64001723D01*
X170639992Y-63984445D01*
X170321675Y-63311227D01*
X169083449Y-63311227D01*
X169416849Y-62608229D01*
X169967030Y-62608229D01*
X169542519Y-61717105D01*
X169533728Y-61725230D01*
X169525481Y-61734358D01*
X169517723Y-61744363D01*
X169510410Y-61755150D01*
X169503498Y-61766592D01*
X169496947Y-61778577D01*
X169490704Y-61790997D01*
X169484723Y-61803739D01*
X169473380Y-61829714D01*
X169462557Y-61855607D01*
X169451869Y-61880491D01*
X169446471Y-61892280D01*
X169440980Y-61903474D01*
X169380896Y-62023222D01*
X169322191Y-62143741D01*
X169206223Y-62385423D01*
X168931447Y-62951843D01*
X168654035Y-63516952D01*
X168625347Y-63573797D01*
X168594555Y-63633014D01*
X168530640Y-63755610D01*
X168499529Y-63817544D01*
X168470327Y-63878901D01*
X168444037Y-63938965D01*
X168432298Y-63968284D01*
X168421670Y-63997006D01*
X167297768Y-63997006D01*
X167259173Y-63953905D01*
X167220731Y-63908840D01*
X167183230Y-63862750D01*
X167146722Y-63815692D01*
X167111206Y-63767726D01*
X167076706Y-63718907D01*
X167043246Y-63669296D01*
X167010851Y-63618949D01*
X166979527Y-63567912D01*
X166949314Y-63516251D01*
X166920210Y-63464025D01*
X166892254Y-63411295D01*
X166865455Y-63358103D01*
X166839842Y-63304513D01*
X166815422Y-63250576D01*
X166792232Y-63196367D01*
X166747817Y-63084323D01*
X166707165Y-62970649D01*
X166670599Y-62855484D01*
X166638455Y-62738991D01*
X166611076Y-62621316D01*
X166599265Y-62562087D01*
X166588769Y-62502622D01*
X166579629Y-62442940D01*
X166571887Y-62383052D01*
X166565574Y-62322990D01*
X166560751Y-62262765D01*
X166554844Y-62139657D01*
X166554005Y-62043098D01*
X167263431Y-62043098D01*
X167269403Y-62162856D01*
X167277080Y-62246831D01*
X167287133Y-62330362D01*
X167299789Y-62413395D01*
X167315234Y-62495852D01*
X167333698Y-62577656D01*
X167355361Y-62658743D01*
X167367466Y-62698994D01*
X167380439Y-62739036D01*
X167394323Y-62778872D01*
X167409145Y-62818472D01*
X167442282Y-62901204D01*
X167479227Y-62986679D01*
X167499142Y-63029911D01*
X167520028Y-63073178D01*
X167541878Y-63116273D01*
X167564708Y-63158975D01*
X167588521Y-63201077D01*
X167613322Y-63242349D01*
X167639118Y-63282587D01*
X167665906Y-63321573D01*
X167693697Y-63359082D01*
X167722495Y-63394912D01*
X167752307Y-63428837D01*
X167783138Y-63460645D01*
X169038455Y-61006066D01*
X169033636Y-60995835D01*
X169027791Y-60984371D01*
X169013775Y-60958412D01*
X168997910Y-60929593D01*
X168981718Y-60899361D01*
X168973970Y-60884149D01*
X168966699Y-60869114D01*
X168960099Y-60854436D01*
X168954375Y-60840281D01*
X168949691Y-60826845D01*
X168946243Y-60814286D01*
X168944226Y-60802796D01*
X168943811Y-60797505D01*
X168943829Y-60792549D01*
X168944213Y-60787801D01*
X168944895Y-60782964D01*
X168945849Y-60778054D01*
X168947067Y-60773070D01*
X168950226Y-60762908D01*
X168954248Y-60752533D01*
X168959009Y-60742014D01*
X168964386Y-60731404D01*
X168970258Y-60720754D01*
X168976503Y-60710133D01*
X168989597Y-60689166D01*
X169002713Y-60668970D01*
X169014839Y-60649997D01*
X169020235Y-60641113D01*
X169025011Y-60632698D01*
X169050895Y-60583221D01*
X169077760Y-60529421D01*
X169134014Y-60415668D01*
X169163174Y-60359103D01*
X169192871Y-60305022D01*
X169207898Y-60279438D01*
X169223018Y-60255117D01*
X169238213Y-60232257D01*
X169253478Y-60211078D01*
X169599570Y-60211078D01*
X171264195Y-63454868D01*
X171279321Y-63441640D01*
X171294024Y-63427465D01*
X171308317Y-63412445D01*
X171322210Y-63396665D01*
X171335717Y-63380228D01*
X171348843Y-63363226D01*
X171361603Y-63345753D01*
X171374019Y-63327897D01*
X171397815Y-63291440D01*
X171420331Y-63254624D01*
X171461876Y-63182918D01*
X171505653Y-63103471D01*
X171546685Y-63023120D01*
X171584814Y-62941737D01*
X171619886Y-62859211D01*
X171651754Y-62775411D01*
X171666434Y-62733002D01*
X171680251Y-62690233D01*
X171693186Y-62647087D01*
X171705233Y-62603543D01*
X171716354Y-62559598D01*
X171726533Y-62515231D01*
X171744244Y-62426838D01*
X171758783Y-62337801D01*
X171769992Y-62248267D01*
X171777702Y-62158381D01*
X171781737Y-62068273D01*
X171782329Y-62023175D01*
X171781933Y-61978086D01*
X171780545Y-61933006D01*
X171778129Y-61887962D01*
X171774667Y-61842964D01*
X171770144Y-61798035D01*
X171755652Y-61691701D01*
X171736440Y-61587026D01*
X171712621Y-61484107D01*
X171684303Y-61383058D01*
X171651602Y-61283999D01*
X171614631Y-61187035D01*
X171573515Y-61092280D01*
X171528356Y-60999850D01*
X171479272Y-60909843D01*
X171426379Y-60822390D01*
X171369791Y-60737584D01*
X171309621Y-60655561D01*
X171245979Y-60576410D01*
X171178987Y-60500245D01*
X171108756Y-60427196D01*
X171035404Y-60357356D01*
X170959036Y-60290849D01*
X170879769Y-60227780D01*
X170797727Y-60168261D01*
X170713011Y-60112410D01*
X170625741Y-60060328D01*
X170536041Y-60012149D01*
X170444003Y-59967959D01*
X170349767Y-59927876D01*
X170253428Y-59892026D01*
X170155111Y-59860508D01*
X170054920Y-59833436D01*
X169952976Y-59810927D01*
X169849389Y-59793089D01*
X169744290Y-59780039D01*
X169637762Y-59771875D01*
X169529954Y-59768715D01*
X169411245Y-59771303D01*
X169293795Y-59780314D01*
X169177790Y-59795560D01*
X169063410Y-59816883D01*
X168950843Y-59844093D01*
X168840278Y-59877027D01*
X168731887Y-59915495D01*
X168625862Y-59959330D01*
X168522382Y-60008349D01*
X168421642Y-60062388D01*
X168323810Y-60121262D01*
X168229086Y-60184787D01*
X168137643Y-60252810D01*
X168049669Y-60325127D01*
X167965347Y-60401580D01*
X167884868Y-60481989D01*
X167808414Y-60566180D01*
X167736161Y-60653976D01*
X167668297Y-60745196D01*
X167605006Y-60839665D01*
X167546476Y-60937217D01*
X167492889Y-61037662D01*
X167444430Y-61140827D01*
X167401282Y-61246549D01*
X167363629Y-61354644D01*
X167331649Y-61464918D01*
X167305547Y-61577222D01*
X167285489Y-61691370D01*
X167271656Y-61807184D01*
X167264244Y-61924481D01*
X167263431Y-62043098D01*
X166554005Y-62043098D01*
X166553782Y-62017366D01*
X166557497Y-61896001D01*
X166565922Y-61775664D01*
X166578977Y-61656474D01*
X166596615Y-61538531D01*
X166618753Y-61421936D01*
X166645344Y-61306814D01*
X166676307Y-61193242D01*
X166711580Y-61081357D01*
X166751104Y-60971251D01*
X166794804Y-60863036D01*
X166842616Y-60756813D01*
X166894480Y-60652708D01*
X166950327Y-60550804D01*
X167010080Y-60451216D01*
X167073693Y-60354054D01*
X167141076Y-60259429D01*
X167212189Y-60167439D01*
X167286951Y-60078197D01*
X167365296Y-59991808D01*
X167447165Y-59908389D01*
X167532489Y-59828017D01*
X167621193Y-59750835D01*
X167713221Y-59676937D01*
X167808511Y-59606421D01*
X167906990Y-59539400D01*
X168008587Y-59475990D01*
X168113249Y-59416283D01*
X168220898Y-59360403D01*
X168331477Y-59308437D01*
X168444916Y-59260515D01*
X168513698Y-59234050D01*
X168583545Y-59209233D01*
X168654356Y-59186099D01*
X168726022Y-59164690D01*
X168798435Y-59145042D01*
X168871493Y-59127216D01*
X168945095Y-59111237D01*
X169019138Y-59097155D01*
X169093508Y-59085010D01*
X169168106Y-59074853D01*
X169242832Y-59066719D01*
X169317575Y-59060655D01*
X169392237Y-59056699D01*
X169466703Y-59054894D01*
X169540879Y-59055296D01*
X169614656Y-59057929D01*
X169697451Y-59063179D01*
X169779588Y-59070383D01*
X169861100Y-59079554D01*
X169941994Y-59090716D01*
X170022285Y-59103862D01*
X170101994Y-59119005D01*
X170181135Y-59136162D01*
X170259733Y-59155341D01*
X170337802Y-59176543D01*
X170415356Y-59199782D01*
X170492426Y-59225069D01*
X170569016Y-59252417D01*
X170645146Y-59281820D01*
X170720835Y-59313310D01*
X170796107Y-59346877D01*
X170870976Y-59382540D01*
X170931480Y-59413297D01*
X170991228Y-59445702D01*
X171050209Y-59479700D01*
X171108363Y-59515239D01*
X171165674Y-59552270D01*
X171222112Y-59590729D01*
X171277622Y-59630580D01*
X171332185Y-59671768D01*
X171385766Y-59714231D01*
X171438329Y-59757937D01*
X171489837Y-59802827D01*
X171540261Y-59848835D01*
X171589569Y-59895932D01*
X171637722Y-59944053D01*
X171684687Y-59993153D01*
X171730431Y-60043183D01*
X171778193Y-60097878D01*
X171824671Y-60153650D01*
X171869817Y-60210478D01*
X171913621Y-60268331D01*
X171956040Y-60327193D01*
X171997055Y-60387034D01*
X172036620Y-60447815D01*
X172074724Y-60509525D01*
X172111321Y-60572139D01*
X172146386Y-60635629D01*
X172179897Y-60699959D01*
X172211806Y-60765117D01*
X172242102Y-60831067D01*
X172270743Y-60897795D01*
X172297711Y-60965264D01*
X172322967Y-61033462D01*
X172343451Y-61093044D01*
X172362643Y-61153109D01*
X172380524Y-61213618D01*
X172397109Y-61274525D01*
X172412375Y-61335804D01*
X172426343Y-61397426D01*
X172450311Y-61521513D01*
X172469006Y-61646511D01*
X172482392Y-61772114D01*
X172490438Y-61898032D01*
X172493105Y-62023175D01*
X172493125Y-62023988D01*
G37*
X171905113Y-65734143D02*
X171784862Y-65731680D01*
X171754612Y-65732199D01*
X171739604Y-65732946D01*
X171724730Y-65734091D01*
X171709996Y-65735694D01*
X171695447Y-65737813D01*
X171681090Y-65740503D01*
X171666964Y-65743820D01*
X171666964Y-66291869D01*
X171156626Y-66291869D01*
X171156626Y-66766024D01*
X171666340Y-66766024D01*
X171669087Y-67009946D01*
X171669009Y-67253997D01*
X171666964Y-67741969D01*
X171668282Y-67835547D01*
X171668077Y-67860383D01*
X171667187Y-67885347D01*
X171665392Y-67910213D01*
X171662459Y-67934760D01*
X171658163Y-67958767D01*
X171652271Y-67981996D01*
X171644556Y-68004233D01*
X171639942Y-68014902D01*
X171634782Y-68025246D01*
X171629065Y-68035221D01*
X171622727Y-68044810D01*
X171615782Y-68053978D01*
X171608170Y-68062708D01*
X171599873Y-68070953D01*
X171590860Y-68078709D01*
X171581105Y-68085931D01*
X171570581Y-68092591D01*
X171562523Y-68097055D01*
X171554288Y-68101140D01*
X171537327Y-68108207D01*
X171519799Y-68113884D01*
X171501774Y-68118242D01*
X171483358Y-68121352D01*
X171464629Y-68123318D01*
X171445669Y-68124193D01*
X171426579Y-68124069D01*
X171407446Y-68123018D01*
X171388350Y-68121125D01*
X171369386Y-68118461D01*
X171350650Y-68115104D01*
X171332216Y-68111136D01*
X171314179Y-68106644D01*
X171296630Y-68101692D01*
X171279652Y-68096364D01*
X171271372Y-68093520D01*
X171263186Y-68090486D01*
X171247050Y-68084051D01*
X171215283Y-68070817D01*
X171199370Y-68064718D01*
X171191351Y-68061954D01*
X171183267Y-68059427D01*
X171175102Y-68057191D01*
X171166844Y-68055283D01*
X171158465Y-68053744D01*
X171149958Y-68052624D01*
X171149958Y-68521123D01*
X171170607Y-68532153D01*
X171191462Y-68542423D01*
X171212518Y-68551950D01*
X171233765Y-68560768D01*
X171255212Y-68568886D01*
X171276843Y-68576315D01*
X171298660Y-68583068D01*
X171320671Y-68589175D01*
X171342852Y-68594645D01*
X171365218Y-68599496D01*
X171387760Y-68603744D01*
X171410471Y-68607398D01*
X171433350Y-68610495D01*
X171456389Y-68613027D01*
X171479599Y-68615025D01*
X171502966Y-68616507D01*
X171537738Y-68617869D01*
X171572406Y-68618343D01*
X171606980Y-68617893D01*
X171641472Y-68616479D01*
X171675900Y-68614067D01*
X171710286Y-68610614D01*
X171744628Y-68606072D01*
X171778936Y-68600420D01*
X171800512Y-68596085D01*
X171822017Y-68590919D01*
X171843377Y-68584918D01*
X171864535Y-68578102D01*
X171885415Y-68570475D01*
X171905951Y-68562059D01*
X171926066Y-68552845D01*
X171935953Y-68547955D01*
X171945705Y-68542870D01*
X171979750Y-68523135D01*
X172011238Y-68501783D01*
X172040268Y-68478867D01*
X172066930Y-68454474D01*
X172091326Y-68428690D01*
X172113551Y-68401580D01*
X172133706Y-68373234D01*
X172151879Y-68343730D01*
X172168172Y-68313137D01*
X172182680Y-68281540D01*
X172195517Y-68249010D01*
X172206749Y-68215643D01*
X172216489Y-68181508D01*
X172224847Y-68146663D01*
X172237745Y-68075233D01*
X172246222Y-68001972D01*
X172251064Y-67927513D01*
X172253032Y-67852475D01*
X172252904Y-67777495D01*
X172246934Y-67490632D01*
X172246934Y-67176459D01*
X172246934Y-66766145D01*
X172517756Y-66766145D01*
X172517756Y-66291743D01*
X172246806Y-66291743D01*
X172246806Y-65741306D01*
X172226138Y-65738019D01*
X172205240Y-65735409D01*
X172184144Y-65733413D01*
X172162877Y-65731972D01*
X172119963Y-65730479D01*
X172076720Y-65730413D01*
X171905113Y-65734143D01*
G36*
X172119963Y-65730479D02*
G01*
X172162877Y-65731972D01*
X172184144Y-65733413D01*
X172205240Y-65735409D01*
X172226138Y-65738019D01*
X172246806Y-65741306D01*
X172246806Y-66291743D01*
X172517756Y-66291743D01*
X172517756Y-66766145D01*
X172246934Y-66766145D01*
X172246934Y-67176459D01*
X172246934Y-67490632D01*
X172252904Y-67777495D01*
X172253032Y-67852475D01*
X172251064Y-67927513D01*
X172246222Y-68001972D01*
X172237745Y-68075233D01*
X172224847Y-68146663D01*
X172216489Y-68181508D01*
X172206749Y-68215643D01*
X172195517Y-68249010D01*
X172182680Y-68281540D01*
X172168172Y-68313137D01*
X172151879Y-68343730D01*
X172133706Y-68373234D01*
X172113551Y-68401580D01*
X172091326Y-68428690D01*
X172066930Y-68454474D01*
X172040268Y-68478867D01*
X172011238Y-68501783D01*
X171979750Y-68523135D01*
X171945705Y-68542870D01*
X171935953Y-68547955D01*
X171926066Y-68552845D01*
X171905951Y-68562059D01*
X171885415Y-68570475D01*
X171864535Y-68578102D01*
X171843377Y-68584918D01*
X171822017Y-68590919D01*
X171800512Y-68596085D01*
X171778936Y-68600420D01*
X171744628Y-68606072D01*
X171710286Y-68610614D01*
X171675900Y-68614067D01*
X171641472Y-68616479D01*
X171606980Y-68617893D01*
X171572406Y-68618343D01*
X171537738Y-68617869D01*
X171502966Y-68616507D01*
X171479599Y-68615025D01*
X171456389Y-68613027D01*
X171433350Y-68610495D01*
X171410471Y-68607398D01*
X171387760Y-68603744D01*
X171365218Y-68599496D01*
X171342852Y-68594645D01*
X171320671Y-68589175D01*
X171298660Y-68583068D01*
X171276843Y-68576315D01*
X171255212Y-68568886D01*
X171233765Y-68560768D01*
X171212518Y-68551950D01*
X171191462Y-68542423D01*
X171170607Y-68532153D01*
X171149958Y-68521123D01*
X171149958Y-68052624D01*
X171158465Y-68053744D01*
X171166844Y-68055283D01*
X171175102Y-68057191D01*
X171183267Y-68059427D01*
X171191351Y-68061954D01*
X171199370Y-68064718D01*
X171215283Y-68070817D01*
X171247050Y-68084051D01*
X171263186Y-68090486D01*
X171271372Y-68093520D01*
X171279652Y-68096364D01*
X171296630Y-68101692D01*
X171314179Y-68106644D01*
X171332216Y-68111136D01*
X171350650Y-68115104D01*
X171369386Y-68118461D01*
X171388350Y-68121125D01*
X171407446Y-68123018D01*
X171426579Y-68124069D01*
X171445669Y-68124193D01*
X171464629Y-68123318D01*
X171483358Y-68121352D01*
X171501774Y-68118242D01*
X171519799Y-68113884D01*
X171537327Y-68108207D01*
X171554288Y-68101140D01*
X171562523Y-68097055D01*
X171570581Y-68092591D01*
X171581105Y-68085931D01*
X171590860Y-68078709D01*
X171599873Y-68070953D01*
X171608170Y-68062708D01*
X171615782Y-68053978D01*
X171622727Y-68044810D01*
X171629065Y-68035221D01*
X171634782Y-68025246D01*
X171639942Y-68014902D01*
X171644556Y-68004233D01*
X171652271Y-67981996D01*
X171658163Y-67958767D01*
X171662459Y-67934760D01*
X171665392Y-67910213D01*
X171667187Y-67885347D01*
X171668077Y-67860383D01*
X171668282Y-67835547D01*
X171666964Y-67741969D01*
X171669009Y-67253997D01*
X171669087Y-67009946D01*
X171666340Y-66766024D01*
X171156626Y-66766024D01*
X171156626Y-66291869D01*
X171666964Y-66291869D01*
X171666964Y-65743820D01*
X171681090Y-65740503D01*
X171695447Y-65737813D01*
X171709996Y-65735694D01*
X171724730Y-65734091D01*
X171739604Y-65732946D01*
X171754612Y-65732199D01*
X171784862Y-65731680D01*
X171905113Y-65734143D01*
X172076720Y-65730413D01*
X172119963Y-65730479D01*
G37*
X167368051Y-68578808D02*
X167951284Y-68578808D01*
X167951284Y-65450880D01*
X167368051Y-65450880D01*
X167368051Y-68578808D01*
G36*
X167951284Y-68578808D02*
G01*
X167368051Y-68578808D01*
X167368051Y-65450880D01*
X167951284Y-65450880D01*
X167951284Y-68578808D01*
G37*
X174148944Y-68578808D02*
X174745252Y-68578808D01*
X174927472Y-68050738D01*
X176089923Y-68050738D01*
X176278429Y-68578808D01*
X176874610Y-68578808D01*
X176506910Y-67543537D01*
X175916746Y-67543537D01*
X175107433Y-67543537D01*
X175511835Y-66322778D01*
X175916746Y-67543537D01*
X176506910Y-67543537D01*
X175851146Y-65697199D01*
X175172532Y-65697199D01*
X174148944Y-68578808D01*
G36*
X176874610Y-68578808D02*
G01*
X176278429Y-68578808D01*
X176089923Y-68050738D01*
X174927472Y-68050738D01*
X174745252Y-68578808D01*
X174148944Y-68578808D01*
X174516687Y-67543537D01*
X175107433Y-67543537D01*
X175916746Y-67543537D01*
X175511835Y-66322778D01*
X175107433Y-67543537D01*
X174516687Y-67543537D01*
X175172532Y-65697199D01*
X175851146Y-65697199D01*
X176506910Y-67543537D01*
X176874610Y-68578808D01*
G37*
X169818814Y-66255215D02*
X169780894Y-66256425D01*
X169743028Y-66258733D01*
X169705290Y-66262333D01*
X169667753Y-66267417D01*
X169649072Y-66270582D01*
X169630490Y-66274185D01*
X169611982Y-66278251D01*
X169593578Y-66282813D01*
X169575277Y-66287890D01*
X169557095Y-66293500D01*
X169536367Y-66300561D01*
X169515855Y-66308212D01*
X169495566Y-66316442D01*
X169475526Y-66325249D01*
X169455758Y-66334637D01*
X169436243Y-66344564D01*
X169417045Y-66355058D01*
X169398155Y-66366096D01*
X169379589Y-66377663D01*
X169361371Y-66389763D01*
X169343501Y-66402388D01*
X169326013Y-66415529D01*
X169308917Y-66429174D01*
X169292231Y-66443323D01*
X169275963Y-66457963D01*
X169260136Y-66473081D01*
X169252546Y-66480791D01*
X169245144Y-66488735D01*
X169237920Y-66496853D01*
X169230835Y-66505124D01*
X169216959Y-66521960D01*
X169203272Y-66538954D01*
X169189544Y-66555774D01*
X169175525Y-66572141D01*
X169168329Y-66580051D01*
X169160974Y-66587730D01*
X169153425Y-66595157D01*
X169145654Y-66602273D01*
X169145654Y-66292241D01*
X168569829Y-66292241D01*
X168569829Y-68578934D01*
X169145403Y-68578934D01*
X169145403Y-68260234D01*
X169153473Y-68267505D01*
X169161313Y-68275069D01*
X169168951Y-68282880D01*
X169176406Y-68290915D01*
X169183731Y-68299123D01*
X169190945Y-68307492D01*
X169205162Y-68324513D01*
X169219302Y-68341706D01*
X169233622Y-68358774D01*
X169240924Y-68367178D01*
X169248369Y-68375442D01*
X169255974Y-68383543D01*
X169263781Y-68391429D01*
X169281388Y-68408237D01*
X169299449Y-68424512D01*
X169317961Y-68440242D01*
X169336917Y-68455411D01*
X169356309Y-68469988D01*
X169376110Y-68483977D01*
X169396321Y-68497349D01*
X169416929Y-68510082D01*
X169437916Y-68522164D01*
X169459280Y-68533580D01*
X169481008Y-68544301D01*
X169503081Y-68554318D01*
X169525496Y-68563613D01*
X169548246Y-68572162D01*
X169571305Y-68579965D01*
X169594670Y-68586974D01*
X169613781Y-68592115D01*
X169632968Y-68596727D01*
X169652241Y-68600839D01*
X169671584Y-68604477D01*
X169690994Y-68607647D01*
X169710461Y-68610371D01*
X169729978Y-68612665D01*
X169749548Y-68614548D01*
X169788788Y-68617133D01*
X169828139Y-68618278D01*
X169867549Y-68618108D01*
X169906960Y-68616764D01*
X169964637Y-68612552D01*
X170020700Y-68605510D01*
X170075131Y-68595723D01*
X170127927Y-68583273D01*
X170179074Y-68568227D01*
X170228561Y-68550683D01*
X170276383Y-68530708D01*
X170322528Y-68508390D01*
X170366978Y-68483797D01*
X170409739Y-68457021D01*
X170450786Y-68428144D01*
X170490114Y-68397233D01*
X170527709Y-68364381D01*
X170563571Y-68329660D01*
X170597685Y-68293166D01*
X170630033Y-68254952D01*
X170660618Y-68215125D01*
X170689413Y-68173750D01*
X170716433Y-68130908D01*
X170741645Y-68086693D01*
X170765051Y-68041161D01*
X170786633Y-67994414D01*
X170806386Y-67946525D01*
X170824301Y-67897573D01*
X170840361Y-67847630D01*
X170854563Y-67796790D01*
X170866890Y-67745128D01*
X170877342Y-67692728D01*
X170885896Y-67639667D01*
X170892558Y-67586022D01*
X170900129Y-67477312D01*
X170899742Y-67422784D01*
X170307208Y-67422784D01*
X170306260Y-67480393D01*
X170301602Y-67537732D01*
X170293246Y-67594453D01*
X170281201Y-67650209D01*
X170265451Y-67704634D01*
X170246016Y-67757379D01*
X170222876Y-67808080D01*
X170196057Y-67856389D01*
X170165552Y-67901953D01*
X170131359Y-67944410D01*
X170093482Y-67983418D01*
X170051931Y-68018606D01*
X170006701Y-68049624D01*
X169957790Y-68076122D01*
X169905203Y-68097741D01*
X169890910Y-68102460D01*
X169876498Y-68106692D01*
X169861982Y-68110446D01*
X169847369Y-68113742D01*
X169832670Y-68116603D01*
X169817893Y-68119045D01*
X169803056Y-68121073D01*
X169788153Y-68122720D01*
X169773209Y-68124004D01*
X169758235Y-68124927D01*
X169743235Y-68125524D01*
X169728218Y-68125807D01*
X169698172Y-68125494D01*
X169668191Y-68124133D01*
X169600555Y-68115975D01*
X169537595Y-68100464D01*
X169479282Y-68078101D01*
X169425613Y-68049414D01*
X169376579Y-68014900D01*
X169332156Y-67975076D01*
X169292330Y-67930446D01*
X169257103Y-67881526D01*
X169226453Y-67828828D01*
X169200369Y-67772854D01*
X169178826Y-67714126D01*
X169161826Y-67653149D01*
X169149348Y-67590429D01*
X169141382Y-67526484D01*
X169137925Y-67461823D01*
X169138944Y-67396948D01*
X169144436Y-67332380D01*
X169154395Y-67268620D01*
X169168793Y-67206200D01*
X169187628Y-67145600D01*
X169210886Y-67087351D01*
X169238549Y-67031955D01*
X169270614Y-66979937D01*
X169307055Y-66931781D01*
X169347864Y-66888023D01*
X169393035Y-66849153D01*
X169442537Y-66815700D01*
X169496381Y-66788166D01*
X169554537Y-66767057D01*
X169616999Y-66752894D01*
X169683751Y-66746180D01*
X169754774Y-66747418D01*
X169817102Y-66755161D01*
X169875689Y-66768674D01*
X169930536Y-66787609D01*
X169981652Y-66811608D01*
X170029031Y-66840317D01*
X170072685Y-66873373D01*
X170112608Y-66910424D01*
X170148794Y-66951125D01*
X170181268Y-66995116D01*
X170210017Y-67042033D01*
X170235043Y-67091543D01*
X170256351Y-67143257D01*
X170273942Y-67196850D01*
X170287826Y-67251952D01*
X170297999Y-67308208D01*
X170304453Y-67365274D01*
X170307208Y-67422784D01*
X170899742Y-67422784D01*
X170899298Y-67360142D01*
X170888965Y-67244593D01*
X170869330Y-67131497D01*
X170840586Y-67021669D01*
X170822856Y-66968235D01*
X170802925Y-66915918D01*
X170780818Y-66864831D01*
X170756556Y-66815062D01*
X170730162Y-66766724D01*
X170701671Y-66719909D01*
X170671094Y-66674737D01*
X170638455Y-66631284D01*
X170603787Y-66589674D01*
X170567118Y-66550001D01*
X170528459Y-66512360D01*
X170487848Y-66476862D01*
X170445301Y-66443616D01*
X170400846Y-66412700D01*
X170354507Y-66384237D01*
X170306303Y-66358316D01*
X170256272Y-66335049D01*
X170204426Y-66314533D01*
X170150788Y-66296873D01*
X170095400Y-66282160D01*
X170038266Y-66270514D01*
X169979421Y-66262026D01*
X169918890Y-66256791D01*
X169856691Y-66254915D01*
X169818814Y-66255215D01*
G36*
X170900129Y-67477312D02*
G01*
X170892558Y-67586022D01*
X170885896Y-67639667D01*
X170877342Y-67692728D01*
X170866890Y-67745128D01*
X170854563Y-67796790D01*
X170840361Y-67847630D01*
X170824301Y-67897573D01*
X170806386Y-67946525D01*
X170786633Y-67994414D01*
X170765051Y-68041161D01*
X170741645Y-68086693D01*
X170716433Y-68130908D01*
X170689413Y-68173750D01*
X170660618Y-68215125D01*
X170630033Y-68254952D01*
X170597685Y-68293166D01*
X170563571Y-68329660D01*
X170527709Y-68364381D01*
X170490114Y-68397233D01*
X170450786Y-68428144D01*
X170409739Y-68457021D01*
X170366978Y-68483797D01*
X170322528Y-68508390D01*
X170276383Y-68530708D01*
X170228561Y-68550683D01*
X170179074Y-68568227D01*
X170127927Y-68583273D01*
X170075131Y-68595723D01*
X170020700Y-68605510D01*
X169964637Y-68612552D01*
X169906960Y-68616764D01*
X169867549Y-68618108D01*
X169828139Y-68618278D01*
X169788788Y-68617133D01*
X169749548Y-68614548D01*
X169729978Y-68612665D01*
X169710461Y-68610371D01*
X169690994Y-68607647D01*
X169671584Y-68604477D01*
X169652241Y-68600839D01*
X169632968Y-68596727D01*
X169613781Y-68592115D01*
X169594670Y-68586974D01*
X169571305Y-68579965D01*
X169548246Y-68572162D01*
X169525496Y-68563613D01*
X169503081Y-68554318D01*
X169481008Y-68544301D01*
X169459280Y-68533580D01*
X169437916Y-68522164D01*
X169416929Y-68510082D01*
X169396321Y-68497349D01*
X169376110Y-68483977D01*
X169356309Y-68469988D01*
X169336917Y-68455411D01*
X169317961Y-68440242D01*
X169299449Y-68424512D01*
X169281388Y-68408237D01*
X169263781Y-68391429D01*
X169255974Y-68383543D01*
X169248369Y-68375442D01*
X169240924Y-68367178D01*
X169233622Y-68358774D01*
X169219302Y-68341706D01*
X169205162Y-68324513D01*
X169190945Y-68307492D01*
X169183731Y-68299123D01*
X169176406Y-68290915D01*
X169168951Y-68282880D01*
X169161313Y-68275069D01*
X169153473Y-68267505D01*
X169145403Y-68260234D01*
X169145403Y-68578934D01*
X168569829Y-68578934D01*
X168569829Y-67461823D01*
X169137925Y-67461823D01*
X169141382Y-67526484D01*
X169149348Y-67590429D01*
X169161826Y-67653149D01*
X169178826Y-67714126D01*
X169200369Y-67772854D01*
X169226453Y-67828828D01*
X169257103Y-67881526D01*
X169292330Y-67930446D01*
X169332156Y-67975076D01*
X169376579Y-68014900D01*
X169425613Y-68049414D01*
X169479282Y-68078101D01*
X169537595Y-68100464D01*
X169600555Y-68115975D01*
X169668191Y-68124133D01*
X169698172Y-68125494D01*
X169728218Y-68125807D01*
X169743235Y-68125524D01*
X169758235Y-68124927D01*
X169773209Y-68124004D01*
X169788153Y-68122720D01*
X169803056Y-68121073D01*
X169817893Y-68119045D01*
X169832670Y-68116603D01*
X169847369Y-68113742D01*
X169861982Y-68110446D01*
X169876498Y-68106692D01*
X169890910Y-68102460D01*
X169905203Y-68097741D01*
X169957790Y-68076122D01*
X170006701Y-68049624D01*
X170051931Y-68018606D01*
X170093482Y-67983418D01*
X170131359Y-67944410D01*
X170165552Y-67901953D01*
X170196057Y-67856389D01*
X170222876Y-67808080D01*
X170246016Y-67757379D01*
X170265451Y-67704634D01*
X170281201Y-67650209D01*
X170293246Y-67594453D01*
X170301602Y-67537732D01*
X170306260Y-67480393D01*
X170307208Y-67422784D01*
X170304453Y-67365274D01*
X170297999Y-67308208D01*
X170287826Y-67251952D01*
X170273942Y-67196850D01*
X170256351Y-67143257D01*
X170235043Y-67091543D01*
X170210017Y-67042033D01*
X170181268Y-66995116D01*
X170148794Y-66951125D01*
X170112608Y-66910424D01*
X170072685Y-66873373D01*
X170029031Y-66840317D01*
X169981652Y-66811608D01*
X169930536Y-66787609D01*
X169875689Y-66768674D01*
X169817102Y-66755161D01*
X169754774Y-66747418D01*
X169683751Y-66746180D01*
X169616999Y-66752894D01*
X169554537Y-66767057D01*
X169496381Y-66788166D01*
X169442537Y-66815700D01*
X169393035Y-66849153D01*
X169347864Y-66888023D01*
X169307055Y-66931781D01*
X169270614Y-66979937D01*
X169238549Y-67031955D01*
X169210886Y-67087351D01*
X169187628Y-67145600D01*
X169168793Y-67206200D01*
X169154395Y-67268620D01*
X169144436Y-67332380D01*
X169138944Y-67396948D01*
X169137925Y-67461823D01*
X168569829Y-67461823D01*
X168569829Y-66292241D01*
X169145654Y-66292241D01*
X169145654Y-66602273D01*
X169153425Y-66595157D01*
X169160974Y-66587730D01*
X169168329Y-66580051D01*
X169175525Y-66572141D01*
X169189544Y-66555774D01*
X169203272Y-66538954D01*
X169216959Y-66521960D01*
X169230835Y-66505124D01*
X169237920Y-66496853D01*
X169245144Y-66488735D01*
X169252546Y-66480791D01*
X169260136Y-66473081D01*
X169275963Y-66457963D01*
X169292231Y-66443323D01*
X169308917Y-66429174D01*
X169326013Y-66415529D01*
X169343501Y-66402388D01*
X169361371Y-66389763D01*
X169379589Y-66377663D01*
X169398155Y-66366096D01*
X169417045Y-66355058D01*
X169436243Y-66344564D01*
X169455758Y-66334637D01*
X169475526Y-66325249D01*
X169495566Y-66316442D01*
X169515855Y-66308212D01*
X169536367Y-66300561D01*
X169557095Y-66293500D01*
X169575277Y-66287890D01*
X169593578Y-66282813D01*
X169611982Y-66278251D01*
X169630490Y-66274185D01*
X169649072Y-66270582D01*
X169667753Y-66267417D01*
X169705290Y-66262333D01*
X169743028Y-66258733D01*
X169780894Y-66256425D01*
X169818814Y-66255215D01*
X169856691Y-66254915D01*
X169918890Y-66256791D01*
X169979421Y-66262026D01*
X170038266Y-66270514D01*
X170095400Y-66282160D01*
X170150788Y-66296873D01*
X170204426Y-66314533D01*
X170256272Y-66335049D01*
X170306303Y-66358316D01*
X170354507Y-66384237D01*
X170400846Y-66412700D01*
X170445301Y-66443616D01*
X170487848Y-66476862D01*
X170528459Y-66512360D01*
X170567118Y-66550001D01*
X170603787Y-66589674D01*
X170638455Y-66631284D01*
X170671094Y-66674737D01*
X170701671Y-66719909D01*
X170730162Y-66766724D01*
X170756556Y-66815062D01*
X170780818Y-66864831D01*
X170802925Y-66915918D01*
X170822856Y-66968235D01*
X170840586Y-67021669D01*
X170869330Y-67131497D01*
X170888965Y-67244593D01*
X170899298Y-67360142D01*
X170899742Y-67422784D01*
X170900129Y-67477312D01*
G37*
%LPC*%
D13*
%TO.C,J5*%
X156406760Y-80159086D03*
X158406760Y-80159086D03*
D14*
X160406760Y-80159086D03*
%TD*%
D15*
%TO.C,H1*%
X155132760Y-56038086D03*
%TD*%
D16*
%TO.C,J3*%
X175132760Y-56038086D03*
D17*
X177672760Y-56038086D03*
X180212760Y-56038086D03*
X182752760Y-56038086D03*
%TD*%
D14*
%TO.C,J2*%
X168137760Y-80159086D03*
D13*
X166137760Y-80159086D03*
%TD*%
D18*
%TO.C,J1*%
X173360760Y-80159086D03*
D19*
X175900760Y-80159086D03*
X178440760Y-80159086D03*
%TD*%
D20*
%TO.C,J4*%
X155132760Y-71038086D03*
D21*
X155132760Y-68538086D03*
%TD*%
D15*
%TO.C,H2*%
X185933760Y-80159086D03*
%TD*%
%LPD*%
M02*
