%TF.GenerationSoftware,KiCad,Pcbnew,10.0.5*%
%TF.CreationDate,2026-08-26T15:58:32+03:00*%
%TF.ProjectId,5V_1Fan,35565f31-4661-46e2-9e6b-696361645f70,rev?*%
%TF.SameCoordinates,Original*%
%TF.FileFunction,Legend,Top*%
%TF.FilePolarity,Positive*%
%FSLAX46Y46*%
G04 Gerber Fmt 4.6, Leading zero omitted, Abs format (unit mm)*
G04 Created by KiCad (PCBNEW 10.0.5) date 2026-08-26 15:58:32*
%MOMM*%
%LPD*%
G01*
G04 APERTURE LIST*
G04 Aperture macros list*
%AMRoundRect*
0 Rectangle with rounded corners*
0 $1 Rounding radius*
0 $2 $3 $4 $5 $6 $7 $8 $9 X,Y pos of 4 corners*
0 Add a 4 corners polygon primitive as box body*
4,1,4,$2,$3,$4,$5,$6,$7,$8,$9,$2,$3,0*
0 Add four circle primitives for the rounded corners*
1,1,$1+$1,$2,$3*
1,1,$1+$1,$4,$5*
1,1,$1+$1,$6,$7*
1,1,$1+$1,$8,$9*
0 Add four rect primitives between the rounded corners*
20,1,$1+$1,$2,$3,$4,$5,0*
20,1,$1+$1,$4,$5,$6,$7,0*
20,1,$1+$1,$6,$7,$8,$9,0*
20,1,$1+$1,$8,$9,$2,$3,0*%
G04 Aperture macros list end*
%ADD10C,0.150000*%
%ADD11C,0.240000*%
%ADD12C,0.125000*%
%ADD13C,0.100000*%
%ADD14C,0.120000*%
%ADD15O,1.200000X1.750000*%
%ADD16RoundRect,0.250000X0.350000X0.625000X-0.350000X0.625000X-0.350000X-0.625000X0.350000X-0.625000X0*%
%ADD17RoundRect,0.250000X-0.350000X-0.450000X0.350000X-0.450000X0.350000X0.450000X-0.350000X0.450000X0*%
%ADD18C,3.200000*%
%ADD19RoundRect,0.250000X-0.620000X-0.845000X0.620000X-0.845000X0.620000X0.845000X-0.620000X0.845000X0*%
%ADD20O,1.740000X2.190000*%
%ADD21RoundRect,0.150000X-0.825000X-0.150000X0.825000X-0.150000X0.825000X0.150000X-0.825000X0.150000X0*%
%ADD22RoundRect,0.250000X-0.412500X-0.650000X0.412500X-0.650000X0.412500X0.650000X-0.412500X0.650000X0*%
%ADD23RoundRect,0.150000X0.587500X0.150000X-0.587500X0.150000X-0.587500X-0.150000X0.587500X-0.150000X0*%
%ADD24RoundRect,0.250000X-0.450000X0.350000X-0.450000X-0.350000X0.450000X-0.350000X0.450000X0.350000X0*%
%ADD25R,1.700000X1.700000*%
%ADD26C,1.700000*%
%ADD27RoundRect,0.150000X-0.587500X-0.150000X0.587500X-0.150000X0.587500X0.150000X-0.587500X0.150000X0*%
%ADD28RoundRect,0.250000X0.750000X-0.600000X0.750000X0.600000X-0.750000X0.600000X-0.750000X-0.600000X0*%
%ADD29O,2.000000X1.700000*%
%ADD30RoundRect,0.250001X-0.462499X-0.624999X0.462499X-0.624999X0.462499X0.624999X-0.462499X0.624999X0*%
%ADD31RoundRect,0.250000X-0.650000X0.412500X-0.650000X-0.412500X0.650000X-0.412500X0.650000X0.412500X0*%
%ADD32RoundRect,0.250000X0.350000X0.450000X-0.350000X0.450000X-0.350000X-0.450000X0.350000X-0.450000X0*%
%ADD33RoundRect,0.250000X-0.337500X-0.475000X0.337500X-0.475000X0.337500X0.475000X-0.337500X0.475000X0*%
%ADD34RoundRect,0.250000X0.450000X-0.350000X0.450000X0.350000X-0.450000X0.350000X-0.450000X-0.350000X0*%
G04 APERTURE END LIST*
D10*
X156578541Y-59782152D02*
X156816636Y-60448819D01*
X156816636Y-60448819D02*
X157054731Y-59782152D01*
X157959493Y-60448819D02*
X157388065Y-60448819D01*
X157673779Y-60448819D02*
X157673779Y-59448819D01*
X157673779Y-59448819D02*
X157578541Y-59591676D01*
X157578541Y-59591676D02*
X157483303Y-59686914D01*
X157483303Y-59686914D02*
X157388065Y-59734533D01*
X158388065Y-60353580D02*
X158435684Y-60401200D01*
X158435684Y-60401200D02*
X158388065Y-60448819D01*
X158388065Y-60448819D02*
X158340446Y-60401200D01*
X158340446Y-60401200D02*
X158388065Y-60353580D01*
X158388065Y-60353580D02*
X158388065Y-60448819D01*
X159054731Y-59448819D02*
X159149969Y-59448819D01*
X159149969Y-59448819D02*
X159245207Y-59496438D01*
X159245207Y-59496438D02*
X159292826Y-59544057D01*
X159292826Y-59544057D02*
X159340445Y-59639295D01*
X159340445Y-59639295D02*
X159388064Y-59829771D01*
X159388064Y-59829771D02*
X159388064Y-60067866D01*
X159388064Y-60067866D02*
X159340445Y-60258342D01*
X159340445Y-60258342D02*
X159292826Y-60353580D01*
X159292826Y-60353580D02*
X159245207Y-60401200D01*
X159245207Y-60401200D02*
X159149969Y-60448819D01*
X159149969Y-60448819D02*
X159054731Y-60448819D01*
X159054731Y-60448819D02*
X158959493Y-60401200D01*
X158959493Y-60401200D02*
X158911874Y-60353580D01*
X158911874Y-60353580D02*
X158864255Y-60258342D01*
X158864255Y-60258342D02*
X158816636Y-60067866D01*
X158816636Y-60067866D02*
X158816636Y-59829771D01*
X158816636Y-59829771D02*
X158864255Y-59639295D01*
X158864255Y-59639295D02*
X158911874Y-59544057D01*
X158911874Y-59544057D02*
X158959493Y-59496438D01*
X158959493Y-59496438D02*
X159054731Y-59448819D01*
X157149969Y-57670819D02*
X156673779Y-57670819D01*
X156673779Y-57670819D02*
X156626160Y-58147009D01*
X156626160Y-58147009D02*
X156673779Y-58099390D01*
X156673779Y-58099390D02*
X156769017Y-58051771D01*
X156769017Y-58051771D02*
X157007112Y-58051771D01*
X157007112Y-58051771D02*
X157102350Y-58099390D01*
X157102350Y-58099390D02*
X157149969Y-58147009D01*
X157149969Y-58147009D02*
X157197588Y-58242247D01*
X157197588Y-58242247D02*
X157197588Y-58480342D01*
X157197588Y-58480342D02*
X157149969Y-58575580D01*
X157149969Y-58575580D02*
X157102350Y-58623200D01*
X157102350Y-58623200D02*
X157007112Y-58670819D01*
X157007112Y-58670819D02*
X156769017Y-58670819D01*
X156769017Y-58670819D02*
X156673779Y-58623200D01*
X156673779Y-58623200D02*
X156626160Y-58575580D01*
X157483303Y-57670819D02*
X157816636Y-58670819D01*
X157816636Y-58670819D02*
X158149969Y-57670819D01*
X158769017Y-58194628D02*
X158769017Y-58385104D01*
X158816636Y-58385104D02*
X158816636Y-58194628D01*
X158864255Y-58147009D02*
X158864255Y-58432723D01*
X158911874Y-58385104D02*
X158911874Y-58194628D01*
X158959493Y-58194628D02*
X158959493Y-58385104D01*
X158769017Y-58337485D02*
X158864255Y-58432723D01*
X158864255Y-58432723D02*
X158959493Y-58337485D01*
X158769017Y-58242247D02*
X158864255Y-58147009D01*
X158864255Y-58147009D02*
X158959493Y-58242247D01*
X158769017Y-58194628D02*
X158864255Y-58147009D01*
X158864255Y-58147009D02*
X158959493Y-58194628D01*
X158959493Y-58194628D02*
X159007112Y-58289866D01*
X159007112Y-58289866D02*
X158959493Y-58385104D01*
X158959493Y-58385104D02*
X158864255Y-58432723D01*
X158864255Y-58432723D02*
X158769017Y-58385104D01*
X158769017Y-58385104D02*
X158721398Y-58289866D01*
X158721398Y-58289866D02*
X158769017Y-58194628D01*
X160245207Y-58670819D02*
X159673779Y-58670819D01*
X159959493Y-58670819D02*
X159959493Y-57670819D01*
X159959493Y-57670819D02*
X159864255Y-57813676D01*
X159864255Y-57813676D02*
X159769017Y-57908914D01*
X159769017Y-57908914D02*
X159673779Y-57956533D01*
X161769017Y-58147009D02*
X161435684Y-58147009D01*
X161435684Y-58670819D02*
X161435684Y-57670819D01*
X161435684Y-57670819D02*
X161911874Y-57670819D01*
X162245208Y-58385104D02*
X162721398Y-58385104D01*
X162149970Y-58670819D02*
X162483303Y-57670819D01*
X162483303Y-57670819D02*
X162816636Y-58670819D01*
X163149970Y-58670819D02*
X163149970Y-57670819D01*
X163149970Y-57670819D02*
X163721398Y-58670819D01*
X163721398Y-58670819D02*
X163721398Y-57670819D01*
X164483303Y-58194628D02*
X164483303Y-58385104D01*
X164530922Y-58385104D02*
X164530922Y-58194628D01*
X164578541Y-58147009D02*
X164578541Y-58432723D01*
X164626160Y-58385104D02*
X164626160Y-58194628D01*
X164673779Y-58194628D02*
X164673779Y-58385104D01*
X164483303Y-58337485D02*
X164578541Y-58432723D01*
X164578541Y-58432723D02*
X164673779Y-58337485D01*
X164483303Y-58242247D02*
X164578541Y-58147009D01*
X164578541Y-58147009D02*
X164673779Y-58242247D01*
X164483303Y-58194628D02*
X164578541Y-58147009D01*
X164578541Y-58147009D02*
X164673779Y-58194628D01*
X164673779Y-58194628D02*
X164721398Y-58289866D01*
X164721398Y-58289866D02*
X164673779Y-58385104D01*
X164673779Y-58385104D02*
X164578541Y-58432723D01*
X164578541Y-58432723D02*
X164483303Y-58385104D01*
X164483303Y-58385104D02*
X164435684Y-58289866D01*
X164435684Y-58289866D02*
X164483303Y-58194628D01*
X165959493Y-58670819D02*
X165388065Y-58670819D01*
X165673779Y-58670819D02*
X165673779Y-57670819D01*
X165673779Y-57670819D02*
X165578541Y-57813676D01*
X165578541Y-57813676D02*
X165483303Y-57908914D01*
X165483303Y-57908914D02*
X165388065Y-57956533D01*
X167007113Y-57670819D02*
X167578541Y-57670819D01*
X167292827Y-58670819D02*
X167292827Y-57670819D01*
X167911875Y-58670819D02*
X167911875Y-57670819D01*
X167911875Y-58147009D02*
X168483303Y-58147009D01*
X168483303Y-58670819D02*
X168483303Y-57670819D01*
D11*
X157498179Y-55409662D02*
X158183894Y-55409662D01*
X157841036Y-56609662D02*
X157841036Y-55409662D01*
X158583894Y-56609662D02*
X158583894Y-55409662D01*
X159098180Y-56609662D02*
X159098180Y-55981091D01*
X159098180Y-55981091D02*
X159041037Y-55866805D01*
X159041037Y-55866805D02*
X158926751Y-55809662D01*
X158926751Y-55809662D02*
X158755322Y-55809662D01*
X158755322Y-55809662D02*
X158641037Y-55866805D01*
X158641037Y-55866805D02*
X158583894Y-55923948D01*
X160126751Y-56552520D02*
X160012465Y-56609662D01*
X160012465Y-56609662D02*
X159783894Y-56609662D01*
X159783894Y-56609662D02*
X159669608Y-56552520D01*
X159669608Y-56552520D02*
X159612465Y-56438234D01*
X159612465Y-56438234D02*
X159612465Y-55981091D01*
X159612465Y-55981091D02*
X159669608Y-55866805D01*
X159669608Y-55866805D02*
X159783894Y-55809662D01*
X159783894Y-55809662D02*
X160012465Y-55809662D01*
X160012465Y-55809662D02*
X160126751Y-55866805D01*
X160126751Y-55866805D02*
X160183894Y-55981091D01*
X160183894Y-55981091D02*
X160183894Y-56095377D01*
X160183894Y-56095377D02*
X159612465Y-56209662D01*
X160698179Y-56609662D02*
X160698179Y-55809662D01*
X160698179Y-56038234D02*
X160755322Y-55923948D01*
X160755322Y-55923948D02*
X160812465Y-55866805D01*
X160812465Y-55866805D02*
X160926750Y-55809662D01*
X160926750Y-55809662D02*
X161041036Y-55809662D01*
X161441036Y-56609662D02*
X161441036Y-55809662D01*
X161441036Y-55923948D02*
X161498179Y-55866805D01*
X161498179Y-55866805D02*
X161612464Y-55809662D01*
X161612464Y-55809662D02*
X161783893Y-55809662D01*
X161783893Y-55809662D02*
X161898179Y-55866805D01*
X161898179Y-55866805D02*
X161955322Y-55981091D01*
X161955322Y-55981091D02*
X161955322Y-56609662D01*
X161955322Y-55981091D02*
X162012464Y-55866805D01*
X162012464Y-55866805D02*
X162126750Y-55809662D01*
X162126750Y-55809662D02*
X162298179Y-55809662D01*
X162298179Y-55809662D02*
X162412464Y-55866805D01*
X162412464Y-55866805D02*
X162469607Y-55981091D01*
X162469607Y-55981091D02*
X162469607Y-56609662D01*
X163212464Y-56609662D02*
X163098179Y-56552520D01*
X163098179Y-56552520D02*
X163041036Y-56495377D01*
X163041036Y-56495377D02*
X162983893Y-56381091D01*
X162983893Y-56381091D02*
X162983893Y-56038234D01*
X162983893Y-56038234D02*
X163041036Y-55923948D01*
X163041036Y-55923948D02*
X163098179Y-55866805D01*
X163098179Y-55866805D02*
X163212464Y-55809662D01*
X163212464Y-55809662D02*
X163383893Y-55809662D01*
X163383893Y-55809662D02*
X163498179Y-55866805D01*
X163498179Y-55866805D02*
X163555322Y-55923948D01*
X163555322Y-55923948D02*
X163612464Y-56038234D01*
X163612464Y-56038234D02*
X163612464Y-56381091D01*
X163612464Y-56381091D02*
X163555322Y-56495377D01*
X163555322Y-56495377D02*
X163498179Y-56552520D01*
X163498179Y-56552520D02*
X163383893Y-56609662D01*
X163383893Y-56609662D02*
X163212464Y-56609662D01*
X164698178Y-56609662D02*
X164126750Y-56609662D01*
X164126750Y-56609662D02*
X164126750Y-55409662D01*
X165269607Y-56609662D02*
X165155322Y-56552520D01*
X165155322Y-56552520D02*
X165098179Y-56495377D01*
X165098179Y-56495377D02*
X165041036Y-56381091D01*
X165041036Y-56381091D02*
X165041036Y-56038234D01*
X165041036Y-56038234D02*
X165098179Y-55923948D01*
X165098179Y-55923948D02*
X165155322Y-55866805D01*
X165155322Y-55866805D02*
X165269607Y-55809662D01*
X165269607Y-55809662D02*
X165441036Y-55809662D01*
X165441036Y-55809662D02*
X165555322Y-55866805D01*
X165555322Y-55866805D02*
X165612465Y-55923948D01*
X165612465Y-55923948D02*
X165669607Y-56038234D01*
X165669607Y-56038234D02*
X165669607Y-56381091D01*
X165669607Y-56381091D02*
X165612465Y-56495377D01*
X165612465Y-56495377D02*
X165555322Y-56552520D01*
X165555322Y-56552520D02*
X165441036Y-56609662D01*
X165441036Y-56609662D02*
X165269607Y-56609662D01*
X166355321Y-56609662D02*
X166241036Y-56552520D01*
X166241036Y-56552520D02*
X166183893Y-56495377D01*
X166183893Y-56495377D02*
X166126750Y-56381091D01*
X166126750Y-56381091D02*
X166126750Y-56038234D01*
X166126750Y-56038234D02*
X166183893Y-55923948D01*
X166183893Y-55923948D02*
X166241036Y-55866805D01*
X166241036Y-55866805D02*
X166355321Y-55809662D01*
X166355321Y-55809662D02*
X166526750Y-55809662D01*
X166526750Y-55809662D02*
X166641036Y-55866805D01*
X166641036Y-55866805D02*
X166698179Y-55923948D01*
X166698179Y-55923948D02*
X166755321Y-56038234D01*
X166755321Y-56038234D02*
X166755321Y-56381091D01*
X166755321Y-56381091D02*
X166698179Y-56495377D01*
X166698179Y-56495377D02*
X166641036Y-56552520D01*
X166641036Y-56552520D02*
X166526750Y-56609662D01*
X166526750Y-56609662D02*
X166355321Y-56609662D01*
X167269607Y-55809662D02*
X167269607Y-57009662D01*
X167269607Y-55866805D02*
X167383893Y-55809662D01*
X167383893Y-55809662D02*
X167612464Y-55809662D01*
X167612464Y-55809662D02*
X167726750Y-55866805D01*
X167726750Y-55866805D02*
X167783893Y-55923948D01*
X167783893Y-55923948D02*
X167841035Y-56038234D01*
X167841035Y-56038234D02*
X167841035Y-56381091D01*
X167841035Y-56381091D02*
X167783893Y-56495377D01*
X167783893Y-56495377D02*
X167726750Y-56552520D01*
X167726750Y-56552520D02*
X167612464Y-56609662D01*
X167612464Y-56609662D02*
X167383893Y-56609662D01*
X167383893Y-56609662D02*
X167269607Y-56552520D01*
D10*
X174840539Y-82838905D02*
X174840539Y-83648428D01*
X174840539Y-83648428D02*
X174888158Y-83743666D01*
X174888158Y-83743666D02*
X174935777Y-83791286D01*
X174935777Y-83791286D02*
X175031015Y-83838905D01*
X175031015Y-83838905D02*
X175221491Y-83838905D01*
X175221491Y-83838905D02*
X175316729Y-83791286D01*
X175316729Y-83791286D02*
X175364348Y-83743666D01*
X175364348Y-83743666D02*
X175411967Y-83648428D01*
X175411967Y-83648428D02*
X175411967Y-82838905D01*
X175888158Y-83838905D02*
X175888158Y-82838905D01*
X175888158Y-82838905D02*
X176269110Y-82838905D01*
X176269110Y-82838905D02*
X176364348Y-82886524D01*
X176364348Y-82886524D02*
X176411967Y-82934143D01*
X176411967Y-82934143D02*
X176459586Y-83029381D01*
X176459586Y-83029381D02*
X176459586Y-83172238D01*
X176459586Y-83172238D02*
X176411967Y-83267476D01*
X176411967Y-83267476D02*
X176364348Y-83315095D01*
X176364348Y-83315095D02*
X176269110Y-83362714D01*
X176269110Y-83362714D02*
X175888158Y-83362714D01*
X176888158Y-83838905D02*
X176888158Y-82838905D01*
X176888158Y-82838905D02*
X177126253Y-82838905D01*
X177126253Y-82838905D02*
X177269110Y-82886524D01*
X177269110Y-82886524D02*
X177364348Y-82981762D01*
X177364348Y-82981762D02*
X177411967Y-83077000D01*
X177411967Y-83077000D02*
X177459586Y-83267476D01*
X177459586Y-83267476D02*
X177459586Y-83410333D01*
X177459586Y-83410333D02*
X177411967Y-83600809D01*
X177411967Y-83600809D02*
X177364348Y-83696047D01*
X177364348Y-83696047D02*
X177269110Y-83791286D01*
X177269110Y-83791286D02*
X177126253Y-83838905D01*
X177126253Y-83838905D02*
X176888158Y-83838905D01*
X177888158Y-83838905D02*
X177888158Y-82838905D01*
X172903729Y-82838905D02*
X172427539Y-82838905D01*
X172427539Y-82838905D02*
X172379920Y-83315095D01*
X172379920Y-83315095D02*
X172427539Y-83267476D01*
X172427539Y-83267476D02*
X172522777Y-83219857D01*
X172522777Y-83219857D02*
X172760872Y-83219857D01*
X172760872Y-83219857D02*
X172856110Y-83267476D01*
X172856110Y-83267476D02*
X172903729Y-83315095D01*
X172903729Y-83315095D02*
X172951348Y-83410333D01*
X172951348Y-83410333D02*
X172951348Y-83648428D01*
X172951348Y-83648428D02*
X172903729Y-83743666D01*
X172903729Y-83743666D02*
X172856110Y-83791286D01*
X172856110Y-83791286D02*
X172760872Y-83838905D01*
X172760872Y-83838905D02*
X172522777Y-83838905D01*
X172522777Y-83838905D02*
X172427539Y-83791286D01*
X172427539Y-83791286D02*
X172379920Y-83743666D01*
X173237063Y-82838905D02*
X173570396Y-83838905D01*
X173570396Y-83838905D02*
X173903729Y-82838905D01*
X167585682Y-82838905D02*
X168157110Y-82838905D01*
X167871396Y-83838905D02*
X167871396Y-82838905D01*
X168490444Y-83838905D02*
X168490444Y-82838905D01*
X168490444Y-82838905D02*
X168823777Y-83553190D01*
X168823777Y-83553190D02*
X169157110Y-82838905D01*
X169157110Y-82838905D02*
X169157110Y-83838905D01*
X169633301Y-83838905D02*
X169633301Y-82838905D01*
X169633301Y-82838905D02*
X170014253Y-82838905D01*
X170014253Y-82838905D02*
X170109491Y-82886524D01*
X170109491Y-82886524D02*
X170157110Y-82934143D01*
X170157110Y-82934143D02*
X170204729Y-83029381D01*
X170204729Y-83029381D02*
X170204729Y-83172238D01*
X170204729Y-83172238D02*
X170157110Y-83267476D01*
X170157110Y-83267476D02*
X170109491Y-83315095D01*
X170109491Y-83315095D02*
X170014253Y-83362714D01*
X170014253Y-83362714D02*
X169633301Y-83362714D01*
X179428348Y-82886524D02*
X179333110Y-82838905D01*
X179333110Y-82838905D02*
X179190253Y-82838905D01*
X179190253Y-82838905D02*
X179047396Y-82886524D01*
X179047396Y-82886524D02*
X178952158Y-82981762D01*
X178952158Y-82981762D02*
X178904539Y-83077000D01*
X178904539Y-83077000D02*
X178856920Y-83267476D01*
X178856920Y-83267476D02*
X178856920Y-83410333D01*
X178856920Y-83410333D02*
X178904539Y-83600809D01*
X178904539Y-83600809D02*
X178952158Y-83696047D01*
X178952158Y-83696047D02*
X179047396Y-83791286D01*
X179047396Y-83791286D02*
X179190253Y-83838905D01*
X179190253Y-83838905D02*
X179285491Y-83838905D01*
X179285491Y-83838905D02*
X179428348Y-83791286D01*
X179428348Y-83791286D02*
X179475967Y-83743666D01*
X179475967Y-83743666D02*
X179475967Y-83410333D01*
X179475967Y-83410333D02*
X179285491Y-83410333D01*
X179904539Y-83838905D02*
X179904539Y-82838905D01*
X179904539Y-82838905D02*
X180475967Y-83838905D01*
X180475967Y-83838905D02*
X180475967Y-82838905D01*
X180952158Y-83838905D02*
X180952158Y-82838905D01*
X180952158Y-82838905D02*
X181190253Y-82838905D01*
X181190253Y-82838905D02*
X181333110Y-82886524D01*
X181333110Y-82886524D02*
X181428348Y-82981762D01*
X181428348Y-82981762D02*
X181475967Y-83077000D01*
X181475967Y-83077000D02*
X181523586Y-83267476D01*
X181523586Y-83267476D02*
X181523586Y-83410333D01*
X181523586Y-83410333D02*
X181475967Y-83600809D01*
X181475967Y-83600809D02*
X181428348Y-83696047D01*
X181428348Y-83696047D02*
X181333110Y-83791286D01*
X181333110Y-83791286D02*
X181190253Y-83838905D01*
X181190253Y-83838905D02*
X180952158Y-83838905D01*
X164696348Y-82886524D02*
X164601110Y-82838905D01*
X164601110Y-82838905D02*
X164458253Y-82838905D01*
X164458253Y-82838905D02*
X164315396Y-82886524D01*
X164315396Y-82886524D02*
X164220158Y-82981762D01*
X164220158Y-82981762D02*
X164172539Y-83077000D01*
X164172539Y-83077000D02*
X164124920Y-83267476D01*
X164124920Y-83267476D02*
X164124920Y-83410333D01*
X164124920Y-83410333D02*
X164172539Y-83600809D01*
X164172539Y-83600809D02*
X164220158Y-83696047D01*
X164220158Y-83696047D02*
X164315396Y-83791286D01*
X164315396Y-83791286D02*
X164458253Y-83838905D01*
X164458253Y-83838905D02*
X164553491Y-83838905D01*
X164553491Y-83838905D02*
X164696348Y-83791286D01*
X164696348Y-83791286D02*
X164743967Y-83743666D01*
X164743967Y-83743666D02*
X164743967Y-83410333D01*
X164743967Y-83410333D02*
X164553491Y-83410333D01*
X165172539Y-83838905D02*
X165172539Y-82838905D01*
X165172539Y-82838905D02*
X165743967Y-83838905D01*
X165743967Y-83838905D02*
X165743967Y-82838905D01*
X166220158Y-83838905D02*
X166220158Y-82838905D01*
X166220158Y-82838905D02*
X166458253Y-82838905D01*
X166458253Y-82838905D02*
X166601110Y-82886524D01*
X166601110Y-82886524D02*
X166696348Y-82981762D01*
X166696348Y-82981762D02*
X166743967Y-83077000D01*
X166743967Y-83077000D02*
X166791586Y-83267476D01*
X166791586Y-83267476D02*
X166791586Y-83410333D01*
X166791586Y-83410333D02*
X166743967Y-83600809D01*
X166743967Y-83600809D02*
X166696348Y-83696047D01*
X166696348Y-83696047D02*
X166601110Y-83791286D01*
X166601110Y-83791286D02*
X166458253Y-83838905D01*
X166458253Y-83838905D02*
X166220158Y-83838905D01*
X160886348Y-82886524D02*
X160791110Y-82838905D01*
X160791110Y-82838905D02*
X160648253Y-82838905D01*
X160648253Y-82838905D02*
X160505396Y-82886524D01*
X160505396Y-82886524D02*
X160410158Y-82981762D01*
X160410158Y-82981762D02*
X160362539Y-83077000D01*
X160362539Y-83077000D02*
X160314920Y-83267476D01*
X160314920Y-83267476D02*
X160314920Y-83410333D01*
X160314920Y-83410333D02*
X160362539Y-83600809D01*
X160362539Y-83600809D02*
X160410158Y-83696047D01*
X160410158Y-83696047D02*
X160505396Y-83791286D01*
X160505396Y-83791286D02*
X160648253Y-83838905D01*
X160648253Y-83838905D02*
X160743491Y-83838905D01*
X160743491Y-83838905D02*
X160886348Y-83791286D01*
X160886348Y-83791286D02*
X160933967Y-83743666D01*
X160933967Y-83743666D02*
X160933967Y-83410333D01*
X160933967Y-83410333D02*
X160743491Y-83410333D01*
X161933967Y-83838905D02*
X161600634Y-83362714D01*
X161362539Y-83838905D02*
X161362539Y-82838905D01*
X161362539Y-82838905D02*
X161743491Y-82838905D01*
X161743491Y-82838905D02*
X161838729Y-82886524D01*
X161838729Y-82886524D02*
X161886348Y-82934143D01*
X161886348Y-82934143D02*
X161933967Y-83029381D01*
X161933967Y-83029381D02*
X161933967Y-83172238D01*
X161933967Y-83172238D02*
X161886348Y-83267476D01*
X161886348Y-83267476D02*
X161838729Y-83315095D01*
X161838729Y-83315095D02*
X161743491Y-83362714D01*
X161743491Y-83362714D02*
X161362539Y-83362714D01*
X162362539Y-83838905D02*
X162362539Y-82838905D01*
X162362539Y-82838905D02*
X162933967Y-83838905D01*
X162933967Y-83838905D02*
X162933967Y-82838905D01*
X157885967Y-83838905D02*
X157552634Y-83362714D01*
X157314539Y-83838905D02*
X157314539Y-82838905D01*
X157314539Y-82838905D02*
X157695491Y-82838905D01*
X157695491Y-82838905D02*
X157790729Y-82886524D01*
X157790729Y-82886524D02*
X157838348Y-82934143D01*
X157838348Y-82934143D02*
X157885967Y-83029381D01*
X157885967Y-83029381D02*
X157885967Y-83172238D01*
X157885967Y-83172238D02*
X157838348Y-83267476D01*
X157838348Y-83267476D02*
X157790729Y-83315095D01*
X157790729Y-83315095D02*
X157695491Y-83362714D01*
X157695491Y-83362714D02*
X157314539Y-83362714D01*
X158314539Y-83315095D02*
X158647872Y-83315095D01*
X158790729Y-83838905D02*
X158314539Y-83838905D01*
X158314539Y-83838905D02*
X158314539Y-82838905D01*
X158314539Y-82838905D02*
X158790729Y-82838905D01*
X159219301Y-83838905D02*
X159219301Y-82838905D01*
X159219301Y-82838905D02*
X159457396Y-82838905D01*
X159457396Y-82838905D02*
X159600253Y-82886524D01*
X159600253Y-82886524D02*
X159695491Y-82981762D01*
X159695491Y-82981762D02*
X159743110Y-83077000D01*
X159743110Y-83077000D02*
X159790729Y-83267476D01*
X159790729Y-83267476D02*
X159790729Y-83410333D01*
X159790729Y-83410333D02*
X159743110Y-83600809D01*
X159743110Y-83600809D02*
X159695491Y-83696047D01*
X159695491Y-83696047D02*
X159600253Y-83791286D01*
X159600253Y-83791286D02*
X159457396Y-83838905D01*
X159457396Y-83838905D02*
X159219301Y-83838905D01*
X154663348Y-82886524D02*
X154568110Y-82838905D01*
X154568110Y-82838905D02*
X154425253Y-82838905D01*
X154425253Y-82838905D02*
X154282396Y-82886524D01*
X154282396Y-82886524D02*
X154187158Y-82981762D01*
X154187158Y-82981762D02*
X154139539Y-83077000D01*
X154139539Y-83077000D02*
X154091920Y-83267476D01*
X154091920Y-83267476D02*
X154091920Y-83410333D01*
X154091920Y-83410333D02*
X154139539Y-83600809D01*
X154139539Y-83600809D02*
X154187158Y-83696047D01*
X154187158Y-83696047D02*
X154282396Y-83791286D01*
X154282396Y-83791286D02*
X154425253Y-83838905D01*
X154425253Y-83838905D02*
X154520491Y-83838905D01*
X154520491Y-83838905D02*
X154663348Y-83791286D01*
X154663348Y-83791286D02*
X154710967Y-83743666D01*
X154710967Y-83743666D02*
X154710967Y-83410333D01*
X154710967Y-83410333D02*
X154520491Y-83410333D01*
X155139539Y-83838905D02*
X155139539Y-82838905D01*
X155139539Y-82838905D02*
X155710967Y-83838905D01*
X155710967Y-83838905D02*
X155710967Y-82838905D01*
X156187158Y-83838905D02*
X156187158Y-82838905D01*
X156187158Y-82838905D02*
X156425253Y-82838905D01*
X156425253Y-82838905D02*
X156568110Y-82886524D01*
X156568110Y-82886524D02*
X156663348Y-82981762D01*
X156663348Y-82981762D02*
X156710967Y-83077000D01*
X156710967Y-83077000D02*
X156758586Y-83267476D01*
X156758586Y-83267476D02*
X156758586Y-83410333D01*
X156758586Y-83410333D02*
X156710967Y-83600809D01*
X156710967Y-83600809D02*
X156663348Y-83696047D01*
X156663348Y-83696047D02*
X156568110Y-83791286D01*
X156568110Y-83791286D02*
X156425253Y-83838905D01*
X156425253Y-83838905D02*
X156187158Y-83838905D01*
X151196198Y-68427497D02*
X151148579Y-68522735D01*
X151148579Y-68522735D02*
X151148579Y-68665592D01*
X151148579Y-68665592D02*
X151196198Y-68808449D01*
X151196198Y-68808449D02*
X151291436Y-68903687D01*
X151291436Y-68903687D02*
X151386674Y-68951306D01*
X151386674Y-68951306D02*
X151577150Y-68998925D01*
X151577150Y-68998925D02*
X151720007Y-68998925D01*
X151720007Y-68998925D02*
X151910483Y-68951306D01*
X151910483Y-68951306D02*
X152005721Y-68903687D01*
X152005721Y-68903687D02*
X152100960Y-68808449D01*
X152100960Y-68808449D02*
X152148579Y-68665592D01*
X152148579Y-68665592D02*
X152148579Y-68570354D01*
X152148579Y-68570354D02*
X152100960Y-68427497D01*
X152100960Y-68427497D02*
X152053340Y-68379878D01*
X152053340Y-68379878D02*
X151720007Y-68379878D01*
X151720007Y-68379878D02*
X151720007Y-68570354D01*
X152148579Y-67951306D02*
X151148579Y-67951306D01*
X151148579Y-67951306D02*
X152148579Y-67379878D01*
X152148579Y-67379878D02*
X151148579Y-67379878D01*
X152148579Y-66903687D02*
X151148579Y-66903687D01*
X151148579Y-66903687D02*
X151148579Y-66665592D01*
X151148579Y-66665592D02*
X151196198Y-66522735D01*
X151196198Y-66522735D02*
X151291436Y-66427497D01*
X151291436Y-66427497D02*
X151386674Y-66379878D01*
X151386674Y-66379878D02*
X151577150Y-66332259D01*
X151577150Y-66332259D02*
X151720007Y-66332259D01*
X151720007Y-66332259D02*
X151910483Y-66379878D01*
X151910483Y-66379878D02*
X152005721Y-66427497D01*
X152005721Y-66427497D02*
X152100960Y-66522735D01*
X152100960Y-66522735D02*
X152148579Y-66665592D01*
X152148579Y-66665592D02*
X152148579Y-66903687D01*
X151252579Y-71825116D02*
X151252579Y-72301306D01*
X151252579Y-72301306D02*
X151728769Y-72348925D01*
X151728769Y-72348925D02*
X151681150Y-72301306D01*
X151681150Y-72301306D02*
X151633531Y-72206068D01*
X151633531Y-72206068D02*
X151633531Y-71967973D01*
X151633531Y-71967973D02*
X151681150Y-71872735D01*
X151681150Y-71872735D02*
X151728769Y-71825116D01*
X151728769Y-71825116D02*
X151824007Y-71777497D01*
X151824007Y-71777497D02*
X152062102Y-71777497D01*
X152062102Y-71777497D02*
X152157340Y-71825116D01*
X152157340Y-71825116D02*
X152204960Y-71872735D01*
X152204960Y-71872735D02*
X152252579Y-71967973D01*
X152252579Y-71967973D02*
X152252579Y-72206068D01*
X152252579Y-72206068D02*
X152204960Y-72301306D01*
X152204960Y-72301306D02*
X152157340Y-72348925D01*
X151252579Y-71491782D02*
X152252579Y-71158449D01*
X152252579Y-71158449D02*
X151252579Y-70825116D01*
X182327779Y-52447819D02*
X182327779Y-51447819D01*
X182327779Y-51447819D02*
X182708731Y-51447819D01*
X182708731Y-51447819D02*
X182803969Y-51495438D01*
X182803969Y-51495438D02*
X182851588Y-51543057D01*
X182851588Y-51543057D02*
X182899207Y-51638295D01*
X182899207Y-51638295D02*
X182899207Y-51781152D01*
X182899207Y-51781152D02*
X182851588Y-51876390D01*
X182851588Y-51876390D02*
X182803969Y-51924009D01*
X182803969Y-51924009D02*
X182708731Y-51971628D01*
X182708731Y-51971628D02*
X182327779Y-51971628D01*
X183232541Y-51447819D02*
X183470636Y-52447819D01*
X183470636Y-52447819D02*
X183661112Y-51733533D01*
X183661112Y-51733533D02*
X183851588Y-52447819D01*
X183851588Y-52447819D02*
X184089684Y-51447819D01*
X184470636Y-52447819D02*
X184470636Y-51447819D01*
X184470636Y-51447819D02*
X184803969Y-52162104D01*
X184803969Y-52162104D02*
X185137302Y-51447819D01*
X185137302Y-51447819D02*
X185137302Y-52447819D01*
X179015682Y-51469905D02*
X179587110Y-51469905D01*
X179301396Y-52469905D02*
X179301396Y-51469905D01*
X180491872Y-52374666D02*
X180444253Y-52422286D01*
X180444253Y-52422286D02*
X180301396Y-52469905D01*
X180301396Y-52469905D02*
X180206158Y-52469905D01*
X180206158Y-52469905D02*
X180063301Y-52422286D01*
X180063301Y-52422286D02*
X179968063Y-52327047D01*
X179968063Y-52327047D02*
X179920444Y-52231809D01*
X179920444Y-52231809D02*
X179872825Y-52041333D01*
X179872825Y-52041333D02*
X179872825Y-51898476D01*
X179872825Y-51898476D02*
X179920444Y-51708000D01*
X179920444Y-51708000D02*
X179968063Y-51612762D01*
X179968063Y-51612762D02*
X180063301Y-51517524D01*
X180063301Y-51517524D02*
X180206158Y-51469905D01*
X180206158Y-51469905D02*
X180301396Y-51469905D01*
X180301396Y-51469905D02*
X180444253Y-51517524D01*
X180444253Y-51517524D02*
X180491872Y-51565143D01*
X180920444Y-52469905D02*
X180920444Y-51469905D01*
X180920444Y-51946095D02*
X181491872Y-51946095D01*
X181491872Y-52469905D02*
X181491872Y-51469905D01*
X177469969Y-51469905D02*
X176993779Y-51469905D01*
X176993779Y-51469905D02*
X176946160Y-51946095D01*
X176946160Y-51946095D02*
X176993779Y-51898476D01*
X176993779Y-51898476D02*
X177089017Y-51850857D01*
X177089017Y-51850857D02*
X177327112Y-51850857D01*
X177327112Y-51850857D02*
X177422350Y-51898476D01*
X177422350Y-51898476D02*
X177469969Y-51946095D01*
X177469969Y-51946095D02*
X177517588Y-52041333D01*
X177517588Y-52041333D02*
X177517588Y-52279428D01*
X177517588Y-52279428D02*
X177469969Y-52374666D01*
X177469969Y-52374666D02*
X177422350Y-52422286D01*
X177422350Y-52422286D02*
X177327112Y-52469905D01*
X177327112Y-52469905D02*
X177089017Y-52469905D01*
X177089017Y-52469905D02*
X176993779Y-52422286D01*
X176993779Y-52422286D02*
X176946160Y-52374666D01*
X177803303Y-51469905D02*
X178136636Y-52469905D01*
X178136636Y-52469905D02*
X178469969Y-51469905D01*
X173834588Y-51517524D02*
X173739350Y-51469905D01*
X173739350Y-51469905D02*
X173596493Y-51469905D01*
X173596493Y-51469905D02*
X173453636Y-51517524D01*
X173453636Y-51517524D02*
X173358398Y-51612762D01*
X173358398Y-51612762D02*
X173310779Y-51708000D01*
X173310779Y-51708000D02*
X173263160Y-51898476D01*
X173263160Y-51898476D02*
X173263160Y-52041333D01*
X173263160Y-52041333D02*
X173310779Y-52231809D01*
X173310779Y-52231809D02*
X173358398Y-52327047D01*
X173358398Y-52327047D02*
X173453636Y-52422286D01*
X173453636Y-52422286D02*
X173596493Y-52469905D01*
X173596493Y-52469905D02*
X173691731Y-52469905D01*
X173691731Y-52469905D02*
X173834588Y-52422286D01*
X173834588Y-52422286D02*
X173882207Y-52374666D01*
X173882207Y-52374666D02*
X173882207Y-52041333D01*
X173882207Y-52041333D02*
X173691731Y-52041333D01*
X174310779Y-52469905D02*
X174310779Y-51469905D01*
X174310779Y-51469905D02*
X174882207Y-52469905D01*
X174882207Y-52469905D02*
X174882207Y-51469905D01*
X175358398Y-52469905D02*
X175358398Y-51469905D01*
X175358398Y-51469905D02*
X175596493Y-51469905D01*
X175596493Y-51469905D02*
X175739350Y-51517524D01*
X175739350Y-51517524D02*
X175834588Y-51612762D01*
X175834588Y-51612762D02*
X175882207Y-51708000D01*
X175882207Y-51708000D02*
X175929826Y-51898476D01*
X175929826Y-51898476D02*
X175929826Y-52041333D01*
X175929826Y-52041333D02*
X175882207Y-52231809D01*
X175882207Y-52231809D02*
X175834588Y-52327047D01*
X175834588Y-52327047D02*
X175739350Y-52422286D01*
X175739350Y-52422286D02*
X175596493Y-52469905D01*
X175596493Y-52469905D02*
X175358398Y-52469905D01*
D12*
X176535951Y-77202205D02*
X176535951Y-78011728D01*
X176535951Y-78011728D02*
X176583570Y-78106966D01*
X176583570Y-78106966D02*
X176631189Y-78154586D01*
X176631189Y-78154586D02*
X176726427Y-78202205D01*
X176726427Y-78202205D02*
X176916903Y-78202205D01*
X176916903Y-78202205D02*
X177012141Y-78154586D01*
X177012141Y-78154586D02*
X177059760Y-78106966D01*
X177059760Y-78106966D02*
X177107379Y-78011728D01*
X177107379Y-78011728D02*
X177107379Y-77202205D01*
X177583570Y-78202205D02*
X177583570Y-77202205D01*
X177583570Y-77202205D02*
X177964522Y-77202205D01*
X177964522Y-77202205D02*
X178059760Y-77249824D01*
X178059760Y-77249824D02*
X178107379Y-77297443D01*
X178107379Y-77297443D02*
X178154998Y-77392681D01*
X178154998Y-77392681D02*
X178154998Y-77535538D01*
X178154998Y-77535538D02*
X178107379Y-77630776D01*
X178107379Y-77630776D02*
X178059760Y-77678395D01*
X178059760Y-77678395D02*
X177964522Y-77726014D01*
X177964522Y-77726014D02*
X177583570Y-77726014D01*
X178583570Y-78202205D02*
X178583570Y-77202205D01*
X178583570Y-77202205D02*
X178821665Y-77202205D01*
X178821665Y-77202205D02*
X178964522Y-77249824D01*
X178964522Y-77249824D02*
X179059760Y-77345062D01*
X179059760Y-77345062D02*
X179107379Y-77440300D01*
X179107379Y-77440300D02*
X179154998Y-77630776D01*
X179154998Y-77630776D02*
X179154998Y-77773633D01*
X179154998Y-77773633D02*
X179107379Y-77964109D01*
X179107379Y-77964109D02*
X179059760Y-78059347D01*
X179059760Y-78059347D02*
X178964522Y-78154586D01*
X178964522Y-78154586D02*
X178821665Y-78202205D01*
X178821665Y-78202205D02*
X178583570Y-78202205D01*
X179583570Y-78202205D02*
X179583570Y-77202205D01*
D13*
X167933787Y-75602505D02*
X168505215Y-75602505D01*
X168219501Y-76602505D02*
X168219501Y-75602505D01*
X168838549Y-76078695D02*
X169171882Y-76078695D01*
X169314739Y-76602505D02*
X168838549Y-76602505D01*
X168838549Y-76602505D02*
X168838549Y-75602505D01*
X168838549Y-75602505D02*
X169314739Y-75602505D01*
X169743311Y-76602505D02*
X169743311Y-75602505D01*
X169743311Y-75602505D02*
X170076644Y-76316790D01*
X170076644Y-76316790D02*
X170409977Y-75602505D01*
X170409977Y-75602505D02*
X170409977Y-76602505D01*
X170886168Y-76602505D02*
X170886168Y-75602505D01*
X170886168Y-75602505D02*
X171267120Y-75602505D01*
X171267120Y-75602505D02*
X171362358Y-75650124D01*
X171362358Y-75650124D02*
X171409977Y-75697743D01*
X171409977Y-75697743D02*
X171457596Y-75792981D01*
X171457596Y-75792981D02*
X171457596Y-75935838D01*
X171457596Y-75935838D02*
X171409977Y-76031076D01*
X171409977Y-76031076D02*
X171362358Y-76078695D01*
X171362358Y-76078695D02*
X171267120Y-76126314D01*
X171267120Y-76126314D02*
X170886168Y-76126314D01*
X156868834Y-76602505D02*
X156392644Y-76602505D01*
X156392644Y-76602505D02*
X156392644Y-75602505D01*
X157202168Y-76078695D02*
X157535501Y-76078695D01*
X157678358Y-76602505D02*
X157202168Y-76602505D01*
X157202168Y-76602505D02*
X157202168Y-75602505D01*
X157202168Y-75602505D02*
X157678358Y-75602505D01*
X158106930Y-76602505D02*
X158106930Y-75602505D01*
X158106930Y-75602505D02*
X158345025Y-75602505D01*
X158345025Y-75602505D02*
X158487882Y-75650124D01*
X158487882Y-75650124D02*
X158583120Y-75745362D01*
X158583120Y-75745362D02*
X158630739Y-75840600D01*
X158630739Y-75840600D02*
X158678358Y-76031076D01*
X158678358Y-76031076D02*
X158678358Y-76173933D01*
X158678358Y-76173933D02*
X158630739Y-76364409D01*
X158630739Y-76364409D02*
X158583120Y-76459647D01*
X158583120Y-76459647D02*
X158487882Y-76554886D01*
X158487882Y-76554886D02*
X158345025Y-76602505D01*
X158345025Y-76602505D02*
X158106930Y-76602505D01*
D12*
X155729281Y-64298205D02*
X155253091Y-64298205D01*
X155253091Y-64298205D02*
X155205472Y-64774395D01*
X155205472Y-64774395D02*
X155253091Y-64726776D01*
X155253091Y-64726776D02*
X155348329Y-64679157D01*
X155348329Y-64679157D02*
X155586424Y-64679157D01*
X155586424Y-64679157D02*
X155681662Y-64726776D01*
X155681662Y-64726776D02*
X155729281Y-64774395D01*
X155729281Y-64774395D02*
X155776900Y-64869633D01*
X155776900Y-64869633D02*
X155776900Y-65107728D01*
X155776900Y-65107728D02*
X155729281Y-65202966D01*
X155729281Y-65202966D02*
X155681662Y-65250586D01*
X155681662Y-65250586D02*
X155586424Y-65298205D01*
X155586424Y-65298205D02*
X155348329Y-65298205D01*
X155348329Y-65298205D02*
X155253091Y-65250586D01*
X155253091Y-65250586D02*
X155205472Y-65202966D01*
X156062615Y-64298205D02*
X156395948Y-65298205D01*
X156395948Y-65298205D02*
X156729281Y-64298205D01*
X157824520Y-65298205D02*
X157824520Y-64298205D01*
X158300710Y-65298205D02*
X158300710Y-64298205D01*
X158300710Y-64298205D02*
X158872138Y-65298205D01*
X158872138Y-65298205D02*
X158872138Y-64298205D01*
X187095424Y-53344395D02*
X186762091Y-53344395D01*
X186762091Y-53868205D02*
X186762091Y-52868205D01*
X186762091Y-52868205D02*
X187238281Y-52868205D01*
X187571615Y-53582490D02*
X188047805Y-53582490D01*
X187476377Y-53868205D02*
X187809710Y-52868205D01*
X187809710Y-52868205D02*
X188143043Y-53868205D01*
X188476377Y-53868205D02*
X188476377Y-52868205D01*
X188476377Y-52868205D02*
X189047805Y-53868205D01*
X189047805Y-53868205D02*
X189047805Y-52868205D01*
D10*
X154866426Y-75676905D02*
X154866426Y-76391190D01*
X154866426Y-76391190D02*
X154818807Y-76534047D01*
X154818807Y-76534047D02*
X154723569Y-76629286D01*
X154723569Y-76629286D02*
X154580712Y-76676905D01*
X154580712Y-76676905D02*
X154485474Y-76676905D01*
X155818807Y-75676905D02*
X155342617Y-75676905D01*
X155342617Y-75676905D02*
X155294998Y-76153095D01*
X155294998Y-76153095D02*
X155342617Y-76105476D01*
X155342617Y-76105476D02*
X155437855Y-76057857D01*
X155437855Y-76057857D02*
X155675950Y-76057857D01*
X155675950Y-76057857D02*
X155771188Y-76105476D01*
X155771188Y-76105476D02*
X155818807Y-76153095D01*
X155818807Y-76153095D02*
X155866426Y-76248333D01*
X155866426Y-76248333D02*
X155866426Y-76486428D01*
X155866426Y-76486428D02*
X155818807Y-76581666D01*
X155818807Y-76581666D02*
X155771188Y-76629286D01*
X155771188Y-76629286D02*
X155675950Y-76676905D01*
X155675950Y-76676905D02*
X155437855Y-76676905D01*
X155437855Y-76676905D02*
X155342617Y-76629286D01*
X155342617Y-76629286D02*
X155294998Y-76581666D01*
X160335093Y-73755905D02*
X160001760Y-73279714D01*
X159763665Y-73755905D02*
X159763665Y-72755905D01*
X159763665Y-72755905D02*
X160144617Y-72755905D01*
X160144617Y-72755905D02*
X160239855Y-72803524D01*
X160239855Y-72803524D02*
X160287474Y-72851143D01*
X160287474Y-72851143D02*
X160335093Y-72946381D01*
X160335093Y-72946381D02*
X160335093Y-73089238D01*
X160335093Y-73089238D02*
X160287474Y-73184476D01*
X160287474Y-73184476D02*
X160239855Y-73232095D01*
X160239855Y-73232095D02*
X160144617Y-73279714D01*
X160144617Y-73279714D02*
X159763665Y-73279714D01*
X161239855Y-72755905D02*
X160763665Y-72755905D01*
X160763665Y-72755905D02*
X160716046Y-73232095D01*
X160716046Y-73232095D02*
X160763665Y-73184476D01*
X160763665Y-73184476D02*
X160858903Y-73136857D01*
X160858903Y-73136857D02*
X161096998Y-73136857D01*
X161096998Y-73136857D02*
X161192236Y-73184476D01*
X161192236Y-73184476D02*
X161239855Y-73232095D01*
X161239855Y-73232095D02*
X161287474Y-73327333D01*
X161287474Y-73327333D02*
X161287474Y-73565428D01*
X161287474Y-73565428D02*
X161239855Y-73660666D01*
X161239855Y-73660666D02*
X161192236Y-73708286D01*
X161192236Y-73708286D02*
X161096998Y-73755905D01*
X161096998Y-73755905D02*
X160858903Y-73755905D01*
X160858903Y-73755905D02*
X160763665Y-73708286D01*
X160763665Y-73708286D02*
X160716046Y-73660666D01*
X162653093Y-76930905D02*
X162319760Y-76454714D01*
X162081665Y-76930905D02*
X162081665Y-75930905D01*
X162081665Y-75930905D02*
X162462617Y-75930905D01*
X162462617Y-75930905D02*
X162557855Y-75978524D01*
X162557855Y-75978524D02*
X162605474Y-76026143D01*
X162605474Y-76026143D02*
X162653093Y-76121381D01*
X162653093Y-76121381D02*
X162653093Y-76264238D01*
X162653093Y-76264238D02*
X162605474Y-76359476D01*
X162605474Y-76359476D02*
X162557855Y-76407095D01*
X162557855Y-76407095D02*
X162462617Y-76454714D01*
X162462617Y-76454714D02*
X162081665Y-76454714D01*
X163510236Y-75930905D02*
X163319760Y-75930905D01*
X163319760Y-75930905D02*
X163224522Y-75978524D01*
X163224522Y-75978524D02*
X163176903Y-76026143D01*
X163176903Y-76026143D02*
X163081665Y-76169000D01*
X163081665Y-76169000D02*
X163034046Y-76359476D01*
X163034046Y-76359476D02*
X163034046Y-76740428D01*
X163034046Y-76740428D02*
X163081665Y-76835666D01*
X163081665Y-76835666D02*
X163129284Y-76883286D01*
X163129284Y-76883286D02*
X163224522Y-76930905D01*
X163224522Y-76930905D02*
X163414998Y-76930905D01*
X163414998Y-76930905D02*
X163510236Y-76883286D01*
X163510236Y-76883286D02*
X163557855Y-76835666D01*
X163557855Y-76835666D02*
X163605474Y-76740428D01*
X163605474Y-76740428D02*
X163605474Y-76502333D01*
X163605474Y-76502333D02*
X163557855Y-76407095D01*
X163557855Y-76407095D02*
X163510236Y-76359476D01*
X163510236Y-76359476D02*
X163414998Y-76311857D01*
X163414998Y-76311857D02*
X163224522Y-76311857D01*
X163224522Y-76311857D02*
X163129284Y-76359476D01*
X163129284Y-76359476D02*
X163081665Y-76407095D01*
X163081665Y-76407095D02*
X163034046Y-76502333D01*
X152278855Y-53943905D02*
X152278855Y-52943905D01*
X152278855Y-53420095D02*
X152850283Y-53420095D01*
X152850283Y-53943905D02*
X152850283Y-52943905D01*
X153850283Y-53943905D02*
X153278855Y-53943905D01*
X153564569Y-53943905D02*
X153564569Y-52943905D01*
X153564569Y-52943905D02*
X153469331Y-53086762D01*
X153469331Y-53086762D02*
X153374093Y-53182000D01*
X153374093Y-53182000D02*
X153278855Y-53229619D01*
X185219426Y-52816905D02*
X185219426Y-53531190D01*
X185219426Y-53531190D02*
X185171807Y-53674047D01*
X185171807Y-53674047D02*
X185076569Y-53769286D01*
X185076569Y-53769286D02*
X184933712Y-53816905D01*
X184933712Y-53816905D02*
X184838474Y-53816905D01*
X185600379Y-52816905D02*
X186219426Y-52816905D01*
X186219426Y-52816905D02*
X185886093Y-53197857D01*
X185886093Y-53197857D02*
X186028950Y-53197857D01*
X186028950Y-53197857D02*
X186124188Y-53245476D01*
X186124188Y-53245476D02*
X186171807Y-53293095D01*
X186171807Y-53293095D02*
X186219426Y-53388333D01*
X186219426Y-53388333D02*
X186219426Y-53626428D01*
X186219426Y-53626428D02*
X186171807Y-53721666D01*
X186171807Y-53721666D02*
X186124188Y-53769286D01*
X186124188Y-53769286D02*
X186028950Y-53816905D01*
X186028950Y-53816905D02*
X185743236Y-53816905D01*
X185743236Y-53816905D02*
X185647998Y-53769286D01*
X185647998Y-53769286D02*
X185600379Y-53721666D01*
X172852855Y-74152905D02*
X172852855Y-74962428D01*
X172852855Y-74962428D02*
X172900474Y-75057666D01*
X172900474Y-75057666D02*
X172948093Y-75105286D01*
X172948093Y-75105286D02*
X173043331Y-75152905D01*
X173043331Y-75152905D02*
X173233807Y-75152905D01*
X173233807Y-75152905D02*
X173329045Y-75105286D01*
X173329045Y-75105286D02*
X173376664Y-75057666D01*
X173376664Y-75057666D02*
X173424283Y-74962428D01*
X173424283Y-74962428D02*
X173424283Y-74152905D01*
X174424283Y-75152905D02*
X173852855Y-75152905D01*
X174138569Y-75152905D02*
X174138569Y-74152905D01*
X174138569Y-74152905D02*
X174043331Y-74295762D01*
X174043331Y-74295762D02*
X173948093Y-74391000D01*
X173948093Y-74391000D02*
X173852855Y-74438619D01*
X170868426Y-76946905D02*
X170868426Y-77661190D01*
X170868426Y-77661190D02*
X170820807Y-77804047D01*
X170820807Y-77804047D02*
X170725569Y-77899286D01*
X170725569Y-77899286D02*
X170582712Y-77946905D01*
X170582712Y-77946905D02*
X170487474Y-77946905D01*
X171296998Y-77042143D02*
X171344617Y-76994524D01*
X171344617Y-76994524D02*
X171439855Y-76946905D01*
X171439855Y-76946905D02*
X171677950Y-76946905D01*
X171677950Y-76946905D02*
X171773188Y-76994524D01*
X171773188Y-76994524D02*
X171820807Y-77042143D01*
X171820807Y-77042143D02*
X171868426Y-77137381D01*
X171868426Y-77137381D02*
X171868426Y-77232619D01*
X171868426Y-77232619D02*
X171820807Y-77375476D01*
X171820807Y-77375476D02*
X171249379Y-77946905D01*
X171249379Y-77946905D02*
X171868426Y-77946905D01*
X173321093Y-60325666D02*
X173273474Y-60373286D01*
X173273474Y-60373286D02*
X173130617Y-60420905D01*
X173130617Y-60420905D02*
X173035379Y-60420905D01*
X173035379Y-60420905D02*
X172892522Y-60373286D01*
X172892522Y-60373286D02*
X172797284Y-60278047D01*
X172797284Y-60278047D02*
X172749665Y-60182809D01*
X172749665Y-60182809D02*
X172702046Y-59992333D01*
X172702046Y-59992333D02*
X172702046Y-59849476D01*
X172702046Y-59849476D02*
X172749665Y-59659000D01*
X172749665Y-59659000D02*
X172797284Y-59563762D01*
X172797284Y-59563762D02*
X172892522Y-59468524D01*
X172892522Y-59468524D02*
X173035379Y-59420905D01*
X173035379Y-59420905D02*
X173130617Y-59420905D01*
X173130617Y-59420905D02*
X173273474Y-59468524D01*
X173273474Y-59468524D02*
X173321093Y-59516143D01*
X173654427Y-59420905D02*
X174273474Y-59420905D01*
X174273474Y-59420905D02*
X173940141Y-59801857D01*
X173940141Y-59801857D02*
X174082998Y-59801857D01*
X174082998Y-59801857D02*
X174178236Y-59849476D01*
X174178236Y-59849476D02*
X174225855Y-59897095D01*
X174225855Y-59897095D02*
X174273474Y-59992333D01*
X174273474Y-59992333D02*
X174273474Y-60230428D01*
X174273474Y-60230428D02*
X174225855Y-60325666D01*
X174225855Y-60325666D02*
X174178236Y-60373286D01*
X174178236Y-60373286D02*
X174082998Y-60420905D01*
X174082998Y-60420905D02*
X173797284Y-60420905D01*
X173797284Y-60420905D02*
X173702046Y-60373286D01*
X173702046Y-60373286D02*
X173654427Y-60325666D01*
X164883521Y-64834143D02*
X164788283Y-64786524D01*
X164788283Y-64786524D02*
X164693045Y-64691286D01*
X164693045Y-64691286D02*
X164550188Y-64548428D01*
X164550188Y-64548428D02*
X164454950Y-64500809D01*
X164454950Y-64500809D02*
X164359712Y-64500809D01*
X164407331Y-64738905D02*
X164312093Y-64691286D01*
X164312093Y-64691286D02*
X164216855Y-64596047D01*
X164216855Y-64596047D02*
X164169236Y-64405571D01*
X164169236Y-64405571D02*
X164169236Y-64072238D01*
X164169236Y-64072238D02*
X164216855Y-63881762D01*
X164216855Y-63881762D02*
X164312093Y-63786524D01*
X164312093Y-63786524D02*
X164407331Y-63738905D01*
X164407331Y-63738905D02*
X164597807Y-63738905D01*
X164597807Y-63738905D02*
X164693045Y-63786524D01*
X164693045Y-63786524D02*
X164788283Y-63881762D01*
X164788283Y-63881762D02*
X164835902Y-64072238D01*
X164835902Y-64072238D02*
X164835902Y-64405571D01*
X164835902Y-64405571D02*
X164788283Y-64596047D01*
X164788283Y-64596047D02*
X164693045Y-64691286D01*
X164693045Y-64691286D02*
X164597807Y-64738905D01*
X164597807Y-64738905D02*
X164407331Y-64738905D01*
X165216855Y-63834143D02*
X165264474Y-63786524D01*
X165264474Y-63786524D02*
X165359712Y-63738905D01*
X165359712Y-63738905D02*
X165597807Y-63738905D01*
X165597807Y-63738905D02*
X165693045Y-63786524D01*
X165693045Y-63786524D02*
X165740664Y-63834143D01*
X165740664Y-63834143D02*
X165788283Y-63929381D01*
X165788283Y-63929381D02*
X165788283Y-64024619D01*
X165788283Y-64024619D02*
X165740664Y-64167476D01*
X165740664Y-64167476D02*
X165169236Y-64738905D01*
X165169236Y-64738905D02*
X165788283Y-64738905D01*
X177639093Y-65500905D02*
X177305760Y-65024714D01*
X177067665Y-65500905D02*
X177067665Y-64500905D01*
X177067665Y-64500905D02*
X177448617Y-64500905D01*
X177448617Y-64500905D02*
X177543855Y-64548524D01*
X177543855Y-64548524D02*
X177591474Y-64596143D01*
X177591474Y-64596143D02*
X177639093Y-64691381D01*
X177639093Y-64691381D02*
X177639093Y-64834238D01*
X177639093Y-64834238D02*
X177591474Y-64929476D01*
X177591474Y-64929476D02*
X177543855Y-64977095D01*
X177543855Y-64977095D02*
X177448617Y-65024714D01*
X177448617Y-65024714D02*
X177067665Y-65024714D01*
X178020046Y-64596143D02*
X178067665Y-64548524D01*
X178067665Y-64548524D02*
X178162903Y-64500905D01*
X178162903Y-64500905D02*
X178400998Y-64500905D01*
X178400998Y-64500905D02*
X178496236Y-64548524D01*
X178496236Y-64548524D02*
X178543855Y-64596143D01*
X178543855Y-64596143D02*
X178591474Y-64691381D01*
X178591474Y-64691381D02*
X178591474Y-64786619D01*
X178591474Y-64786619D02*
X178543855Y-64929476D01*
X178543855Y-64929476D02*
X177972427Y-65500905D01*
X177972427Y-65500905D02*
X178591474Y-65500905D01*
X184751093Y-66897905D02*
X184417760Y-66421714D01*
X184179665Y-66897905D02*
X184179665Y-65897905D01*
X184179665Y-65897905D02*
X184560617Y-65897905D01*
X184560617Y-65897905D02*
X184655855Y-65945524D01*
X184655855Y-65945524D02*
X184703474Y-65993143D01*
X184703474Y-65993143D02*
X184751093Y-66088381D01*
X184751093Y-66088381D02*
X184751093Y-66231238D01*
X184751093Y-66231238D02*
X184703474Y-66326476D01*
X184703474Y-66326476D02*
X184655855Y-66374095D01*
X184655855Y-66374095D02*
X184560617Y-66421714D01*
X184560617Y-66421714D02*
X184179665Y-66421714D01*
X185703474Y-66897905D02*
X185132046Y-66897905D01*
X185417760Y-66897905D02*
X185417760Y-65897905D01*
X185417760Y-65897905D02*
X185322522Y-66040762D01*
X185322522Y-66040762D02*
X185227284Y-66136000D01*
X185227284Y-66136000D02*
X185132046Y-66183619D01*
X173916426Y-77200905D02*
X173916426Y-77915190D01*
X173916426Y-77915190D02*
X173868807Y-78058047D01*
X173868807Y-78058047D02*
X173773569Y-78153286D01*
X173773569Y-78153286D02*
X173630712Y-78200905D01*
X173630712Y-78200905D02*
X173535474Y-78200905D01*
X174916426Y-78200905D02*
X174344998Y-78200905D01*
X174630712Y-78200905D02*
X174630712Y-77200905D01*
X174630712Y-77200905D02*
X174535474Y-77343762D01*
X174535474Y-77343762D02*
X174440236Y-77439000D01*
X174440236Y-77439000D02*
X174344998Y-77486619D01*
X181774521Y-60516143D02*
X181679283Y-60468524D01*
X181679283Y-60468524D02*
X181584045Y-60373286D01*
X181584045Y-60373286D02*
X181441188Y-60230428D01*
X181441188Y-60230428D02*
X181345950Y-60182809D01*
X181345950Y-60182809D02*
X181250712Y-60182809D01*
X181298331Y-60420905D02*
X181203093Y-60373286D01*
X181203093Y-60373286D02*
X181107855Y-60278047D01*
X181107855Y-60278047D02*
X181060236Y-60087571D01*
X181060236Y-60087571D02*
X181060236Y-59754238D01*
X181060236Y-59754238D02*
X181107855Y-59563762D01*
X181107855Y-59563762D02*
X181203093Y-59468524D01*
X181203093Y-59468524D02*
X181298331Y-59420905D01*
X181298331Y-59420905D02*
X181488807Y-59420905D01*
X181488807Y-59420905D02*
X181584045Y-59468524D01*
X181584045Y-59468524D02*
X181679283Y-59563762D01*
X181679283Y-59563762D02*
X181726902Y-59754238D01*
X181726902Y-59754238D02*
X181726902Y-60087571D01*
X181726902Y-60087571D02*
X181679283Y-60278047D01*
X181679283Y-60278047D02*
X181584045Y-60373286D01*
X181584045Y-60373286D02*
X181488807Y-60420905D01*
X181488807Y-60420905D02*
X181298331Y-60420905D01*
X182679283Y-60420905D02*
X182107855Y-60420905D01*
X182393569Y-60420905D02*
X182393569Y-59420905D01*
X182393569Y-59420905D02*
X182298331Y-59563762D01*
X182298331Y-59563762D02*
X182203093Y-59659000D01*
X182203093Y-59659000D02*
X182107855Y-59706619D01*
X152834426Y-64373905D02*
X152834426Y-65088190D01*
X152834426Y-65088190D02*
X152786807Y-65231047D01*
X152786807Y-65231047D02*
X152691569Y-65326286D01*
X152691569Y-65326286D02*
X152548712Y-65373905D01*
X152548712Y-65373905D02*
X152453474Y-65373905D01*
X153739188Y-64707238D02*
X153739188Y-65373905D01*
X153501093Y-64326286D02*
X153262998Y-65040571D01*
X153262998Y-65040571D02*
X153882045Y-65040571D01*
X162105426Y-69116095D02*
X161772093Y-69116095D01*
X161772093Y-69639905D02*
X161772093Y-68639905D01*
X161772093Y-68639905D02*
X162248283Y-68639905D01*
X163153045Y-69639905D02*
X162581617Y-69639905D01*
X162867331Y-69639905D02*
X162867331Y-68639905D01*
X162867331Y-68639905D02*
X162772093Y-68782762D01*
X162772093Y-68782762D02*
X162676855Y-68878000D01*
X162676855Y-68878000D02*
X162581617Y-68925619D01*
X167733093Y-64770666D02*
X167685474Y-64818286D01*
X167685474Y-64818286D02*
X167542617Y-64865905D01*
X167542617Y-64865905D02*
X167447379Y-64865905D01*
X167447379Y-64865905D02*
X167304522Y-64818286D01*
X167304522Y-64818286D02*
X167209284Y-64723047D01*
X167209284Y-64723047D02*
X167161665Y-64627809D01*
X167161665Y-64627809D02*
X167114046Y-64437333D01*
X167114046Y-64437333D02*
X167114046Y-64294476D01*
X167114046Y-64294476D02*
X167161665Y-64104000D01*
X167161665Y-64104000D02*
X167209284Y-64008762D01*
X167209284Y-64008762D02*
X167304522Y-63913524D01*
X167304522Y-63913524D02*
X167447379Y-63865905D01*
X167447379Y-63865905D02*
X167542617Y-63865905D01*
X167542617Y-63865905D02*
X167685474Y-63913524D01*
X167685474Y-63913524D02*
X167733093Y-63961143D01*
X168590236Y-64199238D02*
X168590236Y-64865905D01*
X168352141Y-63818286D02*
X168114046Y-64532571D01*
X168114046Y-64532571D02*
X168733093Y-64532571D01*
X184751093Y-74263905D02*
X184417760Y-73787714D01*
X184179665Y-74263905D02*
X184179665Y-73263905D01*
X184179665Y-73263905D02*
X184560617Y-73263905D01*
X184560617Y-73263905D02*
X184655855Y-73311524D01*
X184655855Y-73311524D02*
X184703474Y-73359143D01*
X184703474Y-73359143D02*
X184751093Y-73454381D01*
X184751093Y-73454381D02*
X184751093Y-73597238D01*
X184751093Y-73597238D02*
X184703474Y-73692476D01*
X184703474Y-73692476D02*
X184655855Y-73740095D01*
X184655855Y-73740095D02*
X184560617Y-73787714D01*
X184560617Y-73787714D02*
X184179665Y-73787714D01*
X185608236Y-73597238D02*
X185608236Y-74263905D01*
X185370141Y-73216286D02*
X185132046Y-73930571D01*
X185132046Y-73930571D02*
X185751093Y-73930571D01*
X172432093Y-64643666D02*
X172384474Y-64691286D01*
X172384474Y-64691286D02*
X172241617Y-64738905D01*
X172241617Y-64738905D02*
X172146379Y-64738905D01*
X172146379Y-64738905D02*
X172003522Y-64691286D01*
X172003522Y-64691286D02*
X171908284Y-64596047D01*
X171908284Y-64596047D02*
X171860665Y-64500809D01*
X171860665Y-64500809D02*
X171813046Y-64310333D01*
X171813046Y-64310333D02*
X171813046Y-64167476D01*
X171813046Y-64167476D02*
X171860665Y-63977000D01*
X171860665Y-63977000D02*
X171908284Y-63881762D01*
X171908284Y-63881762D02*
X172003522Y-63786524D01*
X172003522Y-63786524D02*
X172146379Y-63738905D01*
X172146379Y-63738905D02*
X172241617Y-63738905D01*
X172241617Y-63738905D02*
X172384474Y-63786524D01*
X172384474Y-63786524D02*
X172432093Y-63834143D01*
X173384474Y-64738905D02*
X172813046Y-64738905D01*
X173098760Y-64738905D02*
X173098760Y-63738905D01*
X173098760Y-63738905D02*
X173003522Y-63881762D01*
X173003522Y-63881762D02*
X172908284Y-63977000D01*
X172908284Y-63977000D02*
X172813046Y-64024619D01*
X179544093Y-69215666D02*
X179496474Y-69263286D01*
X179496474Y-69263286D02*
X179353617Y-69310905D01*
X179353617Y-69310905D02*
X179258379Y-69310905D01*
X179258379Y-69310905D02*
X179115522Y-69263286D01*
X179115522Y-69263286D02*
X179020284Y-69168047D01*
X179020284Y-69168047D02*
X178972665Y-69072809D01*
X178972665Y-69072809D02*
X178925046Y-68882333D01*
X178925046Y-68882333D02*
X178925046Y-68739476D01*
X178925046Y-68739476D02*
X178972665Y-68549000D01*
X178972665Y-68549000D02*
X179020284Y-68453762D01*
X179020284Y-68453762D02*
X179115522Y-68358524D01*
X179115522Y-68358524D02*
X179258379Y-68310905D01*
X179258379Y-68310905D02*
X179353617Y-68310905D01*
X179353617Y-68310905D02*
X179496474Y-68358524D01*
X179496474Y-68358524D02*
X179544093Y-68406143D01*
X179925046Y-68406143D02*
X179972665Y-68358524D01*
X179972665Y-68358524D02*
X180067903Y-68310905D01*
X180067903Y-68310905D02*
X180305998Y-68310905D01*
X180305998Y-68310905D02*
X180401236Y-68358524D01*
X180401236Y-68358524D02*
X180448855Y-68406143D01*
X180448855Y-68406143D02*
X180496474Y-68501381D01*
X180496474Y-68501381D02*
X180496474Y-68596619D01*
X180496474Y-68596619D02*
X180448855Y-68739476D01*
X180448855Y-68739476D02*
X179877427Y-69310905D01*
X179877427Y-69310905D02*
X180496474Y-69310905D01*
X186949855Y-83153905D02*
X186949855Y-82153905D01*
X186949855Y-82630095D02*
X187521283Y-82630095D01*
X187521283Y-83153905D02*
X187521283Y-82153905D01*
X187949855Y-82249143D02*
X187997474Y-82201524D01*
X187997474Y-82201524D02*
X188092712Y-82153905D01*
X188092712Y-82153905D02*
X188330807Y-82153905D01*
X188330807Y-82153905D02*
X188426045Y-82201524D01*
X188426045Y-82201524D02*
X188473664Y-82249143D01*
X188473664Y-82249143D02*
X188521283Y-82344381D01*
X188521283Y-82344381D02*
X188521283Y-82439619D01*
X188521283Y-82439619D02*
X188473664Y-82582476D01*
X188473664Y-82582476D02*
X187902236Y-83153905D01*
X187902236Y-83153905D02*
X188521283Y-83153905D01*
X185386093Y-65373905D02*
X185052760Y-64897714D01*
X184814665Y-65373905D02*
X184814665Y-64373905D01*
X184814665Y-64373905D02*
X185195617Y-64373905D01*
X185195617Y-64373905D02*
X185290855Y-64421524D01*
X185290855Y-64421524D02*
X185338474Y-64469143D01*
X185338474Y-64469143D02*
X185386093Y-64564381D01*
X185386093Y-64564381D02*
X185386093Y-64707238D01*
X185386093Y-64707238D02*
X185338474Y-64802476D01*
X185338474Y-64802476D02*
X185290855Y-64850095D01*
X185290855Y-64850095D02*
X185195617Y-64897714D01*
X185195617Y-64897714D02*
X184814665Y-64897714D01*
X185719427Y-64373905D02*
X186338474Y-64373905D01*
X186338474Y-64373905D02*
X186005141Y-64754857D01*
X186005141Y-64754857D02*
X186147998Y-64754857D01*
X186147998Y-64754857D02*
X186243236Y-64802476D01*
X186243236Y-64802476D02*
X186290855Y-64850095D01*
X186290855Y-64850095D02*
X186338474Y-64945333D01*
X186338474Y-64945333D02*
X186338474Y-65183428D01*
X186338474Y-65183428D02*
X186290855Y-65278666D01*
X186290855Y-65278666D02*
X186243236Y-65326286D01*
X186243236Y-65326286D02*
X186147998Y-65373905D01*
X186147998Y-65373905D02*
X185862284Y-65373905D01*
X185862284Y-65373905D02*
X185767046Y-65326286D01*
X185767046Y-65326286D02*
X185719427Y-65278666D01*
%TO.C,J5*%
D14*
X154346760Y-77249086D02*
X162466760Y-77249086D01*
X162466760Y-81969086D01*
X154346760Y-81969086D01*
X154346760Y-77249086D01*
X154346760Y-79359086D02*
X154956760Y-79359086D01*
X154346760Y-80659086D02*
X154956760Y-80659086D01*
X154956760Y-77859086D02*
X154956760Y-81359086D01*
X154956760Y-81359086D02*
X156906760Y-81359086D01*
X156906760Y-81359086D02*
X156906760Y-81969086D01*
X157306760Y-78359086D02*
X157306760Y-77859086D01*
X157406760Y-77859086D02*
X157406760Y-78359086D01*
X157506760Y-77859086D02*
X157506760Y-78359086D01*
X157506760Y-78359086D02*
X157306760Y-78359086D01*
X159306760Y-78359086D02*
X159306760Y-77859086D01*
X159406760Y-77859086D02*
X159406760Y-78359086D01*
X159506760Y-77859086D02*
X159506760Y-78359086D01*
X159506760Y-78359086D02*
X159306760Y-78359086D01*
X159906760Y-81359086D02*
X161856760Y-81359086D01*
X159906760Y-81969086D02*
X159906760Y-81359086D01*
X160706760Y-81969086D02*
X160706760Y-82169086D01*
X160706760Y-82069086D02*
X161006760Y-82069086D01*
X160706760Y-82169086D02*
X161006760Y-82169086D01*
X161006760Y-82169086D02*
X161006760Y-81969086D01*
X161516760Y-82269086D02*
X162766760Y-82269086D01*
X161856760Y-77859086D02*
X154956760Y-77859086D01*
X161856760Y-81359086D02*
X161856760Y-77859086D01*
X162466760Y-79359086D02*
X161856760Y-79359086D01*
X162466760Y-80659086D02*
X161856760Y-80659086D01*
X162766760Y-82269086D02*
X162766760Y-81019086D01*
%TO.C,R5*%
X163211696Y-74036086D02*
X163665824Y-74036086D01*
X163211696Y-72566086D02*
X163665824Y-72566086D01*
%TO.C,R6*%
X165386696Y-76195086D02*
X165840824Y-76195086D01*
X165386696Y-74725086D02*
X165840824Y-74725086D01*
%TO.C,J3*%
X173462760Y-54038086D02*
X173462760Y-58038086D01*
X174332760Y-53008086D02*
X174332760Y-53608086D01*
X174332760Y-53608086D02*
X175932760Y-53608086D01*
X175132760Y-58028086D02*
X175382760Y-57498086D01*
X175132760Y-58028086D02*
X182752760Y-58028086D01*
X175132760Y-59028086D02*
X175132760Y-58028086D01*
X175382760Y-57498086D02*
X182502760Y-57498086D01*
X175382760Y-59028086D02*
X175382760Y-58028086D01*
X175932760Y-53608086D02*
X175932760Y-53008086D01*
X176872760Y-53008086D02*
X176872760Y-53608086D01*
X176872760Y-53608086D02*
X178472760Y-53608086D01*
X178472760Y-53608086D02*
X178472760Y-53008086D01*
X179412760Y-53008086D02*
X179412760Y-53608086D01*
X179412760Y-53608086D02*
X181012760Y-53608086D01*
X181012760Y-53608086D02*
X181012760Y-53008086D01*
X181952760Y-53008086D02*
X181952760Y-53608086D01*
X181952760Y-53608086D02*
X183552760Y-53608086D01*
X182502760Y-57498086D02*
X182752760Y-58028086D01*
X182502760Y-59028086D02*
X182502760Y-58028086D01*
X182752760Y-58028086D02*
X182752760Y-59028086D01*
X183552760Y-53608086D02*
X183552760Y-53008086D01*
X173752760Y-53008086D02*
X184132760Y-53008086D01*
X184132760Y-59028086D01*
X173752760Y-59028086D01*
X173752760Y-53008086D01*
%TO.C,U1*%
X173072760Y-68478086D02*
X177192760Y-68478086D01*
X173072760Y-68573086D02*
X173072760Y-68478086D01*
X173072760Y-73598086D02*
X173072760Y-73503086D01*
X177192760Y-68478086D02*
X177192760Y-68573086D01*
X177192760Y-73503086D02*
X177192760Y-73598086D01*
X177192760Y-73598086D02*
X173072760Y-73598086D01*
X172532760Y-68568086D02*
X172292760Y-68238086D01*
X172772760Y-68238086D01*
X172532760Y-68568086D01*
G36*
X172532760Y-68568086D02*
G01*
X172292760Y-68238086D01*
X172772760Y-68238086D01*
X172532760Y-68568086D01*
G37*
%TO.C,J2*%
X170497760Y-82269086D02*
X170497760Y-81019086D01*
X170197760Y-80659086D02*
X169587760Y-80659086D01*
X170197760Y-79359086D02*
X169587760Y-79359086D01*
X169587760Y-81359086D02*
X169587760Y-77859086D01*
X169587760Y-77859086D02*
X164687760Y-77859086D01*
X169247760Y-82269086D02*
X170497760Y-82269086D01*
X168737760Y-82169086D02*
X168737760Y-81969086D01*
X168437760Y-82169086D02*
X168737760Y-82169086D01*
X168437760Y-82069086D02*
X168737760Y-82069086D01*
X168437760Y-81969086D02*
X168437760Y-82169086D01*
X167637760Y-81969086D02*
X167637760Y-81359086D01*
X167637760Y-81359086D02*
X169587760Y-81359086D01*
X167237760Y-78359086D02*
X167037760Y-78359086D01*
X167237760Y-77859086D02*
X167237760Y-78359086D01*
X167137760Y-77859086D02*
X167137760Y-78359086D01*
X167037760Y-78359086D02*
X167037760Y-77859086D01*
X166637760Y-81359086D02*
X166637760Y-81969086D01*
X164687760Y-81359086D02*
X166637760Y-81359086D01*
X164687760Y-77859086D02*
X164687760Y-81359086D01*
X164077760Y-80659086D02*
X164687760Y-80659086D01*
X164077760Y-79359086D02*
X164687760Y-79359086D01*
X164077760Y-77249086D02*
X170197760Y-77249086D01*
X170197760Y-81969086D01*
X164077760Y-81969086D01*
X164077760Y-77249086D01*
%TO.C,C3*%
X172865008Y-60707086D02*
X174287512Y-60707086D01*
X172865008Y-62527086D02*
X174287512Y-62527086D01*
%TO.C,Q2*%
X165660260Y-68511086D02*
X164140260Y-68511086D01*
X165660260Y-68461086D02*
X165660260Y-68511086D01*
X165660260Y-66561086D02*
X165660260Y-67341086D01*
X165660260Y-65391086D02*
X165660260Y-65441086D01*
X164140260Y-68511086D02*
X164140260Y-67511086D01*
X164140260Y-66391086D02*
X164140260Y-65391086D01*
X164140260Y-65391086D02*
X165660260Y-65391086D01*
X166200260Y-67331086D02*
X165960260Y-67001086D01*
X166440260Y-67001086D01*
X166200260Y-67331086D01*
G36*
X166200260Y-67331086D02*
G01*
X165960260Y-67001086D01*
X166440260Y-67001086D01*
X166200260Y-67331086D01*
G37*
%TO.C,R2*%
X178540760Y-62263022D02*
X178540760Y-62717150D01*
X177070760Y-62263022D02*
X177070760Y-62717150D01*
%TO.C,R1*%
X181880696Y-66470086D02*
X182334824Y-66470086D01*
X181880696Y-67940086D02*
X182334824Y-67940086D01*
%TO.C,J1*%
X171980760Y-81539086D02*
X171980760Y-80159086D01*
X173360760Y-81539086D02*
X171980760Y-81539086D01*
X174630760Y-81539086D02*
X179820760Y-81539086D01*
X174630760Y-81539086D02*
X174630760Y-78779086D01*
X179820760Y-81539086D02*
X179820760Y-78779086D01*
X174630760Y-78779086D02*
X179820760Y-78779086D01*
%TO.C,Q1*%
X181061260Y-60819086D02*
X182581260Y-60819086D01*
X181061260Y-60869086D02*
X181061260Y-60819086D01*
X181061260Y-62769086D02*
X181061260Y-61989086D01*
X181061260Y-63939086D02*
X181061260Y-63889086D01*
X182581260Y-60819086D02*
X182581260Y-61819086D01*
X182581260Y-62939086D02*
X182581260Y-63939086D01*
X182581260Y-63939086D02*
X181061260Y-63939086D01*
X180521260Y-61999086D02*
X180761260Y-62329086D01*
X180281260Y-62329086D01*
X180521260Y-61999086D01*
G36*
X180761260Y-62329086D02*
G01*
X180281260Y-62329086D01*
X180521260Y-61999086D01*
X180761260Y-62329086D01*
G37*
%TO.C,J4*%
X152382760Y-73888086D02*
X153632760Y-73888086D01*
X154932760Y-73588086D02*
X154932760Y-72838086D01*
X154932760Y-72838086D02*
X157882760Y-72838086D01*
X157882760Y-72838086D02*
X157882760Y-69788086D01*
X152382760Y-72638086D02*
X152382760Y-73888086D01*
X154932760Y-66738086D02*
X157882760Y-66738086D01*
X157882760Y-66738086D02*
X157882760Y-69788086D01*
X154932760Y-65988086D02*
X154932760Y-66738086D01*
X152672760Y-65978086D02*
X158642760Y-65978086D01*
X158642760Y-73598086D01*
X152672760Y-73598086D01*
X152672760Y-65978086D01*
X152682760Y-71788086D02*
X153432760Y-71788086D01*
X153432760Y-73588086D01*
X152682760Y-73588086D01*
X152682760Y-71788086D01*
X152682760Y-69288086D02*
X153432760Y-69288086D01*
X153432760Y-70288086D01*
X152682760Y-70288086D01*
X152682760Y-69288086D01*
X152682760Y-65988086D02*
X153432760Y-65988086D01*
X153432760Y-67788086D01*
X152682760Y-67788086D01*
X152682760Y-65988086D01*
%TO.C,F1*%
X161836696Y-70105086D02*
X163040824Y-70105086D01*
X161836696Y-71925086D02*
X163040824Y-71925086D01*
%TO.C,C4*%
X170206760Y-66913334D02*
X170206760Y-68335838D01*
X168386760Y-66913334D02*
X168386760Y-68335838D01*
%TO.C,R4*%
X182334824Y-73655086D02*
X181880696Y-73655086D01*
X182334824Y-72185086D02*
X181880696Y-72185086D01*
%TO.C,C1*%
X173371508Y-65303086D02*
X173894012Y-65303086D01*
X173371508Y-66773086D02*
X173894012Y-66773086D01*
%TO.C,C2*%
X181871508Y-69645086D02*
X182394012Y-69645086D01*
X181871508Y-71115086D02*
X182394012Y-71115086D01*
%TO.C,R3*%
X184817760Y-62590150D02*
X184817760Y-62136022D01*
X186287760Y-62590150D02*
X186287760Y-62136022D01*
%TD*%
%LPC*%
D15*
%TO.C,J5*%
X156406760Y-80159086D03*
X158406760Y-80159086D03*
D16*
X160406760Y-80159086D03*
%TD*%
D17*
%TO.C,R5*%
X164438760Y-73301086D03*
X162438760Y-73301086D03*
%TD*%
%TO.C,R6*%
X166613760Y-75460086D03*
X164613760Y-75460086D03*
%TD*%
D18*
%TO.C,H1*%
X155132760Y-56038086D03*
%TD*%
D19*
%TO.C,J3*%
X175132760Y-56038086D03*
D20*
X177672760Y-56038086D03*
X180212760Y-56038086D03*
X182752760Y-56038086D03*
%TD*%
D21*
%TO.C,U1*%
X172657760Y-69133086D03*
X172657760Y-70403086D03*
X172657760Y-71673086D03*
X172657760Y-72943086D03*
X177607760Y-72943086D03*
X177607760Y-71673086D03*
X177607760Y-70403086D03*
X177607760Y-69133086D03*
%TD*%
D16*
%TO.C,J2*%
X168137760Y-80159086D03*
D15*
X166137760Y-80159086D03*
%TD*%
D22*
%TO.C,C3*%
X172013760Y-61617086D03*
X175138760Y-61617086D03*
%TD*%
D23*
%TO.C,Q2*%
X165837760Y-67901086D03*
X165837760Y-66001086D03*
X163962760Y-66951086D03*
%TD*%
D24*
%TO.C,R2*%
X177805760Y-61490086D03*
X177805760Y-63490086D03*
%TD*%
D17*
%TO.C,R1*%
X181107760Y-67205086D03*
X183107760Y-67205086D03*
%TD*%
D25*
%TO.C,J1*%
X173360760Y-80159086D03*
D26*
X175900760Y-80159086D03*
X178440760Y-80159086D03*
%TD*%
D27*
%TO.C,Q1*%
X180883760Y-61429086D03*
X180883760Y-63329086D03*
X182758760Y-62379086D03*
%TD*%
D28*
%TO.C,J4*%
X155132760Y-71038086D03*
D29*
X155132760Y-68538086D03*
%TD*%
D30*
%TO.C,F1*%
X160951260Y-71015086D03*
X163926260Y-71015086D03*
%TD*%
D31*
%TO.C,C4*%
X169296760Y-66062086D03*
X169296760Y-69187086D03*
%TD*%
D32*
%TO.C,R4*%
X183107760Y-72920086D03*
X181107760Y-72920086D03*
%TD*%
D33*
%TO.C,C1*%
X172595260Y-66038086D03*
X174670260Y-66038086D03*
%TD*%
%TO.C,C2*%
X181095260Y-70380086D03*
X183170260Y-70380086D03*
%TD*%
D18*
%TO.C,H2*%
X185933760Y-80159086D03*
%TD*%
D34*
%TO.C,R3*%
X185552760Y-63363086D03*
X185552760Y-61363086D03*
%TD*%
%LPD*%
M02*
