M48
; DRILL file KiCad 10.0.5 date 2026-09-09T09:01:58
; FORMAT={-:-/ absolute / metric / decimal}
; #@! TF.CreationDate,2026-09-09T09:01:58+03:00
; #@! TF.GenerationSoftware,Kicad,Pcbnew,10.0.5
; #@! TF.FileFunction,Plated,1,2,PTH
FMAT,2
METRIC
; #@! TA.AperFunction,Plated,PTH,ViaDrill
T1C0.300
; #@! TA.AperFunction,Plated,PTH,ViaDrill
T2C0.400
; #@! TA.AperFunction,Plated,PTH,ComponentDrill
T3C1.000
%
G90
G05
T1
X80.0Y-77.725
X81.275Y-76.1
X81.275Y-94.8
X82.5Y-79.3
X82.5Y-98.0
X83.862Y-81.4
X83.862Y-100.1
X84.8Y-75.825
X84.8Y-94.325
X86.6Y-82.6
X88.775Y-68.225
X88.775Y-87.225
X89.65Y-76.6
X89.65Y-95.3
X91.0Y-80.25
X91.0Y-98.95
X93.0Y-75.0
X93.0Y-91.0
X105.5Y-72.0
X106.862Y-79.0
X108.825Y-84.0
X109.137Y-79.0
X110.0Y-75.5
X113.5Y-81.5
T2
X50.0Y-72.1
X50.6Y-39.2
X51.3Y-91.2
X51.85Y-60.45
X54.3Y-69.7
X56.75Y-44.85
X56.97Y-77.87
X57.8Y-50.5
X58.811Y-77.089
X59.7Y-67.4
X60.5Y-50.8
X63.7Y-75.0
X63.8Y-73.7
X63.9Y-76.2
X63.9Y-78.575
X63.95Y-71.1
X63.95Y-72.4
X64.0Y-60.6
X64.7Y-75.3
X65.2Y-49.5
X65.8Y-80.825
X66.4Y-76.5
X66.4Y-79.325
X67.4Y-68.6
X67.4Y-76.4
X67.4Y-79.325
X67.5Y-69.8
X68.15Y-61.605
X68.15Y-63.305
X68.4Y-79.325
X68.9Y-68.6
X69.6Y-79.325
X69.8Y-67.3
X71.0Y-45.2
X73.3Y-66.1
X73.4Y-63.7
X73.85Y-73.725
X73.85Y-78.575
X74.677Y-81.523
X74.7Y-72.4
X75.5Y-82.4
X76.25Y-84.2
X77.2Y-54.1
X80.7Y-66.5
X82.65Y-83.0
X83.6Y-58.0
X99.65Y-63.25
X102.475Y-84.225
X103.2Y-74.1
X103.6Y-92.9
T3
X76.05Y-62.455
X76.05Y-64.995
X76.05Y-67.535
M30
