%TF.GenerationSoftware,KiCad,Pcbnew,10.0.5*%
%TF.CreationDate,2026-08-24T14:30:19+03:00*%
%TF.ProjectId,Dual_PWM_Fan_Controller,4475616c-5f50-4574-9d5f-46616e5f436f,rev?*%
%TF.SameCoordinates,Original*%
%TF.FileFunction,Legend,Top*%
%TF.FilePolarity,Positive*%
%FSLAX46Y46*%
G04 Gerber Fmt 4.6, Leading zero omitted, Abs format (unit mm)*
G04 Created by KiCad (PCBNEW 10.0.5) date 2026-08-24 14:30:19*
%MOMM*%
%LPD*%
G01*
G04 APERTURE LIST*
%ADD10C,0.100000*%
%ADD11C,0.001700*%
%ADD12C,0.200000*%
%ADD13C,0.150000*%
%ADD14C,0.120000*%
G04 APERTURE END LIST*
D10*
X101094217Y-113394609D02*
X100760884Y-113394609D01*
X100760884Y-113918419D02*
X100760884Y-112918419D01*
X100760884Y-112918419D02*
X101237074Y-112918419D01*
X101570408Y-113632704D02*
X102046598Y-113632704D01*
X101475170Y-113918419D02*
X101808503Y-112918419D01*
X101808503Y-112918419D02*
X102141836Y-113918419D01*
X102475170Y-113918419D02*
X102475170Y-112918419D01*
X102475170Y-112918419D02*
X103046598Y-113918419D01*
X103046598Y-113918419D02*
X103046598Y-112918419D01*
X104237075Y-113013657D02*
X104284694Y-112966038D01*
X104284694Y-112966038D02*
X104379932Y-112918419D01*
X104379932Y-112918419D02*
X104618027Y-112918419D01*
X104618027Y-112918419D02*
X104713265Y-112966038D01*
X104713265Y-112966038D02*
X104760884Y-113013657D01*
X104760884Y-113013657D02*
X104808503Y-113108895D01*
X104808503Y-113108895D02*
X104808503Y-113204133D01*
X104808503Y-113204133D02*
X104760884Y-113346990D01*
X104760884Y-113346990D02*
X104189456Y-113918419D01*
X104189456Y-113918419D02*
X104808503Y-113918419D01*
X160800074Y-68960419D02*
X160323884Y-68960419D01*
X160323884Y-68960419D02*
X160323884Y-67960419D01*
X161133408Y-68436609D02*
X161466741Y-68436609D01*
X161609598Y-68960419D02*
X161133408Y-68960419D01*
X161133408Y-68960419D02*
X161133408Y-67960419D01*
X161133408Y-67960419D02*
X161609598Y-67960419D01*
X162038170Y-68960419D02*
X162038170Y-67960419D01*
X162038170Y-67960419D02*
X162276265Y-67960419D01*
X162276265Y-67960419D02*
X162419122Y-68008038D01*
X162419122Y-68008038D02*
X162514360Y-68103276D01*
X162514360Y-68103276D02*
X162561979Y-68198514D01*
X162561979Y-68198514D02*
X162609598Y-68388990D01*
X162609598Y-68388990D02*
X162609598Y-68531847D01*
X162609598Y-68531847D02*
X162561979Y-68722323D01*
X162561979Y-68722323D02*
X162514360Y-68817561D01*
X162514360Y-68817561D02*
X162419122Y-68912800D01*
X162419122Y-68912800D02*
X162276265Y-68960419D01*
X162276265Y-68960419D02*
X162038170Y-68960419D01*
X163800075Y-68960419D02*
X163800075Y-67960419D01*
X163800075Y-67960419D02*
X164181027Y-67960419D01*
X164181027Y-67960419D02*
X164276265Y-68008038D01*
X164276265Y-68008038D02*
X164323884Y-68055657D01*
X164323884Y-68055657D02*
X164371503Y-68150895D01*
X164371503Y-68150895D02*
X164371503Y-68293752D01*
X164371503Y-68293752D02*
X164323884Y-68388990D01*
X164323884Y-68388990D02*
X164276265Y-68436609D01*
X164276265Y-68436609D02*
X164181027Y-68484228D01*
X164181027Y-68484228D02*
X163800075Y-68484228D01*
X164752456Y-68674704D02*
X165228646Y-68674704D01*
X164657218Y-68960419D02*
X164990551Y-67960419D01*
X164990551Y-67960419D02*
X165323884Y-68960419D01*
X165657218Y-68960419D02*
X165657218Y-67960419D01*
X165657218Y-67960419D02*
X166228646Y-68960419D01*
X166228646Y-68960419D02*
X166228646Y-67960419D01*
X166704837Y-68436609D02*
X167038170Y-68436609D01*
X167181027Y-68960419D02*
X166704837Y-68960419D01*
X166704837Y-68960419D02*
X166704837Y-67960419D01*
X166704837Y-67960419D02*
X167181027Y-67960419D01*
X168085789Y-68960419D02*
X167609599Y-68960419D01*
X167609599Y-68960419D02*
X167609599Y-67960419D01*
X165022884Y-110886419D02*
X165022884Y-111695942D01*
X165022884Y-111695942D02*
X165070503Y-111791180D01*
X165070503Y-111791180D02*
X165118122Y-111838800D01*
X165118122Y-111838800D02*
X165213360Y-111886419D01*
X165213360Y-111886419D02*
X165403836Y-111886419D01*
X165403836Y-111886419D02*
X165499074Y-111838800D01*
X165499074Y-111838800D02*
X165546693Y-111791180D01*
X165546693Y-111791180D02*
X165594312Y-111695942D01*
X165594312Y-111695942D02*
X165594312Y-110886419D01*
X166070503Y-111886419D02*
X166070503Y-110886419D01*
X166070503Y-110886419D02*
X166451455Y-110886419D01*
X166451455Y-110886419D02*
X166546693Y-110934038D01*
X166546693Y-110934038D02*
X166594312Y-110981657D01*
X166594312Y-110981657D02*
X166641931Y-111076895D01*
X166641931Y-111076895D02*
X166641931Y-111219752D01*
X166641931Y-111219752D02*
X166594312Y-111314990D01*
X166594312Y-111314990D02*
X166546693Y-111362609D01*
X166546693Y-111362609D02*
X166451455Y-111410228D01*
X166451455Y-111410228D02*
X166070503Y-111410228D01*
X167070503Y-111886419D02*
X167070503Y-110886419D01*
X167070503Y-110886419D02*
X167308598Y-110886419D01*
X167308598Y-110886419D02*
X167451455Y-110934038D01*
X167451455Y-110934038D02*
X167546693Y-111029276D01*
X167546693Y-111029276D02*
X167594312Y-111124514D01*
X167594312Y-111124514D02*
X167641931Y-111314990D01*
X167641931Y-111314990D02*
X167641931Y-111457847D01*
X167641931Y-111457847D02*
X167594312Y-111648323D01*
X167594312Y-111648323D02*
X167546693Y-111743561D01*
X167546693Y-111743561D02*
X167451455Y-111838800D01*
X167451455Y-111838800D02*
X167308598Y-111886419D01*
X167308598Y-111886419D02*
X167070503Y-111886419D01*
X168070503Y-111886419D02*
X168070503Y-110886419D01*
X179612027Y-84470419D02*
X180183455Y-84470419D01*
X179897741Y-85470419D02*
X179897741Y-84470419D01*
X180516789Y-85470419D02*
X180516789Y-84470419D01*
X180516789Y-84946609D02*
X181088217Y-84946609D01*
X181088217Y-85470419D02*
X181088217Y-84470419D01*
X181516789Y-84565657D02*
X181564408Y-84518038D01*
X181564408Y-84518038D02*
X181659646Y-84470419D01*
X181659646Y-84470419D02*
X181897741Y-84470419D01*
X181897741Y-84470419D02*
X181992979Y-84518038D01*
X181992979Y-84518038D02*
X182040598Y-84565657D01*
X182040598Y-84565657D02*
X182088217Y-84660895D01*
X182088217Y-84660895D02*
X182088217Y-84756133D01*
X182088217Y-84756133D02*
X182040598Y-84898990D01*
X182040598Y-84898990D02*
X181469170Y-85470419D01*
X181469170Y-85470419D02*
X182088217Y-85470419D01*
X179104027Y-104028419D02*
X179675455Y-104028419D01*
X179389741Y-105028419D02*
X179389741Y-104028419D01*
X180008789Y-105028419D02*
X180008789Y-104028419D01*
X180008789Y-104504609D02*
X180580217Y-104504609D01*
X180580217Y-105028419D02*
X180580217Y-104028419D01*
X181580217Y-105028419D02*
X181008789Y-105028419D01*
X181294503Y-105028419D02*
X181294503Y-104028419D01*
X181294503Y-104028419D02*
X181199265Y-104171276D01*
X181199265Y-104171276D02*
X181104027Y-104266514D01*
X181104027Y-104266514D02*
X181008789Y-104314133D01*
X101094217Y-73389609D02*
X100760884Y-73389609D01*
X100760884Y-73913419D02*
X100760884Y-72913419D01*
X100760884Y-72913419D02*
X101237074Y-72913419D01*
X101570408Y-73627704D02*
X102046598Y-73627704D01*
X101475170Y-73913419D02*
X101808503Y-72913419D01*
X101808503Y-72913419D02*
X102141836Y-73913419D01*
X102475170Y-73913419D02*
X102475170Y-72913419D01*
X102475170Y-72913419D02*
X103046598Y-73913419D01*
X103046598Y-73913419D02*
X103046598Y-72913419D01*
X104808503Y-73913419D02*
X104237075Y-73913419D01*
X104522789Y-73913419D02*
X104522789Y-72913419D01*
X104522789Y-72913419D02*
X104427551Y-73056276D01*
X104427551Y-73056276D02*
X104332313Y-73151514D01*
X104332313Y-73151514D02*
X104237075Y-73199133D01*
X103189693Y-98297419D02*
X102618265Y-98297419D01*
X102903979Y-98297419D02*
X102903979Y-97297419D01*
X102903979Y-97297419D02*
X102808741Y-97440276D01*
X102808741Y-97440276D02*
X102713503Y-97535514D01*
X102713503Y-97535514D02*
X102618265Y-97583133D01*
X103570646Y-97392657D02*
X103618265Y-97345038D01*
X103618265Y-97345038D02*
X103713503Y-97297419D01*
X103713503Y-97297419D02*
X103951598Y-97297419D01*
X103951598Y-97297419D02*
X104046836Y-97345038D01*
X104046836Y-97345038D02*
X104094455Y-97392657D01*
X104094455Y-97392657D02*
X104142074Y-97487895D01*
X104142074Y-97487895D02*
X104142074Y-97583133D01*
X104142074Y-97583133D02*
X104094455Y-97725990D01*
X104094455Y-97725990D02*
X103523027Y-98297419D01*
X103523027Y-98297419D02*
X104142074Y-98297419D01*
X104427789Y-97297419D02*
X104761122Y-98297419D01*
X104761122Y-98297419D02*
X105094455Y-97297419D01*
X106189694Y-98297419D02*
X106189694Y-97297419D01*
X106665884Y-98297419D02*
X106665884Y-97297419D01*
X106665884Y-97297419D02*
X107237312Y-98297419D01*
X107237312Y-98297419D02*
X107237312Y-97297419D01*
D11*
X136519836Y-114946007D02*
X136560224Y-114948144D01*
X136600660Y-114951427D01*
X136641083Y-114955827D01*
X136681441Y-114961324D01*
X136721674Y-114967893D01*
X136761732Y-114975508D01*
X136801548Y-114984153D01*
X136841072Y-114993801D01*
X136880245Y-115004426D01*
X136919018Y-115016013D01*
X136957319Y-115028526D01*
X136995109Y-115041951D01*
X137032317Y-115056264D01*
X137093684Y-115082195D01*
X137153504Y-115110302D01*
X137211741Y-115140535D01*
X137268361Y-115172833D01*
X137323323Y-115207141D01*
X137376598Y-115243395D01*
X137428147Y-115281539D01*
X137477934Y-115321521D01*
X137525924Y-115363278D01*
X137572079Y-115406748D01*
X137616368Y-115451880D01*
X137658753Y-115498617D01*
X137699196Y-115546894D01*
X137737664Y-115596658D01*
X137774123Y-115647851D01*
X137808532Y-115700410D01*
X137840861Y-115754287D01*
X137871072Y-115809414D01*
X137899124Y-115865737D01*
X137924992Y-115923196D01*
X137948634Y-115981739D01*
X137970013Y-116041304D01*
X137989099Y-116101833D01*
X138005848Y-116163268D01*
X138020231Y-116225553D01*
X138032212Y-116288626D01*
X138041751Y-116352430D01*
X138048817Y-116416912D01*
X138053369Y-116482011D01*
X138055379Y-116547667D01*
X138054807Y-116613823D01*
X138051614Y-116680420D01*
X138049000Y-116713000D01*
X138045586Y-116745494D01*
X138041399Y-116777892D01*
X138036455Y-116810179D01*
X138030776Y-116842350D01*
X138024387Y-116874392D01*
X138009571Y-116938051D01*
X137992186Y-117001072D01*
X137972406Y-117063369D01*
X137950410Y-117124870D01*
X137926386Y-117185482D01*
X137913838Y-117214809D01*
X137900630Y-117243983D01*
X137886775Y-117272976D01*
X137872275Y-117301754D01*
X137857148Y-117330281D01*
X137841408Y-117358535D01*
X137825059Y-117386481D01*
X137808116Y-117414089D01*
X137790590Y-117441327D01*
X137772489Y-117468169D01*
X137753828Y-117494576D01*
X137734613Y-117520524D01*
X137714858Y-117545978D01*
X137694579Y-117570914D01*
X137673780Y-117595293D01*
X137652472Y-117619091D01*
X137625765Y-117647600D01*
X137598583Y-117675474D01*
X137570918Y-117702691D01*
X137542763Y-117729248D01*
X137514105Y-117755130D01*
X137484933Y-117780340D01*
X137455252Y-117804856D01*
X137425039Y-117828679D01*
X137394289Y-117851794D01*
X137362990Y-117874198D01*
X137331133Y-117895876D01*
X137298712Y-117916827D01*
X137265715Y-117937038D01*
X137232134Y-117956498D01*
X137197962Y-117975203D01*
X137163189Y-117993143D01*
X137127587Y-118010413D01*
X137091522Y-118026831D01*
X137055023Y-118042381D01*
X137018122Y-118057048D01*
X136980841Y-118070810D01*
X136943220Y-118083657D01*
X136905271Y-118095567D01*
X136867035Y-118106531D01*
X136828539Y-118116526D01*
X136789806Y-118125538D01*
X136750867Y-118133555D01*
X136711755Y-118140553D01*
X136672498Y-118146520D01*
X136633117Y-118151437D01*
X136593643Y-118155295D01*
X136554111Y-118158073D01*
X136512878Y-118159901D01*
X136471756Y-118160709D01*
X136430749Y-118160497D01*
X136389858Y-118159277D01*
X136349095Y-118157056D01*
X136308455Y-118153844D01*
X136267942Y-118149642D01*
X136227563Y-118144467D01*
X136187318Y-118138321D01*
X136147210Y-118131212D01*
X136107250Y-118123151D01*
X136067430Y-118114145D01*
X136027762Y-118104197D01*
X135988245Y-118093320D01*
X135948883Y-118081519D01*
X135909683Y-118068808D01*
X135874294Y-118056175D01*
X135839270Y-118042320D01*
X135804617Y-118027377D01*
X135770345Y-118011465D01*
X135736473Y-117994710D01*
X135703005Y-117977240D01*
X135669959Y-117959179D01*
X135637338Y-117940656D01*
X135591917Y-117913360D01*
X135547605Y-117884592D01*
X135504427Y-117854393D01*
X135462403Y-117822808D01*
X135421551Y-117789884D01*
X135381897Y-117755656D01*
X135343461Y-117720175D01*
X135306265Y-117683476D01*
X135270333Y-117645610D01*
X135240302Y-117611816D01*
X135844827Y-117611816D01*
X135856501Y-117621163D01*
X135870109Y-117630468D01*
X135885400Y-117639685D01*
X135902125Y-117648771D01*
X135920043Y-117657685D01*
X135938906Y-117666381D01*
X135958467Y-117674821D01*
X135978484Y-117682961D01*
X136018888Y-117698160D01*
X136058155Y-117711643D01*
X136094315Y-117723065D01*
X136125398Y-117732080D01*
X136171808Y-117743888D01*
X136218558Y-117753797D01*
X136265584Y-117761819D01*
X136312830Y-117767958D01*
X136360231Y-117772229D01*
X136407730Y-117774641D01*
X136455268Y-117775200D01*
X136502784Y-117773915D01*
X136550214Y-117770800D01*
X136597503Y-117765855D01*
X136644588Y-117759103D01*
X136691412Y-117750540D01*
X136737910Y-117740182D01*
X136784025Y-117728039D01*
X136829697Y-117714115D01*
X136874864Y-117698427D01*
X136896685Y-117690274D01*
X136918609Y-117681767D01*
X136940508Y-117672829D01*
X136962250Y-117663365D01*
X136983692Y-117653300D01*
X137004703Y-117642535D01*
X137015002Y-117636872D01*
X137025150Y-117631005D01*
X137035117Y-117624922D01*
X137044894Y-117618614D01*
X137039140Y-117603075D01*
X137032790Y-117587212D01*
X137018569Y-117554716D01*
X137002774Y-117521523D01*
X136985944Y-117488021D01*
X136951363Y-117421698D01*
X136934706Y-117389666D01*
X136919188Y-117358910D01*
X136769111Y-117053198D01*
X136620466Y-116746775D01*
X136557730Y-116616030D01*
X136525969Y-116550835D01*
X136493465Y-116486053D01*
X136490497Y-116479997D01*
X136487576Y-116473619D01*
X136481795Y-116460156D01*
X136475940Y-116446150D01*
X136469802Y-116432096D01*
X136466567Y-116425209D01*
X136463187Y-116418490D01*
X136459642Y-116412001D01*
X136455906Y-116405814D01*
X136451951Y-116399978D01*
X136447754Y-116394563D01*
X136443289Y-116389626D01*
X136438536Y-116385232D01*
X136208882Y-116867313D01*
X136506523Y-116867313D01*
X136686885Y-117247618D01*
X136017027Y-117247618D01*
X135844827Y-117611816D01*
X135240302Y-117611816D01*
X135235682Y-117606615D01*
X135202339Y-117566540D01*
X135170319Y-117525423D01*
X135139654Y-117483310D01*
X135110355Y-117440247D01*
X135082453Y-117396266D01*
X135055963Y-117351422D01*
X135030910Y-117305754D01*
X135007314Y-117259308D01*
X134985198Y-117212120D01*
X134964588Y-117164239D01*
X134945498Y-117115706D01*
X134927956Y-117066565D01*
X134911979Y-117016863D01*
X134897592Y-116966636D01*
X134884814Y-116915933D01*
X134873670Y-116864794D01*
X134864180Y-116813266D01*
X134856371Y-116761385D01*
X134850259Y-116709202D01*
X134845861Y-116656753D01*
X134843209Y-116604094D01*
X134842321Y-116551250D01*
X134842329Y-116550810D01*
X135226845Y-116550810D01*
X135227167Y-116575205D01*
X135229349Y-116623952D01*
X135233518Y-116672581D01*
X135239582Y-116721015D01*
X135247450Y-116769180D01*
X135257030Y-116817004D01*
X135262537Y-116841005D01*
X135268551Y-116864778D01*
X135275068Y-116888331D01*
X135282066Y-116911670D01*
X135289543Y-116934814D01*
X135297485Y-116957753D01*
X135314722Y-117003083D01*
X135333695Y-117047732D01*
X135354323Y-117091757D01*
X135376519Y-117135226D01*
X135400203Y-117178206D01*
X135422681Y-117216995D01*
X135434858Y-117236915D01*
X135447734Y-117256635D01*
X135454449Y-117266293D01*
X135461352Y-117275748D01*
X135468452Y-117284945D01*
X135475759Y-117293838D01*
X135483277Y-117302378D01*
X135491009Y-117310501D01*
X135498962Y-117318168D01*
X135507144Y-117325328D01*
X136407670Y-115570501D01*
X136594902Y-115570501D01*
X136603159Y-115581959D01*
X136611380Y-115594322D01*
X136619555Y-115607482D01*
X136627685Y-115621323D01*
X136643753Y-115650580D01*
X136659531Y-115681181D01*
X136689961Y-115742720D01*
X136704494Y-115771825D01*
X136718497Y-115798591D01*
X136721083Y-115803138D01*
X136723998Y-115807951D01*
X136730562Y-115818210D01*
X136737652Y-115829137D01*
X136744740Y-115840475D01*
X136748116Y-115846228D01*
X136751291Y-115851987D01*
X136754205Y-115857727D01*
X136756777Y-115863418D01*
X136758955Y-115869029D01*
X136760662Y-115874528D01*
X136761323Y-115877226D01*
X136761840Y-115879884D01*
X136762205Y-115882500D01*
X136762415Y-115885067D01*
X136762424Y-115887751D01*
X136762199Y-115890608D01*
X136761108Y-115896828D01*
X136759247Y-115903615D01*
X136756709Y-115910886D01*
X136753610Y-115918543D01*
X136750041Y-115926481D01*
X136746111Y-115934617D01*
X136741919Y-115942847D01*
X136733156Y-115959203D01*
X136724575Y-115974789D01*
X136716993Y-115988838D01*
X136713831Y-115995040D01*
X136711225Y-116000574D01*
X137390322Y-117328453D01*
X137407002Y-117311245D01*
X137423132Y-117292890D01*
X137438708Y-117273512D01*
X137453743Y-117253215D01*
X137468239Y-117232124D01*
X137482191Y-117210357D01*
X137495606Y-117188030D01*
X137508490Y-117165255D01*
X137520841Y-117142152D01*
X137532662Y-117118838D01*
X137543963Y-117095430D01*
X137554732Y-117072043D01*
X137574722Y-117025803D01*
X137592647Y-116981049D01*
X137600665Y-116959622D01*
X137608178Y-116938077D01*
X137615199Y-116916415D01*
X137621745Y-116894638D01*
X137633464Y-116850770D01*
X137643450Y-116806515D01*
X137651809Y-116761909D01*
X137658651Y-116716991D01*
X137664096Y-116671799D01*
X137668246Y-116626377D01*
X137671479Y-116561588D01*
X137671038Y-116497418D01*
X137667027Y-116433958D01*
X137659544Y-116371306D01*
X137648691Y-116309558D01*
X137634567Y-116248805D01*
X137617269Y-116189145D01*
X137596904Y-116130670D01*
X137573559Y-116073481D01*
X137547343Y-116017668D01*
X137518352Y-115963326D01*
X137486690Y-115910556D01*
X137452453Y-115859449D01*
X137415737Y-115810101D01*
X137376652Y-115762606D01*
X137335290Y-115717059D01*
X137291754Y-115673559D01*
X137246137Y-115632200D01*
X137198546Y-115593073D01*
X137149079Y-115556281D01*
X137097834Y-115521911D01*
X137044912Y-115490062D01*
X136990411Y-115460835D01*
X136934429Y-115434312D01*
X136877075Y-115410595D01*
X136818437Y-115389786D01*
X136758621Y-115371974D01*
X136697723Y-115357253D01*
X136635849Y-115345718D01*
X136573092Y-115337465D01*
X136509554Y-115332591D01*
X136445334Y-115331192D01*
X136387007Y-115332901D01*
X136329384Y-115337314D01*
X136272526Y-115344378D01*
X136216488Y-115354030D01*
X136161338Y-115366208D01*
X136107136Y-115380848D01*
X136053950Y-115397901D01*
X136001831Y-115417298D01*
X135950847Y-115438975D01*
X135901062Y-115462883D01*
X135852535Y-115488952D01*
X135805322Y-115517125D01*
X135759497Y-115547340D01*
X135715111Y-115579536D01*
X135672234Y-115613655D01*
X135630919Y-115649634D01*
X135591234Y-115687414D01*
X135553240Y-115726939D01*
X135517001Y-115768135D01*
X135482573Y-115810955D01*
X135450021Y-115855332D01*
X135419405Y-115901204D01*
X135390793Y-115948519D01*
X135364238Y-115997206D01*
X135339810Y-116047213D01*
X135317565Y-116098473D01*
X135297565Y-116150929D01*
X135279875Y-116204520D01*
X135264557Y-116259185D01*
X135251669Y-116314861D01*
X135241275Y-116371489D01*
X135233437Y-116429014D01*
X135230989Y-116453317D01*
X135229116Y-116477659D01*
X135227809Y-116502029D01*
X135227055Y-116526416D01*
X135226845Y-116550810D01*
X134842329Y-116550810D01*
X134843773Y-116483111D01*
X134848127Y-116414989D01*
X134855363Y-116347038D01*
X134865478Y-116279420D01*
X134878447Y-116212292D01*
X134885998Y-116178955D01*
X134894260Y-116145805D01*
X134903231Y-116112852D01*
X134912911Y-116080121D01*
X134923287Y-116047626D01*
X134934370Y-116015394D01*
X134948032Y-115978502D01*
X134962621Y-115942000D01*
X134978118Y-115905903D01*
X134994506Y-115870224D01*
X135011769Y-115834974D01*
X135029898Y-115800171D01*
X135048868Y-115765825D01*
X135068666Y-115731955D01*
X135089278Y-115698571D01*
X135110686Y-115665688D01*
X135132870Y-115633318D01*
X135155819Y-115601477D01*
X135179512Y-115570181D01*
X135203940Y-115539434D01*
X135229080Y-115509262D01*
X135254918Y-115479675D01*
X135279669Y-115452608D01*
X135305076Y-115426047D01*
X135331125Y-115400014D01*
X135357799Y-115374536D01*
X135385078Y-115349645D01*
X135412945Y-115325362D01*
X135441377Y-115301715D01*
X135470364Y-115278743D01*
X135499881Y-115256463D01*
X135529916Y-115234906D01*
X135560441Y-115214096D01*
X135591444Y-115194066D01*
X135622909Y-115174842D01*
X135654813Y-115156451D01*
X135687137Y-115138919D01*
X135719870Y-115122277D01*
X135760370Y-115102984D01*
X135801091Y-115084826D01*
X135842036Y-115067794D01*
X135883224Y-115051885D01*
X135924661Y-115037090D01*
X135966349Y-115023411D01*
X136008303Y-115010839D01*
X136050540Y-114999366D01*
X136093060Y-114988992D01*
X136135874Y-114979715D01*
X136178994Y-114971519D01*
X136222428Y-114964406D01*
X136266189Y-114958369D01*
X136310283Y-114953409D01*
X136354720Y-114949505D01*
X136399513Y-114946670D01*
X136439425Y-114945249D01*
X136479551Y-114945029D01*
X136519836Y-114946007D01*
G36*
X136519836Y-114946007D02*
G01*
X136560224Y-114948144D01*
X136600660Y-114951427D01*
X136641083Y-114955827D01*
X136681441Y-114961324D01*
X136721674Y-114967893D01*
X136761732Y-114975508D01*
X136801548Y-114984153D01*
X136841072Y-114993801D01*
X136880245Y-115004426D01*
X136919018Y-115016013D01*
X136957319Y-115028526D01*
X136995109Y-115041951D01*
X137032317Y-115056264D01*
X137093684Y-115082195D01*
X137153504Y-115110302D01*
X137211741Y-115140535D01*
X137268361Y-115172833D01*
X137323323Y-115207141D01*
X137376598Y-115243395D01*
X137428147Y-115281539D01*
X137477934Y-115321521D01*
X137525924Y-115363278D01*
X137572079Y-115406748D01*
X137616368Y-115451880D01*
X137658753Y-115498617D01*
X137699196Y-115546894D01*
X137737664Y-115596658D01*
X137774123Y-115647851D01*
X137808532Y-115700410D01*
X137840861Y-115754287D01*
X137871072Y-115809414D01*
X137899124Y-115865737D01*
X137924992Y-115923196D01*
X137948634Y-115981739D01*
X137970013Y-116041304D01*
X137989099Y-116101833D01*
X138005848Y-116163268D01*
X138020231Y-116225553D01*
X138032212Y-116288626D01*
X138041751Y-116352430D01*
X138048817Y-116416912D01*
X138053369Y-116482011D01*
X138055379Y-116547667D01*
X138054807Y-116613823D01*
X138051614Y-116680420D01*
X138049000Y-116713000D01*
X138045586Y-116745494D01*
X138041399Y-116777892D01*
X138036455Y-116810179D01*
X138030776Y-116842350D01*
X138024387Y-116874392D01*
X138009571Y-116938051D01*
X137992186Y-117001072D01*
X137972406Y-117063369D01*
X137950410Y-117124870D01*
X137926386Y-117185482D01*
X137913838Y-117214809D01*
X137900630Y-117243983D01*
X137886775Y-117272976D01*
X137872275Y-117301754D01*
X137857148Y-117330281D01*
X137841408Y-117358535D01*
X137825059Y-117386481D01*
X137808116Y-117414089D01*
X137790590Y-117441327D01*
X137772489Y-117468169D01*
X137753828Y-117494576D01*
X137734613Y-117520524D01*
X137714858Y-117545978D01*
X137694579Y-117570914D01*
X137673780Y-117595293D01*
X137652472Y-117619091D01*
X137625765Y-117647600D01*
X137598583Y-117675474D01*
X137570918Y-117702691D01*
X137542763Y-117729248D01*
X137514105Y-117755130D01*
X137484933Y-117780340D01*
X137455252Y-117804856D01*
X137425039Y-117828679D01*
X137394289Y-117851794D01*
X137362990Y-117874198D01*
X137331133Y-117895876D01*
X137298712Y-117916827D01*
X137265715Y-117937038D01*
X137232134Y-117956498D01*
X137197962Y-117975203D01*
X137163189Y-117993143D01*
X137127587Y-118010413D01*
X137091522Y-118026831D01*
X137055023Y-118042381D01*
X137018122Y-118057048D01*
X136980841Y-118070810D01*
X136943220Y-118083657D01*
X136905271Y-118095567D01*
X136867035Y-118106531D01*
X136828539Y-118116526D01*
X136789806Y-118125538D01*
X136750867Y-118133555D01*
X136711755Y-118140553D01*
X136672498Y-118146520D01*
X136633117Y-118151437D01*
X136593643Y-118155295D01*
X136554111Y-118158073D01*
X136512878Y-118159901D01*
X136471756Y-118160709D01*
X136430749Y-118160497D01*
X136389858Y-118159277D01*
X136349095Y-118157056D01*
X136308455Y-118153844D01*
X136267942Y-118149642D01*
X136227563Y-118144467D01*
X136187318Y-118138321D01*
X136147210Y-118131212D01*
X136107250Y-118123151D01*
X136067430Y-118114145D01*
X136027762Y-118104197D01*
X135988245Y-118093320D01*
X135948883Y-118081519D01*
X135909683Y-118068808D01*
X135874294Y-118056175D01*
X135839270Y-118042320D01*
X135804617Y-118027377D01*
X135770345Y-118011465D01*
X135736473Y-117994710D01*
X135703005Y-117977240D01*
X135669959Y-117959179D01*
X135637338Y-117940656D01*
X135591917Y-117913360D01*
X135547605Y-117884592D01*
X135504427Y-117854393D01*
X135462403Y-117822808D01*
X135421551Y-117789884D01*
X135381897Y-117755656D01*
X135343461Y-117720175D01*
X135306265Y-117683476D01*
X135270333Y-117645610D01*
X135240302Y-117611816D01*
X135844827Y-117611816D01*
X135856501Y-117621163D01*
X135870109Y-117630468D01*
X135885400Y-117639685D01*
X135902125Y-117648771D01*
X135920043Y-117657685D01*
X135938906Y-117666381D01*
X135958467Y-117674821D01*
X135978484Y-117682961D01*
X136018888Y-117698160D01*
X136058155Y-117711643D01*
X136094315Y-117723065D01*
X136125398Y-117732080D01*
X136171808Y-117743888D01*
X136218558Y-117753797D01*
X136265584Y-117761819D01*
X136312830Y-117767958D01*
X136360231Y-117772229D01*
X136407730Y-117774641D01*
X136455268Y-117775200D01*
X136502784Y-117773915D01*
X136550214Y-117770800D01*
X136597503Y-117765855D01*
X136644588Y-117759103D01*
X136691412Y-117750540D01*
X136737910Y-117740182D01*
X136784025Y-117728039D01*
X136829697Y-117714115D01*
X136874864Y-117698427D01*
X136896685Y-117690274D01*
X136918609Y-117681767D01*
X136940508Y-117672829D01*
X136962250Y-117663365D01*
X136983692Y-117653300D01*
X137004703Y-117642535D01*
X137015002Y-117636872D01*
X137025150Y-117631005D01*
X137035117Y-117624922D01*
X137044894Y-117618614D01*
X137039140Y-117603075D01*
X137032790Y-117587212D01*
X137018569Y-117554716D01*
X137002774Y-117521523D01*
X136985944Y-117488021D01*
X136951363Y-117421698D01*
X136934706Y-117389666D01*
X136919188Y-117358910D01*
X136769111Y-117053198D01*
X136620466Y-116746775D01*
X136557730Y-116616030D01*
X136525969Y-116550835D01*
X136493465Y-116486053D01*
X136490497Y-116479997D01*
X136487576Y-116473619D01*
X136481795Y-116460156D01*
X136475940Y-116446150D01*
X136469802Y-116432096D01*
X136466567Y-116425209D01*
X136463187Y-116418490D01*
X136459642Y-116412001D01*
X136455906Y-116405814D01*
X136451951Y-116399978D01*
X136447754Y-116394563D01*
X136443289Y-116389626D01*
X136438536Y-116385232D01*
X136208882Y-116867313D01*
X136506523Y-116867313D01*
X136686885Y-117247618D01*
X136017027Y-117247618D01*
X135844827Y-117611816D01*
X135240302Y-117611816D01*
X135235682Y-117606615D01*
X135202339Y-117566540D01*
X135170319Y-117525423D01*
X135139654Y-117483310D01*
X135110355Y-117440247D01*
X135082453Y-117396266D01*
X135055963Y-117351422D01*
X135030910Y-117305754D01*
X135007314Y-117259308D01*
X134985198Y-117212120D01*
X134964588Y-117164239D01*
X134945498Y-117115706D01*
X134927956Y-117066565D01*
X134911979Y-117016863D01*
X134897592Y-116966636D01*
X134884814Y-116915933D01*
X134873670Y-116864794D01*
X134864180Y-116813266D01*
X134856371Y-116761385D01*
X134850259Y-116709202D01*
X134845861Y-116656753D01*
X134843209Y-116604094D01*
X134842321Y-116551250D01*
X134842329Y-116550810D01*
X135226845Y-116550810D01*
X135227167Y-116575205D01*
X135229349Y-116623952D01*
X135233518Y-116672581D01*
X135239582Y-116721015D01*
X135247450Y-116769180D01*
X135257030Y-116817004D01*
X135262537Y-116841005D01*
X135268551Y-116864778D01*
X135275068Y-116888331D01*
X135282066Y-116911670D01*
X135289543Y-116934814D01*
X135297485Y-116957753D01*
X135314722Y-117003083D01*
X135333695Y-117047732D01*
X135354323Y-117091757D01*
X135376519Y-117135226D01*
X135400203Y-117178206D01*
X135422681Y-117216995D01*
X135434858Y-117236915D01*
X135447734Y-117256635D01*
X135454449Y-117266293D01*
X135461352Y-117275748D01*
X135468452Y-117284945D01*
X135475759Y-117293838D01*
X135483277Y-117302378D01*
X135491009Y-117310501D01*
X135498962Y-117318168D01*
X135507144Y-117325328D01*
X136407670Y-115570501D01*
X136594902Y-115570501D01*
X136603159Y-115581959D01*
X136611380Y-115594322D01*
X136619555Y-115607482D01*
X136627685Y-115621323D01*
X136643753Y-115650580D01*
X136659531Y-115681181D01*
X136689961Y-115742720D01*
X136704494Y-115771825D01*
X136718497Y-115798591D01*
X136721083Y-115803138D01*
X136723998Y-115807951D01*
X136730562Y-115818210D01*
X136737652Y-115829137D01*
X136744740Y-115840475D01*
X136748116Y-115846228D01*
X136751291Y-115851987D01*
X136754205Y-115857727D01*
X136756777Y-115863418D01*
X136758955Y-115869029D01*
X136760662Y-115874528D01*
X136761323Y-115877226D01*
X136761840Y-115879884D01*
X136762205Y-115882500D01*
X136762415Y-115885067D01*
X136762424Y-115887751D01*
X136762199Y-115890608D01*
X136761108Y-115896828D01*
X136759247Y-115903615D01*
X136756709Y-115910886D01*
X136753610Y-115918543D01*
X136750041Y-115926481D01*
X136746111Y-115934617D01*
X136741919Y-115942847D01*
X136733156Y-115959203D01*
X136724575Y-115974789D01*
X136716993Y-115988838D01*
X136713831Y-115995040D01*
X136711225Y-116000574D01*
X137390322Y-117328453D01*
X137407002Y-117311245D01*
X137423132Y-117292890D01*
X137438708Y-117273512D01*
X137453743Y-117253215D01*
X137468239Y-117232124D01*
X137482191Y-117210357D01*
X137495606Y-117188030D01*
X137508490Y-117165255D01*
X137520841Y-117142152D01*
X137532662Y-117118838D01*
X137543963Y-117095430D01*
X137554732Y-117072043D01*
X137574722Y-117025803D01*
X137592647Y-116981049D01*
X137600665Y-116959622D01*
X137608178Y-116938077D01*
X137615199Y-116916415D01*
X137621745Y-116894638D01*
X137633464Y-116850770D01*
X137643450Y-116806515D01*
X137651809Y-116761909D01*
X137658651Y-116716991D01*
X137664096Y-116671799D01*
X137668246Y-116626377D01*
X137671479Y-116561588D01*
X137671038Y-116497418D01*
X137667027Y-116433958D01*
X137659544Y-116371306D01*
X137648691Y-116309558D01*
X137634567Y-116248805D01*
X137617269Y-116189145D01*
X137596904Y-116130670D01*
X137573559Y-116073481D01*
X137547343Y-116017668D01*
X137518352Y-115963326D01*
X137486690Y-115910556D01*
X137452453Y-115859449D01*
X137415737Y-115810101D01*
X137376652Y-115762606D01*
X137335290Y-115717059D01*
X137291754Y-115673559D01*
X137246137Y-115632200D01*
X137198546Y-115593073D01*
X137149079Y-115556281D01*
X137097834Y-115521911D01*
X137044912Y-115490062D01*
X136990411Y-115460835D01*
X136934429Y-115434312D01*
X136877075Y-115410595D01*
X136818437Y-115389786D01*
X136758621Y-115371974D01*
X136697723Y-115357253D01*
X136635849Y-115345718D01*
X136573092Y-115337465D01*
X136509554Y-115332591D01*
X136445334Y-115331192D01*
X136387007Y-115332901D01*
X136329384Y-115337314D01*
X136272526Y-115344378D01*
X136216488Y-115354030D01*
X136161338Y-115366208D01*
X136107136Y-115380848D01*
X136053950Y-115397901D01*
X136001831Y-115417298D01*
X135950847Y-115438975D01*
X135901062Y-115462883D01*
X135852535Y-115488952D01*
X135805322Y-115517125D01*
X135759497Y-115547340D01*
X135715111Y-115579536D01*
X135672234Y-115613655D01*
X135630919Y-115649634D01*
X135591234Y-115687414D01*
X135553240Y-115726939D01*
X135517001Y-115768135D01*
X135482573Y-115810955D01*
X135450021Y-115855332D01*
X135419405Y-115901204D01*
X135390793Y-115948519D01*
X135364238Y-115997206D01*
X135339810Y-116047213D01*
X135317565Y-116098473D01*
X135297565Y-116150929D01*
X135279875Y-116204520D01*
X135264557Y-116259185D01*
X135251669Y-116314861D01*
X135241275Y-116371489D01*
X135233437Y-116429014D01*
X135230989Y-116453317D01*
X135229116Y-116477659D01*
X135227809Y-116502029D01*
X135227055Y-116526416D01*
X135226845Y-116550810D01*
X134842329Y-116550810D01*
X134843773Y-116483111D01*
X134848127Y-116414989D01*
X134855363Y-116347038D01*
X134865478Y-116279420D01*
X134878447Y-116212292D01*
X134885998Y-116178955D01*
X134894260Y-116145805D01*
X134903231Y-116112852D01*
X134912911Y-116080121D01*
X134923287Y-116047626D01*
X134934370Y-116015394D01*
X134948032Y-115978502D01*
X134962621Y-115942000D01*
X134978118Y-115905903D01*
X134994506Y-115870224D01*
X135011769Y-115834974D01*
X135029898Y-115800171D01*
X135048868Y-115765825D01*
X135068666Y-115731955D01*
X135089278Y-115698571D01*
X135110686Y-115665688D01*
X135132870Y-115633318D01*
X135155819Y-115601477D01*
X135179512Y-115570181D01*
X135203940Y-115539434D01*
X135229080Y-115509262D01*
X135254918Y-115479675D01*
X135279669Y-115452608D01*
X135305076Y-115426047D01*
X135331125Y-115400014D01*
X135357799Y-115374536D01*
X135385078Y-115349645D01*
X135412945Y-115325362D01*
X135441377Y-115301715D01*
X135470364Y-115278743D01*
X135499881Y-115256463D01*
X135529916Y-115234906D01*
X135560441Y-115214096D01*
X135591444Y-115194066D01*
X135622909Y-115174842D01*
X135654813Y-115156451D01*
X135687137Y-115138919D01*
X135719870Y-115122277D01*
X135760370Y-115102984D01*
X135801091Y-115084826D01*
X135842036Y-115067794D01*
X135883224Y-115051885D01*
X135924661Y-115037090D01*
X135966349Y-115023411D01*
X136008303Y-115010839D01*
X136050540Y-114999366D01*
X136093060Y-114988992D01*
X136135874Y-114979715D01*
X136178994Y-114971519D01*
X136222428Y-114964406D01*
X136266189Y-114958369D01*
X136310283Y-114953409D01*
X136354720Y-114949505D01*
X136399513Y-114946670D01*
X136439425Y-114945249D01*
X136479551Y-114945029D01*
X136519836Y-114946007D01*
G37*
X137614878Y-120097271D02*
X137299361Y-120097271D01*
X137299361Y-118405126D01*
X137614878Y-118405126D01*
X137614878Y-120097271D01*
G36*
X137614878Y-120097271D02*
G01*
X137299361Y-120097271D01*
X137299361Y-118405126D01*
X137614878Y-118405126D01*
X137614878Y-120097271D01*
G37*
X133946551Y-120097271D02*
X133623962Y-120097271D01*
X133525386Y-119811598D01*
X132896528Y-119811598D01*
X132794550Y-120097271D01*
X132472030Y-120097271D01*
X132670945Y-119537211D01*
X132990211Y-119537211D01*
X133428031Y-119537211D01*
X133209254Y-118876810D01*
X132990211Y-119537211D01*
X132670945Y-119537211D01*
X133025694Y-118538380D01*
X133392814Y-118538380D01*
X133946551Y-120097271D01*
G36*
X133946551Y-120097271D02*
G01*
X133623962Y-120097271D01*
X133525386Y-119811598D01*
X132896528Y-119811598D01*
X132794550Y-120097271D01*
X132472030Y-120097271D01*
X132670945Y-119537211D01*
X132990211Y-119537211D01*
X133428031Y-119537211D01*
X133209254Y-118876810D01*
X132990211Y-119537211D01*
X132670945Y-119537211D01*
X133025694Y-118538380D01*
X133392814Y-118538380D01*
X133946551Y-120097271D01*
G37*
X136289067Y-118840257D02*
X136309578Y-118840912D01*
X136330061Y-118842157D01*
X136350480Y-118844110D01*
X136370789Y-118846859D01*
X136380888Y-118848568D01*
X136390947Y-118850516D01*
X136400959Y-118852718D01*
X136410916Y-118855186D01*
X136420814Y-118857932D01*
X136430649Y-118860968D01*
X136441864Y-118864787D01*
X136452962Y-118868926D01*
X136463934Y-118873379D01*
X136474780Y-118878146D01*
X136485475Y-118883216D01*
X136496024Y-118888592D01*
X136506413Y-118894268D01*
X136516632Y-118900236D01*
X136526679Y-118906499D01*
X136536538Y-118913045D01*
X136546200Y-118919874D01*
X136555662Y-118926982D01*
X136564910Y-118934363D01*
X136573937Y-118942017D01*
X136582739Y-118949936D01*
X136591299Y-118958117D01*
X136595409Y-118962291D01*
X136599406Y-118966582D01*
X136603319Y-118970979D01*
X136607152Y-118975454D01*
X136614659Y-118984561D01*
X136622064Y-118993750D01*
X136629489Y-119002852D01*
X136637073Y-119011703D01*
X136640962Y-119015983D01*
X136644947Y-119020142D01*
X136649029Y-119024156D01*
X136653235Y-119028007D01*
X136653235Y-118860289D01*
X136964743Y-118860289D01*
X136964743Y-120097339D01*
X136653369Y-120097339D01*
X136653369Y-119924931D01*
X136649005Y-119928866D01*
X136644762Y-119932952D01*
X136640632Y-119937182D01*
X136636593Y-119941525D01*
X136632632Y-119945971D01*
X136628732Y-119950493D01*
X136621043Y-119959706D01*
X136613389Y-119969005D01*
X136605643Y-119978239D01*
X136601690Y-119982785D01*
X136597666Y-119987259D01*
X136593549Y-119991639D01*
X136589325Y-119995905D01*
X136579803Y-120004997D01*
X136570029Y-120013800D01*
X136560014Y-120022310D01*
X136549760Y-120030513D01*
X136539273Y-120038405D01*
X136528558Y-120045970D01*
X136517626Y-120053204D01*
X136506479Y-120060090D01*
X136495124Y-120066631D01*
X136483564Y-120072803D01*
X136471815Y-120078604D01*
X136459871Y-120084023D01*
X136447744Y-120089051D01*
X136435439Y-120093679D01*
X136422963Y-120097893D01*
X136410324Y-120101689D01*
X136399985Y-120104467D01*
X136389602Y-120106964D01*
X136379181Y-120109191D01*
X136368716Y-120111160D01*
X136358213Y-120112875D01*
X136347683Y-120114347D01*
X136337124Y-120115587D01*
X136326540Y-120116607D01*
X136305307Y-120118006D01*
X136284020Y-120118625D01*
X136262703Y-120118532D01*
X136241382Y-120117805D01*
X136210176Y-120115527D01*
X136179849Y-120111718D01*
X136150404Y-120106426D01*
X136121840Y-120099686D01*
X136094171Y-120091549D01*
X136067398Y-120082060D01*
X136041531Y-120071251D01*
X136016567Y-120059173D01*
X135992519Y-120045876D01*
X135969391Y-120031389D01*
X135947184Y-120015765D01*
X135925907Y-119999043D01*
X135905565Y-119981271D01*
X135886167Y-119962489D01*
X135867713Y-119942744D01*
X135850212Y-119922077D01*
X135833670Y-119900527D01*
X135818085Y-119878144D01*
X135803476Y-119854968D01*
X135789833Y-119831046D01*
X135777173Y-119806415D01*
X135765498Y-119781126D01*
X135754809Y-119755218D01*
X135745120Y-119728734D01*
X135736433Y-119701720D01*
X135728750Y-119674218D01*
X135722080Y-119646270D01*
X135716424Y-119617921D01*
X135711793Y-119589215D01*
X135708193Y-119560195D01*
X135704098Y-119501384D01*
X135704307Y-119471888D01*
X136024855Y-119471888D01*
X136025368Y-119503050D01*
X136027886Y-119534072D01*
X136032404Y-119564757D01*
X136038924Y-119594919D01*
X136047445Y-119624363D01*
X136057963Y-119652893D01*
X136070475Y-119680324D01*
X136084983Y-119706459D01*
X136101489Y-119731105D01*
X136119984Y-119754076D01*
X136140478Y-119775176D01*
X136162961Y-119794215D01*
X136187428Y-119810991D01*
X136213887Y-119825329D01*
X136242332Y-119837024D01*
X136250063Y-119839581D01*
X136257860Y-119841865D01*
X136265715Y-119843899D01*
X136273616Y-119845679D01*
X136281570Y-119847226D01*
X136289563Y-119848546D01*
X136297593Y-119849649D01*
X136305653Y-119850537D01*
X136313735Y-119851232D01*
X136321837Y-119851735D01*
X136329955Y-119852056D01*
X136338079Y-119852207D01*
X136354331Y-119852039D01*
X136370553Y-119851300D01*
X136407141Y-119846892D01*
X136441202Y-119838497D01*
X136472747Y-119826398D01*
X136501780Y-119810881D01*
X136528306Y-119792208D01*
X136552339Y-119770661D01*
X136573881Y-119746521D01*
X136592939Y-119720059D01*
X136609523Y-119691548D01*
X136623636Y-119661270D01*
X136635287Y-119629497D01*
X136644482Y-119596505D01*
X136651233Y-119562577D01*
X136655538Y-119527985D01*
X136657415Y-119493004D01*
X136656858Y-119457908D01*
X136653886Y-119422981D01*
X136648502Y-119388490D01*
X136640713Y-119354714D01*
X136630523Y-119321934D01*
X136617941Y-119290427D01*
X136602972Y-119260457D01*
X136585633Y-119232312D01*
X136565918Y-119206265D01*
X136543842Y-119182591D01*
X136519406Y-119161567D01*
X136492622Y-119143468D01*
X136463498Y-119128571D01*
X136432033Y-119117152D01*
X136398248Y-119109488D01*
X136362135Y-119105855D01*
X136323709Y-119106527D01*
X136289991Y-119110716D01*
X136258297Y-119118030D01*
X136228626Y-119128271D01*
X136200975Y-119141252D01*
X136175342Y-119156782D01*
X136151729Y-119174665D01*
X136130134Y-119194712D01*
X136110550Y-119216729D01*
X136092986Y-119240529D01*
X136077436Y-119265912D01*
X136063896Y-119292688D01*
X136052367Y-119320668D01*
X136042850Y-119349657D01*
X136035340Y-119379471D01*
X136029840Y-119409906D01*
X136026344Y-119440777D01*
X136024855Y-119471888D01*
X135704307Y-119471888D01*
X135704549Y-119437995D01*
X135710135Y-119375489D01*
X135720760Y-119314309D01*
X135736310Y-119254894D01*
X135745901Y-119225982D01*
X135756681Y-119197683D01*
X135768642Y-119170041D01*
X135781769Y-119143120D01*
X135796042Y-119116968D01*
X135811463Y-119091648D01*
X135828004Y-119067208D01*
X135845660Y-119043701D01*
X135864411Y-119021191D01*
X135884249Y-118999726D01*
X135905165Y-118979366D01*
X135927130Y-118960164D01*
X135950151Y-118942174D01*
X135974198Y-118925453D01*
X135999267Y-118910054D01*
X136025344Y-118896033D01*
X136052409Y-118883444D01*
X136080458Y-118872344D01*
X136109472Y-118862792D01*
X136139443Y-118854834D01*
X136170347Y-118848531D01*
X136202181Y-118843937D01*
X136234928Y-118841107D01*
X136268575Y-118840098D01*
X136289067Y-118840257D01*
G36*
X136289067Y-118840257D02*
G01*
X136309578Y-118840912D01*
X136330061Y-118842157D01*
X136350480Y-118844110D01*
X136370789Y-118846859D01*
X136380888Y-118848568D01*
X136390947Y-118850516D01*
X136400959Y-118852718D01*
X136410916Y-118855186D01*
X136420814Y-118857932D01*
X136430649Y-118860968D01*
X136441864Y-118864787D01*
X136452962Y-118868926D01*
X136463934Y-118873379D01*
X136474780Y-118878146D01*
X136485475Y-118883216D01*
X136496024Y-118888592D01*
X136506413Y-118894268D01*
X136516632Y-118900236D01*
X136526679Y-118906499D01*
X136536538Y-118913045D01*
X136546200Y-118919874D01*
X136555662Y-118926982D01*
X136564910Y-118934363D01*
X136573937Y-118942017D01*
X136582739Y-118949936D01*
X136591299Y-118958117D01*
X136595409Y-118962291D01*
X136599406Y-118966582D01*
X136603319Y-118970979D01*
X136607152Y-118975454D01*
X136614659Y-118984561D01*
X136622064Y-118993750D01*
X136629489Y-119002852D01*
X136637073Y-119011703D01*
X136640962Y-119015983D01*
X136644947Y-119020142D01*
X136649029Y-119024156D01*
X136653235Y-119028007D01*
X136653235Y-118860289D01*
X136964743Y-118860289D01*
X136964743Y-120097339D01*
X136653369Y-120097339D01*
X136653369Y-119924931D01*
X136649005Y-119928866D01*
X136644762Y-119932952D01*
X136640632Y-119937182D01*
X136636593Y-119941525D01*
X136632632Y-119945971D01*
X136628732Y-119950493D01*
X136621043Y-119959706D01*
X136613389Y-119969005D01*
X136605643Y-119978239D01*
X136601690Y-119982785D01*
X136597666Y-119987259D01*
X136593549Y-119991639D01*
X136589325Y-119995905D01*
X136579803Y-120004997D01*
X136570029Y-120013800D01*
X136560014Y-120022310D01*
X136549760Y-120030513D01*
X136539273Y-120038405D01*
X136528558Y-120045970D01*
X136517626Y-120053204D01*
X136506479Y-120060090D01*
X136495124Y-120066631D01*
X136483564Y-120072803D01*
X136471815Y-120078604D01*
X136459871Y-120084023D01*
X136447744Y-120089051D01*
X136435439Y-120093679D01*
X136422963Y-120097893D01*
X136410324Y-120101689D01*
X136399985Y-120104467D01*
X136389602Y-120106964D01*
X136379181Y-120109191D01*
X136368716Y-120111160D01*
X136358213Y-120112875D01*
X136347683Y-120114347D01*
X136337124Y-120115587D01*
X136326540Y-120116607D01*
X136305307Y-120118006D01*
X136284020Y-120118625D01*
X136262703Y-120118532D01*
X136241382Y-120117805D01*
X136210176Y-120115527D01*
X136179849Y-120111718D01*
X136150404Y-120106426D01*
X136121840Y-120099686D01*
X136094171Y-120091549D01*
X136067398Y-120082060D01*
X136041531Y-120071251D01*
X136016567Y-120059173D01*
X135992519Y-120045876D01*
X135969391Y-120031389D01*
X135947184Y-120015765D01*
X135925907Y-119999043D01*
X135905565Y-119981271D01*
X135886167Y-119962489D01*
X135867713Y-119942744D01*
X135850212Y-119922077D01*
X135833670Y-119900527D01*
X135818085Y-119878144D01*
X135803476Y-119854968D01*
X135789833Y-119831046D01*
X135777173Y-119806415D01*
X135765498Y-119781126D01*
X135754809Y-119755218D01*
X135745120Y-119728734D01*
X135736433Y-119701720D01*
X135728750Y-119674218D01*
X135722080Y-119646270D01*
X135716424Y-119617921D01*
X135711793Y-119589215D01*
X135708193Y-119560195D01*
X135704098Y-119501384D01*
X135704307Y-119471888D01*
X136024855Y-119471888D01*
X136025368Y-119503050D01*
X136027886Y-119534072D01*
X136032404Y-119564757D01*
X136038924Y-119594919D01*
X136047445Y-119624363D01*
X136057963Y-119652893D01*
X136070475Y-119680324D01*
X136084983Y-119706459D01*
X136101489Y-119731105D01*
X136119984Y-119754076D01*
X136140478Y-119775176D01*
X136162961Y-119794215D01*
X136187428Y-119810991D01*
X136213887Y-119825329D01*
X136242332Y-119837024D01*
X136250063Y-119839581D01*
X136257860Y-119841865D01*
X136265715Y-119843899D01*
X136273616Y-119845679D01*
X136281570Y-119847226D01*
X136289563Y-119848546D01*
X136297593Y-119849649D01*
X136305653Y-119850537D01*
X136313735Y-119851232D01*
X136321837Y-119851735D01*
X136329955Y-119852056D01*
X136338079Y-119852207D01*
X136354331Y-119852039D01*
X136370553Y-119851300D01*
X136407141Y-119846892D01*
X136441202Y-119838497D01*
X136472747Y-119826398D01*
X136501780Y-119810881D01*
X136528306Y-119792208D01*
X136552339Y-119770661D01*
X136573881Y-119746521D01*
X136592939Y-119720059D01*
X136609523Y-119691548D01*
X136623636Y-119661270D01*
X136635287Y-119629497D01*
X136644482Y-119596505D01*
X136651233Y-119562577D01*
X136655538Y-119527985D01*
X136657415Y-119493004D01*
X136656858Y-119457908D01*
X136653886Y-119422981D01*
X136648502Y-119388490D01*
X136640713Y-119354714D01*
X136630523Y-119321934D01*
X136617941Y-119290427D01*
X136602972Y-119260457D01*
X136585633Y-119232312D01*
X136565918Y-119206265D01*
X136543842Y-119182591D01*
X136519406Y-119161567D01*
X136492622Y-119143468D01*
X136463498Y-119128571D01*
X136432033Y-119117152D01*
X136398248Y-119109488D01*
X136362135Y-119105855D01*
X136323709Y-119106527D01*
X136289991Y-119110716D01*
X136258297Y-119118030D01*
X136228626Y-119128271D01*
X136200975Y-119141252D01*
X136175342Y-119156782D01*
X136151729Y-119174665D01*
X136130134Y-119194712D01*
X136110550Y-119216729D01*
X136092986Y-119240529D01*
X136077436Y-119265912D01*
X136063896Y-119292688D01*
X136052367Y-119320668D01*
X136042850Y-119349657D01*
X136035340Y-119379471D01*
X136029840Y-119409906D01*
X136026344Y-119440777D01*
X136024855Y-119471888D01*
X135704307Y-119471888D01*
X135704549Y-119437995D01*
X135710135Y-119375489D01*
X135720760Y-119314309D01*
X135736310Y-119254894D01*
X135745901Y-119225982D01*
X135756681Y-119197683D01*
X135768642Y-119170041D01*
X135781769Y-119143120D01*
X135796042Y-119116968D01*
X135811463Y-119091648D01*
X135828004Y-119067208D01*
X135845660Y-119043701D01*
X135864411Y-119021191D01*
X135884249Y-118999726D01*
X135905165Y-118979366D01*
X135927130Y-118960164D01*
X135950151Y-118942174D01*
X135974198Y-118925453D01*
X135999267Y-118910054D01*
X136025344Y-118896033D01*
X136052409Y-118883444D01*
X136080458Y-118872344D01*
X136109472Y-118862792D01*
X136139443Y-118854834D01*
X136170347Y-118848531D01*
X136202181Y-118843937D01*
X136234928Y-118841107D01*
X136268575Y-118840098D01*
X136289067Y-118840257D01*
G37*
X135160422Y-118558364D02*
X135225475Y-118557030D01*
X135241840Y-118557313D01*
X135249954Y-118557719D01*
X135258005Y-118558339D01*
X135265975Y-118559206D01*
X135273850Y-118560351D01*
X135281612Y-118561806D01*
X135289253Y-118563602D01*
X135289253Y-118860086D01*
X135565339Y-118860086D01*
X135565339Y-119116591D01*
X135289593Y-119116591D01*
X135288105Y-119248550D01*
X135288148Y-119380575D01*
X135289253Y-119644562D01*
X135288538Y-119695180D01*
X135288652Y-119708617D01*
X135289133Y-119722129D01*
X135290105Y-119735577D01*
X135291691Y-119748858D01*
X135294014Y-119761842D01*
X135297203Y-119774409D01*
X135301378Y-119786436D01*
X135303872Y-119792209D01*
X135306663Y-119797805D01*
X135309758Y-119803202D01*
X135313182Y-119808392D01*
X135316945Y-119813349D01*
X135321063Y-119818073D01*
X135325551Y-119822537D01*
X135330427Y-119826728D01*
X135335702Y-119830635D01*
X135341399Y-119834239D01*
X135345757Y-119836652D01*
X135350210Y-119838859D01*
X135359381Y-119842687D01*
X135368868Y-119845757D01*
X135378616Y-119848112D01*
X135388582Y-119849802D01*
X135398717Y-119850861D01*
X135408969Y-119851338D01*
X135419299Y-119851270D01*
X135429651Y-119850698D01*
X135439979Y-119849674D01*
X135450238Y-119848232D01*
X135460374Y-119846419D01*
X135470347Y-119844274D01*
X135480103Y-119841841D01*
X135489598Y-119839164D01*
X135498782Y-119836277D01*
X135503264Y-119834740D01*
X135507692Y-119833102D01*
X135516416Y-119829615D01*
X135533609Y-119822461D01*
X135542213Y-119819162D01*
X135546553Y-119817662D01*
X135550923Y-119816298D01*
X135555341Y-119815086D01*
X135559807Y-119814054D01*
X135564339Y-119813225D01*
X135568940Y-119812619D01*
X135568940Y-120066066D01*
X135557769Y-120072028D01*
X135546489Y-120077587D01*
X135535100Y-120082745D01*
X135523604Y-120087515D01*
X135512005Y-120091903D01*
X135500305Y-120095922D01*
X135488498Y-120099577D01*
X135476591Y-120102881D01*
X135464591Y-120105838D01*
X135452492Y-120108466D01*
X135440300Y-120110758D01*
X135428015Y-120112740D01*
X135415636Y-120114411D01*
X135403168Y-120115786D01*
X135390614Y-120116866D01*
X135377974Y-120117667D01*
X135359162Y-120118404D01*
X135340408Y-120118657D01*
X135321707Y-120118413D01*
X135303046Y-120117649D01*
X135284421Y-120116341D01*
X135265821Y-120114474D01*
X135247241Y-120112021D01*
X135228680Y-120108965D01*
X135217008Y-120106622D01*
X135205376Y-120103820D01*
X135193816Y-120100579D01*
X135182371Y-120096888D01*
X135171075Y-120092764D01*
X135159969Y-120088209D01*
X135149085Y-120083228D01*
X135143735Y-120080582D01*
X135138460Y-120077826D01*
X135120046Y-120067157D01*
X135103008Y-120055601D01*
X135087309Y-120043203D01*
X135072881Y-120030011D01*
X135059685Y-120016059D01*
X135047663Y-120001395D01*
X135036761Y-119986062D01*
X135026928Y-119970096D01*
X135018111Y-119953548D01*
X135010259Y-119936457D01*
X135003319Y-119918858D01*
X134997243Y-119900808D01*
X134991971Y-119882336D01*
X134987453Y-119863494D01*
X134980474Y-119824846D01*
X134975886Y-119785215D01*
X134973268Y-119744934D01*
X134972206Y-119704339D01*
X134972275Y-119663780D01*
X134975504Y-119508591D01*
X134975504Y-119338629D01*
X134975504Y-119116659D01*
X134828994Y-119116659D01*
X134828994Y-118860017D01*
X134975569Y-118860017D01*
X134975569Y-118562242D01*
X134986751Y-118560463D01*
X134998059Y-118559048D01*
X135009468Y-118557970D01*
X135020975Y-118557191D01*
X135044191Y-118556385D01*
X135067586Y-118556355D01*
X135160422Y-118558364D01*
G36*
X135160422Y-118558364D02*
G01*
X135225475Y-118557030D01*
X135241840Y-118557313D01*
X135249954Y-118557719D01*
X135258005Y-118558339D01*
X135265975Y-118559206D01*
X135273850Y-118560351D01*
X135281612Y-118561806D01*
X135289253Y-118563602D01*
X135289253Y-118860086D01*
X135565339Y-118860086D01*
X135565339Y-119116591D01*
X135289593Y-119116591D01*
X135288105Y-119248550D01*
X135288148Y-119380575D01*
X135289253Y-119644562D01*
X135288538Y-119695180D01*
X135288652Y-119708617D01*
X135289133Y-119722129D01*
X135290105Y-119735577D01*
X135291691Y-119748858D01*
X135294014Y-119761842D01*
X135297203Y-119774409D01*
X135301378Y-119786436D01*
X135303872Y-119792209D01*
X135306663Y-119797805D01*
X135309758Y-119803202D01*
X135313182Y-119808392D01*
X135316945Y-119813349D01*
X135321063Y-119818073D01*
X135325551Y-119822537D01*
X135330427Y-119826728D01*
X135335702Y-119830635D01*
X135341399Y-119834239D01*
X135345757Y-119836652D01*
X135350210Y-119838859D01*
X135359381Y-119842687D01*
X135368868Y-119845757D01*
X135378616Y-119848112D01*
X135388582Y-119849802D01*
X135398717Y-119850861D01*
X135408969Y-119851338D01*
X135419299Y-119851270D01*
X135429651Y-119850698D01*
X135439979Y-119849674D01*
X135450238Y-119848232D01*
X135460374Y-119846419D01*
X135470347Y-119844274D01*
X135480103Y-119841841D01*
X135489598Y-119839164D01*
X135498782Y-119836277D01*
X135503264Y-119834740D01*
X135507692Y-119833102D01*
X135516416Y-119829615D01*
X135533609Y-119822461D01*
X135542213Y-119819162D01*
X135546553Y-119817662D01*
X135550923Y-119816298D01*
X135555341Y-119815086D01*
X135559807Y-119814054D01*
X135564339Y-119813225D01*
X135568940Y-119812619D01*
X135568940Y-120066066D01*
X135557769Y-120072028D01*
X135546489Y-120077587D01*
X135535100Y-120082745D01*
X135523604Y-120087515D01*
X135512005Y-120091903D01*
X135500305Y-120095922D01*
X135488498Y-120099577D01*
X135476591Y-120102881D01*
X135464591Y-120105838D01*
X135452492Y-120108466D01*
X135440300Y-120110758D01*
X135428015Y-120112740D01*
X135415636Y-120114411D01*
X135403168Y-120115786D01*
X135390614Y-120116866D01*
X135377974Y-120117667D01*
X135359162Y-120118404D01*
X135340408Y-120118657D01*
X135321707Y-120118413D01*
X135303046Y-120117649D01*
X135284421Y-120116341D01*
X135265821Y-120114474D01*
X135247241Y-120112021D01*
X135228680Y-120108965D01*
X135217008Y-120106622D01*
X135205376Y-120103820D01*
X135193816Y-120100579D01*
X135182371Y-120096888D01*
X135171075Y-120092764D01*
X135159969Y-120088209D01*
X135149085Y-120083228D01*
X135143735Y-120080582D01*
X135138460Y-120077826D01*
X135120046Y-120067157D01*
X135103008Y-120055601D01*
X135087309Y-120043203D01*
X135072881Y-120030011D01*
X135059685Y-120016059D01*
X135047663Y-120001395D01*
X135036761Y-119986062D01*
X135026928Y-119970096D01*
X135018111Y-119953548D01*
X135010259Y-119936457D01*
X135003319Y-119918858D01*
X134997243Y-119900808D01*
X134991971Y-119882336D01*
X134987453Y-119863494D01*
X134980474Y-119824846D01*
X134975886Y-119785215D01*
X134973268Y-119744934D01*
X134972206Y-119704339D01*
X134972275Y-119663780D01*
X134975504Y-119508591D01*
X134975504Y-119338629D01*
X134975504Y-119116659D01*
X134828994Y-119116659D01*
X134828994Y-118860017D01*
X134975569Y-118860017D01*
X134975569Y-118562242D01*
X134986751Y-118560463D01*
X134998059Y-118559048D01*
X135009468Y-118557970D01*
X135020975Y-118557191D01*
X135044191Y-118556385D01*
X135067586Y-118556355D01*
X135160422Y-118558364D01*
G37*
X134437064Y-118860153D02*
X134714577Y-118860153D01*
X134714577Y-119116520D01*
X134439779Y-119116520D01*
X134438351Y-119127575D01*
X134437229Y-119138718D01*
X134436379Y-119149949D01*
X134435785Y-119161250D01*
X134435206Y-119184008D01*
X134435270Y-119206902D01*
X134436349Y-119252691D01*
X134436897Y-119275393D01*
X134437129Y-119297838D01*
X134437129Y-119637759D01*
X134436633Y-119660743D01*
X134435758Y-119685529D01*
X134435433Y-119711262D01*
X134435764Y-119724218D01*
X134436578Y-119737095D01*
X134437988Y-119749787D01*
X134440111Y-119762183D01*
X134443071Y-119774179D01*
X134446970Y-119785669D01*
X134449308Y-119791191D01*
X134451926Y-119796552D01*
X134454839Y-119801725D01*
X134458062Y-119806711D01*
X134461604Y-119811484D01*
X134465486Y-119816043D01*
X134469720Y-119820368D01*
X134474316Y-119824447D01*
X134481038Y-119829622D01*
X134487902Y-119834192D01*
X134494909Y-119838194D01*
X134502041Y-119841635D01*
X134509293Y-119844548D01*
X134516654Y-119846956D01*
X134524118Y-119848877D01*
X134531672Y-119850344D01*
X134539306Y-119851372D01*
X134547011Y-119851990D01*
X134554780Y-119852218D01*
X134562601Y-119852081D01*
X134578361Y-119850807D01*
X134594219Y-119848352D01*
X134610094Y-119844909D01*
X134625916Y-119840665D01*
X134641604Y-119835809D01*
X134657086Y-119830517D01*
X134715393Y-119808880D01*
X134715393Y-120066066D01*
X134704094Y-120072205D01*
X134692667Y-120077902D01*
X134681113Y-120083171D01*
X134669437Y-120088021D01*
X134657639Y-120092468D01*
X134645730Y-120096519D01*
X134633715Y-120100186D01*
X134621590Y-120103484D01*
X134609370Y-120106421D01*
X134597049Y-120109004D01*
X134584638Y-120111252D01*
X134572140Y-120113170D01*
X134559559Y-120114774D01*
X134546900Y-120116072D01*
X134534167Y-120117079D01*
X134521363Y-120117805D01*
X134502644Y-120118470D01*
X134483961Y-120118668D01*
X134465316Y-120118370D01*
X134446706Y-120117539D01*
X134428135Y-120116154D01*
X134409594Y-120114179D01*
X134391090Y-120111588D01*
X134372613Y-120108352D01*
X134358061Y-120105177D01*
X134343932Y-120101394D01*
X134330225Y-120097027D01*
X134316942Y-120092084D01*
X134304086Y-120086584D01*
X134291657Y-120080544D01*
X134279657Y-120073981D01*
X134268088Y-120066914D01*
X134256949Y-120059348D01*
X134246242Y-120051316D01*
X134235975Y-120042818D01*
X134226140Y-120033884D01*
X134216740Y-120024516D01*
X134207785Y-120014750D01*
X134199271Y-120004581D01*
X134191196Y-119994037D01*
X134183567Y-119983131D01*
X134176381Y-119971883D01*
X134169643Y-119960308D01*
X134163351Y-119948417D01*
X134157511Y-119936232D01*
X134152125Y-119923768D01*
X134147190Y-119911038D01*
X134142705Y-119898061D01*
X134138680Y-119884860D01*
X134135110Y-119871440D01*
X134132001Y-119857820D01*
X134129349Y-119844020D01*
X134125435Y-119815940D01*
X134123381Y-119787328D01*
X134121619Y-119729660D01*
X134120731Y-119671901D01*
X134120805Y-119556234D01*
X134122769Y-119325031D01*
X134123041Y-119299220D01*
X134123687Y-119273113D01*
X134125006Y-119220436D01*
X134125143Y-119194101D01*
X134124575Y-119167917D01*
X134123036Y-119141998D01*
X134121816Y-119129170D01*
X134120253Y-119116456D01*
X133975990Y-119116456D01*
X133975990Y-118860153D01*
X134122836Y-118860153D01*
X134122836Y-118558432D01*
X134437064Y-118558432D01*
X134437064Y-118860153D01*
G36*
X134437064Y-118860153D02*
G01*
X134714577Y-118860153D01*
X134714577Y-119116520D01*
X134439779Y-119116520D01*
X134438351Y-119127575D01*
X134437229Y-119138718D01*
X134436379Y-119149949D01*
X134435785Y-119161250D01*
X134435206Y-119184008D01*
X134435270Y-119206902D01*
X134436349Y-119252691D01*
X134436897Y-119275393D01*
X134437129Y-119297838D01*
X134437129Y-119637759D01*
X134436633Y-119660743D01*
X134435758Y-119685529D01*
X134435433Y-119711262D01*
X134435764Y-119724218D01*
X134436578Y-119737095D01*
X134437988Y-119749787D01*
X134440111Y-119762183D01*
X134443071Y-119774179D01*
X134446970Y-119785669D01*
X134449308Y-119791191D01*
X134451926Y-119796552D01*
X134454839Y-119801725D01*
X134458062Y-119806711D01*
X134461604Y-119811484D01*
X134465486Y-119816043D01*
X134469720Y-119820368D01*
X134474316Y-119824447D01*
X134481038Y-119829622D01*
X134487902Y-119834192D01*
X134494909Y-119838194D01*
X134502041Y-119841635D01*
X134509293Y-119844548D01*
X134516654Y-119846956D01*
X134524118Y-119848877D01*
X134531672Y-119850344D01*
X134539306Y-119851372D01*
X134547011Y-119851990D01*
X134554780Y-119852218D01*
X134562601Y-119852081D01*
X134578361Y-119850807D01*
X134594219Y-119848352D01*
X134610094Y-119844909D01*
X134625916Y-119840665D01*
X134641604Y-119835809D01*
X134657086Y-119830517D01*
X134715393Y-119808880D01*
X134715393Y-120066066D01*
X134704094Y-120072205D01*
X134692667Y-120077902D01*
X134681113Y-120083171D01*
X134669437Y-120088021D01*
X134657639Y-120092468D01*
X134645730Y-120096519D01*
X134633715Y-120100186D01*
X134621590Y-120103484D01*
X134609370Y-120106421D01*
X134597049Y-120109004D01*
X134584638Y-120111252D01*
X134572140Y-120113170D01*
X134559559Y-120114774D01*
X134546900Y-120116072D01*
X134534167Y-120117079D01*
X134521363Y-120117805D01*
X134502644Y-120118470D01*
X134483961Y-120118668D01*
X134465316Y-120118370D01*
X134446706Y-120117539D01*
X134428135Y-120116154D01*
X134409594Y-120114179D01*
X134391090Y-120111588D01*
X134372613Y-120108352D01*
X134358061Y-120105177D01*
X134343932Y-120101394D01*
X134330225Y-120097027D01*
X134316942Y-120092084D01*
X134304086Y-120086584D01*
X134291657Y-120080544D01*
X134279657Y-120073981D01*
X134268088Y-120066914D01*
X134256949Y-120059348D01*
X134246242Y-120051316D01*
X134235975Y-120042818D01*
X134226140Y-120033884D01*
X134216740Y-120024516D01*
X134207785Y-120014750D01*
X134199271Y-120004581D01*
X134191196Y-119994037D01*
X134183567Y-119983131D01*
X134176381Y-119971883D01*
X134169643Y-119960308D01*
X134163351Y-119948417D01*
X134157511Y-119936232D01*
X134152125Y-119923768D01*
X134147190Y-119911038D01*
X134142705Y-119898061D01*
X134138680Y-119884860D01*
X134135110Y-119871440D01*
X134132001Y-119857820D01*
X134129349Y-119844020D01*
X134125435Y-119815940D01*
X134123381Y-119787328D01*
X134121619Y-119729660D01*
X134120731Y-119671901D01*
X134120805Y-119556234D01*
X134122769Y-119325031D01*
X134123041Y-119299220D01*
X134123687Y-119273113D01*
X134125006Y-119220436D01*
X134125143Y-119194101D01*
X134124575Y-119167917D01*
X134123036Y-119141998D01*
X134121816Y-119129170D01*
X134120253Y-119116456D01*
X133975990Y-119116456D01*
X133975990Y-118860153D01*
X134122836Y-118860153D01*
X134122836Y-118558432D01*
X134437064Y-118558432D01*
X134437064Y-118860153D01*
G37*
X139889495Y-118842463D02*
X139932816Y-118847725D01*
X139975129Y-118855876D01*
X140016214Y-118866970D01*
X140055859Y-118881085D01*
X140093844Y-118898268D01*
X140129950Y-118918589D01*
X140147232Y-118929942D01*
X140163963Y-118942106D01*
X140180115Y-118955085D01*
X140195663Y-118968885D01*
X140210580Y-118983519D01*
X140224838Y-118998991D01*
X140238405Y-119015312D01*
X140251266Y-119032487D01*
X140263381Y-119050522D01*
X140274732Y-119069430D01*
X140285284Y-119089214D01*
X140295016Y-119109886D01*
X140303899Y-119131448D01*
X140311907Y-119153915D01*
X140317047Y-119170239D01*
X140321738Y-119186716D01*
X140325933Y-119203330D01*
X140329589Y-119220073D01*
X140332662Y-119236916D01*
X140335105Y-119253848D01*
X140336882Y-119270853D01*
X140337504Y-119279377D01*
X140337944Y-119287913D01*
X140035411Y-119287913D01*
X140031801Y-119271721D01*
X140027501Y-119255570D01*
X140022483Y-119239566D01*
X140016714Y-119223807D01*
X140010167Y-119208406D01*
X140002807Y-119193461D01*
X139994607Y-119179083D01*
X139985535Y-119165378D01*
X139975561Y-119152446D01*
X139964651Y-119140396D01*
X139958839Y-119134731D01*
X139952778Y-119129329D01*
X139946468Y-119124198D01*
X139939912Y-119119355D01*
X139933097Y-119114808D01*
X139926021Y-119110574D01*
X139918683Y-119106662D01*
X139911075Y-119103090D01*
X139903195Y-119099873D01*
X139895038Y-119097016D01*
X139886605Y-119094542D01*
X139877889Y-119092457D01*
X139861602Y-119089653D01*
X139844216Y-119087945D01*
X139826062Y-119087396D01*
X139807469Y-119088081D01*
X139788775Y-119090053D01*
X139770306Y-119093392D01*
X139752389Y-119098152D01*
X139735359Y-119104413D01*
X139727280Y-119108121D01*
X139719548Y-119112232D01*
X139712203Y-119116749D01*
X139705282Y-119121677D01*
X139698835Y-119127029D01*
X139692902Y-119132817D01*
X139687518Y-119139043D01*
X139682726Y-119145716D01*
X139678570Y-119152848D01*
X139675091Y-119160445D01*
X139672328Y-119168516D01*
X139670328Y-119177066D01*
X139669124Y-119186107D01*
X139668767Y-119195647D01*
X139669291Y-119205694D01*
X139670740Y-119216255D01*
X139672865Y-119225345D01*
X139675881Y-119234002D01*
X139679736Y-119242235D01*
X139684389Y-119250061D01*
X139689790Y-119257493D01*
X139695894Y-119264541D01*
X139702655Y-119271221D01*
X139710014Y-119277547D01*
X139717935Y-119283529D01*
X139726368Y-119289187D01*
X139735266Y-119294530D01*
X139744581Y-119299570D01*
X139764270Y-119308793D01*
X139785058Y-119316977D01*
X139806563Y-119324217D01*
X139828413Y-119330623D01*
X139850227Y-119336304D01*
X139871622Y-119341365D01*
X139945468Y-119357527D01*
X140010468Y-119373544D01*
X140043711Y-119382444D01*
X140077028Y-119392198D01*
X140110083Y-119403022D01*
X140142558Y-119415126D01*
X140174133Y-119428704D01*
X140204472Y-119443969D01*
X140233260Y-119461125D01*
X140260168Y-119480375D01*
X140272815Y-119490854D01*
X140284876Y-119501930D01*
X140296303Y-119513627D01*
X140307057Y-119525986D01*
X140317101Y-119539013D01*
X140326392Y-119552750D01*
X140334885Y-119567213D01*
X140342550Y-119582427D01*
X140349334Y-119598425D01*
X140355211Y-119615229D01*
X140360129Y-119632869D01*
X140364047Y-119651358D01*
X140366491Y-119666506D01*
X140368410Y-119681707D01*
X140369810Y-119696954D01*
X140370695Y-119712231D01*
X140371060Y-119727533D01*
X140370914Y-119742842D01*
X140370249Y-119758154D01*
X140369081Y-119773460D01*
X140367850Y-119784584D01*
X140366245Y-119795695D01*
X140364276Y-119806769D01*
X140361944Y-119817797D01*
X140359261Y-119828758D01*
X140356215Y-119839646D01*
X140352822Y-119850438D01*
X140349083Y-119861117D01*
X140345003Y-119871673D01*
X140340585Y-119882091D01*
X140335836Y-119892351D01*
X140330754Y-119902439D01*
X140325344Y-119912341D01*
X140319619Y-119922040D01*
X140313572Y-119931521D01*
X140307214Y-119940772D01*
X140299967Y-119950544D01*
X140292441Y-119959984D01*
X140284637Y-119969097D01*
X140276570Y-119977899D01*
X140259672Y-119994547D01*
X140241829Y-120009973D01*
X140223110Y-120024207D01*
X140203592Y-120037286D01*
X140183348Y-120049243D01*
X140162458Y-120060118D01*
X140140990Y-120069944D01*
X140119024Y-120078758D01*
X140096628Y-120086595D01*
X140073884Y-120093486D01*
X140050866Y-120099477D01*
X140027640Y-120104596D01*
X140004287Y-120108879D01*
X139980887Y-120112366D01*
X139933359Y-120117177D01*
X139885175Y-120119046D01*
X139836722Y-120117890D01*
X139788379Y-120113620D01*
X139740529Y-120106157D01*
X139693547Y-120095421D01*
X139647826Y-120081319D01*
X139603734Y-120063778D01*
X139561658Y-120042717D01*
X139541499Y-120030835D01*
X139521984Y-120018041D01*
X139503160Y-120004324D01*
X139485082Y-119989677D01*
X139467798Y-119974079D01*
X139451350Y-119957535D01*
X139435780Y-119940022D01*
X139421150Y-119921537D01*
X139407499Y-119902063D01*
X139394880Y-119881600D01*
X139383333Y-119860127D01*
X139372912Y-119837642D01*
X139363660Y-119814125D01*
X139355630Y-119789574D01*
X139351362Y-119774668D01*
X139347415Y-119759727D01*
X139343840Y-119744734D01*
X139340690Y-119729680D01*
X139338019Y-119714545D01*
X139335877Y-119699323D01*
X139334322Y-119683996D01*
X139333779Y-119676293D01*
X139333401Y-119668560D01*
X139647425Y-119668560D01*
X139652228Y-119689910D01*
X139657839Y-119710195D01*
X139664306Y-119729399D01*
X139671692Y-119747499D01*
X139680042Y-119764468D01*
X139689413Y-119780287D01*
X139694504Y-119787760D01*
X139699870Y-119794932D01*
X139705517Y-119801812D01*
X139711452Y-119808386D01*
X139717687Y-119814663D01*
X139724230Y-119820624D01*
X139731078Y-119826279D01*
X139738245Y-119831626D01*
X139745734Y-119836654D01*
X139753557Y-119841362D01*
X139761718Y-119845757D01*
X139770224Y-119849827D01*
X139779082Y-119853566D01*
X139788297Y-119856979D01*
X139797879Y-119860061D01*
X139807837Y-119862810D01*
X139818168Y-119865217D01*
X139828888Y-119867290D01*
X139840000Y-119869022D01*
X139851511Y-119870405D01*
X139868081Y-119871651D01*
X139885486Y-119871990D01*
X139903457Y-119871347D01*
X139921701Y-119869656D01*
X139939931Y-119866833D01*
X139957869Y-119862806D01*
X139975223Y-119857500D01*
X139991706Y-119850836D01*
X139999533Y-119846970D01*
X140007038Y-119842745D01*
X140014182Y-119838137D01*
X140020933Y-119833146D01*
X140027248Y-119827761D01*
X140033105Y-119821969D01*
X140038455Y-119815762D01*
X140043267Y-119809131D01*
X140047502Y-119802076D01*
X140051132Y-119794568D01*
X140054115Y-119786615D01*
X140056421Y-119778199D01*
X140058011Y-119769312D01*
X140058844Y-119759949D01*
X140058892Y-119750091D01*
X140058114Y-119739740D01*
X140056626Y-119730459D01*
X140054324Y-119721604D01*
X140051246Y-119713164D01*
X140047446Y-119705121D01*
X140042951Y-119697467D01*
X140037811Y-119690193D01*
X140032061Y-119683277D01*
X140025748Y-119676712D01*
X140018906Y-119670488D01*
X140011584Y-119664590D01*
X140003820Y-119659000D01*
X139995650Y-119653715D01*
X139987122Y-119648719D01*
X139978271Y-119643995D01*
X139959775Y-119635334D01*
X139940497Y-119627622D01*
X139920754Y-119620768D01*
X139900885Y-119614666D01*
X139881214Y-119609220D01*
X139811060Y-119592008D01*
X139736606Y-119573299D01*
X139660918Y-119552375D01*
X139623603Y-119540362D01*
X139587175Y-119526920D01*
X139552019Y-119511764D01*
X139518534Y-119494605D01*
X139487130Y-119475145D01*
X139472321Y-119464464D01*
X139458181Y-119453103D01*
X139444760Y-119441020D01*
X139432102Y-119428182D01*
X139420258Y-119414553D01*
X139409278Y-119400093D01*
X139399210Y-119384771D01*
X139390108Y-119368548D01*
X139382018Y-119351386D01*
X139374987Y-119333249D01*
X139369069Y-119314107D01*
X139364316Y-119293914D01*
X139360769Y-119272642D01*
X139358486Y-119250246D01*
X139357670Y-119236640D01*
X139357196Y-119222952D01*
X139357100Y-119209227D01*
X139357441Y-119195495D01*
X139358252Y-119181793D01*
X139359584Y-119168155D01*
X139360461Y-119161365D01*
X139361483Y-119154612D01*
X139362661Y-119147889D01*
X139363994Y-119141201D01*
X139365906Y-119132706D01*
X139368045Y-119124233D01*
X139370412Y-119115789D01*
X139373000Y-119107387D01*
X139375807Y-119099034D01*
X139378829Y-119090742D01*
X139382064Y-119082521D01*
X139385509Y-119074383D01*
X139389165Y-119066328D01*
X139393021Y-119058385D01*
X139397081Y-119050535D01*
X139401335Y-119042815D01*
X139405788Y-119035220D01*
X139410432Y-119027768D01*
X139415263Y-119020466D01*
X139420284Y-119013320D01*
X139427702Y-119003446D01*
X139435421Y-118993901D01*
X139443428Y-118984682D01*
X139451712Y-118975781D01*
X139469078Y-118958929D01*
X139487436Y-118943323D01*
X139506704Y-118928933D01*
X139526807Y-118915732D01*
X139547659Y-118903697D01*
X139569178Y-118892802D01*
X139591283Y-118883014D01*
X139613897Y-118874312D01*
X139636936Y-118866667D01*
X139660316Y-118860050D01*
X139683961Y-118854440D01*
X139707783Y-118849802D01*
X139731710Y-118846120D01*
X139755652Y-118843358D01*
X139800694Y-118840340D01*
X139845382Y-118840021D01*
X139889495Y-118842463D01*
G36*
X139889495Y-118842463D02*
G01*
X139932816Y-118847725D01*
X139975129Y-118855876D01*
X140016214Y-118866970D01*
X140055859Y-118881085D01*
X140093844Y-118898268D01*
X140129950Y-118918589D01*
X140147232Y-118929942D01*
X140163963Y-118942106D01*
X140180115Y-118955085D01*
X140195663Y-118968885D01*
X140210580Y-118983519D01*
X140224838Y-118998991D01*
X140238405Y-119015312D01*
X140251266Y-119032487D01*
X140263381Y-119050522D01*
X140274732Y-119069430D01*
X140285284Y-119089214D01*
X140295016Y-119109886D01*
X140303899Y-119131448D01*
X140311907Y-119153915D01*
X140317047Y-119170239D01*
X140321738Y-119186716D01*
X140325933Y-119203330D01*
X140329589Y-119220073D01*
X140332662Y-119236916D01*
X140335105Y-119253848D01*
X140336882Y-119270853D01*
X140337504Y-119279377D01*
X140337944Y-119287913D01*
X140035411Y-119287913D01*
X140031801Y-119271721D01*
X140027501Y-119255570D01*
X140022483Y-119239566D01*
X140016714Y-119223807D01*
X140010167Y-119208406D01*
X140002807Y-119193461D01*
X139994607Y-119179083D01*
X139985535Y-119165378D01*
X139975561Y-119152446D01*
X139964651Y-119140396D01*
X139958839Y-119134731D01*
X139952778Y-119129329D01*
X139946468Y-119124198D01*
X139939912Y-119119355D01*
X139933097Y-119114808D01*
X139926021Y-119110574D01*
X139918683Y-119106662D01*
X139911075Y-119103090D01*
X139903195Y-119099873D01*
X139895038Y-119097016D01*
X139886605Y-119094542D01*
X139877889Y-119092457D01*
X139861602Y-119089653D01*
X139844216Y-119087945D01*
X139826062Y-119087396D01*
X139807469Y-119088081D01*
X139788775Y-119090053D01*
X139770306Y-119093392D01*
X139752389Y-119098152D01*
X139735359Y-119104413D01*
X139727280Y-119108121D01*
X139719548Y-119112232D01*
X139712203Y-119116749D01*
X139705282Y-119121677D01*
X139698835Y-119127029D01*
X139692902Y-119132817D01*
X139687518Y-119139043D01*
X139682726Y-119145716D01*
X139678570Y-119152848D01*
X139675091Y-119160445D01*
X139672328Y-119168516D01*
X139670328Y-119177066D01*
X139669124Y-119186107D01*
X139668767Y-119195647D01*
X139669291Y-119205694D01*
X139670740Y-119216255D01*
X139672865Y-119225345D01*
X139675881Y-119234002D01*
X139679736Y-119242235D01*
X139684389Y-119250061D01*
X139689790Y-119257493D01*
X139695894Y-119264541D01*
X139702655Y-119271221D01*
X139710014Y-119277547D01*
X139717935Y-119283529D01*
X139726368Y-119289187D01*
X139735266Y-119294530D01*
X139744581Y-119299570D01*
X139764270Y-119308793D01*
X139785058Y-119316977D01*
X139806563Y-119324217D01*
X139828413Y-119330623D01*
X139850227Y-119336304D01*
X139871622Y-119341365D01*
X139945468Y-119357527D01*
X140010468Y-119373544D01*
X140043711Y-119382444D01*
X140077028Y-119392198D01*
X140110083Y-119403022D01*
X140142558Y-119415126D01*
X140174133Y-119428704D01*
X140204472Y-119443969D01*
X140233260Y-119461125D01*
X140260168Y-119480375D01*
X140272815Y-119490854D01*
X140284876Y-119501930D01*
X140296303Y-119513627D01*
X140307057Y-119525986D01*
X140317101Y-119539013D01*
X140326392Y-119552750D01*
X140334885Y-119567213D01*
X140342550Y-119582427D01*
X140349334Y-119598425D01*
X140355211Y-119615229D01*
X140360129Y-119632869D01*
X140364047Y-119651358D01*
X140366491Y-119666506D01*
X140368410Y-119681707D01*
X140369810Y-119696954D01*
X140370695Y-119712231D01*
X140371060Y-119727533D01*
X140370914Y-119742842D01*
X140370249Y-119758154D01*
X140369081Y-119773460D01*
X140367850Y-119784584D01*
X140366245Y-119795695D01*
X140364276Y-119806769D01*
X140361944Y-119817797D01*
X140359261Y-119828758D01*
X140356215Y-119839646D01*
X140352822Y-119850438D01*
X140349083Y-119861117D01*
X140345003Y-119871673D01*
X140340585Y-119882091D01*
X140335836Y-119892351D01*
X140330754Y-119902439D01*
X140325344Y-119912341D01*
X140319619Y-119922040D01*
X140313572Y-119931521D01*
X140307214Y-119940772D01*
X140299967Y-119950544D01*
X140292441Y-119959984D01*
X140284637Y-119969097D01*
X140276570Y-119977899D01*
X140259672Y-119994547D01*
X140241829Y-120009973D01*
X140223110Y-120024207D01*
X140203592Y-120037286D01*
X140183348Y-120049243D01*
X140162458Y-120060118D01*
X140140990Y-120069944D01*
X140119024Y-120078758D01*
X140096628Y-120086595D01*
X140073884Y-120093486D01*
X140050866Y-120099477D01*
X140027640Y-120104596D01*
X140004287Y-120108879D01*
X139980887Y-120112366D01*
X139933359Y-120117177D01*
X139885175Y-120119046D01*
X139836722Y-120117890D01*
X139788379Y-120113620D01*
X139740529Y-120106157D01*
X139693547Y-120095421D01*
X139647826Y-120081319D01*
X139603734Y-120063778D01*
X139561658Y-120042717D01*
X139541499Y-120030835D01*
X139521984Y-120018041D01*
X139503160Y-120004324D01*
X139485082Y-119989677D01*
X139467798Y-119974079D01*
X139451350Y-119957535D01*
X139435780Y-119940022D01*
X139421150Y-119921537D01*
X139407499Y-119902063D01*
X139394880Y-119881600D01*
X139383333Y-119860127D01*
X139372912Y-119837642D01*
X139363660Y-119814125D01*
X139355630Y-119789574D01*
X139351362Y-119774668D01*
X139347415Y-119759727D01*
X139343840Y-119744734D01*
X139340690Y-119729680D01*
X139338019Y-119714545D01*
X139335877Y-119699323D01*
X139334322Y-119683996D01*
X139333779Y-119676293D01*
X139333401Y-119668560D01*
X139647425Y-119668560D01*
X139652228Y-119689910D01*
X139657839Y-119710195D01*
X139664306Y-119729399D01*
X139671692Y-119747499D01*
X139680042Y-119764468D01*
X139689413Y-119780287D01*
X139694504Y-119787760D01*
X139699870Y-119794932D01*
X139705517Y-119801812D01*
X139711452Y-119808386D01*
X139717687Y-119814663D01*
X139724230Y-119820624D01*
X139731078Y-119826279D01*
X139738245Y-119831626D01*
X139745734Y-119836654D01*
X139753557Y-119841362D01*
X139761718Y-119845757D01*
X139770224Y-119849827D01*
X139779082Y-119853566D01*
X139788297Y-119856979D01*
X139797879Y-119860061D01*
X139807837Y-119862810D01*
X139818168Y-119865217D01*
X139828888Y-119867290D01*
X139840000Y-119869022D01*
X139851511Y-119870405D01*
X139868081Y-119871651D01*
X139885486Y-119871990D01*
X139903457Y-119871347D01*
X139921701Y-119869656D01*
X139939931Y-119866833D01*
X139957869Y-119862806D01*
X139975223Y-119857500D01*
X139991706Y-119850836D01*
X139999533Y-119846970D01*
X140007038Y-119842745D01*
X140014182Y-119838137D01*
X140020933Y-119833146D01*
X140027248Y-119827761D01*
X140033105Y-119821969D01*
X140038455Y-119815762D01*
X140043267Y-119809131D01*
X140047502Y-119802076D01*
X140051132Y-119794568D01*
X140054115Y-119786615D01*
X140056421Y-119778199D01*
X140058011Y-119769312D01*
X140058844Y-119759949D01*
X140058892Y-119750091D01*
X140058114Y-119739740D01*
X140056626Y-119730459D01*
X140054324Y-119721604D01*
X140051246Y-119713164D01*
X140047446Y-119705121D01*
X140042951Y-119697467D01*
X140037811Y-119690193D01*
X140032061Y-119683277D01*
X140025748Y-119676712D01*
X140018906Y-119670488D01*
X140011584Y-119664590D01*
X140003820Y-119659000D01*
X139995650Y-119653715D01*
X139987122Y-119648719D01*
X139978271Y-119643995D01*
X139959775Y-119635334D01*
X139940497Y-119627622D01*
X139920754Y-119620768D01*
X139900885Y-119614666D01*
X139881214Y-119609220D01*
X139811060Y-119592008D01*
X139736606Y-119573299D01*
X139660918Y-119552375D01*
X139623603Y-119540362D01*
X139587175Y-119526920D01*
X139552019Y-119511764D01*
X139518534Y-119494605D01*
X139487130Y-119475145D01*
X139472321Y-119464464D01*
X139458181Y-119453103D01*
X139444760Y-119441020D01*
X139432102Y-119428182D01*
X139420258Y-119414553D01*
X139409278Y-119400093D01*
X139399210Y-119384771D01*
X139390108Y-119368548D01*
X139382018Y-119351386D01*
X139374987Y-119333249D01*
X139369069Y-119314107D01*
X139364316Y-119293914D01*
X139360769Y-119272642D01*
X139358486Y-119250246D01*
X139357670Y-119236640D01*
X139357196Y-119222952D01*
X139357100Y-119209227D01*
X139357441Y-119195495D01*
X139358252Y-119181793D01*
X139359584Y-119168155D01*
X139360461Y-119161365D01*
X139361483Y-119154612D01*
X139362661Y-119147889D01*
X139363994Y-119141201D01*
X139365906Y-119132706D01*
X139368045Y-119124233D01*
X139370412Y-119115789D01*
X139373000Y-119107387D01*
X139375807Y-119099034D01*
X139378829Y-119090742D01*
X139382064Y-119082521D01*
X139385509Y-119074383D01*
X139389165Y-119066328D01*
X139393021Y-119058385D01*
X139397081Y-119050535D01*
X139401335Y-119042815D01*
X139405788Y-119035220D01*
X139410432Y-119027768D01*
X139415263Y-119020466D01*
X139420284Y-119013320D01*
X139427702Y-119003446D01*
X139435421Y-118993901D01*
X139443428Y-118984682D01*
X139451712Y-118975781D01*
X139469078Y-118958929D01*
X139487436Y-118943323D01*
X139506704Y-118928933D01*
X139526807Y-118915732D01*
X139547659Y-118903697D01*
X139569178Y-118892802D01*
X139591283Y-118883014D01*
X139613897Y-118874312D01*
X139636936Y-118866667D01*
X139660316Y-118860050D01*
X139683961Y-118854440D01*
X139707783Y-118849802D01*
X139731710Y-118846120D01*
X139755652Y-118843358D01*
X139800694Y-118840340D01*
X139845382Y-118840021D01*
X139889495Y-118842463D01*
G37*
X138547075Y-118839397D02*
X138564694Y-118840086D01*
X138582309Y-118841215D01*
X138599902Y-118842787D01*
X138617443Y-118844817D01*
X138634903Y-118847306D01*
X138652265Y-118850265D01*
X138669500Y-118853697D01*
X138686586Y-118857611D01*
X138703496Y-118862016D01*
X138720210Y-118866914D01*
X138736694Y-118872321D01*
X138760857Y-118881151D01*
X138784554Y-118890795D01*
X138807772Y-118901248D01*
X138830479Y-118912519D01*
X138852656Y-118924599D01*
X138874277Y-118937500D01*
X138895326Y-118951219D01*
X138915774Y-118965758D01*
X138935606Y-118981117D01*
X138954795Y-118997302D01*
X138973312Y-119014308D01*
X138991147Y-119032142D01*
X139008268Y-119050801D01*
X139024653Y-119070292D01*
X139040285Y-119090612D01*
X139055140Y-119111763D01*
X139071701Y-119137932D01*
X139086824Y-119164816D01*
X139100506Y-119192344D01*
X139112765Y-119220463D01*
X139123598Y-119249102D01*
X139133025Y-119278205D01*
X139141047Y-119307709D01*
X139147681Y-119337551D01*
X139152927Y-119367671D01*
X139156801Y-119398002D01*
X139160456Y-119459061D01*
X139158716Y-119520227D01*
X139151651Y-119581005D01*
X139139332Y-119640898D01*
X139121828Y-119699407D01*
X139111153Y-119727986D01*
X139099211Y-119756036D01*
X139086007Y-119783492D01*
X139071551Y-119810293D01*
X139055852Y-119836371D01*
X139038919Y-119861671D01*
X139020761Y-119886127D01*
X139001388Y-119909678D01*
X138980803Y-119932265D01*
X138959021Y-119953821D01*
X138936047Y-119974287D01*
X138911891Y-119993595D01*
X138894369Y-120006303D01*
X138876403Y-120018298D01*
X138858032Y-120029591D01*
X138839270Y-120040186D01*
X138820149Y-120050087D01*
X138800694Y-120059304D01*
X138780934Y-120067850D01*
X138760889Y-120075721D01*
X138740592Y-120082931D01*
X138720062Y-120089483D01*
X138699331Y-120095391D01*
X138678418Y-120100651D01*
X138657359Y-120105281D01*
X138636169Y-120109280D01*
X138614882Y-120112655D01*
X138593521Y-120115424D01*
X138576185Y-120117182D01*
X138558716Y-120118513D01*
X138541141Y-120119413D01*
X138523483Y-120119874D01*
X138505763Y-120119907D01*
X138488010Y-120119499D01*
X138470247Y-120118655D01*
X138452503Y-120117380D01*
X138434796Y-120115663D01*
X138417153Y-120113506D01*
X138399599Y-120110911D01*
X138382161Y-120107870D01*
X138364858Y-120104393D01*
X138347720Y-120100467D01*
X138330771Y-120096102D01*
X138314036Y-120091289D01*
X138286268Y-120082203D01*
X138259281Y-120072001D01*
X138233086Y-120060718D01*
X138207697Y-120048387D01*
X138183123Y-120035035D01*
X138159382Y-120020700D01*
X138136488Y-120005414D01*
X138114442Y-119989203D01*
X138093269Y-119972104D01*
X138072975Y-119954148D01*
X138053577Y-119935362D01*
X138035085Y-119915787D01*
X138017513Y-119895449D01*
X138000871Y-119874380D01*
X137985176Y-119852611D01*
X137970442Y-119830176D01*
X137956672Y-119807106D01*
X137943888Y-119783436D01*
X137932096Y-119759197D01*
X137921320Y-119734412D01*
X137911562Y-119709123D01*
X137902839Y-119683359D01*
X137895159Y-119657154D01*
X137888538Y-119630538D01*
X137882995Y-119603540D01*
X137878534Y-119576192D01*
X137875169Y-119548532D01*
X137872916Y-119520593D01*
X137871878Y-119494704D01*
X138193429Y-119494704D01*
X138195401Y-119525119D01*
X138199387Y-119555265D01*
X138205391Y-119584965D01*
X138213415Y-119614040D01*
X138223465Y-119642294D01*
X138235541Y-119669563D01*
X138249647Y-119695655D01*
X138265791Y-119720388D01*
X138283964Y-119743585D01*
X138304178Y-119765065D01*
X138326434Y-119784639D01*
X138350733Y-119802130D01*
X138377081Y-119817359D01*
X138405482Y-119830138D01*
X138435931Y-119840289D01*
X138442135Y-119841951D01*
X138448413Y-119843471D01*
X138454748Y-119844846D01*
X138461139Y-119846077D01*
X138467574Y-119847169D01*
X138474046Y-119848116D01*
X138480548Y-119848923D01*
X138487072Y-119849586D01*
X138493608Y-119850109D01*
X138500159Y-119850488D01*
X138506700Y-119850727D01*
X138513238Y-119850825D01*
X138519756Y-119850782D01*
X138526252Y-119850598D01*
X138532710Y-119850273D01*
X138539133Y-119849805D01*
X138573511Y-119845180D01*
X138605819Y-119837293D01*
X138636050Y-119826346D01*
X138664193Y-119812554D01*
X138690253Y-119796122D01*
X138714211Y-119777259D01*
X138736070Y-119756174D01*
X138755819Y-119733078D01*
X138773454Y-119708173D01*
X138788969Y-119681669D01*
X138802354Y-119653776D01*
X138813605Y-119624704D01*
X138822718Y-119594659D01*
X138829684Y-119563844D01*
X138834497Y-119532475D01*
X138837153Y-119500754D01*
X138837641Y-119468898D01*
X138835959Y-119437105D01*
X138832096Y-119405591D01*
X138826053Y-119374561D01*
X138817818Y-119344217D01*
X138807390Y-119314780D01*
X138794756Y-119286448D01*
X138779911Y-119259433D01*
X138762851Y-119233944D01*
X138743570Y-119210193D01*
X138722062Y-119188375D01*
X138698321Y-119168710D01*
X138672334Y-119151400D01*
X138644103Y-119136658D01*
X138613616Y-119124693D01*
X138580877Y-119115705D01*
X138573925Y-119114286D01*
X138566880Y-119113027D01*
X138559751Y-119111935D01*
X138552550Y-119111005D01*
X138545294Y-119110249D01*
X138537992Y-119109659D01*
X138530659Y-119109232D01*
X138523309Y-119108977D01*
X138515954Y-119108889D01*
X138508605Y-119108970D01*
X138501282Y-119109222D01*
X138493990Y-119109645D01*
X138486748Y-119110241D01*
X138479567Y-119111004D01*
X138472460Y-119111942D01*
X138465439Y-119113055D01*
X138433595Y-119120186D01*
X138403719Y-119130143D01*
X138375810Y-119142741D01*
X138349875Y-119157795D01*
X138325911Y-119175133D01*
X138303926Y-119194566D01*
X138283924Y-119215911D01*
X138265897Y-119238991D01*
X138249865Y-119263623D01*
X138235815Y-119289621D01*
X138223762Y-119316809D01*
X138213704Y-119345002D01*
X138205642Y-119374020D01*
X138199580Y-119403682D01*
X138195522Y-119433806D01*
X138193474Y-119464205D01*
X138193429Y-119494704D01*
X137871878Y-119494704D01*
X137871783Y-119492393D01*
X137871789Y-119463978D01*
X137872943Y-119435374D01*
X137875260Y-119406616D01*
X137877585Y-119386427D01*
X137880512Y-119366236D01*
X137884038Y-119346084D01*
X137888169Y-119326002D01*
X137892915Y-119306015D01*
X137898273Y-119286158D01*
X137904247Y-119266466D01*
X137910843Y-119246968D01*
X137918061Y-119227700D01*
X137925906Y-119208691D01*
X137934385Y-119189973D01*
X137943494Y-119171583D01*
X137953241Y-119153547D01*
X137963630Y-119135900D01*
X137974664Y-119118676D01*
X137986349Y-119101907D01*
X138008143Y-119073671D01*
X138031266Y-119047018D01*
X138055653Y-119021953D01*
X138081252Y-118998477D01*
X138107990Y-118976599D01*
X138135808Y-118956317D01*
X138164645Y-118937636D01*
X138194440Y-118920563D01*
X138225130Y-118905099D01*
X138256649Y-118891253D01*
X138288944Y-118879024D01*
X138321944Y-118868412D01*
X138355593Y-118859431D01*
X138389822Y-118852077D01*
X138424578Y-118846356D01*
X138459794Y-118842272D01*
X138477056Y-118840876D01*
X138494443Y-118839886D01*
X138511923Y-118839301D01*
X138529477Y-118839138D01*
X138547075Y-118839397D01*
G36*
X138547075Y-118839397D02*
G01*
X138564694Y-118840086D01*
X138582309Y-118841215D01*
X138599902Y-118842787D01*
X138617443Y-118844817D01*
X138634903Y-118847306D01*
X138652265Y-118850265D01*
X138669500Y-118853697D01*
X138686586Y-118857611D01*
X138703496Y-118862016D01*
X138720210Y-118866914D01*
X138736694Y-118872321D01*
X138760857Y-118881151D01*
X138784554Y-118890795D01*
X138807772Y-118901248D01*
X138830479Y-118912519D01*
X138852656Y-118924599D01*
X138874277Y-118937500D01*
X138895326Y-118951219D01*
X138915774Y-118965758D01*
X138935606Y-118981117D01*
X138954795Y-118997302D01*
X138973312Y-119014308D01*
X138991147Y-119032142D01*
X139008268Y-119050801D01*
X139024653Y-119070292D01*
X139040285Y-119090612D01*
X139055140Y-119111763D01*
X139071701Y-119137932D01*
X139086824Y-119164816D01*
X139100506Y-119192344D01*
X139112765Y-119220463D01*
X139123598Y-119249102D01*
X139133025Y-119278205D01*
X139141047Y-119307709D01*
X139147681Y-119337551D01*
X139152927Y-119367671D01*
X139156801Y-119398002D01*
X139160456Y-119459061D01*
X139158716Y-119520227D01*
X139151651Y-119581005D01*
X139139332Y-119640898D01*
X139121828Y-119699407D01*
X139111153Y-119727986D01*
X139099211Y-119756036D01*
X139086007Y-119783492D01*
X139071551Y-119810293D01*
X139055852Y-119836371D01*
X139038919Y-119861671D01*
X139020761Y-119886127D01*
X139001388Y-119909678D01*
X138980803Y-119932265D01*
X138959021Y-119953821D01*
X138936047Y-119974287D01*
X138911891Y-119993595D01*
X138894369Y-120006303D01*
X138876403Y-120018298D01*
X138858032Y-120029591D01*
X138839270Y-120040186D01*
X138820149Y-120050087D01*
X138800694Y-120059304D01*
X138780934Y-120067850D01*
X138760889Y-120075721D01*
X138740592Y-120082931D01*
X138720062Y-120089483D01*
X138699331Y-120095391D01*
X138678418Y-120100651D01*
X138657359Y-120105281D01*
X138636169Y-120109280D01*
X138614882Y-120112655D01*
X138593521Y-120115424D01*
X138576185Y-120117182D01*
X138558716Y-120118513D01*
X138541141Y-120119413D01*
X138523483Y-120119874D01*
X138505763Y-120119907D01*
X138488010Y-120119499D01*
X138470247Y-120118655D01*
X138452503Y-120117380D01*
X138434796Y-120115663D01*
X138417153Y-120113506D01*
X138399599Y-120110911D01*
X138382161Y-120107870D01*
X138364858Y-120104393D01*
X138347720Y-120100467D01*
X138330771Y-120096102D01*
X138314036Y-120091289D01*
X138286268Y-120082203D01*
X138259281Y-120072001D01*
X138233086Y-120060718D01*
X138207697Y-120048387D01*
X138183123Y-120035035D01*
X138159382Y-120020700D01*
X138136488Y-120005414D01*
X138114442Y-119989203D01*
X138093269Y-119972104D01*
X138072975Y-119954148D01*
X138053577Y-119935362D01*
X138035085Y-119915787D01*
X138017513Y-119895449D01*
X138000871Y-119874380D01*
X137985176Y-119852611D01*
X137970442Y-119830176D01*
X137956672Y-119807106D01*
X137943888Y-119783436D01*
X137932096Y-119759197D01*
X137921320Y-119734412D01*
X137911562Y-119709123D01*
X137902839Y-119683359D01*
X137895159Y-119657154D01*
X137888538Y-119630538D01*
X137882995Y-119603540D01*
X137878534Y-119576192D01*
X137875169Y-119548532D01*
X137872916Y-119520593D01*
X137871878Y-119494704D01*
X138193429Y-119494704D01*
X138195401Y-119525119D01*
X138199387Y-119555265D01*
X138205391Y-119584965D01*
X138213415Y-119614040D01*
X138223465Y-119642294D01*
X138235541Y-119669563D01*
X138249647Y-119695655D01*
X138265791Y-119720388D01*
X138283964Y-119743585D01*
X138304178Y-119765065D01*
X138326434Y-119784639D01*
X138350733Y-119802130D01*
X138377081Y-119817359D01*
X138405482Y-119830138D01*
X138435931Y-119840289D01*
X138442135Y-119841951D01*
X138448413Y-119843471D01*
X138454748Y-119844846D01*
X138461139Y-119846077D01*
X138467574Y-119847169D01*
X138474046Y-119848116D01*
X138480548Y-119848923D01*
X138487072Y-119849586D01*
X138493608Y-119850109D01*
X138500159Y-119850488D01*
X138506700Y-119850727D01*
X138513238Y-119850825D01*
X138519756Y-119850782D01*
X138526252Y-119850598D01*
X138532710Y-119850273D01*
X138539133Y-119849805D01*
X138573511Y-119845180D01*
X138605819Y-119837293D01*
X138636050Y-119826346D01*
X138664193Y-119812554D01*
X138690253Y-119796122D01*
X138714211Y-119777259D01*
X138736070Y-119756174D01*
X138755819Y-119733078D01*
X138773454Y-119708173D01*
X138788969Y-119681669D01*
X138802354Y-119653776D01*
X138813605Y-119624704D01*
X138822718Y-119594659D01*
X138829684Y-119563844D01*
X138834497Y-119532475D01*
X138837153Y-119500754D01*
X138837641Y-119468898D01*
X138835959Y-119437105D01*
X138832096Y-119405591D01*
X138826053Y-119374561D01*
X138817818Y-119344217D01*
X138807390Y-119314780D01*
X138794756Y-119286448D01*
X138779911Y-119259433D01*
X138762851Y-119233944D01*
X138743570Y-119210193D01*
X138722062Y-119188375D01*
X138698321Y-119168710D01*
X138672334Y-119151400D01*
X138644103Y-119136658D01*
X138613616Y-119124693D01*
X138580877Y-119115705D01*
X138573925Y-119114286D01*
X138566880Y-119113027D01*
X138559751Y-119111935D01*
X138552550Y-119111005D01*
X138545294Y-119110249D01*
X138537992Y-119109659D01*
X138530659Y-119109232D01*
X138523309Y-119108977D01*
X138515954Y-119108889D01*
X138508605Y-119108970D01*
X138501282Y-119109222D01*
X138493990Y-119109645D01*
X138486748Y-119110241D01*
X138479567Y-119111004D01*
X138472460Y-119111942D01*
X138465439Y-119113055D01*
X138433595Y-119120186D01*
X138403719Y-119130143D01*
X138375810Y-119142741D01*
X138349875Y-119157795D01*
X138325911Y-119175133D01*
X138303926Y-119194566D01*
X138283924Y-119215911D01*
X138265897Y-119238991D01*
X138249865Y-119263623D01*
X138235815Y-119289621D01*
X138223762Y-119316809D01*
X138213704Y-119345002D01*
X138205642Y-119374020D01*
X138199580Y-119403682D01*
X138195522Y-119433806D01*
X138193474Y-119464205D01*
X138193429Y-119494704D01*
X137871878Y-119494704D01*
X137871783Y-119492393D01*
X137871789Y-119463978D01*
X137872943Y-119435374D01*
X137875260Y-119406616D01*
X137877585Y-119386427D01*
X137880512Y-119366236D01*
X137884038Y-119346084D01*
X137888169Y-119326002D01*
X137892915Y-119306015D01*
X137898273Y-119286158D01*
X137904247Y-119266466D01*
X137910843Y-119246968D01*
X137918061Y-119227700D01*
X137925906Y-119208691D01*
X137934385Y-119189973D01*
X137943494Y-119171583D01*
X137953241Y-119153547D01*
X137963630Y-119135900D01*
X137974664Y-119118676D01*
X137986349Y-119101907D01*
X138008143Y-119073671D01*
X138031266Y-119047018D01*
X138055653Y-119021953D01*
X138081252Y-118998477D01*
X138107990Y-118976599D01*
X138135808Y-118956317D01*
X138164645Y-118937636D01*
X138194440Y-118920563D01*
X138225130Y-118905099D01*
X138256649Y-118891253D01*
X138288944Y-118879024D01*
X138321944Y-118868412D01*
X138355593Y-118859431D01*
X138389822Y-118852077D01*
X138424578Y-118846356D01*
X138459794Y-118842272D01*
X138477056Y-118840876D01*
X138494443Y-118839886D01*
X138511923Y-118839301D01*
X138529477Y-118839138D01*
X138547075Y-118839397D01*
G37*
D10*
X123684312Y-119633419D02*
X123350979Y-119157228D01*
X123112884Y-119633419D02*
X123112884Y-118633419D01*
X123112884Y-118633419D02*
X123493836Y-118633419D01*
X123493836Y-118633419D02*
X123589074Y-118681038D01*
X123589074Y-118681038D02*
X123636693Y-118728657D01*
X123636693Y-118728657D02*
X123684312Y-118823895D01*
X123684312Y-118823895D02*
X123684312Y-118966752D01*
X123684312Y-118966752D02*
X123636693Y-119061990D01*
X123636693Y-119061990D02*
X123589074Y-119109609D01*
X123589074Y-119109609D02*
X123493836Y-119157228D01*
X123493836Y-119157228D02*
X123112884Y-119157228D01*
X124112884Y-119109609D02*
X124446217Y-119109609D01*
X124589074Y-119633419D02*
X124112884Y-119633419D01*
X124112884Y-119633419D02*
X124112884Y-118633419D01*
X124112884Y-118633419D02*
X124589074Y-118633419D01*
X124874789Y-118633419D02*
X125208122Y-119633419D01*
X125208122Y-119633419D02*
X125541455Y-118633419D01*
X126827170Y-118633419D02*
X126922408Y-118633419D01*
X126922408Y-118633419D02*
X127017646Y-118681038D01*
X127017646Y-118681038D02*
X127065265Y-118728657D01*
X127065265Y-118728657D02*
X127112884Y-118823895D01*
X127112884Y-118823895D02*
X127160503Y-119014371D01*
X127160503Y-119014371D02*
X127160503Y-119252466D01*
X127160503Y-119252466D02*
X127112884Y-119442942D01*
X127112884Y-119442942D02*
X127065265Y-119538180D01*
X127065265Y-119538180D02*
X127017646Y-119585800D01*
X127017646Y-119585800D02*
X126922408Y-119633419D01*
X126922408Y-119633419D02*
X126827170Y-119633419D01*
X126827170Y-119633419D02*
X126731932Y-119585800D01*
X126731932Y-119585800D02*
X126684313Y-119538180D01*
X126684313Y-119538180D02*
X126636694Y-119442942D01*
X126636694Y-119442942D02*
X126589075Y-119252466D01*
X126589075Y-119252466D02*
X126589075Y-119014371D01*
X126589075Y-119014371D02*
X126636694Y-118823895D01*
X126636694Y-118823895D02*
X126684313Y-118728657D01*
X126684313Y-118728657D02*
X126731932Y-118681038D01*
X126731932Y-118681038D02*
X126827170Y-118633419D01*
X127589075Y-119538180D02*
X127636694Y-119585800D01*
X127636694Y-119585800D02*
X127589075Y-119633419D01*
X127589075Y-119633419D02*
X127541456Y-119585800D01*
X127541456Y-119585800D02*
X127589075Y-119538180D01*
X127589075Y-119538180D02*
X127589075Y-119633419D01*
X128017646Y-118728657D02*
X128065265Y-118681038D01*
X128065265Y-118681038D02*
X128160503Y-118633419D01*
X128160503Y-118633419D02*
X128398598Y-118633419D01*
X128398598Y-118633419D02*
X128493836Y-118681038D01*
X128493836Y-118681038D02*
X128541455Y-118728657D01*
X128541455Y-118728657D02*
X128589074Y-118823895D01*
X128589074Y-118823895D02*
X128589074Y-118919133D01*
X128589074Y-118919133D02*
X128541455Y-119061990D01*
X128541455Y-119061990D02*
X127970027Y-119633419D01*
X127970027Y-119633419D02*
X128589074Y-119633419D01*
X97030265Y-87476133D02*
X97639789Y-87476133D01*
X97335027Y-87780895D02*
X97335027Y-87171371D01*
X98439788Y-87780895D02*
X97982645Y-87780895D01*
X98211217Y-87780895D02*
X98211217Y-86980895D01*
X98211217Y-86980895D02*
X98135026Y-87095180D01*
X98135026Y-87095180D02*
X98058836Y-87171371D01*
X98058836Y-87171371D02*
X97982645Y-87209466D01*
X98744550Y-87057085D02*
X98782646Y-87018990D01*
X98782646Y-87018990D02*
X98858836Y-86980895D01*
X98858836Y-86980895D02*
X99049312Y-86980895D01*
X99049312Y-86980895D02*
X99125503Y-87018990D01*
X99125503Y-87018990D02*
X99163598Y-87057085D01*
X99163598Y-87057085D02*
X99201693Y-87133276D01*
X99201693Y-87133276D02*
X99201693Y-87209466D01*
X99201693Y-87209466D02*
X99163598Y-87323752D01*
X99163598Y-87323752D02*
X98706455Y-87780895D01*
X98706455Y-87780895D02*
X99201693Y-87780895D01*
X99430265Y-86980895D02*
X99696932Y-87780895D01*
X99696932Y-87780895D02*
X99963598Y-86980895D01*
X97576312Y-94638990D02*
X97500122Y-94600895D01*
X97500122Y-94600895D02*
X97385836Y-94600895D01*
X97385836Y-94600895D02*
X97271550Y-94638990D01*
X97271550Y-94638990D02*
X97195360Y-94715180D01*
X97195360Y-94715180D02*
X97157265Y-94791371D01*
X97157265Y-94791371D02*
X97119169Y-94943752D01*
X97119169Y-94943752D02*
X97119169Y-95058038D01*
X97119169Y-95058038D02*
X97157265Y-95210419D01*
X97157265Y-95210419D02*
X97195360Y-95286609D01*
X97195360Y-95286609D02*
X97271550Y-95362800D01*
X97271550Y-95362800D02*
X97385836Y-95400895D01*
X97385836Y-95400895D02*
X97462027Y-95400895D01*
X97462027Y-95400895D02*
X97576312Y-95362800D01*
X97576312Y-95362800D02*
X97614408Y-95324704D01*
X97614408Y-95324704D02*
X97614408Y-95058038D01*
X97614408Y-95058038D02*
X97462027Y-95058038D01*
X97957265Y-95400895D02*
X97957265Y-94600895D01*
X97957265Y-94600895D02*
X98414408Y-95400895D01*
X98414408Y-95400895D02*
X98414408Y-94600895D01*
X98795360Y-95400895D02*
X98795360Y-94600895D01*
X98795360Y-94600895D02*
X98985836Y-94600895D01*
X98985836Y-94600895D02*
X99100122Y-94638990D01*
X99100122Y-94638990D02*
X99176312Y-94715180D01*
X99176312Y-94715180D02*
X99214407Y-94791371D01*
X99214407Y-94791371D02*
X99252503Y-94943752D01*
X99252503Y-94943752D02*
X99252503Y-95058038D01*
X99252503Y-95058038D02*
X99214407Y-95210419D01*
X99214407Y-95210419D02*
X99176312Y-95286609D01*
X99176312Y-95286609D02*
X99100122Y-95362800D01*
X99100122Y-95362800D02*
X98985836Y-95400895D01*
X98985836Y-95400895D02*
X98795360Y-95400895D01*
X104650265Y-80364133D02*
X105259789Y-80364133D01*
X104955027Y-80668895D02*
X104955027Y-80059371D01*
X106059788Y-80668895D02*
X105602645Y-80668895D01*
X105831217Y-80668895D02*
X105831217Y-79868895D01*
X105831217Y-79868895D02*
X105755026Y-79983180D01*
X105755026Y-79983180D02*
X105678836Y-80059371D01*
X105678836Y-80059371D02*
X105602645Y-80097466D01*
X106364550Y-79945085D02*
X106402646Y-79906990D01*
X106402646Y-79906990D02*
X106478836Y-79868895D01*
X106478836Y-79868895D02*
X106669312Y-79868895D01*
X106669312Y-79868895D02*
X106745503Y-79906990D01*
X106745503Y-79906990D02*
X106783598Y-79945085D01*
X106783598Y-79945085D02*
X106821693Y-80021276D01*
X106821693Y-80021276D02*
X106821693Y-80097466D01*
X106821693Y-80097466D02*
X106783598Y-80211752D01*
X106783598Y-80211752D02*
X106326455Y-80668895D01*
X106326455Y-80668895D02*
X106821693Y-80668895D01*
X107050265Y-79868895D02*
X107316932Y-80668895D01*
X107316932Y-80668895D02*
X107583598Y-79868895D01*
X104904265Y-75715895D02*
X104904265Y-74915895D01*
X104904265Y-74915895D02*
X105209027Y-74915895D01*
X105209027Y-74915895D02*
X105285217Y-74953990D01*
X105285217Y-74953990D02*
X105323312Y-74992085D01*
X105323312Y-74992085D02*
X105361408Y-75068276D01*
X105361408Y-75068276D02*
X105361408Y-75182561D01*
X105361408Y-75182561D02*
X105323312Y-75258752D01*
X105323312Y-75258752D02*
X105285217Y-75296847D01*
X105285217Y-75296847D02*
X105209027Y-75334942D01*
X105209027Y-75334942D02*
X104904265Y-75334942D01*
X105628074Y-74915895D02*
X105818550Y-75715895D01*
X105818550Y-75715895D02*
X105970931Y-75144466D01*
X105970931Y-75144466D02*
X106123312Y-75715895D01*
X106123312Y-75715895D02*
X106313789Y-74915895D01*
X106618551Y-75715895D02*
X106618551Y-74915895D01*
X106618551Y-74915895D02*
X106885217Y-75487323D01*
X106885217Y-75487323D02*
X107151884Y-74915895D01*
X107151884Y-74915895D02*
X107151884Y-75715895D01*
X104789979Y-77455895D02*
X105247122Y-77455895D01*
X105018550Y-78255895D02*
X105018550Y-77455895D01*
X105475693Y-78027323D02*
X105856646Y-78027323D01*
X105399503Y-78255895D02*
X105666170Y-77455895D01*
X105666170Y-77455895D02*
X105932836Y-78255895D01*
X106656646Y-78179704D02*
X106618550Y-78217800D01*
X106618550Y-78217800D02*
X106504265Y-78255895D01*
X106504265Y-78255895D02*
X106428074Y-78255895D01*
X106428074Y-78255895D02*
X106313788Y-78217800D01*
X106313788Y-78217800D02*
X106237598Y-78141609D01*
X106237598Y-78141609D02*
X106199503Y-78065419D01*
X106199503Y-78065419D02*
X106161407Y-77913038D01*
X106161407Y-77913038D02*
X106161407Y-77798752D01*
X106161407Y-77798752D02*
X106199503Y-77646371D01*
X106199503Y-77646371D02*
X106237598Y-77570180D01*
X106237598Y-77570180D02*
X106313788Y-77493990D01*
X106313788Y-77493990D02*
X106428074Y-77455895D01*
X106428074Y-77455895D02*
X106504265Y-77455895D01*
X106504265Y-77455895D02*
X106618550Y-77493990D01*
X106618550Y-77493990D02*
X106656646Y-77532085D01*
X106999503Y-78255895D02*
X106999503Y-77455895D01*
X106999503Y-77836847D02*
X107456646Y-77836847D01*
X107456646Y-78255895D02*
X107456646Y-77455895D01*
X105323312Y-82065990D02*
X105247122Y-82027895D01*
X105247122Y-82027895D02*
X105132836Y-82027895D01*
X105132836Y-82027895D02*
X105018550Y-82065990D01*
X105018550Y-82065990D02*
X104942360Y-82142180D01*
X104942360Y-82142180D02*
X104904265Y-82218371D01*
X104904265Y-82218371D02*
X104866169Y-82370752D01*
X104866169Y-82370752D02*
X104866169Y-82485038D01*
X104866169Y-82485038D02*
X104904265Y-82637419D01*
X104904265Y-82637419D02*
X104942360Y-82713609D01*
X104942360Y-82713609D02*
X105018550Y-82789800D01*
X105018550Y-82789800D02*
X105132836Y-82827895D01*
X105132836Y-82827895D02*
X105209027Y-82827895D01*
X105209027Y-82827895D02*
X105323312Y-82789800D01*
X105323312Y-82789800D02*
X105361408Y-82751704D01*
X105361408Y-82751704D02*
X105361408Y-82485038D01*
X105361408Y-82485038D02*
X105209027Y-82485038D01*
X105704265Y-82827895D02*
X105704265Y-82027895D01*
X105704265Y-82027895D02*
X106161408Y-82827895D01*
X106161408Y-82827895D02*
X106161408Y-82027895D01*
X106542360Y-82827895D02*
X106542360Y-82027895D01*
X106542360Y-82027895D02*
X106732836Y-82027895D01*
X106732836Y-82027895D02*
X106847122Y-82065990D01*
X106847122Y-82065990D02*
X106923312Y-82142180D01*
X106923312Y-82142180D02*
X106961407Y-82218371D01*
X106961407Y-82218371D02*
X106999503Y-82370752D01*
X106999503Y-82370752D02*
X106999503Y-82485038D01*
X106999503Y-82485038D02*
X106961407Y-82637419D01*
X106961407Y-82637419D02*
X106923312Y-82713609D01*
X106923312Y-82713609D02*
X106847122Y-82789800D01*
X106847122Y-82789800D02*
X106732836Y-82827895D01*
X106732836Y-82827895D02*
X106542360Y-82827895D01*
X104904265Y-107415133D02*
X105513789Y-107415133D01*
X105209027Y-107719895D02*
X105209027Y-107110371D01*
X106313788Y-107719895D02*
X105856645Y-107719895D01*
X106085217Y-107719895D02*
X106085217Y-106919895D01*
X106085217Y-106919895D02*
X106009026Y-107034180D01*
X106009026Y-107034180D02*
X105932836Y-107110371D01*
X105932836Y-107110371D02*
X105856645Y-107148466D01*
X106618550Y-106996085D02*
X106656646Y-106957990D01*
X106656646Y-106957990D02*
X106732836Y-106919895D01*
X106732836Y-106919895D02*
X106923312Y-106919895D01*
X106923312Y-106919895D02*
X106999503Y-106957990D01*
X106999503Y-106957990D02*
X107037598Y-106996085D01*
X107037598Y-106996085D02*
X107075693Y-107072276D01*
X107075693Y-107072276D02*
X107075693Y-107148466D01*
X107075693Y-107148466D02*
X107037598Y-107262752D01*
X107037598Y-107262752D02*
X106580455Y-107719895D01*
X106580455Y-107719895D02*
X107075693Y-107719895D01*
X107304265Y-106919895D02*
X107570932Y-107719895D01*
X107570932Y-107719895D02*
X107837598Y-106919895D01*
X105158265Y-102766895D02*
X105158265Y-101966895D01*
X105158265Y-101966895D02*
X105463027Y-101966895D01*
X105463027Y-101966895D02*
X105539217Y-102004990D01*
X105539217Y-102004990D02*
X105577312Y-102043085D01*
X105577312Y-102043085D02*
X105615408Y-102119276D01*
X105615408Y-102119276D02*
X105615408Y-102233561D01*
X105615408Y-102233561D02*
X105577312Y-102309752D01*
X105577312Y-102309752D02*
X105539217Y-102347847D01*
X105539217Y-102347847D02*
X105463027Y-102385942D01*
X105463027Y-102385942D02*
X105158265Y-102385942D01*
X105882074Y-101966895D02*
X106072550Y-102766895D01*
X106072550Y-102766895D02*
X106224931Y-102195466D01*
X106224931Y-102195466D02*
X106377312Y-102766895D01*
X106377312Y-102766895D02*
X106567789Y-101966895D01*
X106872551Y-102766895D02*
X106872551Y-101966895D01*
X106872551Y-101966895D02*
X107139217Y-102538323D01*
X107139217Y-102538323D02*
X107405884Y-101966895D01*
X107405884Y-101966895D02*
X107405884Y-102766895D01*
X105043979Y-104506895D02*
X105501122Y-104506895D01*
X105272550Y-105306895D02*
X105272550Y-104506895D01*
X105729693Y-105078323D02*
X106110646Y-105078323D01*
X105653503Y-105306895D02*
X105920170Y-104506895D01*
X105920170Y-104506895D02*
X106186836Y-105306895D01*
X106910646Y-105230704D02*
X106872550Y-105268800D01*
X106872550Y-105268800D02*
X106758265Y-105306895D01*
X106758265Y-105306895D02*
X106682074Y-105306895D01*
X106682074Y-105306895D02*
X106567788Y-105268800D01*
X106567788Y-105268800D02*
X106491598Y-105192609D01*
X106491598Y-105192609D02*
X106453503Y-105116419D01*
X106453503Y-105116419D02*
X106415407Y-104964038D01*
X106415407Y-104964038D02*
X106415407Y-104849752D01*
X106415407Y-104849752D02*
X106453503Y-104697371D01*
X106453503Y-104697371D02*
X106491598Y-104621180D01*
X106491598Y-104621180D02*
X106567788Y-104544990D01*
X106567788Y-104544990D02*
X106682074Y-104506895D01*
X106682074Y-104506895D02*
X106758265Y-104506895D01*
X106758265Y-104506895D02*
X106872550Y-104544990D01*
X106872550Y-104544990D02*
X106910646Y-104583085D01*
X107253503Y-105306895D02*
X107253503Y-104506895D01*
X107253503Y-104887847D02*
X107710646Y-104887847D01*
X107710646Y-105306895D02*
X107710646Y-104506895D01*
X105577312Y-109116990D02*
X105501122Y-109078895D01*
X105501122Y-109078895D02*
X105386836Y-109078895D01*
X105386836Y-109078895D02*
X105272550Y-109116990D01*
X105272550Y-109116990D02*
X105196360Y-109193180D01*
X105196360Y-109193180D02*
X105158265Y-109269371D01*
X105158265Y-109269371D02*
X105120169Y-109421752D01*
X105120169Y-109421752D02*
X105120169Y-109536038D01*
X105120169Y-109536038D02*
X105158265Y-109688419D01*
X105158265Y-109688419D02*
X105196360Y-109764609D01*
X105196360Y-109764609D02*
X105272550Y-109840800D01*
X105272550Y-109840800D02*
X105386836Y-109878895D01*
X105386836Y-109878895D02*
X105463027Y-109878895D01*
X105463027Y-109878895D02*
X105577312Y-109840800D01*
X105577312Y-109840800D02*
X105615408Y-109802704D01*
X105615408Y-109802704D02*
X105615408Y-109536038D01*
X105615408Y-109536038D02*
X105463027Y-109536038D01*
X105958265Y-109878895D02*
X105958265Y-109078895D01*
X105958265Y-109078895D02*
X106415408Y-109878895D01*
X106415408Y-109878895D02*
X106415408Y-109078895D01*
X106796360Y-109878895D02*
X106796360Y-109078895D01*
X106796360Y-109078895D02*
X106986836Y-109078895D01*
X106986836Y-109078895D02*
X107101122Y-109116990D01*
X107101122Y-109116990D02*
X107177312Y-109193180D01*
X107177312Y-109193180D02*
X107215407Y-109269371D01*
X107215407Y-109269371D02*
X107253503Y-109421752D01*
X107253503Y-109421752D02*
X107253503Y-109536038D01*
X107253503Y-109536038D02*
X107215407Y-109688419D01*
X107215407Y-109688419D02*
X107177312Y-109764609D01*
X107177312Y-109764609D02*
X107101122Y-109840800D01*
X107101122Y-109840800D02*
X106986836Y-109878895D01*
X106986836Y-109878895D02*
X106796360Y-109878895D01*
X171541169Y-92822800D02*
X171655455Y-92860895D01*
X171655455Y-92860895D02*
X171845931Y-92860895D01*
X171845931Y-92860895D02*
X171922122Y-92822800D01*
X171922122Y-92822800D02*
X171960217Y-92784704D01*
X171960217Y-92784704D02*
X171998312Y-92708514D01*
X171998312Y-92708514D02*
X171998312Y-92632323D01*
X171998312Y-92632323D02*
X171960217Y-92556133D01*
X171960217Y-92556133D02*
X171922122Y-92518038D01*
X171922122Y-92518038D02*
X171845931Y-92479942D01*
X171845931Y-92479942D02*
X171693550Y-92441847D01*
X171693550Y-92441847D02*
X171617360Y-92403752D01*
X171617360Y-92403752D02*
X171579265Y-92365657D01*
X171579265Y-92365657D02*
X171541169Y-92289466D01*
X171541169Y-92289466D02*
X171541169Y-92213276D01*
X171541169Y-92213276D02*
X171579265Y-92137085D01*
X171579265Y-92137085D02*
X171617360Y-92098990D01*
X171617360Y-92098990D02*
X171693550Y-92060895D01*
X171693550Y-92060895D02*
X171884027Y-92060895D01*
X171884027Y-92060895D02*
X171998312Y-92098990D01*
X172341170Y-92441847D02*
X172607836Y-92441847D01*
X172722122Y-92860895D02*
X172341170Y-92860895D01*
X172341170Y-92860895D02*
X172341170Y-92060895D01*
X172341170Y-92060895D02*
X172722122Y-92060895D01*
X173064980Y-92860895D02*
X173064980Y-92060895D01*
X173064980Y-92060895D02*
X173522123Y-92860895D01*
X173522123Y-92860895D02*
X173522123Y-92060895D01*
X173864979Y-92822800D02*
X173979265Y-92860895D01*
X173979265Y-92860895D02*
X174169741Y-92860895D01*
X174169741Y-92860895D02*
X174245932Y-92822800D01*
X174245932Y-92822800D02*
X174284027Y-92784704D01*
X174284027Y-92784704D02*
X174322122Y-92708514D01*
X174322122Y-92708514D02*
X174322122Y-92632323D01*
X174322122Y-92632323D02*
X174284027Y-92556133D01*
X174284027Y-92556133D02*
X174245932Y-92518038D01*
X174245932Y-92518038D02*
X174169741Y-92479942D01*
X174169741Y-92479942D02*
X174017360Y-92441847D01*
X174017360Y-92441847D02*
X173941170Y-92403752D01*
X173941170Y-92403752D02*
X173903075Y-92365657D01*
X173903075Y-92365657D02*
X173864979Y-92289466D01*
X173864979Y-92289466D02*
X173864979Y-92213276D01*
X173864979Y-92213276D02*
X173903075Y-92137085D01*
X173903075Y-92137085D02*
X173941170Y-92098990D01*
X173941170Y-92098990D02*
X174017360Y-92060895D01*
X174017360Y-92060895D02*
X174207837Y-92060895D01*
X174207837Y-92060895D02*
X174322122Y-92098990D01*
X174664980Y-92441847D02*
X174931646Y-92441847D01*
X175045932Y-92860895D02*
X174664980Y-92860895D01*
X174664980Y-92860895D02*
X174664980Y-92060895D01*
X174664980Y-92060895D02*
X175045932Y-92060895D01*
X171541169Y-101712800D02*
X171655455Y-101750895D01*
X171655455Y-101750895D02*
X171845931Y-101750895D01*
X171845931Y-101750895D02*
X171922122Y-101712800D01*
X171922122Y-101712800D02*
X171960217Y-101674704D01*
X171960217Y-101674704D02*
X171998312Y-101598514D01*
X171998312Y-101598514D02*
X171998312Y-101522323D01*
X171998312Y-101522323D02*
X171960217Y-101446133D01*
X171960217Y-101446133D02*
X171922122Y-101408038D01*
X171922122Y-101408038D02*
X171845931Y-101369942D01*
X171845931Y-101369942D02*
X171693550Y-101331847D01*
X171693550Y-101331847D02*
X171617360Y-101293752D01*
X171617360Y-101293752D02*
X171579265Y-101255657D01*
X171579265Y-101255657D02*
X171541169Y-101179466D01*
X171541169Y-101179466D02*
X171541169Y-101103276D01*
X171541169Y-101103276D02*
X171579265Y-101027085D01*
X171579265Y-101027085D02*
X171617360Y-100988990D01*
X171617360Y-100988990D02*
X171693550Y-100950895D01*
X171693550Y-100950895D02*
X171884027Y-100950895D01*
X171884027Y-100950895D02*
X171998312Y-100988990D01*
X172341170Y-101331847D02*
X172607836Y-101331847D01*
X172722122Y-101750895D02*
X172341170Y-101750895D01*
X172341170Y-101750895D02*
X172341170Y-100950895D01*
X172341170Y-100950895D02*
X172722122Y-100950895D01*
X173064980Y-101750895D02*
X173064980Y-100950895D01*
X173064980Y-100950895D02*
X173522123Y-101750895D01*
X173522123Y-101750895D02*
X173522123Y-100950895D01*
X173864979Y-101712800D02*
X173979265Y-101750895D01*
X173979265Y-101750895D02*
X174169741Y-101750895D01*
X174169741Y-101750895D02*
X174245932Y-101712800D01*
X174245932Y-101712800D02*
X174284027Y-101674704D01*
X174284027Y-101674704D02*
X174322122Y-101598514D01*
X174322122Y-101598514D02*
X174322122Y-101522323D01*
X174322122Y-101522323D02*
X174284027Y-101446133D01*
X174284027Y-101446133D02*
X174245932Y-101408038D01*
X174245932Y-101408038D02*
X174169741Y-101369942D01*
X174169741Y-101369942D02*
X174017360Y-101331847D01*
X174017360Y-101331847D02*
X173941170Y-101293752D01*
X173941170Y-101293752D02*
X173903075Y-101255657D01*
X173903075Y-101255657D02*
X173864979Y-101179466D01*
X173864979Y-101179466D02*
X173864979Y-101103276D01*
X173864979Y-101103276D02*
X173903075Y-101027085D01*
X173903075Y-101027085D02*
X173941170Y-100988990D01*
X173941170Y-100988990D02*
X174017360Y-100950895D01*
X174017360Y-100950895D02*
X174207837Y-100950895D01*
X174207837Y-100950895D02*
X174322122Y-100988990D01*
X174664980Y-101331847D02*
X174931646Y-101331847D01*
X175045932Y-101750895D02*
X174664980Y-101750895D01*
X174664980Y-101750895D02*
X174664980Y-100950895D01*
X174664980Y-100950895D02*
X175045932Y-100950895D01*
X172849265Y-89000133D02*
X173458789Y-89000133D01*
X173154027Y-89304895D02*
X173154027Y-88695371D01*
X174220693Y-88504895D02*
X173839741Y-88504895D01*
X173839741Y-88504895D02*
X173801645Y-88885847D01*
X173801645Y-88885847D02*
X173839741Y-88847752D01*
X173839741Y-88847752D02*
X173915931Y-88809657D01*
X173915931Y-88809657D02*
X174106407Y-88809657D01*
X174106407Y-88809657D02*
X174182598Y-88847752D01*
X174182598Y-88847752D02*
X174220693Y-88885847D01*
X174220693Y-88885847D02*
X174258788Y-88962038D01*
X174258788Y-88962038D02*
X174258788Y-89152514D01*
X174258788Y-89152514D02*
X174220693Y-89228704D01*
X174220693Y-89228704D02*
X174182598Y-89266800D01*
X174182598Y-89266800D02*
X174106407Y-89304895D01*
X174106407Y-89304895D02*
X173915931Y-89304895D01*
X173915931Y-89304895D02*
X173839741Y-89266800D01*
X173839741Y-89266800D02*
X173801645Y-89228704D01*
X174487360Y-88504895D02*
X174754027Y-89304895D01*
X174754027Y-89304895D02*
X175020693Y-88504895D01*
X172976265Y-97890133D02*
X173585789Y-97890133D01*
X173281027Y-98194895D02*
X173281027Y-97585371D01*
X174347693Y-97394895D02*
X173966741Y-97394895D01*
X173966741Y-97394895D02*
X173928645Y-97775847D01*
X173928645Y-97775847D02*
X173966741Y-97737752D01*
X173966741Y-97737752D02*
X174042931Y-97699657D01*
X174042931Y-97699657D02*
X174233407Y-97699657D01*
X174233407Y-97699657D02*
X174309598Y-97737752D01*
X174309598Y-97737752D02*
X174347693Y-97775847D01*
X174347693Y-97775847D02*
X174385788Y-97852038D01*
X174385788Y-97852038D02*
X174385788Y-98042514D01*
X174385788Y-98042514D02*
X174347693Y-98118704D01*
X174347693Y-98118704D02*
X174309598Y-98156800D01*
X174309598Y-98156800D02*
X174233407Y-98194895D01*
X174233407Y-98194895D02*
X174042931Y-98194895D01*
X174042931Y-98194895D02*
X173966741Y-98156800D01*
X173966741Y-98156800D02*
X173928645Y-98118704D01*
X174614360Y-97394895D02*
X174881027Y-98194895D01*
X174881027Y-98194895D02*
X175147693Y-97394895D01*
X142606895Y-74407020D02*
X142606895Y-73949877D01*
X143406895Y-74178449D02*
X142606895Y-74178449D01*
X143406895Y-73683210D02*
X142606895Y-73683210D01*
X142987847Y-73683210D02*
X142987847Y-73226067D01*
X143406895Y-73226067D02*
X142606895Y-73226067D01*
X143406895Y-72426068D02*
X143406895Y-72883211D01*
X143406895Y-72654639D02*
X142606895Y-72654639D01*
X142606895Y-72654639D02*
X142721180Y-72730830D01*
X142721180Y-72730830D02*
X142797371Y-72807020D01*
X142797371Y-72807020D02*
X142835466Y-72883211D01*
X145654847Y-73391068D02*
X145654847Y-73657734D01*
X146073895Y-73657734D02*
X145273895Y-73657734D01*
X145273895Y-73657734D02*
X145273895Y-73276782D01*
X146073895Y-72552973D02*
X146073895Y-73010116D01*
X146073895Y-72781544D02*
X145273895Y-72781544D01*
X145273895Y-72781544D02*
X145388180Y-72857735D01*
X145388180Y-72857735D02*
X145464371Y-72933925D01*
X145464371Y-72933925D02*
X145502466Y-73010116D01*
X147813895Y-74534020D02*
X147813895Y-74076877D01*
X148613895Y-74305449D02*
X147813895Y-74305449D01*
X148613895Y-73810210D02*
X147813895Y-73810210D01*
X148194847Y-73810210D02*
X148194847Y-73353067D01*
X148613895Y-73353067D02*
X147813895Y-73353067D01*
X147890085Y-73010211D02*
X147851990Y-72972115D01*
X147851990Y-72972115D02*
X147813895Y-72895925D01*
X147813895Y-72895925D02*
X147813895Y-72705449D01*
X147813895Y-72705449D02*
X147851990Y-72629258D01*
X147851990Y-72629258D02*
X147890085Y-72591163D01*
X147890085Y-72591163D02*
X147966276Y-72553068D01*
X147966276Y-72553068D02*
X148042466Y-72553068D01*
X148042466Y-72553068D02*
X148156752Y-72591163D01*
X148156752Y-72591163D02*
X148613895Y-73048306D01*
X148613895Y-73048306D02*
X148613895Y-72553068D01*
X150734847Y-73391068D02*
X150734847Y-73657734D01*
X151153895Y-73657734D02*
X150353895Y-73657734D01*
X150353895Y-73657734D02*
X150353895Y-73276782D01*
X150430085Y-73010116D02*
X150391990Y-72972020D01*
X150391990Y-72972020D02*
X150353895Y-72895830D01*
X150353895Y-72895830D02*
X150353895Y-72705354D01*
X150353895Y-72705354D02*
X150391990Y-72629163D01*
X150391990Y-72629163D02*
X150430085Y-72591068D01*
X150430085Y-72591068D02*
X150506276Y-72552973D01*
X150506276Y-72552973D02*
X150582466Y-72552973D01*
X150582466Y-72552973D02*
X150696752Y-72591068D01*
X150696752Y-72591068D02*
X151153895Y-73048211D01*
X151153895Y-73048211D02*
X151153895Y-72552973D01*
X152893895Y-73632353D02*
X152893895Y-73479972D01*
X152893895Y-73479972D02*
X152931990Y-73403782D01*
X152931990Y-73403782D02*
X153008180Y-73327591D01*
X153008180Y-73327591D02*
X153160561Y-73289496D01*
X153160561Y-73289496D02*
X153427228Y-73289496D01*
X153427228Y-73289496D02*
X153579609Y-73327591D01*
X153579609Y-73327591D02*
X153655800Y-73403782D01*
X153655800Y-73403782D02*
X153693895Y-73479972D01*
X153693895Y-73479972D02*
X153693895Y-73632353D01*
X153693895Y-73632353D02*
X153655800Y-73708544D01*
X153655800Y-73708544D02*
X153579609Y-73784734D01*
X153579609Y-73784734D02*
X153427228Y-73822830D01*
X153427228Y-73822830D02*
X153160561Y-73822830D01*
X153160561Y-73822830D02*
X153008180Y-73784734D01*
X153008180Y-73784734D02*
X152931990Y-73708544D01*
X152931990Y-73708544D02*
X152893895Y-73632353D01*
X153693895Y-72946639D02*
X152893895Y-72946639D01*
X153693895Y-72489496D02*
X153236752Y-72832354D01*
X152893895Y-72489496D02*
X153351038Y-72946639D01*
X156487990Y-74127687D02*
X156449895Y-74203877D01*
X156449895Y-74203877D02*
X156449895Y-74318163D01*
X156449895Y-74318163D02*
X156487990Y-74432449D01*
X156487990Y-74432449D02*
X156564180Y-74508639D01*
X156564180Y-74508639D02*
X156640371Y-74546734D01*
X156640371Y-74546734D02*
X156792752Y-74584830D01*
X156792752Y-74584830D02*
X156907038Y-74584830D01*
X156907038Y-74584830D02*
X157059419Y-74546734D01*
X157059419Y-74546734D02*
X157135609Y-74508639D01*
X157135609Y-74508639D02*
X157211800Y-74432449D01*
X157211800Y-74432449D02*
X157249895Y-74318163D01*
X157249895Y-74318163D02*
X157249895Y-74241972D01*
X157249895Y-74241972D02*
X157211800Y-74127687D01*
X157211800Y-74127687D02*
X157173704Y-74089591D01*
X157173704Y-74089591D02*
X156907038Y-74089591D01*
X156907038Y-74089591D02*
X156907038Y-74241972D01*
X157249895Y-73746734D02*
X156449895Y-73746734D01*
X156449895Y-73746734D02*
X157249895Y-73289591D01*
X157249895Y-73289591D02*
X156449895Y-73289591D01*
X157249895Y-72908639D02*
X156449895Y-72908639D01*
X156449895Y-72908639D02*
X156449895Y-72718163D01*
X156449895Y-72718163D02*
X156487990Y-72603877D01*
X156487990Y-72603877D02*
X156564180Y-72527687D01*
X156564180Y-72527687D02*
X156640371Y-72489592D01*
X156640371Y-72489592D02*
X156792752Y-72451496D01*
X156792752Y-72451496D02*
X156907038Y-72451496D01*
X156907038Y-72451496D02*
X157059419Y-72489592D01*
X157059419Y-72489592D02*
X157135609Y-72527687D01*
X157135609Y-72527687D02*
X157211800Y-72603877D01*
X157211800Y-72603877D02*
X157249895Y-72718163D01*
X157249895Y-72718163D02*
X157249895Y-72908639D01*
X157580133Y-116964734D02*
X157580133Y-116355211D01*
X157884895Y-116659972D02*
X157275371Y-116659972D01*
X157084895Y-115593306D02*
X157084895Y-115974258D01*
X157084895Y-115974258D02*
X157465847Y-116012354D01*
X157465847Y-116012354D02*
X157427752Y-115974258D01*
X157427752Y-115974258D02*
X157389657Y-115898068D01*
X157389657Y-115898068D02*
X157389657Y-115707592D01*
X157389657Y-115707592D02*
X157427752Y-115631401D01*
X157427752Y-115631401D02*
X157465847Y-115593306D01*
X157465847Y-115593306D02*
X157542038Y-115555211D01*
X157542038Y-115555211D02*
X157732514Y-115555211D01*
X157732514Y-115555211D02*
X157808704Y-115593306D01*
X157808704Y-115593306D02*
X157846800Y-115631401D01*
X157846800Y-115631401D02*
X157884895Y-115707592D01*
X157884895Y-115707592D02*
X157884895Y-115898068D01*
X157884895Y-115898068D02*
X157846800Y-115974258D01*
X157846800Y-115974258D02*
X157808704Y-116012354D01*
X157084895Y-115326639D02*
X157884895Y-115059972D01*
X157884895Y-115059972D02*
X157084895Y-114793306D01*
X159497895Y-117345734D02*
X160145514Y-117345734D01*
X160145514Y-117345734D02*
X160221704Y-117307639D01*
X160221704Y-117307639D02*
X160259800Y-117269544D01*
X160259800Y-117269544D02*
X160297895Y-117193353D01*
X160297895Y-117193353D02*
X160297895Y-117040972D01*
X160297895Y-117040972D02*
X160259800Y-116964782D01*
X160259800Y-116964782D02*
X160221704Y-116926687D01*
X160221704Y-116926687D02*
X160145514Y-116888591D01*
X160145514Y-116888591D02*
X159497895Y-116888591D01*
X160297895Y-116507639D02*
X159497895Y-116507639D01*
X159497895Y-116507639D02*
X159497895Y-116202877D01*
X159497895Y-116202877D02*
X159535990Y-116126687D01*
X159535990Y-116126687D02*
X159574085Y-116088592D01*
X159574085Y-116088592D02*
X159650276Y-116050496D01*
X159650276Y-116050496D02*
X159764561Y-116050496D01*
X159764561Y-116050496D02*
X159840752Y-116088592D01*
X159840752Y-116088592D02*
X159878847Y-116126687D01*
X159878847Y-116126687D02*
X159916942Y-116202877D01*
X159916942Y-116202877D02*
X159916942Y-116507639D01*
X160297895Y-115707639D02*
X159497895Y-115707639D01*
X159497895Y-115707639D02*
X159497895Y-115517163D01*
X159497895Y-115517163D02*
X159535990Y-115402877D01*
X159535990Y-115402877D02*
X159612180Y-115326687D01*
X159612180Y-115326687D02*
X159688371Y-115288592D01*
X159688371Y-115288592D02*
X159840752Y-115250496D01*
X159840752Y-115250496D02*
X159955038Y-115250496D01*
X159955038Y-115250496D02*
X160107419Y-115288592D01*
X160107419Y-115288592D02*
X160183609Y-115326687D01*
X160183609Y-115326687D02*
X160259800Y-115402877D01*
X160259800Y-115402877D02*
X160297895Y-115517163D01*
X160297895Y-115517163D02*
X160297895Y-115707639D01*
X160297895Y-114907639D02*
X159497895Y-114907639D01*
X162329990Y-116545687D02*
X162291895Y-116621877D01*
X162291895Y-116621877D02*
X162291895Y-116736163D01*
X162291895Y-116736163D02*
X162329990Y-116850449D01*
X162329990Y-116850449D02*
X162406180Y-116926639D01*
X162406180Y-116926639D02*
X162482371Y-116964734D01*
X162482371Y-116964734D02*
X162634752Y-117002830D01*
X162634752Y-117002830D02*
X162749038Y-117002830D01*
X162749038Y-117002830D02*
X162901419Y-116964734D01*
X162901419Y-116964734D02*
X162977609Y-116926639D01*
X162977609Y-116926639D02*
X163053800Y-116850449D01*
X163053800Y-116850449D02*
X163091895Y-116736163D01*
X163091895Y-116736163D02*
X163091895Y-116659972D01*
X163091895Y-116659972D02*
X163053800Y-116545687D01*
X163053800Y-116545687D02*
X163015704Y-116507591D01*
X163015704Y-116507591D02*
X162749038Y-116507591D01*
X162749038Y-116507591D02*
X162749038Y-116659972D01*
X163091895Y-116164734D02*
X162291895Y-116164734D01*
X162291895Y-116164734D02*
X163091895Y-115707591D01*
X163091895Y-115707591D02*
X162291895Y-115707591D01*
X163091895Y-115326639D02*
X162291895Y-115326639D01*
X162291895Y-115326639D02*
X162291895Y-115136163D01*
X162291895Y-115136163D02*
X162329990Y-115021877D01*
X162329990Y-115021877D02*
X162406180Y-114945687D01*
X162406180Y-114945687D02*
X162482371Y-114907592D01*
X162482371Y-114907592D02*
X162634752Y-114869496D01*
X162634752Y-114869496D02*
X162749038Y-114869496D01*
X162749038Y-114869496D02*
X162901419Y-114907592D01*
X162901419Y-114907592D02*
X162977609Y-114945687D01*
X162977609Y-114945687D02*
X163053800Y-115021877D01*
X163053800Y-115021877D02*
X163091895Y-115136163D01*
X163091895Y-115136163D02*
X163091895Y-115326639D01*
D12*
X120495816Y-115834219D02*
X121067244Y-115834219D01*
X120781530Y-116834219D02*
X120781530Y-115834219D01*
X121400578Y-116834219D02*
X121400578Y-115834219D01*
X121829149Y-116834219D02*
X121829149Y-116310409D01*
X121829149Y-116310409D02*
X121781530Y-116215171D01*
X121781530Y-116215171D02*
X121686292Y-116167552D01*
X121686292Y-116167552D02*
X121543435Y-116167552D01*
X121543435Y-116167552D02*
X121448197Y-116215171D01*
X121448197Y-116215171D02*
X121400578Y-116262790D01*
X122686292Y-116786600D02*
X122591054Y-116834219D01*
X122591054Y-116834219D02*
X122400578Y-116834219D01*
X122400578Y-116834219D02*
X122305340Y-116786600D01*
X122305340Y-116786600D02*
X122257721Y-116691361D01*
X122257721Y-116691361D02*
X122257721Y-116310409D01*
X122257721Y-116310409D02*
X122305340Y-116215171D01*
X122305340Y-116215171D02*
X122400578Y-116167552D01*
X122400578Y-116167552D02*
X122591054Y-116167552D01*
X122591054Y-116167552D02*
X122686292Y-116215171D01*
X122686292Y-116215171D02*
X122733911Y-116310409D01*
X122733911Y-116310409D02*
X122733911Y-116405647D01*
X122733911Y-116405647D02*
X122257721Y-116500885D01*
X123162483Y-116834219D02*
X123162483Y-116167552D01*
X123162483Y-116358028D02*
X123210102Y-116262790D01*
X123210102Y-116262790D02*
X123257721Y-116215171D01*
X123257721Y-116215171D02*
X123352959Y-116167552D01*
X123352959Y-116167552D02*
X123448197Y-116167552D01*
X123781531Y-116834219D02*
X123781531Y-116167552D01*
X123781531Y-116262790D02*
X123829150Y-116215171D01*
X123829150Y-116215171D02*
X123924388Y-116167552D01*
X123924388Y-116167552D02*
X124067245Y-116167552D01*
X124067245Y-116167552D02*
X124162483Y-116215171D01*
X124162483Y-116215171D02*
X124210102Y-116310409D01*
X124210102Y-116310409D02*
X124210102Y-116834219D01*
X124210102Y-116310409D02*
X124257721Y-116215171D01*
X124257721Y-116215171D02*
X124352959Y-116167552D01*
X124352959Y-116167552D02*
X124495816Y-116167552D01*
X124495816Y-116167552D02*
X124591055Y-116215171D01*
X124591055Y-116215171D02*
X124638674Y-116310409D01*
X124638674Y-116310409D02*
X124638674Y-116834219D01*
X125257721Y-116834219D02*
X125162483Y-116786600D01*
X125162483Y-116786600D02*
X125114864Y-116738980D01*
X125114864Y-116738980D02*
X125067245Y-116643742D01*
X125067245Y-116643742D02*
X125067245Y-116358028D01*
X125067245Y-116358028D02*
X125114864Y-116262790D01*
X125114864Y-116262790D02*
X125162483Y-116215171D01*
X125162483Y-116215171D02*
X125257721Y-116167552D01*
X125257721Y-116167552D02*
X125400578Y-116167552D01*
X125400578Y-116167552D02*
X125495816Y-116215171D01*
X125495816Y-116215171D02*
X125543435Y-116262790D01*
X125543435Y-116262790D02*
X125591054Y-116358028D01*
X125591054Y-116358028D02*
X125591054Y-116643742D01*
X125591054Y-116643742D02*
X125543435Y-116738980D01*
X125543435Y-116738980D02*
X125495816Y-116786600D01*
X125495816Y-116786600D02*
X125400578Y-116834219D01*
X125400578Y-116834219D02*
X125257721Y-116834219D01*
X126495816Y-116834219D02*
X126019626Y-116834219D01*
X126019626Y-116834219D02*
X126019626Y-115834219D01*
X126972007Y-116834219D02*
X126876769Y-116786600D01*
X126876769Y-116786600D02*
X126829150Y-116738980D01*
X126829150Y-116738980D02*
X126781531Y-116643742D01*
X126781531Y-116643742D02*
X126781531Y-116358028D01*
X126781531Y-116358028D02*
X126829150Y-116262790D01*
X126829150Y-116262790D02*
X126876769Y-116215171D01*
X126876769Y-116215171D02*
X126972007Y-116167552D01*
X126972007Y-116167552D02*
X127114864Y-116167552D01*
X127114864Y-116167552D02*
X127210102Y-116215171D01*
X127210102Y-116215171D02*
X127257721Y-116262790D01*
X127257721Y-116262790D02*
X127305340Y-116358028D01*
X127305340Y-116358028D02*
X127305340Y-116643742D01*
X127305340Y-116643742D02*
X127257721Y-116738980D01*
X127257721Y-116738980D02*
X127210102Y-116786600D01*
X127210102Y-116786600D02*
X127114864Y-116834219D01*
X127114864Y-116834219D02*
X126972007Y-116834219D01*
X127876769Y-116834219D02*
X127781531Y-116786600D01*
X127781531Y-116786600D02*
X127733912Y-116738980D01*
X127733912Y-116738980D02*
X127686293Y-116643742D01*
X127686293Y-116643742D02*
X127686293Y-116358028D01*
X127686293Y-116358028D02*
X127733912Y-116262790D01*
X127733912Y-116262790D02*
X127781531Y-116215171D01*
X127781531Y-116215171D02*
X127876769Y-116167552D01*
X127876769Y-116167552D02*
X128019626Y-116167552D01*
X128019626Y-116167552D02*
X128114864Y-116215171D01*
X128114864Y-116215171D02*
X128162483Y-116262790D01*
X128162483Y-116262790D02*
X128210102Y-116358028D01*
X128210102Y-116358028D02*
X128210102Y-116643742D01*
X128210102Y-116643742D02*
X128162483Y-116738980D01*
X128162483Y-116738980D02*
X128114864Y-116786600D01*
X128114864Y-116786600D02*
X128019626Y-116834219D01*
X128019626Y-116834219D02*
X127876769Y-116834219D01*
X128638674Y-116167552D02*
X128638674Y-117167552D01*
X128638674Y-116215171D02*
X128733912Y-116167552D01*
X128733912Y-116167552D02*
X128924388Y-116167552D01*
X128924388Y-116167552D02*
X129019626Y-116215171D01*
X129019626Y-116215171D02*
X129067245Y-116262790D01*
X129067245Y-116262790D02*
X129114864Y-116358028D01*
X129114864Y-116358028D02*
X129114864Y-116643742D01*
X129114864Y-116643742D02*
X129067245Y-116738980D01*
X129067245Y-116738980D02*
X129019626Y-116786600D01*
X129019626Y-116786600D02*
X128924388Y-116834219D01*
X128924388Y-116834219D02*
X128733912Y-116834219D01*
X128733912Y-116834219D02*
X128638674Y-116786600D01*
X130305341Y-116834219D02*
X130305341Y-115834219D01*
X130305341Y-116215171D02*
X130400579Y-116167552D01*
X130400579Y-116167552D02*
X130591055Y-116167552D01*
X130591055Y-116167552D02*
X130686293Y-116215171D01*
X130686293Y-116215171D02*
X130733912Y-116262790D01*
X130733912Y-116262790D02*
X130781531Y-116358028D01*
X130781531Y-116358028D02*
X130781531Y-116643742D01*
X130781531Y-116643742D02*
X130733912Y-116738980D01*
X130733912Y-116738980D02*
X130686293Y-116786600D01*
X130686293Y-116786600D02*
X130591055Y-116834219D01*
X130591055Y-116834219D02*
X130400579Y-116834219D01*
X130400579Y-116834219D02*
X130305341Y-116786600D01*
X131114865Y-116167552D02*
X131352960Y-116834219D01*
X131591055Y-116167552D02*
X131352960Y-116834219D01*
X131352960Y-116834219D02*
X131257722Y-117072314D01*
X131257722Y-117072314D02*
X131210103Y-117119933D01*
X131210103Y-117119933D02*
X131114865Y-117167552D01*
D13*
X97202666Y-96990819D02*
X97202666Y-97705104D01*
X97202666Y-97705104D02*
X97155047Y-97847961D01*
X97155047Y-97847961D02*
X97059809Y-97943200D01*
X97059809Y-97943200D02*
X96916952Y-97990819D01*
X96916952Y-97990819D02*
X96821714Y-97990819D01*
X98202666Y-97990819D02*
X97631238Y-97990819D01*
X97916952Y-97990819D02*
X97916952Y-96990819D01*
X97916952Y-96990819D02*
X97821714Y-97133676D01*
X97821714Y-97133676D02*
X97726476Y-97228914D01*
X97726476Y-97228914D02*
X97631238Y-97276533D01*
X153743819Y-81827666D02*
X153267628Y-82160999D01*
X153743819Y-82399094D02*
X152743819Y-82399094D01*
X152743819Y-82399094D02*
X152743819Y-82018142D01*
X152743819Y-82018142D02*
X152791438Y-81922904D01*
X152791438Y-81922904D02*
X152839057Y-81875285D01*
X152839057Y-81875285D02*
X152934295Y-81827666D01*
X152934295Y-81827666D02*
X153077152Y-81827666D01*
X153077152Y-81827666D02*
X153172390Y-81875285D01*
X153172390Y-81875285D02*
X153220009Y-81922904D01*
X153220009Y-81922904D02*
X153267628Y-82018142D01*
X153267628Y-82018142D02*
X153267628Y-82399094D01*
X153743819Y-81351475D02*
X153743819Y-81160999D01*
X153743819Y-81160999D02*
X153696200Y-81065761D01*
X153696200Y-81065761D02*
X153648580Y-81018142D01*
X153648580Y-81018142D02*
X153505723Y-80922904D01*
X153505723Y-80922904D02*
X153315247Y-80875285D01*
X153315247Y-80875285D02*
X152934295Y-80875285D01*
X152934295Y-80875285D02*
X152839057Y-80922904D01*
X152839057Y-80922904D02*
X152791438Y-80970523D01*
X152791438Y-80970523D02*
X152743819Y-81065761D01*
X152743819Y-81065761D02*
X152743819Y-81256237D01*
X152743819Y-81256237D02*
X152791438Y-81351475D01*
X152791438Y-81351475D02*
X152839057Y-81399094D01*
X152839057Y-81399094D02*
X152934295Y-81446713D01*
X152934295Y-81446713D02*
X153172390Y-81446713D01*
X153172390Y-81446713D02*
X153267628Y-81399094D01*
X153267628Y-81399094D02*
X153315247Y-81351475D01*
X153315247Y-81351475D02*
X153362866Y-81256237D01*
X153362866Y-81256237D02*
X153362866Y-81065761D01*
X153362866Y-81065761D02*
X153315247Y-80970523D01*
X153315247Y-80970523D02*
X153267628Y-80922904D01*
X153267628Y-80922904D02*
X153172390Y-80875285D01*
X151203819Y-81922857D02*
X150727628Y-82256190D01*
X151203819Y-82494285D02*
X150203819Y-82494285D01*
X150203819Y-82494285D02*
X150203819Y-82113333D01*
X150203819Y-82113333D02*
X150251438Y-82018095D01*
X150251438Y-82018095D02*
X150299057Y-81970476D01*
X150299057Y-81970476D02*
X150394295Y-81922857D01*
X150394295Y-81922857D02*
X150537152Y-81922857D01*
X150537152Y-81922857D02*
X150632390Y-81970476D01*
X150632390Y-81970476D02*
X150680009Y-82018095D01*
X150680009Y-82018095D02*
X150727628Y-82113333D01*
X150727628Y-82113333D02*
X150727628Y-82494285D01*
X151203819Y-80970476D02*
X151203819Y-81541904D01*
X151203819Y-81256190D02*
X150203819Y-81256190D01*
X150203819Y-81256190D02*
X150346676Y-81351428D01*
X150346676Y-81351428D02*
X150441914Y-81446666D01*
X150441914Y-81446666D02*
X150489533Y-81541904D01*
X150203819Y-80637142D02*
X150203819Y-80018095D01*
X150203819Y-80018095D02*
X150584771Y-80351428D01*
X150584771Y-80351428D02*
X150584771Y-80208571D01*
X150584771Y-80208571D02*
X150632390Y-80113333D01*
X150632390Y-80113333D02*
X150680009Y-80065714D01*
X150680009Y-80065714D02*
X150775247Y-80018095D01*
X150775247Y-80018095D02*
X151013342Y-80018095D01*
X151013342Y-80018095D02*
X151108580Y-80065714D01*
X151108580Y-80065714D02*
X151156200Y-80113333D01*
X151156200Y-80113333D02*
X151203819Y-80208571D01*
X151203819Y-80208571D02*
X151203819Y-80494285D01*
X151203819Y-80494285D02*
X151156200Y-80589523D01*
X151156200Y-80589523D02*
X151108580Y-80637142D01*
X132511895Y-90849119D02*
X132511895Y-91658642D01*
X132511895Y-91658642D02*
X132559514Y-91753880D01*
X132559514Y-91753880D02*
X132607133Y-91801500D01*
X132607133Y-91801500D02*
X132702371Y-91849119D01*
X132702371Y-91849119D02*
X132892847Y-91849119D01*
X132892847Y-91849119D02*
X132988085Y-91801500D01*
X132988085Y-91801500D02*
X133035704Y-91753880D01*
X133035704Y-91753880D02*
X133083323Y-91658642D01*
X133083323Y-91658642D02*
X133083323Y-90849119D01*
X133511895Y-90944357D02*
X133559514Y-90896738D01*
X133559514Y-90896738D02*
X133654752Y-90849119D01*
X133654752Y-90849119D02*
X133892847Y-90849119D01*
X133892847Y-90849119D02*
X133988085Y-90896738D01*
X133988085Y-90896738D02*
X134035704Y-90944357D01*
X134035704Y-90944357D02*
X134083323Y-91039595D01*
X134083323Y-91039595D02*
X134083323Y-91134833D01*
X134083323Y-91134833D02*
X134035704Y-91277690D01*
X134035704Y-91277690D02*
X133464276Y-91849119D01*
X133464276Y-91849119D02*
X134083323Y-91849119D01*
X112426761Y-75734057D02*
X112331523Y-75686438D01*
X112331523Y-75686438D02*
X112236285Y-75591200D01*
X112236285Y-75591200D02*
X112093428Y-75448342D01*
X112093428Y-75448342D02*
X111998190Y-75400723D01*
X111998190Y-75400723D02*
X111902952Y-75400723D01*
X111950571Y-75638819D02*
X111855333Y-75591200D01*
X111855333Y-75591200D02*
X111760095Y-75495961D01*
X111760095Y-75495961D02*
X111712476Y-75305485D01*
X111712476Y-75305485D02*
X111712476Y-74972152D01*
X111712476Y-74972152D02*
X111760095Y-74781676D01*
X111760095Y-74781676D02*
X111855333Y-74686438D01*
X111855333Y-74686438D02*
X111950571Y-74638819D01*
X111950571Y-74638819D02*
X112141047Y-74638819D01*
X112141047Y-74638819D02*
X112236285Y-74686438D01*
X112236285Y-74686438D02*
X112331523Y-74781676D01*
X112331523Y-74781676D02*
X112379142Y-74972152D01*
X112379142Y-74972152D02*
X112379142Y-75305485D01*
X112379142Y-75305485D02*
X112331523Y-75495961D01*
X112331523Y-75495961D02*
X112236285Y-75591200D01*
X112236285Y-75591200D02*
X112141047Y-75638819D01*
X112141047Y-75638819D02*
X111950571Y-75638819D01*
X113331523Y-75638819D02*
X112760095Y-75638819D01*
X113045809Y-75638819D02*
X113045809Y-74638819D01*
X113045809Y-74638819D02*
X112950571Y-74781676D01*
X112950571Y-74781676D02*
X112855333Y-74876914D01*
X112855333Y-74876914D02*
X112760095Y-74924533D01*
X154098666Y-110833819D02*
X154098666Y-111548104D01*
X154098666Y-111548104D02*
X154051047Y-111690961D01*
X154051047Y-111690961D02*
X153955809Y-111786200D01*
X153955809Y-111786200D02*
X153812952Y-111833819D01*
X153812952Y-111833819D02*
X153717714Y-111833819D01*
X155003428Y-110833819D02*
X154812952Y-110833819D01*
X154812952Y-110833819D02*
X154717714Y-110881438D01*
X154717714Y-110881438D02*
X154670095Y-110929057D01*
X154670095Y-110929057D02*
X154574857Y-111071914D01*
X154574857Y-111071914D02*
X154527238Y-111262390D01*
X154527238Y-111262390D02*
X154527238Y-111643342D01*
X154527238Y-111643342D02*
X154574857Y-111738580D01*
X154574857Y-111738580D02*
X154622476Y-111786200D01*
X154622476Y-111786200D02*
X154717714Y-111833819D01*
X154717714Y-111833819D02*
X154908190Y-111833819D01*
X154908190Y-111833819D02*
X155003428Y-111786200D01*
X155003428Y-111786200D02*
X155051047Y-111738580D01*
X155051047Y-111738580D02*
X155098666Y-111643342D01*
X155098666Y-111643342D02*
X155098666Y-111405247D01*
X155098666Y-111405247D02*
X155051047Y-111310009D01*
X155051047Y-111310009D02*
X155003428Y-111262390D01*
X155003428Y-111262390D02*
X154908190Y-111214771D01*
X154908190Y-111214771D02*
X154717714Y-111214771D01*
X154717714Y-111214771D02*
X154622476Y-111262390D01*
X154622476Y-111262390D02*
X154574857Y-111310009D01*
X154574857Y-111310009D02*
X154527238Y-111405247D01*
X121880333Y-97768580D02*
X121832714Y-97816200D01*
X121832714Y-97816200D02*
X121689857Y-97863819D01*
X121689857Y-97863819D02*
X121594619Y-97863819D01*
X121594619Y-97863819D02*
X121451762Y-97816200D01*
X121451762Y-97816200D02*
X121356524Y-97720961D01*
X121356524Y-97720961D02*
X121308905Y-97625723D01*
X121308905Y-97625723D02*
X121261286Y-97435247D01*
X121261286Y-97435247D02*
X121261286Y-97292390D01*
X121261286Y-97292390D02*
X121308905Y-97101914D01*
X121308905Y-97101914D02*
X121356524Y-97006676D01*
X121356524Y-97006676D02*
X121451762Y-96911438D01*
X121451762Y-96911438D02*
X121594619Y-96863819D01*
X121594619Y-96863819D02*
X121689857Y-96863819D01*
X121689857Y-96863819D02*
X121832714Y-96911438D01*
X121832714Y-96911438D02*
X121880333Y-96959057D01*
X122832714Y-97863819D02*
X122261286Y-97863819D01*
X122547000Y-97863819D02*
X122547000Y-96863819D01*
X122547000Y-96863819D02*
X122451762Y-97006676D01*
X122451762Y-97006676D02*
X122356524Y-97101914D01*
X122356524Y-97101914D02*
X122261286Y-97149533D01*
X110577333Y-82550080D02*
X110529714Y-82597700D01*
X110529714Y-82597700D02*
X110386857Y-82645319D01*
X110386857Y-82645319D02*
X110291619Y-82645319D01*
X110291619Y-82645319D02*
X110148762Y-82597700D01*
X110148762Y-82597700D02*
X110053524Y-82502461D01*
X110053524Y-82502461D02*
X110005905Y-82407223D01*
X110005905Y-82407223D02*
X109958286Y-82216747D01*
X109958286Y-82216747D02*
X109958286Y-82073890D01*
X109958286Y-82073890D02*
X110005905Y-81883414D01*
X110005905Y-81883414D02*
X110053524Y-81788176D01*
X110053524Y-81788176D02*
X110148762Y-81692938D01*
X110148762Y-81692938D02*
X110291619Y-81645319D01*
X110291619Y-81645319D02*
X110386857Y-81645319D01*
X110386857Y-81645319D02*
X110529714Y-81692938D01*
X110529714Y-81692938D02*
X110577333Y-81740557D01*
X110910667Y-81645319D02*
X111577333Y-81645319D01*
X111577333Y-81645319D02*
X111148762Y-82645319D01*
X112482333Y-80210819D02*
X112149000Y-79734628D01*
X111910905Y-80210819D02*
X111910905Y-79210819D01*
X111910905Y-79210819D02*
X112291857Y-79210819D01*
X112291857Y-79210819D02*
X112387095Y-79258438D01*
X112387095Y-79258438D02*
X112434714Y-79306057D01*
X112434714Y-79306057D02*
X112482333Y-79401295D01*
X112482333Y-79401295D02*
X112482333Y-79544152D01*
X112482333Y-79544152D02*
X112434714Y-79639390D01*
X112434714Y-79639390D02*
X112387095Y-79687009D01*
X112387095Y-79687009D02*
X112291857Y-79734628D01*
X112291857Y-79734628D02*
X111910905Y-79734628D01*
X113387095Y-79210819D02*
X112910905Y-79210819D01*
X112910905Y-79210819D02*
X112863286Y-79687009D01*
X112863286Y-79687009D02*
X112910905Y-79639390D01*
X112910905Y-79639390D02*
X113006143Y-79591771D01*
X113006143Y-79591771D02*
X113244238Y-79591771D01*
X113244238Y-79591771D02*
X113339476Y-79639390D01*
X113339476Y-79639390D02*
X113387095Y-79687009D01*
X113387095Y-79687009D02*
X113434714Y-79782247D01*
X113434714Y-79782247D02*
X113434714Y-80020342D01*
X113434714Y-80020342D02*
X113387095Y-80115580D01*
X113387095Y-80115580D02*
X113339476Y-80163200D01*
X113339476Y-80163200D02*
X113244238Y-80210819D01*
X113244238Y-80210819D02*
X113006143Y-80210819D01*
X113006143Y-80210819D02*
X112910905Y-80163200D01*
X112910905Y-80163200D02*
X112863286Y-80115580D01*
X109434333Y-96720819D02*
X109101000Y-96244628D01*
X108862905Y-96720819D02*
X108862905Y-95720819D01*
X108862905Y-95720819D02*
X109243857Y-95720819D01*
X109243857Y-95720819D02*
X109339095Y-95768438D01*
X109339095Y-95768438D02*
X109386714Y-95816057D01*
X109386714Y-95816057D02*
X109434333Y-95911295D01*
X109434333Y-95911295D02*
X109434333Y-96054152D01*
X109434333Y-96054152D02*
X109386714Y-96149390D01*
X109386714Y-96149390D02*
X109339095Y-96197009D01*
X109339095Y-96197009D02*
X109243857Y-96244628D01*
X109243857Y-96244628D02*
X108862905Y-96244628D01*
X109767667Y-95720819D02*
X110434333Y-95720819D01*
X110434333Y-95720819D02*
X110005762Y-96720819D01*
X143583819Y-81795857D02*
X143107628Y-82129190D01*
X143583819Y-82367285D02*
X142583819Y-82367285D01*
X142583819Y-82367285D02*
X142583819Y-81986333D01*
X142583819Y-81986333D02*
X142631438Y-81891095D01*
X142631438Y-81891095D02*
X142679057Y-81843476D01*
X142679057Y-81843476D02*
X142774295Y-81795857D01*
X142774295Y-81795857D02*
X142917152Y-81795857D01*
X142917152Y-81795857D02*
X143012390Y-81843476D01*
X143012390Y-81843476D02*
X143060009Y-81891095D01*
X143060009Y-81891095D02*
X143107628Y-81986333D01*
X143107628Y-81986333D02*
X143107628Y-82367285D01*
X143583819Y-80843476D02*
X143583819Y-81414904D01*
X143583819Y-81129190D02*
X142583819Y-81129190D01*
X142583819Y-81129190D02*
X142726676Y-81224428D01*
X142726676Y-81224428D02*
X142821914Y-81319666D01*
X142821914Y-81319666D02*
X142869533Y-81414904D01*
X142583819Y-80224428D02*
X142583819Y-80129190D01*
X142583819Y-80129190D02*
X142631438Y-80033952D01*
X142631438Y-80033952D02*
X142679057Y-79986333D01*
X142679057Y-79986333D02*
X142774295Y-79938714D01*
X142774295Y-79938714D02*
X142964771Y-79891095D01*
X142964771Y-79891095D02*
X143202866Y-79891095D01*
X143202866Y-79891095D02*
X143393342Y-79938714D01*
X143393342Y-79938714D02*
X143488580Y-79986333D01*
X143488580Y-79986333D02*
X143536200Y-80033952D01*
X143536200Y-80033952D02*
X143583819Y-80129190D01*
X143583819Y-80129190D02*
X143583819Y-80224428D01*
X143583819Y-80224428D02*
X143536200Y-80319666D01*
X143536200Y-80319666D02*
X143488580Y-80367285D01*
X143488580Y-80367285D02*
X143393342Y-80414904D01*
X143393342Y-80414904D02*
X143202866Y-80462523D01*
X143202866Y-80462523D02*
X142964771Y-80462523D01*
X142964771Y-80462523D02*
X142774295Y-80414904D01*
X142774295Y-80414904D02*
X142679057Y-80367285D01*
X142679057Y-80367285D02*
X142631438Y-80319666D01*
X142631438Y-80319666D02*
X142583819Y-80224428D01*
X146123819Y-81795857D02*
X145647628Y-82129190D01*
X146123819Y-82367285D02*
X145123819Y-82367285D01*
X145123819Y-82367285D02*
X145123819Y-81986333D01*
X145123819Y-81986333D02*
X145171438Y-81891095D01*
X145171438Y-81891095D02*
X145219057Y-81843476D01*
X145219057Y-81843476D02*
X145314295Y-81795857D01*
X145314295Y-81795857D02*
X145457152Y-81795857D01*
X145457152Y-81795857D02*
X145552390Y-81843476D01*
X145552390Y-81843476D02*
X145600009Y-81891095D01*
X145600009Y-81891095D02*
X145647628Y-81986333D01*
X145647628Y-81986333D02*
X145647628Y-82367285D01*
X146123819Y-80843476D02*
X146123819Y-81414904D01*
X146123819Y-81129190D02*
X145123819Y-81129190D01*
X145123819Y-81129190D02*
X145266676Y-81224428D01*
X145266676Y-81224428D02*
X145361914Y-81319666D01*
X145361914Y-81319666D02*
X145409533Y-81414904D01*
X146123819Y-79891095D02*
X146123819Y-80462523D01*
X146123819Y-80176809D02*
X145123819Y-80176809D01*
X145123819Y-80176809D02*
X145266676Y-80272047D01*
X145266676Y-80272047D02*
X145361914Y-80367285D01*
X145361914Y-80367285D02*
X145409533Y-80462523D01*
X175688666Y-84544819D02*
X175688666Y-85259104D01*
X175688666Y-85259104D02*
X175641047Y-85401961D01*
X175641047Y-85401961D02*
X175545809Y-85497200D01*
X175545809Y-85497200D02*
X175402952Y-85544819D01*
X175402952Y-85544819D02*
X175307714Y-85544819D01*
X176641047Y-84544819D02*
X176164857Y-84544819D01*
X176164857Y-84544819D02*
X176117238Y-85021009D01*
X176117238Y-85021009D02*
X176164857Y-84973390D01*
X176164857Y-84973390D02*
X176260095Y-84925771D01*
X176260095Y-84925771D02*
X176498190Y-84925771D01*
X176498190Y-84925771D02*
X176593428Y-84973390D01*
X176593428Y-84973390D02*
X176641047Y-85021009D01*
X176641047Y-85021009D02*
X176688666Y-85116247D01*
X176688666Y-85116247D02*
X176688666Y-85354342D01*
X176688666Y-85354342D02*
X176641047Y-85449580D01*
X176641047Y-85449580D02*
X176593428Y-85497200D01*
X176593428Y-85497200D02*
X176498190Y-85544819D01*
X176498190Y-85544819D02*
X176260095Y-85544819D01*
X176260095Y-85544819D02*
X176164857Y-85497200D01*
X176164857Y-85497200D02*
X176117238Y-85449580D01*
X152654095Y-91021819D02*
X152654095Y-91831342D01*
X152654095Y-91831342D02*
X152701714Y-91926580D01*
X152701714Y-91926580D02*
X152749333Y-91974200D01*
X152749333Y-91974200D02*
X152844571Y-92021819D01*
X152844571Y-92021819D02*
X153035047Y-92021819D01*
X153035047Y-92021819D02*
X153130285Y-91974200D01*
X153130285Y-91974200D02*
X153177904Y-91926580D01*
X153177904Y-91926580D02*
X153225523Y-91831342D01*
X153225523Y-91831342D02*
X153225523Y-91021819D01*
X154225523Y-92021819D02*
X153654095Y-92021819D01*
X153939809Y-92021819D02*
X153939809Y-91021819D01*
X153939809Y-91021819D02*
X153844571Y-91164676D01*
X153844571Y-91164676D02*
X153749333Y-91259914D01*
X153749333Y-91259914D02*
X153654095Y-91307533D01*
X115276333Y-72717819D02*
X114943000Y-72241628D01*
X114704905Y-72717819D02*
X114704905Y-71717819D01*
X114704905Y-71717819D02*
X115085857Y-71717819D01*
X115085857Y-71717819D02*
X115181095Y-71765438D01*
X115181095Y-71765438D02*
X115228714Y-71813057D01*
X115228714Y-71813057D02*
X115276333Y-71908295D01*
X115276333Y-71908295D02*
X115276333Y-72051152D01*
X115276333Y-72051152D02*
X115228714Y-72146390D01*
X115228714Y-72146390D02*
X115181095Y-72194009D01*
X115181095Y-72194009D02*
X115085857Y-72241628D01*
X115085857Y-72241628D02*
X114704905Y-72241628D01*
X115609667Y-71717819D02*
X116228714Y-71717819D01*
X116228714Y-71717819D02*
X115895381Y-72098771D01*
X115895381Y-72098771D02*
X116038238Y-72098771D01*
X116038238Y-72098771D02*
X116133476Y-72146390D01*
X116133476Y-72146390D02*
X116181095Y-72194009D01*
X116181095Y-72194009D02*
X116228714Y-72289247D01*
X116228714Y-72289247D02*
X116228714Y-72527342D01*
X116228714Y-72527342D02*
X116181095Y-72622580D01*
X116181095Y-72622580D02*
X116133476Y-72670200D01*
X116133476Y-72670200D02*
X116038238Y-72717819D01*
X116038238Y-72717819D02*
X115752524Y-72717819D01*
X115752524Y-72717819D02*
X115657286Y-72670200D01*
X115657286Y-72670200D02*
X115609667Y-72622580D01*
X162139333Y-97641580D02*
X162091714Y-97689200D01*
X162091714Y-97689200D02*
X161948857Y-97736819D01*
X161948857Y-97736819D02*
X161853619Y-97736819D01*
X161853619Y-97736819D02*
X161710762Y-97689200D01*
X161710762Y-97689200D02*
X161615524Y-97593961D01*
X161615524Y-97593961D02*
X161567905Y-97498723D01*
X161567905Y-97498723D02*
X161520286Y-97308247D01*
X161520286Y-97308247D02*
X161520286Y-97165390D01*
X161520286Y-97165390D02*
X161567905Y-96974914D01*
X161567905Y-96974914D02*
X161615524Y-96879676D01*
X161615524Y-96879676D02*
X161710762Y-96784438D01*
X161710762Y-96784438D02*
X161853619Y-96736819D01*
X161853619Y-96736819D02*
X161948857Y-96736819D01*
X161948857Y-96736819D02*
X162091714Y-96784438D01*
X162091714Y-96784438D02*
X162139333Y-96832057D01*
X163044095Y-96736819D02*
X162567905Y-96736819D01*
X162567905Y-96736819D02*
X162520286Y-97213009D01*
X162520286Y-97213009D02*
X162567905Y-97165390D01*
X162567905Y-97165390D02*
X162663143Y-97117771D01*
X162663143Y-97117771D02*
X162901238Y-97117771D01*
X162901238Y-97117771D02*
X162996476Y-97165390D01*
X162996476Y-97165390D02*
X163044095Y-97213009D01*
X163044095Y-97213009D02*
X163091714Y-97308247D01*
X163091714Y-97308247D02*
X163091714Y-97546342D01*
X163091714Y-97546342D02*
X163044095Y-97641580D01*
X163044095Y-97641580D02*
X162996476Y-97689200D01*
X162996476Y-97689200D02*
X162901238Y-97736819D01*
X162901238Y-97736819D02*
X162663143Y-97736819D01*
X162663143Y-97736819D02*
X162567905Y-97689200D01*
X162567905Y-97689200D02*
X162520286Y-97641580D01*
X162044142Y-105737819D02*
X161710809Y-105261628D01*
X161472714Y-105737819D02*
X161472714Y-104737819D01*
X161472714Y-104737819D02*
X161853666Y-104737819D01*
X161853666Y-104737819D02*
X161948904Y-104785438D01*
X161948904Y-104785438D02*
X161996523Y-104833057D01*
X161996523Y-104833057D02*
X162044142Y-104928295D01*
X162044142Y-104928295D02*
X162044142Y-105071152D01*
X162044142Y-105071152D02*
X161996523Y-105166390D01*
X161996523Y-105166390D02*
X161948904Y-105214009D01*
X161948904Y-105214009D02*
X161853666Y-105261628D01*
X161853666Y-105261628D02*
X161472714Y-105261628D01*
X162996523Y-105737819D02*
X162425095Y-105737819D01*
X162710809Y-105737819D02*
X162710809Y-104737819D01*
X162710809Y-104737819D02*
X162615571Y-104880676D01*
X162615571Y-104880676D02*
X162520333Y-104975914D01*
X162520333Y-104975914D02*
X162425095Y-105023533D01*
X163853666Y-105071152D02*
X163853666Y-105737819D01*
X163615571Y-104690200D02*
X163377476Y-105404485D01*
X163377476Y-105404485D02*
X163996523Y-105404485D01*
X175688666Y-103975819D02*
X175688666Y-104690104D01*
X175688666Y-104690104D02*
X175641047Y-104832961D01*
X175641047Y-104832961D02*
X175545809Y-104928200D01*
X175545809Y-104928200D02*
X175402952Y-104975819D01*
X175402952Y-104975819D02*
X175307714Y-104975819D01*
X176593428Y-104309152D02*
X176593428Y-104975819D01*
X176355333Y-103928200D02*
X176117238Y-104642485D01*
X176117238Y-104642485D02*
X176736285Y-104642485D01*
X98980666Y-72860819D02*
X98980666Y-73575104D01*
X98980666Y-73575104D02*
X98933047Y-73717961D01*
X98933047Y-73717961D02*
X98837809Y-73813200D01*
X98837809Y-73813200D02*
X98694952Y-73860819D01*
X98694952Y-73860819D02*
X98599714Y-73860819D01*
X99409238Y-72956057D02*
X99456857Y-72908438D01*
X99456857Y-72908438D02*
X99552095Y-72860819D01*
X99552095Y-72860819D02*
X99790190Y-72860819D01*
X99790190Y-72860819D02*
X99885428Y-72908438D01*
X99885428Y-72908438D02*
X99933047Y-72956057D01*
X99933047Y-72956057D02*
X99980666Y-73051295D01*
X99980666Y-73051295D02*
X99980666Y-73146533D01*
X99980666Y-73146533D02*
X99933047Y-73289390D01*
X99933047Y-73289390D02*
X99361619Y-73860819D01*
X99361619Y-73860819D02*
X99980666Y-73860819D01*
X162012333Y-100911819D02*
X161679000Y-100435628D01*
X161440905Y-100911819D02*
X161440905Y-99911819D01*
X161440905Y-99911819D02*
X161821857Y-99911819D01*
X161821857Y-99911819D02*
X161917095Y-99959438D01*
X161917095Y-99959438D02*
X161964714Y-100007057D01*
X161964714Y-100007057D02*
X162012333Y-100102295D01*
X162012333Y-100102295D02*
X162012333Y-100245152D01*
X162012333Y-100245152D02*
X161964714Y-100340390D01*
X161964714Y-100340390D02*
X161917095Y-100388009D01*
X161917095Y-100388009D02*
X161821857Y-100435628D01*
X161821857Y-100435628D02*
X161440905Y-100435628D01*
X162964714Y-100911819D02*
X162393286Y-100911819D01*
X162679000Y-100911819D02*
X162679000Y-99911819D01*
X162679000Y-99911819D02*
X162583762Y-100054676D01*
X162583762Y-100054676D02*
X162488524Y-100149914D01*
X162488524Y-100149914D02*
X162393286Y-100197533D01*
X104203667Y-68272819D02*
X104203667Y-67272819D01*
X104203667Y-67272819D02*
X104537000Y-67987104D01*
X104537000Y-67987104D02*
X104870333Y-67272819D01*
X104870333Y-67272819D02*
X104870333Y-68272819D01*
X105346524Y-68272819D02*
X105346524Y-67272819D01*
X105346524Y-67749009D02*
X105917952Y-67749009D01*
X105917952Y-68272819D02*
X105917952Y-67272819D01*
X106917952Y-68272819D02*
X106346524Y-68272819D01*
X106632238Y-68272819D02*
X106632238Y-67272819D01*
X106632238Y-67272819D02*
X106537000Y-67415676D01*
X106537000Y-67415676D02*
X106441762Y-67510914D01*
X106441762Y-67510914D02*
X106346524Y-67558533D01*
X148663819Y-81922857D02*
X148187628Y-82256190D01*
X148663819Y-82494285D02*
X147663819Y-82494285D01*
X147663819Y-82494285D02*
X147663819Y-82113333D01*
X147663819Y-82113333D02*
X147711438Y-82018095D01*
X147711438Y-82018095D02*
X147759057Y-81970476D01*
X147759057Y-81970476D02*
X147854295Y-81922857D01*
X147854295Y-81922857D02*
X147997152Y-81922857D01*
X147997152Y-81922857D02*
X148092390Y-81970476D01*
X148092390Y-81970476D02*
X148140009Y-82018095D01*
X148140009Y-82018095D02*
X148187628Y-82113333D01*
X148187628Y-82113333D02*
X148187628Y-82494285D01*
X148663819Y-80970476D02*
X148663819Y-81541904D01*
X148663819Y-81256190D02*
X147663819Y-81256190D01*
X147663819Y-81256190D02*
X147806676Y-81351428D01*
X147806676Y-81351428D02*
X147901914Y-81446666D01*
X147901914Y-81446666D02*
X147949533Y-81541904D01*
X147759057Y-80589523D02*
X147711438Y-80541904D01*
X147711438Y-80541904D02*
X147663819Y-80446666D01*
X147663819Y-80446666D02*
X147663819Y-80208571D01*
X147663819Y-80208571D02*
X147711438Y-80113333D01*
X147711438Y-80113333D02*
X147759057Y-80065714D01*
X147759057Y-80065714D02*
X147854295Y-80018095D01*
X147854295Y-80018095D02*
X147949533Y-80018095D01*
X147949533Y-80018095D02*
X148092390Y-80065714D01*
X148092390Y-80065714D02*
X148663819Y-80637142D01*
X148663819Y-80637142D02*
X148663819Y-80018095D01*
X112553761Y-103547057D02*
X112458523Y-103499438D01*
X112458523Y-103499438D02*
X112363285Y-103404200D01*
X112363285Y-103404200D02*
X112220428Y-103261342D01*
X112220428Y-103261342D02*
X112125190Y-103213723D01*
X112125190Y-103213723D02*
X112029952Y-103213723D01*
X112077571Y-103451819D02*
X111982333Y-103404200D01*
X111982333Y-103404200D02*
X111887095Y-103308961D01*
X111887095Y-103308961D02*
X111839476Y-103118485D01*
X111839476Y-103118485D02*
X111839476Y-102785152D01*
X111839476Y-102785152D02*
X111887095Y-102594676D01*
X111887095Y-102594676D02*
X111982333Y-102499438D01*
X111982333Y-102499438D02*
X112077571Y-102451819D01*
X112077571Y-102451819D02*
X112268047Y-102451819D01*
X112268047Y-102451819D02*
X112363285Y-102499438D01*
X112363285Y-102499438D02*
X112458523Y-102594676D01*
X112458523Y-102594676D02*
X112506142Y-102785152D01*
X112506142Y-102785152D02*
X112506142Y-103118485D01*
X112506142Y-103118485D02*
X112458523Y-103308961D01*
X112458523Y-103308961D02*
X112363285Y-103404200D01*
X112363285Y-103404200D02*
X112268047Y-103451819D01*
X112268047Y-103451819D02*
X112077571Y-103451819D01*
X112887095Y-102547057D02*
X112934714Y-102499438D01*
X112934714Y-102499438D02*
X113029952Y-102451819D01*
X113029952Y-102451819D02*
X113268047Y-102451819D01*
X113268047Y-102451819D02*
X113363285Y-102499438D01*
X113363285Y-102499438D02*
X113410904Y-102547057D01*
X113410904Y-102547057D02*
X113458523Y-102642295D01*
X113458523Y-102642295D02*
X113458523Y-102737533D01*
X113458523Y-102737533D02*
X113410904Y-102880390D01*
X113410904Y-102880390D02*
X112839476Y-103451819D01*
X112839476Y-103451819D02*
X113458523Y-103451819D01*
X115133333Y-99800819D02*
X114800000Y-99324628D01*
X114561905Y-99800819D02*
X114561905Y-98800819D01*
X114561905Y-98800819D02*
X114942857Y-98800819D01*
X114942857Y-98800819D02*
X115038095Y-98848438D01*
X115038095Y-98848438D02*
X115085714Y-98896057D01*
X115085714Y-98896057D02*
X115133333Y-98991295D01*
X115133333Y-98991295D02*
X115133333Y-99134152D01*
X115133333Y-99134152D02*
X115085714Y-99229390D01*
X115085714Y-99229390D02*
X115038095Y-99277009D01*
X115038095Y-99277009D02*
X114942857Y-99324628D01*
X114942857Y-99324628D02*
X114561905Y-99324628D01*
X115704762Y-99229390D02*
X115609524Y-99181771D01*
X115609524Y-99181771D02*
X115561905Y-99134152D01*
X115561905Y-99134152D02*
X115514286Y-99038914D01*
X115514286Y-99038914D02*
X115514286Y-98991295D01*
X115514286Y-98991295D02*
X115561905Y-98896057D01*
X115561905Y-98896057D02*
X115609524Y-98848438D01*
X115609524Y-98848438D02*
X115704762Y-98800819D01*
X115704762Y-98800819D02*
X115895238Y-98800819D01*
X115895238Y-98800819D02*
X115990476Y-98848438D01*
X115990476Y-98848438D02*
X116038095Y-98896057D01*
X116038095Y-98896057D02*
X116085714Y-98991295D01*
X116085714Y-98991295D02*
X116085714Y-99038914D01*
X116085714Y-99038914D02*
X116038095Y-99134152D01*
X116038095Y-99134152D02*
X115990476Y-99181771D01*
X115990476Y-99181771D02*
X115895238Y-99229390D01*
X115895238Y-99229390D02*
X115704762Y-99229390D01*
X115704762Y-99229390D02*
X115609524Y-99277009D01*
X115609524Y-99277009D02*
X115561905Y-99324628D01*
X115561905Y-99324628D02*
X115514286Y-99419866D01*
X115514286Y-99419866D02*
X115514286Y-99610342D01*
X115514286Y-99610342D02*
X115561905Y-99705580D01*
X115561905Y-99705580D02*
X115609524Y-99753200D01*
X115609524Y-99753200D02*
X115704762Y-99800819D01*
X115704762Y-99800819D02*
X115895238Y-99800819D01*
X115895238Y-99800819D02*
X115990476Y-99753200D01*
X115990476Y-99753200D02*
X116038095Y-99705580D01*
X116038095Y-99705580D02*
X116085714Y-99610342D01*
X116085714Y-99610342D02*
X116085714Y-99419866D01*
X116085714Y-99419866D02*
X116038095Y-99324628D01*
X116038095Y-99324628D02*
X115990476Y-99277009D01*
X115990476Y-99277009D02*
X115895238Y-99229390D01*
X172910667Y-118437819D02*
X172910667Y-117437819D01*
X172910667Y-117437819D02*
X173244000Y-118152104D01*
X173244000Y-118152104D02*
X173577333Y-117437819D01*
X173577333Y-117437819D02*
X173577333Y-118437819D01*
X174053524Y-118437819D02*
X174053524Y-117437819D01*
X174053524Y-117914009D02*
X174624952Y-117914009D01*
X174624952Y-118437819D02*
X174624952Y-117437819D01*
X175005905Y-117437819D02*
X175624952Y-117437819D01*
X175624952Y-117437819D02*
X175291619Y-117818771D01*
X175291619Y-117818771D02*
X175434476Y-117818771D01*
X175434476Y-117818771D02*
X175529714Y-117866390D01*
X175529714Y-117866390D02*
X175577333Y-117914009D01*
X175577333Y-117914009D02*
X175624952Y-118009247D01*
X175624952Y-118009247D02*
X175624952Y-118247342D01*
X175624952Y-118247342D02*
X175577333Y-118342580D01*
X175577333Y-118342580D02*
X175529714Y-118390200D01*
X175529714Y-118390200D02*
X175434476Y-118437819D01*
X175434476Y-118437819D02*
X175148762Y-118437819D01*
X175148762Y-118437819D02*
X175053524Y-118390200D01*
X175053524Y-118390200D02*
X175005905Y-118342580D01*
X104076667Y-118437819D02*
X104076667Y-117437819D01*
X104076667Y-117437819D02*
X104410000Y-118152104D01*
X104410000Y-118152104D02*
X104743333Y-117437819D01*
X104743333Y-117437819D02*
X104743333Y-118437819D01*
X105219524Y-118437819D02*
X105219524Y-117437819D01*
X105219524Y-117914009D02*
X105790952Y-117914009D01*
X105790952Y-118437819D02*
X105790952Y-117437819D01*
X106695714Y-117771152D02*
X106695714Y-118437819D01*
X106457619Y-117390200D02*
X106219524Y-118104485D01*
X106219524Y-118104485D02*
X106838571Y-118104485D01*
X132675333Y-98403580D02*
X132627714Y-98451200D01*
X132627714Y-98451200D02*
X132484857Y-98498819D01*
X132484857Y-98498819D02*
X132389619Y-98498819D01*
X132389619Y-98498819D02*
X132246762Y-98451200D01*
X132246762Y-98451200D02*
X132151524Y-98355961D01*
X132151524Y-98355961D02*
X132103905Y-98260723D01*
X132103905Y-98260723D02*
X132056286Y-98070247D01*
X132056286Y-98070247D02*
X132056286Y-97927390D01*
X132056286Y-97927390D02*
X132103905Y-97736914D01*
X132103905Y-97736914D02*
X132151524Y-97641676D01*
X132151524Y-97641676D02*
X132246762Y-97546438D01*
X132246762Y-97546438D02*
X132389619Y-97498819D01*
X132389619Y-97498819D02*
X132484857Y-97498819D01*
X132484857Y-97498819D02*
X132627714Y-97546438D01*
X132627714Y-97546438D02*
X132675333Y-97594057D01*
X133056286Y-97594057D02*
X133103905Y-97546438D01*
X133103905Y-97546438D02*
X133199143Y-97498819D01*
X133199143Y-97498819D02*
X133437238Y-97498819D01*
X133437238Y-97498819D02*
X133532476Y-97546438D01*
X133532476Y-97546438D02*
X133580095Y-97594057D01*
X133580095Y-97594057D02*
X133627714Y-97689295D01*
X133627714Y-97689295D02*
X133627714Y-97784533D01*
X133627714Y-97784533D02*
X133580095Y-97927390D01*
X133580095Y-97927390D02*
X133008667Y-98498819D01*
X133008667Y-98498819D02*
X133627714Y-98498819D01*
X112482333Y-107134819D02*
X112149000Y-106658628D01*
X111910905Y-107134819D02*
X111910905Y-106134819D01*
X111910905Y-106134819D02*
X112291857Y-106134819D01*
X112291857Y-106134819D02*
X112387095Y-106182438D01*
X112387095Y-106182438D02*
X112434714Y-106230057D01*
X112434714Y-106230057D02*
X112482333Y-106325295D01*
X112482333Y-106325295D02*
X112482333Y-106468152D01*
X112482333Y-106468152D02*
X112434714Y-106563390D01*
X112434714Y-106563390D02*
X112387095Y-106611009D01*
X112387095Y-106611009D02*
X112291857Y-106658628D01*
X112291857Y-106658628D02*
X111910905Y-106658628D01*
X113339476Y-106134819D02*
X113149000Y-106134819D01*
X113149000Y-106134819D02*
X113053762Y-106182438D01*
X113053762Y-106182438D02*
X113006143Y-106230057D01*
X113006143Y-106230057D02*
X112910905Y-106372914D01*
X112910905Y-106372914D02*
X112863286Y-106563390D01*
X112863286Y-106563390D02*
X112863286Y-106944342D01*
X112863286Y-106944342D02*
X112910905Y-107039580D01*
X112910905Y-107039580D02*
X112958524Y-107087200D01*
X112958524Y-107087200D02*
X113053762Y-107134819D01*
X113053762Y-107134819D02*
X113244238Y-107134819D01*
X113244238Y-107134819D02*
X113339476Y-107087200D01*
X113339476Y-107087200D02*
X113387095Y-107039580D01*
X113387095Y-107039580D02*
X113434714Y-106944342D01*
X113434714Y-106944342D02*
X113434714Y-106706247D01*
X113434714Y-106706247D02*
X113387095Y-106611009D01*
X113387095Y-106611009D02*
X113339476Y-106563390D01*
X113339476Y-106563390D02*
X113244238Y-106515771D01*
X113244238Y-106515771D02*
X113053762Y-106515771D01*
X113053762Y-106515771D02*
X112958524Y-106563390D01*
X112958524Y-106563390D02*
X112910905Y-106611009D01*
X112910905Y-106611009D02*
X112863286Y-106706247D01*
X121689905Y-87830819D02*
X121689905Y-86830819D01*
X121689905Y-86830819D02*
X121928000Y-86830819D01*
X121928000Y-86830819D02*
X122070857Y-86878438D01*
X122070857Y-86878438D02*
X122166095Y-86973676D01*
X122166095Y-86973676D02*
X122213714Y-87068914D01*
X122213714Y-87068914D02*
X122261333Y-87259390D01*
X122261333Y-87259390D02*
X122261333Y-87402247D01*
X122261333Y-87402247D02*
X122213714Y-87592723D01*
X122213714Y-87592723D02*
X122166095Y-87687961D01*
X122166095Y-87687961D02*
X122070857Y-87783200D01*
X122070857Y-87783200D02*
X121928000Y-87830819D01*
X121928000Y-87830819D02*
X121689905Y-87830819D01*
X123213714Y-87830819D02*
X122642286Y-87830819D01*
X122928000Y-87830819D02*
X122928000Y-86830819D01*
X122928000Y-86830819D02*
X122832762Y-86973676D01*
X122832762Y-86973676D02*
X122737524Y-87068914D01*
X122737524Y-87068914D02*
X122642286Y-87116533D01*
X142191333Y-94869080D02*
X142143714Y-94916700D01*
X142143714Y-94916700D02*
X142000857Y-94964319D01*
X142000857Y-94964319D02*
X141905619Y-94964319D01*
X141905619Y-94964319D02*
X141762762Y-94916700D01*
X141762762Y-94916700D02*
X141667524Y-94821461D01*
X141667524Y-94821461D02*
X141619905Y-94726223D01*
X141619905Y-94726223D02*
X141572286Y-94535747D01*
X141572286Y-94535747D02*
X141572286Y-94392890D01*
X141572286Y-94392890D02*
X141619905Y-94202414D01*
X141619905Y-94202414D02*
X141667524Y-94107176D01*
X141667524Y-94107176D02*
X141762762Y-94011938D01*
X141762762Y-94011938D02*
X141905619Y-93964319D01*
X141905619Y-93964319D02*
X142000857Y-93964319D01*
X142000857Y-93964319D02*
X142143714Y-94011938D01*
X142143714Y-94011938D02*
X142191333Y-94059557D01*
X143048476Y-94297652D02*
X143048476Y-94964319D01*
X142810381Y-93916700D02*
X142572286Y-94630985D01*
X142572286Y-94630985D02*
X143191333Y-94630985D01*
X98599666Y-112992819D02*
X98599666Y-113707104D01*
X98599666Y-113707104D02*
X98552047Y-113849961D01*
X98552047Y-113849961D02*
X98456809Y-113945200D01*
X98456809Y-113945200D02*
X98313952Y-113992819D01*
X98313952Y-113992819D02*
X98218714Y-113992819D01*
X98980619Y-112992819D02*
X99599666Y-112992819D01*
X99599666Y-112992819D02*
X99266333Y-113373771D01*
X99266333Y-113373771D02*
X99409190Y-113373771D01*
X99409190Y-113373771D02*
X99504428Y-113421390D01*
X99504428Y-113421390D02*
X99552047Y-113469009D01*
X99552047Y-113469009D02*
X99599666Y-113564247D01*
X99599666Y-113564247D02*
X99599666Y-113802342D01*
X99599666Y-113802342D02*
X99552047Y-113897580D01*
X99552047Y-113897580D02*
X99504428Y-113945200D01*
X99504428Y-113945200D02*
X99409190Y-113992819D01*
X99409190Y-113992819D02*
X99123476Y-113992819D01*
X99123476Y-113992819D02*
X99028238Y-113945200D01*
X99028238Y-113945200D02*
X98980619Y-113897580D01*
X162165533Y-95170980D02*
X162117914Y-95218600D01*
X162117914Y-95218600D02*
X161975057Y-95266219D01*
X161975057Y-95266219D02*
X161879819Y-95266219D01*
X161879819Y-95266219D02*
X161736962Y-95218600D01*
X161736962Y-95218600D02*
X161641724Y-95123361D01*
X161641724Y-95123361D02*
X161594105Y-95028123D01*
X161594105Y-95028123D02*
X161546486Y-94837647D01*
X161546486Y-94837647D02*
X161546486Y-94694790D01*
X161546486Y-94694790D02*
X161594105Y-94504314D01*
X161594105Y-94504314D02*
X161641724Y-94409076D01*
X161641724Y-94409076D02*
X161736962Y-94313838D01*
X161736962Y-94313838D02*
X161879819Y-94266219D01*
X161879819Y-94266219D02*
X161975057Y-94266219D01*
X161975057Y-94266219D02*
X162117914Y-94313838D01*
X162117914Y-94313838D02*
X162165533Y-94361457D01*
X163022676Y-94266219D02*
X162832200Y-94266219D01*
X162832200Y-94266219D02*
X162736962Y-94313838D01*
X162736962Y-94313838D02*
X162689343Y-94361457D01*
X162689343Y-94361457D02*
X162594105Y-94504314D01*
X162594105Y-94504314D02*
X162546486Y-94694790D01*
X162546486Y-94694790D02*
X162546486Y-95075742D01*
X162546486Y-95075742D02*
X162594105Y-95170980D01*
X162594105Y-95170980D02*
X162641724Y-95218600D01*
X162641724Y-95218600D02*
X162736962Y-95266219D01*
X162736962Y-95266219D02*
X162927438Y-95266219D01*
X162927438Y-95266219D02*
X163022676Y-95218600D01*
X163022676Y-95218600D02*
X163070295Y-95170980D01*
X163070295Y-95170980D02*
X163117914Y-95075742D01*
X163117914Y-95075742D02*
X163117914Y-94837647D01*
X163117914Y-94837647D02*
X163070295Y-94742409D01*
X163070295Y-94742409D02*
X163022676Y-94694790D01*
X163022676Y-94694790D02*
X162927438Y-94647171D01*
X162927438Y-94647171D02*
X162736962Y-94647171D01*
X162736962Y-94647171D02*
X162641724Y-94694790D01*
X162641724Y-94694790D02*
X162594105Y-94742409D01*
X162594105Y-94742409D02*
X162546486Y-94837647D01*
X126769905Y-93418819D02*
X126769905Y-92418819D01*
X126769905Y-92418819D02*
X127008000Y-92418819D01*
X127008000Y-92418819D02*
X127150857Y-92466438D01*
X127150857Y-92466438D02*
X127246095Y-92561676D01*
X127246095Y-92561676D02*
X127293714Y-92656914D01*
X127293714Y-92656914D02*
X127341333Y-92847390D01*
X127341333Y-92847390D02*
X127341333Y-92990247D01*
X127341333Y-92990247D02*
X127293714Y-93180723D01*
X127293714Y-93180723D02*
X127246095Y-93275961D01*
X127246095Y-93275961D02*
X127150857Y-93371200D01*
X127150857Y-93371200D02*
X127008000Y-93418819D01*
X127008000Y-93418819D02*
X126769905Y-93418819D01*
X127722286Y-92514057D02*
X127769905Y-92466438D01*
X127769905Y-92466438D02*
X127865143Y-92418819D01*
X127865143Y-92418819D02*
X128103238Y-92418819D01*
X128103238Y-92418819D02*
X128198476Y-92466438D01*
X128198476Y-92466438D02*
X128246095Y-92514057D01*
X128246095Y-92514057D02*
X128293714Y-92609295D01*
X128293714Y-92609295D02*
X128293714Y-92704533D01*
X128293714Y-92704533D02*
X128246095Y-92847390D01*
X128246095Y-92847390D02*
X127674667Y-93418819D01*
X127674667Y-93418819D02*
X128293714Y-93418819D01*
X133437333Y-95482580D02*
X133389714Y-95530200D01*
X133389714Y-95530200D02*
X133246857Y-95577819D01*
X133246857Y-95577819D02*
X133151619Y-95577819D01*
X133151619Y-95577819D02*
X133008762Y-95530200D01*
X133008762Y-95530200D02*
X132913524Y-95434961D01*
X132913524Y-95434961D02*
X132865905Y-95339723D01*
X132865905Y-95339723D02*
X132818286Y-95149247D01*
X132818286Y-95149247D02*
X132818286Y-95006390D01*
X132818286Y-95006390D02*
X132865905Y-94815914D01*
X132865905Y-94815914D02*
X132913524Y-94720676D01*
X132913524Y-94720676D02*
X133008762Y-94625438D01*
X133008762Y-94625438D02*
X133151619Y-94577819D01*
X133151619Y-94577819D02*
X133246857Y-94577819D01*
X133246857Y-94577819D02*
X133389714Y-94625438D01*
X133389714Y-94625438D02*
X133437333Y-94673057D01*
X133770667Y-94577819D02*
X134389714Y-94577819D01*
X134389714Y-94577819D02*
X134056381Y-94958771D01*
X134056381Y-94958771D02*
X134199238Y-94958771D01*
X134199238Y-94958771D02*
X134294476Y-95006390D01*
X134294476Y-95006390D02*
X134342095Y-95054009D01*
X134342095Y-95054009D02*
X134389714Y-95149247D01*
X134389714Y-95149247D02*
X134389714Y-95387342D01*
X134389714Y-95387342D02*
X134342095Y-95482580D01*
X134342095Y-95482580D02*
X134294476Y-95530200D01*
X134294476Y-95530200D02*
X134199238Y-95577819D01*
X134199238Y-95577819D02*
X133913524Y-95577819D01*
X133913524Y-95577819D02*
X133818286Y-95530200D01*
X133818286Y-95530200D02*
X133770667Y-95482580D01*
X162139333Y-91894819D02*
X161806000Y-91418628D01*
X161567905Y-91894819D02*
X161567905Y-90894819D01*
X161567905Y-90894819D02*
X161948857Y-90894819D01*
X161948857Y-90894819D02*
X162044095Y-90942438D01*
X162044095Y-90942438D02*
X162091714Y-90990057D01*
X162091714Y-90990057D02*
X162139333Y-91085295D01*
X162139333Y-91085295D02*
X162139333Y-91228152D01*
X162139333Y-91228152D02*
X162091714Y-91323390D01*
X162091714Y-91323390D02*
X162044095Y-91371009D01*
X162044095Y-91371009D02*
X161948857Y-91418628D01*
X161948857Y-91418628D02*
X161567905Y-91418628D01*
X162520286Y-90990057D02*
X162567905Y-90942438D01*
X162567905Y-90942438D02*
X162663143Y-90894819D01*
X162663143Y-90894819D02*
X162901238Y-90894819D01*
X162901238Y-90894819D02*
X162996476Y-90942438D01*
X162996476Y-90942438D02*
X163044095Y-90990057D01*
X163044095Y-90990057D02*
X163091714Y-91085295D01*
X163091714Y-91085295D02*
X163091714Y-91180533D01*
X163091714Y-91180533D02*
X163044095Y-91323390D01*
X163044095Y-91323390D02*
X162472667Y-91894819D01*
X162472667Y-91894819D02*
X163091714Y-91894819D01*
X109418333Y-69288819D02*
X109085000Y-68812628D01*
X108846905Y-69288819D02*
X108846905Y-68288819D01*
X108846905Y-68288819D02*
X109227857Y-68288819D01*
X109227857Y-68288819D02*
X109323095Y-68336438D01*
X109323095Y-68336438D02*
X109370714Y-68384057D01*
X109370714Y-68384057D02*
X109418333Y-68479295D01*
X109418333Y-68479295D02*
X109418333Y-68622152D01*
X109418333Y-68622152D02*
X109370714Y-68717390D01*
X109370714Y-68717390D02*
X109323095Y-68765009D01*
X109323095Y-68765009D02*
X109227857Y-68812628D01*
X109227857Y-68812628D02*
X108846905Y-68812628D01*
X110275476Y-68622152D02*
X110275476Y-69288819D01*
X110037381Y-68241200D02*
X109799286Y-68955485D01*
X109799286Y-68955485D02*
X110418333Y-68955485D01*
X111807666Y-84259009D02*
X111474333Y-84259009D01*
X111474333Y-84782819D02*
X111474333Y-83782819D01*
X111474333Y-83782819D02*
X111950523Y-83782819D01*
X112855285Y-84782819D02*
X112283857Y-84782819D01*
X112569571Y-84782819D02*
X112569571Y-83782819D01*
X112569571Y-83782819D02*
X112474333Y-83925676D01*
X112474333Y-83925676D02*
X112379095Y-84020914D01*
X112379095Y-84020914D02*
X112283857Y-84068533D01*
X139493666Y-68034819D02*
X139493666Y-68749104D01*
X139493666Y-68749104D02*
X139446047Y-68891961D01*
X139446047Y-68891961D02*
X139350809Y-68987200D01*
X139350809Y-68987200D02*
X139207952Y-69034819D01*
X139207952Y-69034819D02*
X139112714Y-69034819D01*
X139874619Y-68034819D02*
X140541285Y-68034819D01*
X140541285Y-68034819D02*
X140112714Y-69034819D01*
X173037667Y-68399819D02*
X173037667Y-67399819D01*
X173037667Y-67399819D02*
X173371000Y-68114104D01*
X173371000Y-68114104D02*
X173704333Y-67399819D01*
X173704333Y-67399819D02*
X173704333Y-68399819D01*
X174180524Y-68399819D02*
X174180524Y-67399819D01*
X174180524Y-67876009D02*
X174751952Y-67876009D01*
X174751952Y-68399819D02*
X174751952Y-67399819D01*
X175180524Y-67495057D02*
X175228143Y-67447438D01*
X175228143Y-67447438D02*
X175323381Y-67399819D01*
X175323381Y-67399819D02*
X175561476Y-67399819D01*
X175561476Y-67399819D02*
X175656714Y-67447438D01*
X175656714Y-67447438D02*
X175704333Y-67495057D01*
X175704333Y-67495057D02*
X175751952Y-67590295D01*
X175751952Y-67590295D02*
X175751952Y-67685533D01*
X175751952Y-67685533D02*
X175704333Y-67828390D01*
X175704333Y-67828390D02*
X175132905Y-68399819D01*
X175132905Y-68399819D02*
X175751952Y-68399819D01*
X110831333Y-109601080D02*
X110783714Y-109648700D01*
X110783714Y-109648700D02*
X110640857Y-109696319D01*
X110640857Y-109696319D02*
X110545619Y-109696319D01*
X110545619Y-109696319D02*
X110402762Y-109648700D01*
X110402762Y-109648700D02*
X110307524Y-109553461D01*
X110307524Y-109553461D02*
X110259905Y-109458223D01*
X110259905Y-109458223D02*
X110212286Y-109267747D01*
X110212286Y-109267747D02*
X110212286Y-109124890D01*
X110212286Y-109124890D02*
X110259905Y-108934414D01*
X110259905Y-108934414D02*
X110307524Y-108839176D01*
X110307524Y-108839176D02*
X110402762Y-108743938D01*
X110402762Y-108743938D02*
X110545619Y-108696319D01*
X110545619Y-108696319D02*
X110640857Y-108696319D01*
X110640857Y-108696319D02*
X110783714Y-108743938D01*
X110783714Y-108743938D02*
X110831333Y-108791557D01*
X111402762Y-109124890D02*
X111307524Y-109077271D01*
X111307524Y-109077271D02*
X111259905Y-109029652D01*
X111259905Y-109029652D02*
X111212286Y-108934414D01*
X111212286Y-108934414D02*
X111212286Y-108886795D01*
X111212286Y-108886795D02*
X111259905Y-108791557D01*
X111259905Y-108791557D02*
X111307524Y-108743938D01*
X111307524Y-108743938D02*
X111402762Y-108696319D01*
X111402762Y-108696319D02*
X111593238Y-108696319D01*
X111593238Y-108696319D02*
X111688476Y-108743938D01*
X111688476Y-108743938D02*
X111736095Y-108791557D01*
X111736095Y-108791557D02*
X111783714Y-108886795D01*
X111783714Y-108886795D02*
X111783714Y-108934414D01*
X111783714Y-108934414D02*
X111736095Y-109029652D01*
X111736095Y-109029652D02*
X111688476Y-109077271D01*
X111688476Y-109077271D02*
X111593238Y-109124890D01*
X111593238Y-109124890D02*
X111402762Y-109124890D01*
X111402762Y-109124890D02*
X111307524Y-109172509D01*
X111307524Y-109172509D02*
X111259905Y-109220128D01*
X111259905Y-109220128D02*
X111212286Y-109315366D01*
X111212286Y-109315366D02*
X111212286Y-109505842D01*
X111212286Y-109505842D02*
X111259905Y-109601080D01*
X111259905Y-109601080D02*
X111307524Y-109648700D01*
X111307524Y-109648700D02*
X111402762Y-109696319D01*
X111402762Y-109696319D02*
X111593238Y-109696319D01*
X111593238Y-109696319D02*
X111688476Y-109648700D01*
X111688476Y-109648700D02*
X111736095Y-109601080D01*
X111736095Y-109601080D02*
X111783714Y-109505842D01*
X111783714Y-109505842D02*
X111783714Y-109315366D01*
X111783714Y-109315366D02*
X111736095Y-109220128D01*
X111736095Y-109220128D02*
X111688476Y-109172509D01*
X111688476Y-109172509D02*
X111593238Y-109124890D01*
%TO.C,J1*%
D14*
X106718400Y-95322800D02*
X105718400Y-96322800D01*
X106718400Y-87452800D02*
X106718400Y-95322800D01*
X105718400Y-96322800D02*
X96598400Y-96322800D01*
X105718400Y-86452800D02*
X106718400Y-87452800D01*
X96598400Y-96322800D02*
X96598400Y-93539567D01*
X96598400Y-90897800D02*
X96598400Y-92236033D01*
X96598400Y-86452800D02*
X105718400Y-86452800D01*
X96598400Y-86452800D02*
X96598400Y-88877800D01*
%TO.C,R9*%
X153443000Y-84920064D02*
X153443000Y-84465936D01*
X154913000Y-84920064D02*
X154913000Y-84465936D01*
%TO.C,R13*%
X150903000Y-84952064D02*
X150903000Y-84497936D01*
X152373000Y-84952064D02*
X152373000Y-84497936D01*
%TO.C,U2*%
X131213800Y-85434300D02*
X135333800Y-85434300D01*
X131213800Y-85529300D02*
X131213800Y-85434300D01*
X131213800Y-90554300D02*
X131213800Y-90459300D01*
X135333800Y-85434300D02*
X135333800Y-85529300D01*
X135333800Y-90459300D02*
X135333800Y-90554300D01*
X135333800Y-90554300D02*
X131213800Y-90554300D01*
X135873800Y-90464300D02*
X136113800Y-90794300D01*
X135633800Y-90794300D01*
X135873800Y-90464300D01*
G36*
X136113800Y-90794300D02*
G01*
X135633800Y-90794300D01*
X135873800Y-90464300D01*
X136113800Y-90794300D01*
G37*
%TO.C,Q1*%
X108102000Y-74345500D02*
X108152000Y-74345500D01*
X108102000Y-75865500D02*
X108102000Y-74345500D01*
X109102000Y-75865500D02*
X108102000Y-75865500D01*
X109272000Y-74345500D02*
X110052000Y-74345500D01*
X111172000Y-74345500D02*
X111222000Y-74345500D01*
X111222000Y-74345500D02*
X111222000Y-75865500D01*
X111222000Y-75865500D02*
X110222000Y-75865500D01*
X110042000Y-73805500D02*
X109712000Y-74045500D01*
X109712000Y-73565500D01*
X110042000Y-73805500D01*
G36*
X110042000Y-73805500D02*
G01*
X109712000Y-74045500D01*
X109712000Y-73565500D01*
X110042000Y-73805500D01*
G37*
%TO.C,J6*%
X156227000Y-112759000D02*
X156227000Y-111379000D01*
X157607000Y-112759000D02*
X156227000Y-112759000D01*
X158877000Y-109999000D02*
X164067000Y-109999000D01*
X158877000Y-112759000D02*
X158877000Y-109999000D01*
X158877000Y-112759000D02*
X164067000Y-112759000D01*
X164067000Y-112759000D02*
X164067000Y-109999000D01*
%TO.C,C1*%
X118901800Y-98057152D02*
X118901800Y-96634648D01*
X120721800Y-98057152D02*
X120721800Y-96634648D01*
%TO.C,C7*%
X107977000Y-82451752D02*
X107977000Y-81929248D01*
X109447000Y-82451752D02*
X109447000Y-81929248D01*
%TO.C,R5*%
X109812064Y-77751000D02*
X109357936Y-77751000D01*
X109812064Y-79221000D02*
X109357936Y-79221000D01*
%TO.C,R7*%
X109812064Y-97309000D02*
X109357936Y-97309000D01*
X109812064Y-98779000D02*
X109357936Y-98779000D01*
%TO.C,R10*%
X143428000Y-84497936D02*
X143428000Y-84952064D01*
X144898000Y-84497936D02*
X144898000Y-84952064D01*
%TO.C,R11*%
X145903000Y-84952064D02*
X145903000Y-84497936D01*
X147373000Y-84952064D02*
X147373000Y-84497936D01*
%TO.C,J5*%
X176447000Y-87267000D02*
X176447000Y-90317000D01*
X176447000Y-93367000D02*
X176447000Y-90317000D01*
X179397000Y-86517000D02*
X179397000Y-87267000D01*
X179397000Y-87267000D02*
X176447000Y-87267000D01*
X179397000Y-93367000D02*
X176447000Y-93367000D01*
X179397000Y-94117000D02*
X179397000Y-93367000D01*
X181947000Y-86217000D02*
X180697000Y-86217000D01*
X181947000Y-87467000D02*
X181947000Y-86217000D01*
X180897000Y-86517000D02*
X181647000Y-86517000D01*
X181647000Y-88317000D01*
X180897000Y-88317000D01*
X180897000Y-86517000D01*
X180897000Y-89817000D02*
X181647000Y-89817000D01*
X181647000Y-90817000D01*
X180897000Y-90817000D01*
X180897000Y-89817000D01*
X180897000Y-92317000D02*
X181647000Y-92317000D01*
X181647000Y-94117000D01*
X180897000Y-94117000D01*
X180897000Y-92317000D01*
X175687000Y-86507000D02*
X181657000Y-86507000D01*
X181657000Y-94127000D01*
X175687000Y-94127000D01*
X175687000Y-86507000D01*
%TO.C,U1*%
X146254000Y-92677000D02*
X153974000Y-92677000D01*
X146254000Y-92912000D02*
X146254000Y-92677000D01*
X146254000Y-105697000D02*
X146254000Y-105462000D01*
X153974000Y-92677000D02*
X153974000Y-92912000D01*
X153974000Y-105462000D02*
X153974000Y-105697000D01*
X153974000Y-105697000D02*
X146254000Y-105697000D01*
X145464000Y-92907000D02*
X145124000Y-92437000D01*
X145804000Y-92437000D01*
X145464000Y-92907000D01*
G36*
X145464000Y-92907000D02*
G01*
X145124000Y-92437000D01*
X145804000Y-92437000D01*
X145464000Y-92907000D01*
G37*
%TO.C,R3*%
X115231936Y-73331400D02*
X115686064Y-73331400D01*
X115231936Y-74801400D02*
X115686064Y-74801400D01*
%TO.C,C5*%
X158891248Y-96547000D02*
X159413752Y-96547000D01*
X158891248Y-98017000D02*
X159413752Y-98017000D01*
%TO.C,R14*%
X159342064Y-104548000D02*
X158887936Y-104548000D01*
X159342064Y-106018000D02*
X158887936Y-106018000D01*
%TO.C,J4*%
X176447000Y-96137000D02*
X176447000Y-99187000D01*
X176447000Y-102237000D02*
X176447000Y-99187000D01*
X179397000Y-95387000D02*
X179397000Y-96137000D01*
X179397000Y-96137000D02*
X176447000Y-96137000D01*
X179397000Y-102237000D02*
X176447000Y-102237000D01*
X179397000Y-102987000D02*
X179397000Y-102237000D01*
X181947000Y-95087000D02*
X180697000Y-95087000D01*
X181947000Y-96337000D02*
X181947000Y-95087000D01*
X180897000Y-95387000D02*
X181647000Y-95387000D01*
X181647000Y-97187000D01*
X180897000Y-97187000D01*
X180897000Y-95387000D01*
X180897000Y-98687000D02*
X181647000Y-98687000D01*
X181647000Y-99687000D01*
X180897000Y-99687000D01*
X180897000Y-98687000D01*
X180897000Y-101187000D02*
X181647000Y-101187000D01*
X181647000Y-102987000D01*
X180897000Y-102987000D01*
X180897000Y-101187000D01*
X175687000Y-95377000D02*
X181657000Y-95377000D01*
X181657000Y-102997000D01*
X175687000Y-102997000D01*
X175687000Y-95377000D01*
%TO.C,J2*%
X98446000Y-85033000D02*
X98446000Y-79283000D01*
X98496000Y-74733000D02*
X104446000Y-74733000D01*
X98496000Y-77933000D02*
X98496000Y-74733000D01*
X103336000Y-78603000D02*
X104346000Y-78603000D01*
X103336000Y-83683000D02*
X103336000Y-78603000D01*
X104346000Y-83683000D02*
X103336000Y-83683000D01*
X104446000Y-74733000D02*
X104446000Y-85033000D01*
X104446000Y-85033000D02*
X98446000Y-85033000D01*
%TO.C,R1*%
X158887936Y-99722000D02*
X159342064Y-99722000D01*
X158887936Y-101192000D02*
X159342064Y-101192000D01*
%TO.C,R12*%
X148403000Y-84952064D02*
X148403000Y-84497936D01*
X149873000Y-84952064D02*
X149873000Y-84497936D01*
%TO.C,Q2*%
X108102000Y-101523500D02*
X108152000Y-101523500D01*
X108102000Y-103043500D02*
X108102000Y-101523500D01*
X109102000Y-103043500D02*
X108102000Y-103043500D01*
X109272000Y-101523500D02*
X110052000Y-101523500D01*
X111172000Y-101523500D02*
X111222000Y-101523500D01*
X111222000Y-101523500D02*
X111222000Y-103043500D01*
X111222000Y-103043500D02*
X110222000Y-103043500D01*
X110042000Y-100983500D02*
X109712000Y-101223500D01*
X109712000Y-100743500D01*
X110042000Y-100983500D01*
G36*
X110042000Y-100983500D02*
G01*
X109712000Y-101223500D01*
X109712000Y-100743500D01*
X110042000Y-100983500D01*
G37*
%TO.C,R8*%
X115527064Y-100611000D02*
X115072936Y-100611000D01*
X115527064Y-102081000D02*
X115072936Y-102081000D01*
%TO.C,C2*%
X130075000Y-96534248D02*
X130075000Y-97056752D01*
X131545000Y-96534248D02*
X131545000Y-97056752D01*
%TO.C,R6*%
X109408736Y-104929000D02*
X109862864Y-104929000D01*
X109408736Y-106399000D02*
X109862864Y-106399000D01*
%TO.C,D1*%
X127634600Y-88240600D02*
X120624600Y-88240600D01*
X127634600Y-91540600D02*
X120624600Y-91540600D01*
X127634600Y-91540600D02*
X127634600Y-88240600D01*
%TO.C,C4*%
X139473000Y-94770752D02*
X139473000Y-94248248D01*
X140943000Y-94770752D02*
X140943000Y-94248248D01*
%TO.C,J3*%
X98573000Y-112084000D02*
X98573000Y-106334000D01*
X98623000Y-101784000D02*
X104573000Y-101784000D01*
X98623000Y-104984000D02*
X98623000Y-101784000D01*
X103463000Y-105654000D02*
X104473000Y-105654000D01*
X103463000Y-110734000D02*
X103463000Y-105654000D01*
X104473000Y-110734000D02*
X103463000Y-110734000D01*
X104573000Y-101784000D02*
X104573000Y-112084000D01*
X104573000Y-112084000D02*
X98573000Y-112084000D01*
%TO.C,C6*%
X158891248Y-94007000D02*
X159413752Y-94007000D01*
X158891248Y-95477000D02*
X159413752Y-95477000D01*
%TO.C,D2*%
X123478400Y-93773400D02*
X123478400Y-101183400D01*
X127778400Y-93773400D02*
X123478400Y-93773400D01*
X127778400Y-93773400D02*
X127778400Y-101183400D01*
%TO.C,C3*%
X134853000Y-94323248D02*
X134853000Y-95745752D01*
X136673000Y-94323248D02*
X136673000Y-95745752D01*
%TO.C,R2*%
X158887936Y-90832000D02*
X159342064Y-90832000D01*
X158887936Y-92302000D02*
X159342064Y-92302000D01*
%TO.C,R4*%
X109812064Y-69877000D02*
X109357936Y-69877000D01*
X109812064Y-71347000D02*
X109357936Y-71347000D01*
%TO.C,F1*%
X109729248Y-87220600D02*
X114136752Y-87220600D01*
X109729248Y-92560600D02*
X114136752Y-92560600D01*
%TO.C,J7*%
X141368000Y-65322000D02*
X141368000Y-66572000D01*
X141668000Y-67872000D02*
X142418000Y-67872000D01*
X142418000Y-67872000D02*
X142418000Y-70822000D01*
X142418000Y-70822000D02*
X150468000Y-70822000D01*
X142618000Y-65322000D02*
X141368000Y-65322000D01*
X158518000Y-67872000D02*
X158518000Y-70822000D01*
X158518000Y-70822000D02*
X150468000Y-70822000D01*
X159268000Y-67872000D02*
X158518000Y-67872000D01*
X141658000Y-65612000D02*
X159278000Y-65612000D01*
X159278000Y-71582000D01*
X141658000Y-71582000D01*
X141658000Y-65612000D01*
X141668000Y-65622000D02*
X143468000Y-65622000D01*
X143468000Y-66372000D01*
X141668000Y-66372000D01*
X141668000Y-65622000D01*
X144968000Y-65622000D02*
X155968000Y-65622000D01*
X155968000Y-66372000D01*
X144968000Y-66372000D01*
X144968000Y-65622000D01*
X157468000Y-65622000D02*
X159268000Y-65622000D01*
X159268000Y-66372000D01*
X157468000Y-66372000D01*
X157468000Y-65622000D01*
%TO.C,C8*%
X108104000Y-108980248D02*
X108104000Y-109502752D01*
X109574000Y-108980248D02*
X109574000Y-109502752D01*
%TD*%
M02*
