M48
; DRILL file KiCad 10.0.5 date 2026-08-24T09:54:38
; FORMAT={-:-/ absolute / metric / decimal}
; #@! TF.CreationDate,2026-08-24T09:54:38+03:00
; #@! TF.GenerationSoftware,Kicad,Pcbnew,10.0.5
; #@! TF.FileFunction,Plated,1,2,PTH
FMAT,2
METRIC
; #@! TA.AperFunction,Plated,PTH,ViaDrill
T1C0.300
; #@! TA.AperFunction,Plated,PTH,ViaDrill
T2C0.400
; #@! TA.AperFunction,Plated,PTH,ComponentDrill
T3C0.950
; #@! TA.AperFunction,Plated,PTH,ComponentDrill
T4C1.000
; #@! TA.AperFunction,Plated,PTH,ComponentDrill
T5C1.020
%
G90
G05
T1
X106.68Y-72.39
X106.934Y-99.695
X119.812Y-101.168
X125.628Y-104.623
X128.905Y-88.011
X130.81Y-99.822
X135.763Y-98.552
X137.541Y-88.011
X140.208Y-97.282
X154.753Y-91.615
X161.544Y-98.806
X161.671Y-93.091
T2
X138.049Y-102.882
X138.049Y-104.89
T3
X144.218Y-68.072
X146.718Y-68.072
X149.218Y-68.072
X151.718Y-68.072
X154.218Y-68.072
X156.718Y-68.072
T4
X157.607Y-111.379
X160.147Y-111.379
X162.687Y-111.379
X179.197Y-89.067
X179.197Y-91.567
X179.197Y-97.937
X179.197Y-100.437
T5
X97.688Y-89.888
X97.688Y-92.888
X101.046Y-76.063
X101.046Y-78.603
X101.046Y-81.143
X101.046Y-83.683
X101.173Y-103.114
X101.173Y-105.654
X101.173Y-108.194
X101.173Y-110.734
M30
