%TF.GenerationSoftware,KiCad,Pcbnew,10.0.5*%
%TF.CreationDate,2026-08-24T14:30:19+03:00*%
%TF.ProjectId,Dual_PWM_Fan_Controller,4475616c-5f50-4574-9d5f-46616e5f436f,rev?*%
%TF.SameCoordinates,Original*%
%TF.FileFunction,Copper,L1,Top*%
%TF.FilePolarity,Positive*%
%FSLAX46Y46*%
G04 Gerber Fmt 4.6, Leading zero omitted, Abs format (unit mm)*
G04 Created by KiCad (PCBNEW 10.0.5) date 2026-08-24 14:30:19*
%MOMM*%
%LPD*%
G01*
G04 APERTURE LIST*
G04 Aperture macros list*
%AMRoundRect*
0 Rectangle with rounded corners*
0 $1 Rounding radius*
0 $2 $3 $4 $5 $6 $7 $8 $9 X,Y pos of 4 corners*
0 Add a 4 corners polygon primitive as box body*
4,1,4,$2,$3,$4,$5,$6,$7,$8,$9,$2,$3,0*
0 Add four circle primitives for the rounded corners*
1,1,$1+$1,$2,$3*
1,1,$1+$1,$4,$5*
1,1,$1+$1,$6,$7*
1,1,$1+$1,$8,$9*
0 Add four rect primitives between the rounded corners*
20,1,$1+$1,$2,$3,$4,$5,0*
20,1,$1+$1,$4,$5,$6,$7,0*
20,1,$1+$1,$6,$7,$8,$9,0*
20,1,$1+$1,$8,$9,$2,$3,0*%
G04 Aperture macros list end*
%TA.AperFunction,ComponentPad*%
%ADD10O,2.020000X1.500000*%
%TD*%
%TA.AperFunction,ComponentPad*%
%ADD11RoundRect,0.250001X-0.759999X0.499999X-0.759999X-0.499999X0.759999X-0.499999X0.759999X0.499999X0*%
%TD*%
%TA.AperFunction,SMDPad,CuDef*%
%ADD12RoundRect,0.250000X0.450000X-0.350000X0.450000X0.350000X-0.450000X0.350000X-0.450000X-0.350000X0*%
%TD*%
%TA.AperFunction,SMDPad,CuDef*%
%ADD13RoundRect,0.150000X0.825000X0.150000X-0.825000X0.150000X-0.825000X-0.150000X0.825000X-0.150000X0*%
%TD*%
%TA.AperFunction,SMDPad,CuDef*%
%ADD14RoundRect,0.150000X-0.150000X0.587500X-0.150000X-0.587500X0.150000X-0.587500X0.150000X0.587500X0*%
%TD*%
%TA.AperFunction,ComponentPad*%
%ADD15R,1.700000X1.700000*%
%TD*%
%TA.AperFunction,ComponentPad*%
%ADD16C,1.700000*%
%TD*%
%TA.AperFunction,SMDPad,CuDef*%
%ADD17RoundRect,0.250000X0.650000X-0.412500X0.650000X0.412500X-0.650000X0.412500X-0.650000X-0.412500X0*%
%TD*%
%TA.AperFunction,SMDPad,CuDef*%
%ADD18RoundRect,0.250000X0.475000X-0.337500X0.475000X0.337500X-0.475000X0.337500X-0.475000X-0.337500X0*%
%TD*%
%TA.AperFunction,SMDPad,CuDef*%
%ADD19RoundRect,0.250000X0.350000X0.450000X-0.350000X0.450000X-0.350000X-0.450000X0.350000X-0.450000X0*%
%TD*%
%TA.AperFunction,SMDPad,CuDef*%
%ADD20RoundRect,0.250000X-0.450000X0.350000X-0.450000X-0.350000X0.450000X-0.350000X0.450000X0.350000X0*%
%TD*%
%TA.AperFunction,ComponentPad*%
%ADD21RoundRect,0.250000X-0.750000X0.600000X-0.750000X-0.600000X0.750000X-0.600000X0.750000X0.600000X0*%
%TD*%
%TA.AperFunction,ComponentPad*%
%ADD22O,2.000000X1.700000*%
%TD*%
%TA.AperFunction,SMDPad,CuDef*%
%ADD23RoundRect,0.150000X-0.875000X-0.150000X0.875000X-0.150000X0.875000X0.150000X-0.875000X0.150000X0*%
%TD*%
%TA.AperFunction,SMDPad,CuDef*%
%ADD24RoundRect,0.250000X-0.350000X-0.450000X0.350000X-0.450000X0.350000X0.450000X-0.350000X0.450000X0*%
%TD*%
%TA.AperFunction,SMDPad,CuDef*%
%ADD25RoundRect,0.250000X-0.337500X-0.475000X0.337500X-0.475000X0.337500X0.475000X-0.337500X0.475000X0*%
%TD*%
%TA.AperFunction,ComponentPad*%
%ADD26R,2.030000X1.730000*%
%TD*%
%TA.AperFunction,ComponentPad*%
%ADD27O,2.030000X1.730000*%
%TD*%
%TA.AperFunction,SMDPad,CuDef*%
%ADD28RoundRect,0.250000X-0.475000X0.337500X-0.475000X-0.337500X0.475000X-0.337500X0.475000X0.337500X0*%
%TD*%
%TA.AperFunction,SMDPad,CuDef*%
%ADD29RoundRect,0.250000X1.500000X0.650000X-1.500000X0.650000X-1.500000X-0.650000X1.500000X-0.650000X0*%
%TD*%
%TA.AperFunction,SMDPad,CuDef*%
%ADD30RoundRect,0.250000X-0.900000X1.500000X-0.900000X-1.500000X0.900000X-1.500000X0.900000X1.500000X0*%
%TD*%
%TA.AperFunction,SMDPad,CuDef*%
%ADD31RoundRect,0.250000X-0.650000X0.412500X-0.650000X-0.412500X0.650000X-0.412500X0.650000X0.412500X0*%
%TD*%
%TA.AperFunction,SMDPad,CuDef*%
%ADD32RoundRect,0.250001X-0.799999X-2.474999X0.799999X-2.474999X0.799999X2.474999X-0.799999X2.474999X0*%
%TD*%
%TA.AperFunction,ComponentPad*%
%ADD33RoundRect,0.250000X-0.600000X-0.725000X0.600000X-0.725000X0.600000X0.725000X-0.600000X0.725000X0*%
%TD*%
%TA.AperFunction,ComponentPad*%
%ADD34O,1.700000X1.950000*%
%TD*%
%TA.AperFunction,ViaPad*%
%ADD35C,0.800000*%
%TD*%
%TA.AperFunction,ViaPad*%
%ADD36C,0.600000*%
%TD*%
%TA.AperFunction,Conductor*%
%ADD37C,0.300000*%
%TD*%
%TA.AperFunction,Conductor*%
%ADD38C,0.500000*%
%TD*%
%TA.AperFunction,Conductor*%
%ADD39C,1.500000*%
%TD*%
G04 APERTURE END LIST*
D10*
%TO.P,J1,2,Pin_2_2*%
%TO.N,GND*%
X97688400Y-92887800D03*
D11*
%TO.P,J1,1,Pin_1_1*%
%TO.N,/+12V_IN*%
X97688400Y-89887800D03*
%TD*%
D12*
%TO.P,R9,1*%
%TO.N,Net-(U1-PB3)*%
X154178000Y-85693000D03*
%TO.P,R9,2*%
%TO.N,/LED_OK*%
X154178000Y-83693000D03*
%TD*%
%TO.P,R13,1*%
%TO.N,Net-(U1-PB4)*%
X151638000Y-85725000D03*
%TO.P,R13,2*%
%TO.N,/LED_FAN2_FAULT*%
X151638000Y-83725000D03*
%TD*%
D13*
%TO.P,U2,1,OUT_1*%
%TO.N,+5V*%
X135748800Y-89899300D03*
%TO.P,U2,2,GND_2*%
%TO.N,GND*%
X135748800Y-88629300D03*
%TO.P,U2,3,GND_3*%
X135748800Y-87359300D03*
%TO.P,U2,4,NC_4*%
%TO.N,unconnected-(U2-NC-Pad4)*%
X135748800Y-86089300D03*
%TO.P,U2,5,NC_5*%
%TO.N,unconnected-(U2-NC-Pad5)*%
X130798800Y-86089300D03*
%TO.P,U2,6,GND_6*%
%TO.N,GND*%
X130798800Y-87359300D03*
%TO.P,U2,7,GND_7*%
X130798800Y-88629300D03*
%TO.P,U2,8,IN_8*%
%TO.N,/+12V_PROTECTED*%
X130798800Y-89899300D03*
%TD*%
D14*
%TO.P,Q1,1,G_1*%
%TO.N,Net-(Q1-G)*%
X110612000Y-74168000D03*
%TO.P,Q1,2,S_2*%
%TO.N,GND*%
X108712000Y-74168000D03*
%TO.P,Q1,3,D_3*%
%TO.N,/FAN1_PWM*%
X109662000Y-76043000D03*
%TD*%
D15*
%TO.P,J6,1,Pin_1_1*%
%TO.N,+5V*%
X157607000Y-111379000D03*
D16*
%TO.P,J6,2,Pin_2_2*%
%TO.N,Net-(J6-Pin_2)*%
X160147000Y-111379000D03*
%TO.P,J6,3,Pin_3_3*%
%TO.N,GND*%
X162687000Y-111379000D03*
%TD*%
D17*
%TO.P,C1,1*%
%TO.N,GND*%
X119811800Y-98908400D03*
%TO.P,C1,2*%
%TO.N,/+12V_PROTECTED*%
X119811800Y-95783400D03*
%TD*%
D18*
%TO.P,C7,1*%
%TO.N,GND*%
X108712000Y-83228000D03*
%TO.P,C7,2*%
%TO.N,/+12V_PROTECTED*%
X108712000Y-81153000D03*
%TD*%
D19*
%TO.P,R5,1*%
%TO.N,+5V*%
X110585000Y-78486000D03*
%TO.P,R5,2*%
%TO.N,/FAN1_TACH*%
X108585000Y-78486000D03*
%TD*%
%TO.P,R7,1*%
%TO.N,Net-(Q2-G)*%
X110585000Y-98044000D03*
%TO.P,R7,2*%
%TO.N,GND*%
X108585000Y-98044000D03*
%TD*%
D20*
%TO.P,R10,1*%
%TO.N,/LED_TH1_FAULT*%
X144163000Y-83725000D03*
%TO.P,R10,2*%
%TO.N,Net-(U1-PA6)*%
X144163000Y-85725000D03*
%TD*%
D12*
%TO.P,R11,1*%
%TO.N,Net-(U1-PA7)*%
X146638000Y-85725000D03*
%TO.P,R11,2*%
%TO.N,/LED_FAN1_FAULT*%
X146638000Y-83725000D03*
%TD*%
D21*
%TO.P,J5,1,Pin_1_1*%
%TO.N,+5V*%
X179197000Y-89067000D03*
D22*
%TO.P,J5,2,Pin_2_2*%
%TO.N,/TH2_SENSE*%
X179197000Y-91567000D03*
%TD*%
D23*
%TO.P,U1,1,VCC_1*%
%TO.N,+5V*%
X145464000Y-93472000D03*
%TO.P,U1,2,PA4_2*%
%TO.N,/FAN1_TACH*%
X145464000Y-94742000D03*
%TO.P,U1,3,PA5_3*%
%TO.N,Net-(U1-PA5)*%
X145464000Y-96012000D03*
%TO.P,U1,4,PA6_4*%
%TO.N,Net-(U1-PA6)*%
X145464000Y-97282000D03*
%TO.P,U1,5,PA7_5*%
%TO.N,Net-(U1-PA7)*%
X145464000Y-98552000D03*
%TO.P,U1,6,PB5_6*%
%TO.N,Net-(U1-PB5)*%
X145464000Y-99822000D03*
%TO.P,U1,7,PB4_7*%
%TO.N,Net-(U1-PB4)*%
X145464000Y-101092000D03*
%TO.P,U1,8,PB3_8*%
%TO.N,Net-(U1-PB3)*%
X145464000Y-102362000D03*
%TO.P,U1,9,PB2_9*%
%TO.N,Net-(U1-PB2)*%
X145464000Y-103632000D03*
%TO.P,U1,10,PB1_10*%
%TO.N,/FAN2_TACH*%
X145464000Y-104902000D03*
%TO.P,U1,11,PB0_11*%
%TO.N,unconnected-(U1-PB0-Pad11)*%
X154764000Y-104902000D03*
%TO.P,U1,12,PC0_12*%
%TO.N,unconnected-(U1-PC0-Pad12)*%
X154764000Y-103632000D03*
%TO.P,U1,13,PC1_13*%
%TO.N,unconnected-(U1-PC1-Pad13)*%
X154764000Y-102362000D03*
%TO.P,U1,14,PC2_14*%
%TO.N,unconnected-(U1-PC2-Pad14)*%
X154764000Y-101092000D03*
%TO.P,U1,15,PC3_15*%
%TO.N,unconnected-(U1-PC3-Pad15)*%
X154764000Y-99822000D03*
%TO.P,U1,16,~{RESET}/PA0_16*%
%TO.N,/UPDI*%
X154764000Y-98552000D03*
%TO.P,U1,17,PA1_17*%
%TO.N,/TH1_SENSE*%
X154764000Y-97282000D03*
%TO.P,U1,18,PA2_18*%
%TO.N,unconnected-(U1-PA2-Pad18)*%
X154764000Y-96012000D03*
%TO.P,U1,19,PA3_19*%
%TO.N,/TH2_SENSE*%
X154764000Y-94742000D03*
%TO.P,U1,20,GND_20*%
%TO.N,GND*%
X154764000Y-93472000D03*
%TD*%
D24*
%TO.P,R3,1*%
%TO.N,Net-(Q1-G)*%
X114459000Y-74066400D03*
%TO.P,R3,2*%
%TO.N,Net-(U1-PA5)*%
X116459000Y-74066400D03*
%TD*%
D25*
%TO.P,C5,1*%
%TO.N,/TH1_SENSE*%
X158115000Y-97282000D03*
%TO.P,C5,2*%
%TO.N,GND*%
X160190000Y-97282000D03*
%TD*%
D19*
%TO.P,R14,1*%
%TO.N,Net-(J6-Pin_2)*%
X160115000Y-105283000D03*
%TO.P,R14,2*%
%TO.N,/UPDI*%
X158115000Y-105283000D03*
%TD*%
D21*
%TO.P,J4,1,Pin_1_1*%
%TO.N,+5V*%
X179197000Y-97937000D03*
D22*
%TO.P,J4,2,Pin_2_2*%
%TO.N,/TH1_SENSE*%
X179197000Y-100437000D03*
%TD*%
D26*
%TO.P,J2,1,Pin_1_1*%
%TO.N,GND*%
X101046000Y-83683000D03*
D27*
%TO.P,J2,2,Pin_2_2*%
%TO.N,/+12V_PROTECTED*%
X101046000Y-81143000D03*
%TO.P,J2,3,Pin_3_3*%
%TO.N,/FAN1_TACH*%
X101046000Y-78603000D03*
%TO.P,J2,4,Pin_4_4*%
%TO.N,/FAN1_PWM*%
X101046000Y-76063000D03*
%TD*%
D24*
%TO.P,R1,1*%
%TO.N,/TH1_SENSE*%
X158115000Y-100457000D03*
%TO.P,R1,2*%
%TO.N,GND*%
X160115000Y-100457000D03*
%TD*%
D12*
%TO.P,R12,1*%
%TO.N,Net-(U1-PB5)*%
X149138000Y-85725000D03*
%TO.P,R12,2*%
%TO.N,/TH2_FAULT*%
X149138000Y-83725000D03*
%TD*%
D14*
%TO.P,Q2,1,G_1*%
%TO.N,Net-(Q2-G)*%
X110612000Y-101346000D03*
%TO.P,Q2,2,S_2*%
%TO.N,GND*%
X108712000Y-101346000D03*
%TO.P,Q2,3,D_3*%
%TO.N,/FAN2_PWM*%
X109662000Y-103221000D03*
%TD*%
D19*
%TO.P,R8,1*%
%TO.N,Net-(U1-PB2)*%
X116300000Y-101346000D03*
%TO.P,R8,2*%
%TO.N,Net-(Q2-G)*%
X114300000Y-101346000D03*
%TD*%
D28*
%TO.P,C2,1*%
%TO.N,/+12V_PROTECTED*%
X130810000Y-95758000D03*
%TO.P,C2,2*%
%TO.N,GND*%
X130810000Y-97833000D03*
%TD*%
D24*
%TO.P,R6,1*%
%TO.N,/FAN2_TACH*%
X108635800Y-105664000D03*
%TO.P,R6,2*%
%TO.N,+5V*%
X110635800Y-105664000D03*
%TD*%
D29*
%TO.P,D1,1,K_1*%
%TO.N,/+12V_PROTECTED*%
X125624600Y-89890600D03*
%TO.P,D1,2,A_2*%
%TO.N,/+12V_FUSED*%
X120624600Y-89890600D03*
%TD*%
D18*
%TO.P,C4,1*%
%TO.N,GND*%
X140208000Y-95547000D03*
%TO.P,C4,2*%
%TO.N,+5V*%
X140208000Y-93472000D03*
%TD*%
D26*
%TO.P,J3,1,Pin_1_1*%
%TO.N,GND*%
X101173000Y-110734000D03*
D27*
%TO.P,J3,2,Pin_2_2*%
%TO.N,/+12V_PROTECTED*%
X101173000Y-108194000D03*
%TO.P,J3,3,Pin_3_3*%
%TO.N,/FAN2_TACH*%
X101173000Y-105654000D03*
%TO.P,J3,4,Pin_4_4*%
%TO.N,/FAN2_PWM*%
X101173000Y-103114000D03*
%TD*%
D25*
%TO.P,C6,1*%
%TO.N,/TH2_SENSE*%
X158115000Y-94742000D03*
%TO.P,C6,2*%
%TO.N,GND*%
X160190000Y-94742000D03*
%TD*%
D30*
%TO.P,D2,1,A1_1*%
%TO.N,/+12V_PROTECTED*%
X125628400Y-95783400D03*
%TO.P,D2,2,A2_2*%
%TO.N,GND*%
X125628400Y-101183400D03*
%TD*%
D31*
%TO.P,C3,1*%
%TO.N,+5V*%
X135763000Y-93472000D03*
%TO.P,C3,2*%
%TO.N,GND*%
X135763000Y-96597000D03*
%TD*%
D24*
%TO.P,R2,1*%
%TO.N,/TH2_SENSE*%
X158115000Y-91567000D03*
%TO.P,R2,2*%
%TO.N,GND*%
X160115000Y-91567000D03*
%TD*%
D19*
%TO.P,R4,1*%
%TO.N,Net-(Q1-G)*%
X110585000Y-70612000D03*
%TO.P,R4,2*%
%TO.N,GND*%
X108585000Y-70612000D03*
%TD*%
D32*
%TO.P,F1,1*%
%TO.N,/+12V_IN*%
X108458000Y-89890600D03*
%TO.P,F1,2*%
%TO.N,/+12V_FUSED*%
X115408000Y-89890600D03*
%TD*%
D33*
%TO.P,J7,1,Pin_1_1*%
%TO.N,/LED_TH1_FAULT*%
X144218000Y-68072000D03*
D34*
%TO.P,J7,2,Pin_2_2*%
%TO.N,/LED_FAN1_FAULT*%
X146718000Y-68072000D03*
%TO.P,J7,3,Pin_3_3*%
%TO.N,/TH2_FAULT*%
X149218000Y-68072000D03*
%TO.P,J7,4,Pin_4_4*%
%TO.N,/LED_FAN2_FAULT*%
X151718000Y-68072000D03*
%TO.P,J7,5,Pin_5_5*%
%TO.N,/LED_OK*%
X154218000Y-68072000D03*
%TO.P,J7,6,Pin_6_6*%
%TO.N,GND*%
X156718000Y-68072000D03*
%TD*%
D28*
%TO.P,C8,1*%
%TO.N,/+12V_PROTECTED*%
X108839000Y-108204000D03*
%TO.P,C8,2*%
%TO.N,GND*%
X108839000Y-110279000D03*
%TD*%
D35*
%TO.N,+5V*%
X138049000Y-104890000D03*
X138049000Y-102882000D03*
D36*
%TO.N,GND*%
X154752935Y-91615344D03*
X119811800Y-101168200D03*
X125628400Y-104622600D03*
X161671000Y-93091000D03*
X135763000Y-98552000D03*
X137541000Y-88011000D03*
X130810000Y-99822000D03*
X140208000Y-97282000D03*
X106680000Y-72390000D03*
X106934000Y-99695000D03*
X128905000Y-88011000D03*
X161544000Y-98806000D03*
%TD*%
%TO.N,/LED_OK*%
D37*
X154178000Y-68112000D02*
X154218000Y-68072000D01*
X154178000Y-83693000D02*
X154178000Y-68112000D01*
%TO.N,Net-(U1-PA7)*%
X146702213Y-88646000D02*
X146685000Y-88646000D01*
X149860000Y-95885000D02*
X149860000Y-91803787D01*
X149860000Y-91803787D02*
X146702213Y-88646000D01*
X147193000Y-98552000D02*
X149860000Y-95885000D01*
X146685000Y-88646000D02*
X146638000Y-88599000D01*
X145464000Y-98552000D02*
X147193000Y-98552000D01*
X146638000Y-88599000D02*
X146638000Y-85725000D01*
%TO.N,/LED_FAN2_FAULT*%
X151638000Y-68152000D02*
X151718000Y-68072000D01*
X151638000Y-83725000D02*
X151638000Y-68152000D01*
%TO.N,+5V*%
D38*
X140208000Y-93472000D02*
X145464000Y-93472000D01*
X157607000Y-113284000D02*
X158242000Y-113919000D01*
X128936634Y-104902000D02*
X126947634Y-106891000D01*
X181650000Y-89067000D02*
X181570000Y-89067000D01*
X182626000Y-90043000D02*
X181650000Y-89067000D01*
X138049000Y-93472000D02*
X138049000Y-102882000D01*
X138049000Y-104890000D02*
X138037000Y-104902000D01*
X138049000Y-104890000D02*
X140871472Y-104890000D01*
X157607000Y-111379000D02*
X157607000Y-113284000D01*
X140208000Y-93472000D02*
X140208000Y-85502634D01*
X176403000Y-113919000D02*
X182626000Y-107696000D01*
X179197000Y-97937000D02*
X182606000Y-97937000D01*
X140871472Y-104890000D02*
X142153472Y-106172000D01*
X156337000Y-106172000D02*
X157607000Y-107442000D01*
X182606000Y-97937000D02*
X182626000Y-97917000D01*
X158242000Y-113919000D02*
X176403000Y-113919000D01*
X157607000Y-107442000D02*
X157607000Y-111379000D01*
X182626000Y-107696000D02*
X182626000Y-97917000D01*
X181570000Y-89067000D02*
X179197000Y-89067000D01*
X118612528Y-75166400D02*
X115292928Y-78486000D01*
X138037000Y-104902000D02*
X128936634Y-104902000D01*
X126947634Y-106891000D02*
X116670000Y-106891000D01*
X182626000Y-97917000D02*
X182626000Y-96901000D01*
X116670000Y-106891000D02*
X115443000Y-105664000D01*
X135748800Y-93457800D02*
X135763000Y-93472000D01*
X135763000Y-93472000D02*
X138049000Y-93472000D01*
X115292928Y-78486000D02*
X110585000Y-78486000D01*
X135748800Y-89899300D02*
X135748800Y-93457800D01*
X142153472Y-106172000D02*
X156337000Y-106172000D01*
X129871766Y-75166400D02*
X118612528Y-75166400D01*
X110635800Y-105664000D02*
X115443000Y-105664000D01*
X138049000Y-93472000D02*
X140208000Y-93472000D01*
X182626000Y-96901000D02*
X182626000Y-90043000D01*
X140208000Y-85502634D02*
X129871766Y-75166400D01*
%TO.N,GND*%
D37*
X108712000Y-72390000D02*
X108712000Y-70739000D01*
X135748800Y-87359300D02*
X135748800Y-88011000D01*
X130798800Y-88011000D02*
X130798800Y-88629300D01*
X108712000Y-83228000D02*
X101501000Y-83228000D01*
X137526800Y-88025200D02*
X137541000Y-88011000D01*
X160190000Y-91642000D02*
X160115000Y-91567000D01*
X160190000Y-98806000D02*
X161544000Y-98806000D01*
X108712000Y-74168000D02*
X108712000Y-72390000D01*
X125628400Y-104622600D02*
X125628400Y-101183400D01*
X101628000Y-110279000D02*
X101173000Y-110734000D01*
X160190000Y-97282000D02*
X160190000Y-98806000D01*
X108712000Y-99695000D02*
X108712000Y-98171000D01*
X160190000Y-100382000D02*
X160115000Y-100457000D01*
X101501000Y-83228000D02*
X101046000Y-83683000D01*
X154764000Y-91626409D02*
X154752935Y-91615344D01*
X108712000Y-101346000D02*
X108712000Y-99695000D01*
X108712000Y-98171000D02*
X108585000Y-98044000D01*
X140208000Y-95547000D02*
X140208000Y-97282000D01*
X108712000Y-72390000D02*
X106680000Y-72390000D01*
X160190000Y-93091000D02*
X160190000Y-91642000D01*
X108839000Y-110279000D02*
X101628000Y-110279000D01*
X135763000Y-88025200D02*
X137526800Y-88025200D01*
X160190000Y-98806000D02*
X160190000Y-100382000D01*
X160190000Y-94742000D02*
X160190000Y-93091000D01*
X154764000Y-93472000D02*
X154764000Y-91626409D01*
X130798800Y-87359300D02*
X130798800Y-88011000D01*
X160190000Y-93091000D02*
X161671000Y-93091000D01*
X119811800Y-101168200D02*
X119811800Y-98908400D01*
X108712000Y-99695000D02*
X106934000Y-99695000D01*
X135748800Y-88011000D02*
X135763000Y-88025200D01*
X135763000Y-96597000D02*
X135763000Y-98552000D01*
X108712000Y-70739000D02*
X108585000Y-70612000D01*
X135748800Y-88011000D02*
X135748800Y-88629300D01*
X130798800Y-88011000D02*
X128905000Y-88011000D01*
X130810000Y-97833000D02*
X130810000Y-99822000D01*
%TO.N,/+12V_PROTECTED*%
D39*
X124333000Y-85725000D02*
X125624600Y-87016600D01*
X108702000Y-81143000D02*
X108712000Y-81153000D01*
D38*
X101046000Y-81143000D02*
X108702000Y-81143000D01*
D39*
X98831000Y-81143000D02*
X97663000Y-82311000D01*
X101046000Y-81143000D02*
X98831000Y-81143000D01*
X125624600Y-89890600D02*
X125624600Y-95779600D01*
X104885400Y-93615600D02*
X121899600Y-93615600D01*
X98806000Y-85725000D02*
X124333000Y-85725000D01*
X125624600Y-87016600D02*
X125624600Y-89890600D01*
D38*
X108712000Y-108204000D02*
X108702000Y-108194000D01*
X130798800Y-95746800D02*
X130810000Y-95758000D01*
D39*
X125624600Y-95779600D02*
X125628400Y-95783400D01*
X97409000Y-106680000D02*
X97409000Y-101092000D01*
X97663000Y-84582000D02*
X98806000Y-85725000D01*
D38*
X108702000Y-108194000D02*
X101173000Y-108194000D01*
X125628400Y-95783400D02*
X130784600Y-95783400D01*
D39*
X121899600Y-93615600D02*
X125624600Y-89890600D01*
D38*
X119811800Y-95783400D02*
X125628400Y-95783400D01*
D39*
X101173000Y-108194000D02*
X98923000Y-108194000D01*
X98923000Y-108194000D02*
X97409000Y-106680000D01*
X130784600Y-95783400D02*
X130810000Y-95758000D01*
X97409000Y-101092000D02*
X104885400Y-93615600D01*
D38*
X130798800Y-89899300D02*
X130798800Y-95746800D01*
D39*
X97663000Y-82311000D02*
X97663000Y-84582000D01*
D38*
X108839000Y-108204000D02*
X108712000Y-108204000D01*
%TO.N,Net-(Q1-G)*%
D37*
X110612000Y-70639000D02*
X110585000Y-70612000D01*
X110612000Y-74168000D02*
X114357400Y-74168000D01*
X110612000Y-74168000D02*
X110612000Y-70639000D01*
X114357400Y-74168000D02*
X114459000Y-74066400D01*
%TO.N,/FAN1_PWM*%
X101046000Y-76063000D02*
X109642000Y-76063000D01*
X109642000Y-76063000D02*
X109662000Y-76043000D01*
%TO.N,Net-(J6-Pin_2)*%
X160115000Y-111347000D02*
X160147000Y-111379000D01*
X160115000Y-105283000D02*
X160115000Y-111347000D01*
%TO.N,/FAN1_TACH*%
X143437894Y-90678000D02*
X146612894Y-90678000D01*
X140851000Y-85297106D02*
X140851000Y-88091106D01*
X118364000Y-74566400D02*
X130120294Y-74566400D01*
X108585000Y-77724000D02*
X108966000Y-77343000D01*
X130120294Y-74566400D02*
X140851000Y-85297106D01*
X115587400Y-77343000D02*
X118364000Y-74566400D01*
X141143893Y-88384000D02*
X143437894Y-90678000D01*
X101046000Y-78603000D02*
X108468000Y-78603000D01*
X148344000Y-94226000D02*
X147828000Y-94742000D01*
X146612894Y-90678000D02*
X148344000Y-92409106D01*
X108966000Y-77343000D02*
X115587400Y-77343000D01*
X140851000Y-88091106D02*
X141143893Y-88384000D01*
X147828000Y-94742000D02*
X145464000Y-94742000D01*
X108468000Y-78603000D02*
X108585000Y-78486000D01*
X108585000Y-78486000D02*
X108585000Y-77724000D01*
X148344000Y-92409106D02*
X148344000Y-94226000D01*
%TO.N,Net-(Q2-G)*%
X110585000Y-101319000D02*
X110612000Y-101346000D01*
X114300000Y-101346000D02*
X110612000Y-101346000D01*
X110585000Y-98044000D02*
X110585000Y-101319000D01*
%TO.N,/LED_TH1_FAULT*%
X144163000Y-83725000D02*
X144163000Y-68127000D01*
X144163000Y-68127000D02*
X144218000Y-68072000D01*
%TO.N,/LED_FAN1_FAULT*%
X146638000Y-83725000D02*
X146638000Y-68152000D01*
X146638000Y-68152000D02*
X146718000Y-68072000D01*
%TO.N,/+12V_IN*%
D39*
X107455200Y-88887800D02*
X108458000Y-89890600D01*
X97688400Y-89887800D02*
X98688400Y-88887800D01*
X98688400Y-88887800D02*
X107455200Y-88887800D01*
%TO.N,/TH2_SENSE*%
D37*
X158369000Y-90043000D02*
X163195000Y-90043000D01*
X158115000Y-94742000D02*
X154764000Y-94742000D01*
X163195000Y-90043000D02*
X164719000Y-91567000D01*
X164719000Y-91567000D02*
X179197000Y-91567000D01*
X158115000Y-91567000D02*
X158115000Y-90297000D01*
X158115000Y-91567000D02*
X158115000Y-94742000D01*
X158115000Y-90297000D02*
X158369000Y-90043000D01*
%TO.N,Net-(U1-PA6)*%
X149352000Y-95068106D02*
X147138106Y-97282000D01*
X147019107Y-89670000D02*
X149352000Y-92002893D01*
X144163000Y-88926000D02*
X144907000Y-89670000D01*
X149352000Y-92002893D02*
X149352000Y-95068106D01*
X147138106Y-97282000D02*
X145464000Y-97282000D01*
X144907000Y-89670000D02*
X147019107Y-89670000D01*
X144163000Y-85725000D02*
X144163000Y-88926000D01*
%TO.N,/FAN2_TACH*%
X128850106Y-104140000D02*
X126699106Y-106291000D01*
X109778800Y-104521000D02*
X108635800Y-105664000D01*
X140970000Y-104140000D02*
X128850106Y-104140000D01*
X109778800Y-104521000D02*
X115370894Y-104521000D01*
X141732000Y-104902000D02*
X140970000Y-104140000D01*
X117140893Y-106291000D02*
X115370894Y-104521000D01*
D38*
X108625800Y-105654000D02*
X108635800Y-105664000D01*
D37*
X101173000Y-105654000D02*
X108625800Y-105654000D01*
X126699106Y-106291000D02*
X117140893Y-106291000D01*
X145464000Y-104902000D02*
X141732000Y-104902000D01*
%TO.N,/UPDI*%
X158115000Y-103505000D02*
X158115000Y-105283000D01*
X156591000Y-101981000D02*
X158115000Y-103505000D01*
X156210000Y-98552000D02*
X156591000Y-98933000D01*
X154764000Y-98552000D02*
X156210000Y-98552000D01*
X156591000Y-98933000D02*
X156591000Y-101981000D01*
%TO.N,/TH1_SENSE*%
X162941000Y-101854000D02*
X164358000Y-100437000D01*
X158115000Y-100457000D02*
X158115000Y-101473000D01*
X158115000Y-100457000D02*
X158115000Y-97282000D01*
X164358000Y-100437000D02*
X179197000Y-100437000D01*
X158115000Y-97282000D02*
X154764000Y-97282000D01*
X158115000Y-101473000D02*
X158496000Y-101854000D01*
X158496000Y-101854000D02*
X162941000Y-101854000D01*
%TO.N,/FAN2_PWM*%
X101173000Y-103114000D02*
X109555000Y-103114000D01*
D38*
X109555000Y-103114000D02*
X109662000Y-103221000D01*
%TO.N,/+12V_FUSED*%
D39*
X115408000Y-89890600D02*
X120624600Y-89890600D01*
%TO.N,Net-(U1-PB4)*%
D37*
X150876000Y-91948000D02*
X150876000Y-98679000D01*
X151638000Y-85725000D02*
X151638000Y-91186000D01*
X150876000Y-98679000D02*
X148463000Y-101092000D01*
X151638000Y-91186000D02*
X150876000Y-91948000D01*
X148463000Y-101092000D02*
X145464000Y-101092000D01*
%TO.N,Net-(U1-PB2)*%
X128651000Y-103632000D02*
X126492000Y-105791000D01*
X117348000Y-105791000D02*
X116300000Y-104743000D01*
X145464000Y-103632000D02*
X128651000Y-103632000D01*
X126492000Y-105791000D02*
X117348000Y-105791000D01*
X116300000Y-104743000D02*
X116300000Y-101346000D01*
%TO.N,Net-(U1-PB5)*%
X149138000Y-90374681D02*
X149904660Y-91141340D01*
X150360000Y-97925000D02*
X148463000Y-99822000D01*
X148463000Y-99822000D02*
X145464000Y-99822000D01*
X150360000Y-91596681D02*
X150360000Y-97925000D01*
X149138000Y-85725000D02*
X149138000Y-90374681D01*
X149904660Y-91141340D02*
X150360000Y-91596681D01*
%TO.N,/TH2_FAULT*%
X149138000Y-83725000D02*
X149138000Y-68152000D01*
X149138000Y-68152000D02*
X149218000Y-68072000D01*
%TO.N,Net-(U1-PB3)*%
X154178000Y-85693000D02*
X154178000Y-87241000D01*
X151376000Y-98941000D02*
X147955000Y-102362000D01*
X147955000Y-102362000D02*
X145464000Y-102362000D01*
X151376000Y-92210000D02*
X151376000Y-98941000D01*
X154178000Y-87241000D02*
X152138000Y-89281000D01*
X152138000Y-91448000D02*
X151376000Y-92210000D01*
X152138000Y-89281000D02*
X152138000Y-91448000D01*
%TO.N,Net-(U1-PA5)*%
X146812000Y-90170000D02*
X148844000Y-92202000D01*
X147701000Y-96012000D02*
X145464000Y-96012000D01*
X141351000Y-85090000D02*
X141351000Y-87884000D01*
X130327400Y-74066400D02*
X116459000Y-74066400D01*
X130327400Y-74066400D02*
X141351000Y-85090000D01*
X148844000Y-94869000D02*
X147701000Y-96012000D01*
X148844000Y-92202000D02*
X148844000Y-94869000D01*
X143637000Y-90170000D02*
X146812000Y-90170000D01*
X141351000Y-87884000D02*
X143637000Y-90170000D01*
%TD*%
M02*
