%TF.GenerationSoftware,KiCad,Pcbnew,10.0.5*%
%TF.CreationDate,2026-09-08T14:34:07+03:00*%
%TF.ProjectId,1 Fan 2 Th,31204661-6e20-4322-9054-682e6b696361,rev?*%
%TF.SameCoordinates,Original*%
%TF.FileFunction,Soldermask,Top*%
%TF.FilePolarity,Negative*%
%FSLAX46Y46*%
G04 Gerber Fmt 4.6, Leading zero omitted, Abs format (unit mm)*
G04 Created by KiCad (PCBNEW 10.0.5) date 2026-09-08 14:34:07*
%MOMM*%
%LPD*%
G01*
G04 APERTURE LIST*
G04 Aperture macros list*
%AMRoundRect*
0 Rectangle with rounded corners*
0 $1 Rounding radius*
0 $2 $3 $4 $5 $6 $7 $8 $9 X,Y pos of 4 corners*
0 Add a 4 corners polygon primitive as box body*
4,1,4,$2,$3,$4,$5,$6,$7,$8,$9,$2,$3,0*
0 Add four circle primitives for the rounded corners*
1,1,$1+$1,$2,$3*
1,1,$1+$1,$4,$5*
1,1,$1+$1,$6,$7*
1,1,$1+$1,$8,$9*
0 Add four rect primitives between the rounded corners*
20,1,$1+$1,$2,$3,$4,$5,0*
20,1,$1+$1,$4,$5,$6,$7,0*
20,1,$1+$1,$6,$7,$8,$9,0*
20,1,$1+$1,$8,$9,$2,$3,0*%
%AMFreePoly0*
4,1,9,3.862500,-0.866500,0.737500,-0.866500,0.737500,-0.450000,-0.737500,-0.450000,-0.737500,0.450000,0.737500,0.450000,0.737500,0.866500,3.862500,0.866500,3.862500,-0.866500,3.862500,-0.866500,$1*%
%AMFreePoly1*
4,1,17,1.395000,0.765000,0.855000,0.765000,0.855000,0.535000,1.395000,0.535000,1.395000,0.115000,0.855000,0.115000,0.855000,-0.115000,1.395000,-0.115000,1.395000,-0.535000,0.855000,-0.535000,0.855000,-0.765000,1.395000,-0.765000,1.395000,-1.185000,-0.855000,-1.185000,-0.855000,1.185000,1.395000,1.185000,1.395000,0.765000,1.395000,0.765000,$1*%
G04 Aperture macros list end*
%ADD10RoundRect,0.200000X0.200000X0.275000X-0.200000X0.275000X-0.200000X-0.275000X0.200000X-0.275000X0*%
%ADD11RoundRect,0.225000X0.425000X0.225000X-0.425000X0.225000X-0.425000X-0.225000X0.425000X-0.225000X0*%
%ADD12FreePoly0,180.000000*%
%ADD13RoundRect,0.200000X0.275000X-0.200000X0.275000X0.200000X-0.275000X0.200000X-0.275000X-0.200000X0*%
%ADD14R,1.700000X1.700000*%
%ADD15C,1.700000*%
%ADD16RoundRect,0.250000X-0.250000X-0.475000X0.250000X-0.475000X0.250000X0.475000X-0.250000X0.475000X0*%
%ADD17RoundRect,0.250000X0.250000X0.475000X-0.250000X0.475000X-0.250000X-0.475000X0.250000X-0.475000X0*%
%ADD18RoundRect,0.200000X-0.200000X-0.275000X0.200000X-0.275000X0.200000X0.275000X-0.200000X0.275000X0*%
%ADD19RoundRect,0.225000X0.375000X-0.225000X0.375000X0.225000X-0.375000X0.225000X-0.375000X-0.225000X0*%
%ADD20RoundRect,0.250000X-0.262500X-0.450000X0.262500X-0.450000X0.262500X0.450000X-0.262500X0.450000X0*%
%ADD21R,2.540000X1.270000*%
%ADD22R,1.650000X3.430000*%
%ADD23RoundRect,0.200000X-0.275000X0.200000X-0.275000X-0.200000X0.275000X-0.200000X0.275000X0.200000X0*%
%ADD24RoundRect,0.250000X-0.325000X-1.100000X0.325000X-1.100000X0.325000X1.100000X-0.325000X1.100000X0*%
%ADD25RoundRect,0.250000X-0.900000X1.000000X-0.900000X-1.000000X0.900000X-1.000000X0.900000X1.000000X0*%
%ADD26R,1.270000X2.540000*%
%ADD27R,3.430000X1.650000*%
%ADD28RoundRect,0.150000X-0.875000X-0.150000X0.875000X-0.150000X0.875000X0.150000X-0.875000X0.150000X0*%
%ADD29RoundRect,0.250000X2.475000X-0.712500X2.475000X0.712500X-2.475000X0.712500X-2.475000X-0.712500X0*%
%ADD30RoundRect,0.150000X-0.512500X-0.150000X0.512500X-0.150000X0.512500X0.150000X-0.512500X0.150000X0*%
%ADD31RoundRect,0.105000X0.245000X0.105000X-0.245000X0.105000X-0.245000X-0.105000X0.245000X-0.105000X0*%
%ADD32FreePoly1,180.000000*%
%ADD33RoundRect,0.250000X0.475000X-0.250000X0.475000X0.250000X-0.475000X0.250000X-0.475000X-0.250000X0*%
%ADD34C,3.200000*%
%ADD35RoundRect,0.150000X0.150000X-0.587500X0.150000X0.587500X-0.150000X0.587500X-0.150000X-0.587500X0*%
%ADD36RoundRect,0.250000X-1.500000X-0.550000X1.500000X-0.550000X1.500000X0.550000X-1.500000X0.550000X0*%
G04 APERTURE END LIST*
D10*
%TO.C,R22*%
X58550000Y-75055000D03*
X56900000Y-75055000D03*
%TD*%
D11*
%TO.C,U1*%
X65187500Y-47950000D03*
D12*
X65100000Y-46450000D03*
D11*
X65187500Y-44950000D03*
%TD*%
D13*
%TO.C,R24*%
X77600000Y-58450000D03*
X77600000Y-56800000D03*
%TD*%
D14*
%TO.C,J2*%
X76050000Y-62455000D03*
D15*
X76050000Y-64995000D03*
X76050000Y-67535000D03*
%TD*%
D16*
%TO.C,C16*%
X86550000Y-78300000D03*
X88450000Y-78300000D03*
%TD*%
D17*
%TO.C,C6*%
X58650000Y-68555000D03*
X56750000Y-68555000D03*
%TD*%
D18*
%TO.C,R25*%
X79875000Y-59100000D03*
X81525000Y-59100000D03*
%TD*%
D16*
%TO.C,C4*%
X67387500Y-43987500D03*
X69287500Y-43987500D03*
%TD*%
D19*
%TO.C,D1*%
X62137500Y-54000000D03*
X62137500Y-50700000D03*
%TD*%
D13*
%TO.C,R9*%
X59800000Y-101050000D03*
X59800000Y-99400000D03*
%TD*%
D20*
%TO.C,R27*%
X93087500Y-90000000D03*
X94912500Y-90000000D03*
%TD*%
D21*
%TO.C,J4*%
X99650000Y-65225000D03*
X99650000Y-68225000D03*
X90250000Y-65225000D03*
X90250000Y-68225000D03*
D22*
X94950000Y-61340000D03*
X94950000Y-72110000D03*
%TD*%
D23*
%TO.C,R16*%
X65800000Y-99300000D03*
X65800000Y-100950000D03*
%TD*%
D24*
%TO.C,C15*%
X96525000Y-88500000D03*
X99475000Y-88500000D03*
%TD*%
D25*
%TO.C,D2*%
X54400000Y-55950000D03*
X54400000Y-60250000D03*
%TD*%
D18*
%TO.C,R3*%
X82325000Y-75825000D03*
X83975000Y-75825000D03*
%TD*%
%TO.C,R23*%
X56925000Y-73155000D03*
X58575000Y-73155000D03*
%TD*%
D26*
%TO.C,J1*%
X47911500Y-48611000D03*
X47911500Y-39211000D03*
D27*
X51796500Y-43911000D03*
X44026500Y-43911000D03*
%TD*%
D16*
%TO.C,C3*%
X67387500Y-46487500D03*
X69287500Y-46487500D03*
%TD*%
D18*
%TO.C,R13*%
X56950000Y-66455000D03*
X58600000Y-66455000D03*
%TD*%
D24*
%TO.C,C8*%
X99575000Y-77025000D03*
X102525000Y-77025000D03*
%TD*%
D28*
%TO.C,U2*%
X61850000Y-64785000D03*
X61850000Y-66055000D03*
X61850000Y-67325000D03*
X61850000Y-68595000D03*
X61850000Y-69865000D03*
X61850000Y-71135000D03*
X61850000Y-72405000D03*
X61850000Y-73675000D03*
X61850000Y-74945000D03*
X61850000Y-76215000D03*
X71150000Y-76215000D03*
X71150000Y-74945000D03*
X71150000Y-73675000D03*
X71150000Y-72405000D03*
X71150000Y-71135000D03*
X71150000Y-69865000D03*
X71150000Y-68595000D03*
X71150000Y-67325000D03*
X71150000Y-66055000D03*
X71150000Y-64785000D03*
%TD*%
D10*
%TO.C,R2*%
X58650000Y-64555000D03*
X57000000Y-64555000D03*
%TD*%
D13*
%TO.C,R8*%
X71800000Y-83800000D03*
X71800000Y-82150000D03*
%TD*%
D17*
%TO.C,C13*%
X58600000Y-70955000D03*
X56700000Y-70955000D03*
%TD*%
D16*
%TO.C,C9*%
X99600000Y-73725000D03*
X101500000Y-73725000D03*
%TD*%
D13*
%TO.C,R6*%
X65800000Y-83825000D03*
X65800000Y-82175000D03*
%TD*%
D29*
%TO.C,F1*%
X47900000Y-58887500D03*
X47900000Y-52112500D03*
%TD*%
D30*
%TO.C,U4*%
X83862500Y-80050000D03*
X83862500Y-81000000D03*
X83862500Y-81950000D03*
X86137500Y-81950000D03*
X86137500Y-80050000D03*
%TD*%
D23*
%TO.C,R4*%
X82350000Y-71800000D03*
X82350000Y-73450000D03*
%TD*%
D31*
%TO.C,Q1*%
X56320000Y-52440000D03*
X56320000Y-51790000D03*
X56320000Y-51140000D03*
X56320000Y-50490000D03*
D32*
X54365000Y-51465000D03*
%TD*%
D10*
%TO.C,R1*%
X66225000Y-50700000D03*
X64575000Y-50700000D03*
%TD*%
D18*
%TO.C,R26*%
X88175000Y-81950000D03*
X89825000Y-81950000D03*
%TD*%
D13*
%TO.C,R10*%
X59800000Y-83800000D03*
X59800000Y-82150000D03*
%TD*%
D24*
%TO.C,C14*%
X97525000Y-82000000D03*
X100475000Y-82000000D03*
%TD*%
D33*
%TO.C,C5*%
X61850000Y-62505000D03*
X61850000Y-60605000D03*
%TD*%
D26*
%TO.C,J3*%
X47900000Y-62700000D03*
X47900000Y-72100000D03*
D27*
X44015000Y-67400000D03*
X51785000Y-67400000D03*
%TD*%
D23*
%TO.C,R17*%
X71800000Y-99400000D03*
X71800000Y-101050000D03*
%TD*%
D34*
%TO.C,MH2*%
X107900000Y-38500000D03*
%TD*%
D13*
%TO.C,R12*%
X85450000Y-68350000D03*
X85450000Y-66700000D03*
%TD*%
D34*
%TO.C,MH4*%
X39900000Y-101500000D03*
%TD*%
D35*
%TO.C,Q4*%
X79850000Y-56837500D03*
X81750000Y-56837500D03*
X80800000Y-54962500D03*
%TD*%
D26*
%TO.C,J5*%
X59800000Y-86700000D03*
X62800000Y-86700000D03*
X65800000Y-86700000D03*
X68800000Y-86700000D03*
X71800000Y-86700000D03*
X59800000Y-96100000D03*
X62800000Y-96100000D03*
X65800000Y-96100000D03*
X68800000Y-96100000D03*
X71800000Y-96100000D03*
D27*
X55915000Y-91400000D03*
X75685000Y-91400000D03*
%TD*%
D34*
%TO.C,MH3*%
X107900000Y-101500000D03*
%TD*%
D13*
%TO.C,R11*%
X62800000Y-83725000D03*
X62800000Y-82075000D03*
%TD*%
D36*
%TO.C,C1*%
X68600000Y-54100000D03*
X74000000Y-54100000D03*
%TD*%
D30*
%TO.C,U3*%
X92862500Y-84050000D03*
X92862500Y-85000000D03*
X92862500Y-85950000D03*
X95137500Y-85950000D03*
X95137500Y-84050000D03*
%TD*%
D33*
%TO.C,C2*%
X59037500Y-46750000D03*
X59037500Y-44850000D03*
%TD*%
D34*
%TO.C,MH1*%
X39900000Y-38500000D03*
%TD*%
D33*
%TO.C,C7*%
X82750000Y-68375000D03*
X82750000Y-66475000D03*
%TD*%
D13*
%TO.C,R14*%
X62800000Y-101050000D03*
X62800000Y-99400000D03*
%TD*%
%TO.C,R5*%
X85450000Y-65350000D03*
X85450000Y-63700000D03*
%TD*%
D26*
%TO.C,J8*%
X95300000Y-45500000D03*
X95300000Y-54900000D03*
D27*
X91415000Y-50200000D03*
X99185000Y-50200000D03*
%TD*%
D26*
%TO.C,J7*%
X47900000Y-81800000D03*
X47900000Y-91200000D03*
D27*
X44015000Y-86500000D03*
X51785000Y-86500000D03*
%TD*%
M02*
