M48
; DRILL file KiCad 10.0.5 date 2026-09-07T16:00:58
; FORMAT={-:-/ absolute / metric / decimal}
; #@! TF.CreationDate,2026-09-07T16:00:58+03:00
; #@! TF.GenerationSoftware,Kicad,Pcbnew,10.0.5
; #@! TF.FileFunction,Plated,1,2,PTH
FMAT,2
METRIC
; #@! TA.AperFunction,Plated,PTH,ViaDrill
T1C0.400
; #@! TA.AperFunction,Plated,PTH,ComponentDrill
T2C1.000
%
G90
G05
T1
X50.0Y-72.1
X50.6Y-39.2
X51.3Y-91.2
X51.85Y-60.45
X54.3Y-69.7
X56.75Y-44.85
X57.8Y-50.5
X58.811Y-77.089
X59.7Y-67.4
X60.5Y-50.8
X63.95Y-71.1
X63.95Y-72.4
X64.0Y-60.6
X64.7Y-75.3
X65.2Y-49.5
X65.8Y-80.825
X66.4Y-76.5
X66.4Y-79.325
X67.4Y-68.6
X67.4Y-76.4
X67.4Y-79.325
X67.5Y-69.8
X68.15Y-61.605
X68.15Y-63.305
X68.9Y-68.6
X69.6Y-79.325
X69.8Y-67.3
X71.0Y-45.2
X73.3Y-66.1
X73.4Y-63.7
X74.677Y-81.523
X74.7Y-72.4
X75.5Y-82.4
X76.25Y-84.2
X77.2Y-54.1
X80.7Y-66.5
X83.6Y-58.0
X86.2Y-75.8
X99.65Y-63.25
X103.2Y-74.1
T2
X76.05Y-62.455
X76.05Y-64.995
X76.05Y-67.535
M30
